%TF.GenerationSoftware,KiCad,Pcbnew,9.0.5*%
%TF.CreationDate,2026-05-07T21:25:48+02:00*%
%TF.ProjectId,Adrion_1,41647269-6f6e-45f3-912e-6b696361645f,rev?*%
%TF.SameCoordinates,Original*%
%TF.FileFunction,Legend,Bot*%
%TF.FilePolarity,Positive*%
%FSLAX46Y46*%
G04 Gerber Fmt 4.6, Leading zero omitted, Abs format (unit mm)*
G04 Created by KiCad (PCBNEW 9.0.5) date 2026-05-07 21:25:48*
%MOMM*%
%LPD*%
G01*
G04 APERTURE LIST*
G04 Aperture macros list*
%AMRoundRect*
0 Rectangle with rounded corners*
0 $1 Rounding radius*
0 $2 $3 $4 $5 $6 $7 $8 $9 X,Y pos of 4 corners*
0 Add a 4 corners polygon primitive as box body*
4,1,4,$2,$3,$4,$5,$6,$7,$8,$9,$2,$3,0*
0 Add four circle primitives for the rounded corners*
1,1,$1+$1,$2,$3*
1,1,$1+$1,$4,$5*
1,1,$1+$1,$6,$7*
1,1,$1+$1,$8,$9*
0 Add four rect primitives between the rounded corners*
20,1,$1+$1,$2,$3,$4,$5,0*
20,1,$1+$1,$4,$5,$6,$7,0*
20,1,$1+$1,$6,$7,$8,$9,0*
20,1,$1+$1,$8,$9,$2,$3,0*%
G04 Aperture macros list end*
%ADD10C,0.300000*%
%ADD11C,0.254000*%
%ADD12C,0.150000*%
%ADD13C,0.100000*%
%ADD14C,0.200000*%
%ADD15C,0.120000*%
%ADD16R,2.200000X3.550000*%
%ADD17R,2.200000X4.800000*%
%ADD18C,6.400000*%
%ADD19C,3.000000*%
%ADD20R,3.000000X3.000000*%
%ADD21C,2.400000*%
%ADD22C,1.875000*%
%ADD23R,1.875000X1.875000*%
%ADD24O,2.300000X1.300000*%
%ADD25O,1.900000X2.540000*%
%ADD26RoundRect,0.250000X-0.650000X0.412500X-0.650000X-0.412500X0.650000X-0.412500X0.650000X0.412500X0*%
%ADD27C,1.950000*%
%ADD28R,1.950000X1.950000*%
%ADD29RoundRect,0.250000X-0.625000X0.400000X-0.625000X-0.400000X0.625000X-0.400000X0.625000X0.400000X0*%
%ADD30R,1.300000X4.500000*%
%ADD31RoundRect,0.102000X-1.000000X1.000000X-1.000000X-1.000000X1.000000X-1.000000X1.000000X1.000000X0*%
%ADD32C,2.204000*%
%ADD33RoundRect,0.102000X-0.694000X0.694000X-0.694000X-0.694000X0.694000X-0.694000X0.694000X0.694000X0*%
%ADD34C,1.592000*%
G04 APERTURE END LIST*
D10*
X119144575Y-101159171D02*
X119144575Y-99859171D01*
X119144575Y-99859171D02*
X118649337Y-99859171D01*
X118649337Y-99859171D02*
X118525527Y-99921076D01*
X118525527Y-99921076D02*
X118463622Y-99982981D01*
X118463622Y-99982981D02*
X118401718Y-100106790D01*
X118401718Y-100106790D02*
X118401718Y-100292505D01*
X118401718Y-100292505D02*
X118463622Y-100416314D01*
X118463622Y-100416314D02*
X118525527Y-100478219D01*
X118525527Y-100478219D02*
X118649337Y-100540124D01*
X118649337Y-100540124D02*
X119144575Y-100540124D01*
X117906479Y-101097267D02*
X117720765Y-101159171D01*
X117720765Y-101159171D02*
X117411241Y-101159171D01*
X117411241Y-101159171D02*
X117287432Y-101097267D01*
X117287432Y-101097267D02*
X117225527Y-101035362D01*
X117225527Y-101035362D02*
X117163622Y-100911552D01*
X117163622Y-100911552D02*
X117163622Y-100787743D01*
X117163622Y-100787743D02*
X117225527Y-100663933D01*
X117225527Y-100663933D02*
X117287432Y-100602028D01*
X117287432Y-100602028D02*
X117411241Y-100540124D01*
X117411241Y-100540124D02*
X117658860Y-100478219D01*
X117658860Y-100478219D02*
X117782670Y-100416314D01*
X117782670Y-100416314D02*
X117844575Y-100354409D01*
X117844575Y-100354409D02*
X117906479Y-100230600D01*
X117906479Y-100230600D02*
X117906479Y-100106790D01*
X117906479Y-100106790D02*
X117844575Y-99982981D01*
X117844575Y-99982981D02*
X117782670Y-99921076D01*
X117782670Y-99921076D02*
X117658860Y-99859171D01*
X117658860Y-99859171D02*
X117349337Y-99859171D01*
X117349337Y-99859171D02*
X117163622Y-99921076D01*
X116668384Y-99982981D02*
X116606480Y-99921076D01*
X116606480Y-99921076D02*
X116482670Y-99859171D01*
X116482670Y-99859171D02*
X116173146Y-99859171D01*
X116173146Y-99859171D02*
X116049337Y-99921076D01*
X116049337Y-99921076D02*
X115987432Y-99982981D01*
X115987432Y-99982981D02*
X115925527Y-100106790D01*
X115925527Y-100106790D02*
X115925527Y-100230600D01*
X115925527Y-100230600D02*
X115987432Y-100416314D01*
X115987432Y-100416314D02*
X116730289Y-101159171D01*
X116730289Y-101159171D02*
X115925527Y-101159171D01*
D11*
X117892143Y-131274318D02*
X117892143Y-130004318D01*
X117892143Y-130004318D02*
X117408333Y-130004318D01*
X117408333Y-130004318D02*
X117287381Y-130064794D01*
X117287381Y-130064794D02*
X117226904Y-130125270D01*
X117226904Y-130125270D02*
X117166428Y-130246222D01*
X117166428Y-130246222D02*
X117166428Y-130427651D01*
X117166428Y-130427651D02*
X117226904Y-130548603D01*
X117226904Y-130548603D02*
X117287381Y-130609080D01*
X117287381Y-130609080D02*
X117408333Y-130669556D01*
X117408333Y-130669556D02*
X117892143Y-130669556D01*
X116682619Y-131213842D02*
X116501190Y-131274318D01*
X116501190Y-131274318D02*
X116198809Y-131274318D01*
X116198809Y-131274318D02*
X116077857Y-131213842D01*
X116077857Y-131213842D02*
X116017381Y-131153365D01*
X116017381Y-131153365D02*
X115956904Y-131032413D01*
X115956904Y-131032413D02*
X115956904Y-130911461D01*
X115956904Y-130911461D02*
X116017381Y-130790508D01*
X116017381Y-130790508D02*
X116077857Y-130730032D01*
X116077857Y-130730032D02*
X116198809Y-130669556D01*
X116198809Y-130669556D02*
X116440714Y-130609080D01*
X116440714Y-130609080D02*
X116561666Y-130548603D01*
X116561666Y-130548603D02*
X116622143Y-130488127D01*
X116622143Y-130488127D02*
X116682619Y-130367175D01*
X116682619Y-130367175D02*
X116682619Y-130246222D01*
X116682619Y-130246222D02*
X116622143Y-130125270D01*
X116622143Y-130125270D02*
X116561666Y-130064794D01*
X116561666Y-130064794D02*
X116440714Y-130004318D01*
X116440714Y-130004318D02*
X116138333Y-130004318D01*
X116138333Y-130004318D02*
X115956904Y-130064794D01*
X114868333Y-130427651D02*
X114868333Y-131274318D01*
X115170714Y-129943842D02*
X115473095Y-130850984D01*
X115473095Y-130850984D02*
X114686904Y-130850984D01*
X121502143Y-81344318D02*
X121502143Y-80074318D01*
X121502143Y-80074318D02*
X121018333Y-80074318D01*
X121018333Y-80074318D02*
X120897381Y-80134794D01*
X120897381Y-80134794D02*
X120836904Y-80195270D01*
X120836904Y-80195270D02*
X120776428Y-80316222D01*
X120776428Y-80316222D02*
X120776428Y-80497651D01*
X120776428Y-80497651D02*
X120836904Y-80618603D01*
X120836904Y-80618603D02*
X120897381Y-80679080D01*
X120897381Y-80679080D02*
X121018333Y-80739556D01*
X121018333Y-80739556D02*
X121502143Y-80739556D01*
X120292619Y-81283842D02*
X120111190Y-81344318D01*
X120111190Y-81344318D02*
X119808809Y-81344318D01*
X119808809Y-81344318D02*
X119687857Y-81283842D01*
X119687857Y-81283842D02*
X119627381Y-81223365D01*
X119627381Y-81223365D02*
X119566904Y-81102413D01*
X119566904Y-81102413D02*
X119566904Y-80981461D01*
X119566904Y-80981461D02*
X119627381Y-80860508D01*
X119627381Y-80860508D02*
X119687857Y-80800032D01*
X119687857Y-80800032D02*
X119808809Y-80739556D01*
X119808809Y-80739556D02*
X120050714Y-80679080D01*
X120050714Y-80679080D02*
X120171666Y-80618603D01*
X120171666Y-80618603D02*
X120232143Y-80558127D01*
X120232143Y-80558127D02*
X120292619Y-80437175D01*
X120292619Y-80437175D02*
X120292619Y-80316222D01*
X120292619Y-80316222D02*
X120232143Y-80195270D01*
X120232143Y-80195270D02*
X120171666Y-80134794D01*
X120171666Y-80134794D02*
X120050714Y-80074318D01*
X120050714Y-80074318D02*
X119748333Y-80074318D01*
X119748333Y-80074318D02*
X119566904Y-80134794D01*
X119143571Y-80074318D02*
X118357380Y-80074318D01*
X118357380Y-80074318D02*
X118780714Y-80558127D01*
X118780714Y-80558127D02*
X118599285Y-80558127D01*
X118599285Y-80558127D02*
X118478333Y-80618603D01*
X118478333Y-80618603D02*
X118417857Y-80679080D01*
X118417857Y-80679080D02*
X118357380Y-80800032D01*
X118357380Y-80800032D02*
X118357380Y-81102413D01*
X118357380Y-81102413D02*
X118417857Y-81223365D01*
X118417857Y-81223365D02*
X118478333Y-81283842D01*
X118478333Y-81283842D02*
X118599285Y-81344318D01*
X118599285Y-81344318D02*
X118962142Y-81344318D01*
X118962142Y-81344318D02*
X119083095Y-81283842D01*
X119083095Y-81283842D02*
X119143571Y-81223365D01*
X210537927Y-88082899D02*
X210598404Y-88022423D01*
X210598404Y-88022423D02*
X210658880Y-87840994D01*
X210658880Y-87840994D02*
X210658880Y-87720042D01*
X210658880Y-87720042D02*
X210598404Y-87538613D01*
X210598404Y-87538613D02*
X210477451Y-87417661D01*
X210477451Y-87417661D02*
X210356499Y-87357184D01*
X210356499Y-87357184D02*
X210114594Y-87296708D01*
X210114594Y-87296708D02*
X209933165Y-87296708D01*
X209933165Y-87296708D02*
X209691261Y-87357184D01*
X209691261Y-87357184D02*
X209570308Y-87417661D01*
X209570308Y-87417661D02*
X209449356Y-87538613D01*
X209449356Y-87538613D02*
X209388880Y-87720042D01*
X209388880Y-87720042D02*
X209388880Y-87840994D01*
X209388880Y-87840994D02*
X209449356Y-88022423D01*
X209449356Y-88022423D02*
X209509832Y-88082899D01*
X209509832Y-88566708D02*
X209449356Y-88627184D01*
X209449356Y-88627184D02*
X209388880Y-88748137D01*
X209388880Y-88748137D02*
X209388880Y-89050518D01*
X209388880Y-89050518D02*
X209449356Y-89171470D01*
X209449356Y-89171470D02*
X209509832Y-89231946D01*
X209509832Y-89231946D02*
X209630784Y-89292423D01*
X209630784Y-89292423D02*
X209751737Y-89292423D01*
X209751737Y-89292423D02*
X209933165Y-89231946D01*
X209933165Y-89231946D02*
X210658880Y-88506232D01*
X210658880Y-88506232D02*
X210658880Y-89292423D01*
X209933165Y-90018137D02*
X209872689Y-89897185D01*
X209872689Y-89897185D02*
X209812213Y-89836708D01*
X209812213Y-89836708D02*
X209691261Y-89776232D01*
X209691261Y-89776232D02*
X209630784Y-89776232D01*
X209630784Y-89776232D02*
X209509832Y-89836708D01*
X209509832Y-89836708D02*
X209449356Y-89897185D01*
X209449356Y-89897185D02*
X209388880Y-90018137D01*
X209388880Y-90018137D02*
X209388880Y-90260042D01*
X209388880Y-90260042D02*
X209449356Y-90380994D01*
X209449356Y-90380994D02*
X209509832Y-90441470D01*
X209509832Y-90441470D02*
X209630784Y-90501947D01*
X209630784Y-90501947D02*
X209691261Y-90501947D01*
X209691261Y-90501947D02*
X209812213Y-90441470D01*
X209812213Y-90441470D02*
X209872689Y-90380994D01*
X209872689Y-90380994D02*
X209933165Y-90260042D01*
X209933165Y-90260042D02*
X209933165Y-90018137D01*
X209933165Y-90018137D02*
X209993642Y-89897185D01*
X209993642Y-89897185D02*
X210054118Y-89836708D01*
X210054118Y-89836708D02*
X210175070Y-89776232D01*
X210175070Y-89776232D02*
X210416975Y-89776232D01*
X210416975Y-89776232D02*
X210537927Y-89836708D01*
X210537927Y-89836708D02*
X210598404Y-89897185D01*
X210598404Y-89897185D02*
X210658880Y-90018137D01*
X210658880Y-90018137D02*
X210658880Y-90260042D01*
X210658880Y-90260042D02*
X210598404Y-90380994D01*
X210598404Y-90380994D02*
X210537927Y-90441470D01*
X210537927Y-90441470D02*
X210416975Y-90501947D01*
X210416975Y-90501947D02*
X210175070Y-90501947D01*
X210175070Y-90501947D02*
X210054118Y-90441470D01*
X210054118Y-90441470D02*
X209993642Y-90380994D01*
X209993642Y-90380994D02*
X209933165Y-90260042D01*
X210687927Y-116107899D02*
X210748404Y-116047423D01*
X210748404Y-116047423D02*
X210808880Y-115865994D01*
X210808880Y-115865994D02*
X210808880Y-115745042D01*
X210808880Y-115745042D02*
X210748404Y-115563613D01*
X210748404Y-115563613D02*
X210627451Y-115442661D01*
X210627451Y-115442661D02*
X210506499Y-115382184D01*
X210506499Y-115382184D02*
X210264594Y-115321708D01*
X210264594Y-115321708D02*
X210083165Y-115321708D01*
X210083165Y-115321708D02*
X209841261Y-115382184D01*
X209841261Y-115382184D02*
X209720308Y-115442661D01*
X209720308Y-115442661D02*
X209599356Y-115563613D01*
X209599356Y-115563613D02*
X209538880Y-115745042D01*
X209538880Y-115745042D02*
X209538880Y-115865994D01*
X209538880Y-115865994D02*
X209599356Y-116047423D01*
X209599356Y-116047423D02*
X209659832Y-116107899D01*
X209538880Y-116531232D02*
X209538880Y-117317423D01*
X209538880Y-117317423D02*
X210022689Y-116894089D01*
X210022689Y-116894089D02*
X210022689Y-117075518D01*
X210022689Y-117075518D02*
X210083165Y-117196470D01*
X210083165Y-117196470D02*
X210143642Y-117256946D01*
X210143642Y-117256946D02*
X210264594Y-117317423D01*
X210264594Y-117317423D02*
X210566975Y-117317423D01*
X210566975Y-117317423D02*
X210687927Y-117256946D01*
X210687927Y-117256946D02*
X210748404Y-117196470D01*
X210748404Y-117196470D02*
X210808880Y-117075518D01*
X210808880Y-117075518D02*
X210808880Y-116712661D01*
X210808880Y-116712661D02*
X210748404Y-116591708D01*
X210748404Y-116591708D02*
X210687927Y-116531232D01*
X209659832Y-117801232D02*
X209599356Y-117861708D01*
X209599356Y-117861708D02*
X209538880Y-117982661D01*
X209538880Y-117982661D02*
X209538880Y-118285042D01*
X209538880Y-118285042D02*
X209599356Y-118405994D01*
X209599356Y-118405994D02*
X209659832Y-118466470D01*
X209659832Y-118466470D02*
X209780784Y-118526947D01*
X209780784Y-118526947D02*
X209901737Y-118526947D01*
X209901737Y-118526947D02*
X210083165Y-118466470D01*
X210083165Y-118466470D02*
X210808880Y-117740756D01*
X210808880Y-117740756D02*
X210808880Y-118526947D01*
X179937927Y-59907899D02*
X179998404Y-59847423D01*
X179998404Y-59847423D02*
X180058880Y-59665994D01*
X180058880Y-59665994D02*
X180058880Y-59545042D01*
X180058880Y-59545042D02*
X179998404Y-59363613D01*
X179998404Y-59363613D02*
X179877451Y-59242661D01*
X179877451Y-59242661D02*
X179756499Y-59182184D01*
X179756499Y-59182184D02*
X179514594Y-59121708D01*
X179514594Y-59121708D02*
X179333165Y-59121708D01*
X179333165Y-59121708D02*
X179091261Y-59182184D01*
X179091261Y-59182184D02*
X178970308Y-59242661D01*
X178970308Y-59242661D02*
X178849356Y-59363613D01*
X178849356Y-59363613D02*
X178788880Y-59545042D01*
X178788880Y-59545042D02*
X178788880Y-59665994D01*
X178788880Y-59665994D02*
X178849356Y-59847423D01*
X178849356Y-59847423D02*
X178909832Y-59907899D01*
X178788880Y-60331232D02*
X178788880Y-61117423D01*
X178788880Y-61117423D02*
X179272689Y-60694089D01*
X179272689Y-60694089D02*
X179272689Y-60875518D01*
X179272689Y-60875518D02*
X179333165Y-60996470D01*
X179333165Y-60996470D02*
X179393642Y-61056946D01*
X179393642Y-61056946D02*
X179514594Y-61117423D01*
X179514594Y-61117423D02*
X179816975Y-61117423D01*
X179816975Y-61117423D02*
X179937927Y-61056946D01*
X179937927Y-61056946D02*
X179998404Y-60996470D01*
X179998404Y-60996470D02*
X180058880Y-60875518D01*
X180058880Y-60875518D02*
X180058880Y-60512661D01*
X180058880Y-60512661D02*
X179998404Y-60391708D01*
X179998404Y-60391708D02*
X179937927Y-60331232D01*
X178788880Y-61903613D02*
X178788880Y-62024566D01*
X178788880Y-62024566D02*
X178849356Y-62145518D01*
X178849356Y-62145518D02*
X178909832Y-62205994D01*
X178909832Y-62205994D02*
X179030784Y-62266470D01*
X179030784Y-62266470D02*
X179272689Y-62326947D01*
X179272689Y-62326947D02*
X179575070Y-62326947D01*
X179575070Y-62326947D02*
X179816975Y-62266470D01*
X179816975Y-62266470D02*
X179937927Y-62205994D01*
X179937927Y-62205994D02*
X179998404Y-62145518D01*
X179998404Y-62145518D02*
X180058880Y-62024566D01*
X180058880Y-62024566D02*
X180058880Y-61903613D01*
X180058880Y-61903613D02*
X179998404Y-61782661D01*
X179998404Y-61782661D02*
X179937927Y-61722185D01*
X179937927Y-61722185D02*
X179816975Y-61661708D01*
X179816975Y-61661708D02*
X179575070Y-61601232D01*
X179575070Y-61601232D02*
X179272689Y-61601232D01*
X179272689Y-61601232D02*
X179030784Y-61661708D01*
X179030784Y-61661708D02*
X178909832Y-61722185D01*
X178909832Y-61722185D02*
X178849356Y-61782661D01*
X178849356Y-61782661D02*
X178788880Y-61903613D01*
X189887927Y-148507899D02*
X189948404Y-148447423D01*
X189948404Y-148447423D02*
X190008880Y-148265994D01*
X190008880Y-148265994D02*
X190008880Y-148145042D01*
X190008880Y-148145042D02*
X189948404Y-147963613D01*
X189948404Y-147963613D02*
X189827451Y-147842661D01*
X189827451Y-147842661D02*
X189706499Y-147782184D01*
X189706499Y-147782184D02*
X189464594Y-147721708D01*
X189464594Y-147721708D02*
X189283165Y-147721708D01*
X189283165Y-147721708D02*
X189041261Y-147782184D01*
X189041261Y-147782184D02*
X188920308Y-147842661D01*
X188920308Y-147842661D02*
X188799356Y-147963613D01*
X188799356Y-147963613D02*
X188738880Y-148145042D01*
X188738880Y-148145042D02*
X188738880Y-148265994D01*
X188738880Y-148265994D02*
X188799356Y-148447423D01*
X188799356Y-148447423D02*
X188859832Y-148507899D01*
X188738880Y-149596470D02*
X188738880Y-149354565D01*
X188738880Y-149354565D02*
X188799356Y-149233613D01*
X188799356Y-149233613D02*
X188859832Y-149173137D01*
X188859832Y-149173137D02*
X189041261Y-149052184D01*
X189041261Y-149052184D02*
X189283165Y-148991708D01*
X189283165Y-148991708D02*
X189766975Y-148991708D01*
X189766975Y-148991708D02*
X189887927Y-149052184D01*
X189887927Y-149052184D02*
X189948404Y-149112661D01*
X189948404Y-149112661D02*
X190008880Y-149233613D01*
X190008880Y-149233613D02*
X190008880Y-149475518D01*
X190008880Y-149475518D02*
X189948404Y-149596470D01*
X189948404Y-149596470D02*
X189887927Y-149656946D01*
X189887927Y-149656946D02*
X189766975Y-149717423D01*
X189766975Y-149717423D02*
X189464594Y-149717423D01*
X189464594Y-149717423D02*
X189343642Y-149656946D01*
X189343642Y-149656946D02*
X189283165Y-149596470D01*
X189283165Y-149596470D02*
X189222689Y-149475518D01*
X189222689Y-149475518D02*
X189222689Y-149233613D01*
X189222689Y-149233613D02*
X189283165Y-149112661D01*
X189283165Y-149112661D02*
X189343642Y-149052184D01*
X189343642Y-149052184D02*
X189464594Y-148991708D01*
X188738880Y-150503613D02*
X188738880Y-150624566D01*
X188738880Y-150624566D02*
X188799356Y-150745518D01*
X188799356Y-150745518D02*
X188859832Y-150805994D01*
X188859832Y-150805994D02*
X188980784Y-150866470D01*
X188980784Y-150866470D02*
X189222689Y-150926947D01*
X189222689Y-150926947D02*
X189525070Y-150926947D01*
X189525070Y-150926947D02*
X189766975Y-150866470D01*
X189766975Y-150866470D02*
X189887927Y-150805994D01*
X189887927Y-150805994D02*
X189948404Y-150745518D01*
X189948404Y-150745518D02*
X190008880Y-150624566D01*
X190008880Y-150624566D02*
X190008880Y-150503613D01*
X190008880Y-150503613D02*
X189948404Y-150382661D01*
X189948404Y-150382661D02*
X189887927Y-150322185D01*
X189887927Y-150322185D02*
X189766975Y-150261708D01*
X189766975Y-150261708D02*
X189525070Y-150201232D01*
X189525070Y-150201232D02*
X189222689Y-150201232D01*
X189222689Y-150201232D02*
X188980784Y-150261708D01*
X188980784Y-150261708D02*
X188859832Y-150322185D01*
X188859832Y-150322185D02*
X188799356Y-150382661D01*
X188799356Y-150382661D02*
X188738880Y-150503613D01*
D12*
X148461047Y-63291009D02*
X148508667Y-63243390D01*
X148508667Y-63243390D02*
X148556286Y-63100533D01*
X148556286Y-63100533D02*
X148556286Y-63005295D01*
X148556286Y-63005295D02*
X148508667Y-62862438D01*
X148508667Y-62862438D02*
X148413428Y-62767200D01*
X148413428Y-62767200D02*
X148318190Y-62719581D01*
X148318190Y-62719581D02*
X148127714Y-62671962D01*
X148127714Y-62671962D02*
X147984857Y-62671962D01*
X147984857Y-62671962D02*
X147794381Y-62719581D01*
X147794381Y-62719581D02*
X147699143Y-62767200D01*
X147699143Y-62767200D02*
X147603905Y-62862438D01*
X147603905Y-62862438D02*
X147556286Y-63005295D01*
X147556286Y-63005295D02*
X147556286Y-63100533D01*
X147556286Y-63100533D02*
X147603905Y-63243390D01*
X147603905Y-63243390D02*
X147651524Y-63291009D01*
X147889619Y-64148152D02*
X148556286Y-64148152D01*
X147508667Y-63910057D02*
X148222952Y-63671962D01*
X148222952Y-63671962D02*
X148222952Y-64291009D01*
X147556286Y-65100533D02*
X147556286Y-64910057D01*
X147556286Y-64910057D02*
X147603905Y-64814819D01*
X147603905Y-64814819D02*
X147651524Y-64767200D01*
X147651524Y-64767200D02*
X147794381Y-64671962D01*
X147794381Y-64671962D02*
X147984857Y-64624343D01*
X147984857Y-64624343D02*
X148365809Y-64624343D01*
X148365809Y-64624343D02*
X148461047Y-64671962D01*
X148461047Y-64671962D02*
X148508667Y-64719581D01*
X148508667Y-64719581D02*
X148556286Y-64814819D01*
X148556286Y-64814819D02*
X148556286Y-65005295D01*
X148556286Y-65005295D02*
X148508667Y-65100533D01*
X148508667Y-65100533D02*
X148461047Y-65148152D01*
X148461047Y-65148152D02*
X148365809Y-65195771D01*
X148365809Y-65195771D02*
X148127714Y-65195771D01*
X148127714Y-65195771D02*
X148032476Y-65148152D01*
X148032476Y-65148152D02*
X147984857Y-65100533D01*
X147984857Y-65100533D02*
X147937238Y-65005295D01*
X147937238Y-65005295D02*
X147937238Y-64814819D01*
X147937238Y-64814819D02*
X147984857Y-64719581D01*
X147984857Y-64719581D02*
X148032476Y-64671962D01*
X148032476Y-64671962D02*
X148127714Y-64624343D01*
X148204381Y-133951470D02*
X147728190Y-133618137D01*
X148204381Y-133380042D02*
X147204381Y-133380042D01*
X147204381Y-133380042D02*
X147204381Y-133760994D01*
X147204381Y-133760994D02*
X147252000Y-133856232D01*
X147252000Y-133856232D02*
X147299619Y-133903851D01*
X147299619Y-133903851D02*
X147394857Y-133951470D01*
X147394857Y-133951470D02*
X147537714Y-133951470D01*
X147537714Y-133951470D02*
X147632952Y-133903851D01*
X147632952Y-133903851D02*
X147680571Y-133856232D01*
X147680571Y-133856232D02*
X147728190Y-133760994D01*
X147728190Y-133760994D02*
X147728190Y-133380042D01*
X147299619Y-134332423D02*
X147252000Y-134380042D01*
X147252000Y-134380042D02*
X147204381Y-134475280D01*
X147204381Y-134475280D02*
X147204381Y-134713375D01*
X147204381Y-134713375D02*
X147252000Y-134808613D01*
X147252000Y-134808613D02*
X147299619Y-134856232D01*
X147299619Y-134856232D02*
X147394857Y-134903851D01*
X147394857Y-134903851D02*
X147490095Y-134903851D01*
X147490095Y-134903851D02*
X147632952Y-134856232D01*
X147632952Y-134856232D02*
X148204381Y-134284804D01*
X148204381Y-134284804D02*
X148204381Y-134903851D01*
X147537714Y-135760994D02*
X148204381Y-135760994D01*
X147156762Y-135522899D02*
X147871047Y-135284804D01*
X147871047Y-135284804D02*
X147871047Y-135903851D01*
D11*
X140092895Y-116362232D02*
X140153371Y-116422709D01*
X140153371Y-116422709D02*
X140334800Y-116483185D01*
X140334800Y-116483185D02*
X140455752Y-116483185D01*
X140455752Y-116483185D02*
X140637181Y-116422709D01*
X140637181Y-116422709D02*
X140758133Y-116301756D01*
X140758133Y-116301756D02*
X140818610Y-116180804D01*
X140818610Y-116180804D02*
X140879086Y-115938899D01*
X140879086Y-115938899D02*
X140879086Y-115757470D01*
X140879086Y-115757470D02*
X140818610Y-115515566D01*
X140818610Y-115515566D02*
X140758133Y-115394613D01*
X140758133Y-115394613D02*
X140637181Y-115273661D01*
X140637181Y-115273661D02*
X140455752Y-115213185D01*
X140455752Y-115213185D02*
X140334800Y-115213185D01*
X140334800Y-115213185D02*
X140153371Y-115273661D01*
X140153371Y-115273661D02*
X140092895Y-115334137D01*
X138943848Y-115213185D02*
X139548610Y-115213185D01*
X139548610Y-115213185D02*
X139609086Y-115817947D01*
X139609086Y-115817947D02*
X139548610Y-115757470D01*
X139548610Y-115757470D02*
X139427657Y-115696994D01*
X139427657Y-115696994D02*
X139125276Y-115696994D01*
X139125276Y-115696994D02*
X139004324Y-115757470D01*
X139004324Y-115757470D02*
X138943848Y-115817947D01*
X138943848Y-115817947D02*
X138883371Y-115938899D01*
X138883371Y-115938899D02*
X138883371Y-116241280D01*
X138883371Y-116241280D02*
X138943848Y-116362232D01*
X138943848Y-116362232D02*
X139004324Y-116422709D01*
X139004324Y-116422709D02*
X139125276Y-116483185D01*
X139125276Y-116483185D02*
X139427657Y-116483185D01*
X139427657Y-116483185D02*
X139548610Y-116422709D01*
X139548610Y-116422709D02*
X139609086Y-116362232D01*
X138278609Y-116483185D02*
X138036705Y-116483185D01*
X138036705Y-116483185D02*
X137915752Y-116422709D01*
X137915752Y-116422709D02*
X137855276Y-116362232D01*
X137855276Y-116362232D02*
X137734324Y-116180804D01*
X137734324Y-116180804D02*
X137673847Y-115938899D01*
X137673847Y-115938899D02*
X137673847Y-115455089D01*
X137673847Y-115455089D02*
X137734324Y-115334137D01*
X137734324Y-115334137D02*
X137794800Y-115273661D01*
X137794800Y-115273661D02*
X137915752Y-115213185D01*
X137915752Y-115213185D02*
X138157657Y-115213185D01*
X138157657Y-115213185D02*
X138278609Y-115273661D01*
X138278609Y-115273661D02*
X138339086Y-115334137D01*
X138339086Y-115334137D02*
X138399562Y-115455089D01*
X138399562Y-115455089D02*
X138399562Y-115757470D01*
X138399562Y-115757470D02*
X138339086Y-115878423D01*
X138339086Y-115878423D02*
X138278609Y-115938899D01*
X138278609Y-115938899D02*
X138157657Y-115999375D01*
X138157657Y-115999375D02*
X137915752Y-115999375D01*
X137915752Y-115999375D02*
X137794800Y-115938899D01*
X137794800Y-115938899D02*
X137734324Y-115878423D01*
X137734324Y-115878423D02*
X137673847Y-115757470D01*
X106517143Y-60974318D02*
X106517143Y-59704318D01*
X106517143Y-59704318D02*
X106033333Y-59704318D01*
X106033333Y-59704318D02*
X105912381Y-59764794D01*
X105912381Y-59764794D02*
X105851904Y-59825270D01*
X105851904Y-59825270D02*
X105791428Y-59946222D01*
X105791428Y-59946222D02*
X105791428Y-60127651D01*
X105791428Y-60127651D02*
X105851904Y-60248603D01*
X105851904Y-60248603D02*
X105912381Y-60309080D01*
X105912381Y-60309080D02*
X106033333Y-60369556D01*
X106033333Y-60369556D02*
X106517143Y-60369556D01*
X105307619Y-60913842D02*
X105126190Y-60974318D01*
X105126190Y-60974318D02*
X104823809Y-60974318D01*
X104823809Y-60974318D02*
X104702857Y-60913842D01*
X104702857Y-60913842D02*
X104642381Y-60853365D01*
X104642381Y-60853365D02*
X104581904Y-60732413D01*
X104581904Y-60732413D02*
X104581904Y-60611461D01*
X104581904Y-60611461D02*
X104642381Y-60490508D01*
X104642381Y-60490508D02*
X104702857Y-60430032D01*
X104702857Y-60430032D02*
X104823809Y-60369556D01*
X104823809Y-60369556D02*
X105065714Y-60309080D01*
X105065714Y-60309080D02*
X105186666Y-60248603D01*
X105186666Y-60248603D02*
X105247143Y-60188127D01*
X105247143Y-60188127D02*
X105307619Y-60067175D01*
X105307619Y-60067175D02*
X105307619Y-59946222D01*
X105307619Y-59946222D02*
X105247143Y-59825270D01*
X105247143Y-59825270D02*
X105186666Y-59764794D01*
X105186666Y-59764794D02*
X105065714Y-59704318D01*
X105065714Y-59704318D02*
X104763333Y-59704318D01*
X104763333Y-59704318D02*
X104581904Y-59764794D01*
X103372380Y-60974318D02*
X104098095Y-60974318D01*
X103735238Y-60974318D02*
X103735238Y-59704318D01*
X103735238Y-59704318D02*
X103856190Y-59885746D01*
X103856190Y-59885746D02*
X103977142Y-60006699D01*
X103977142Y-60006699D02*
X104098095Y-60067175D01*
D12*
X148139142Y-128861470D02*
X148186762Y-128813851D01*
X148186762Y-128813851D02*
X148234381Y-128670994D01*
X148234381Y-128670994D02*
X148234381Y-128575756D01*
X148234381Y-128575756D02*
X148186762Y-128432899D01*
X148186762Y-128432899D02*
X148091523Y-128337661D01*
X148091523Y-128337661D02*
X147996285Y-128290042D01*
X147996285Y-128290042D02*
X147805809Y-128242423D01*
X147805809Y-128242423D02*
X147662952Y-128242423D01*
X147662952Y-128242423D02*
X147472476Y-128290042D01*
X147472476Y-128290042D02*
X147377238Y-128337661D01*
X147377238Y-128337661D02*
X147282000Y-128432899D01*
X147282000Y-128432899D02*
X147234381Y-128575756D01*
X147234381Y-128575756D02*
X147234381Y-128670994D01*
X147234381Y-128670994D02*
X147282000Y-128813851D01*
X147282000Y-128813851D02*
X147329619Y-128861470D01*
X148234381Y-129813851D02*
X148234381Y-129242423D01*
X148234381Y-129528137D02*
X147234381Y-129528137D01*
X147234381Y-129528137D02*
X147377238Y-129432899D01*
X147377238Y-129432899D02*
X147472476Y-129337661D01*
X147472476Y-129337661D02*
X147520095Y-129242423D01*
X147567714Y-130670994D02*
X148234381Y-130670994D01*
X147186762Y-130432899D02*
X147901047Y-130194804D01*
X147901047Y-130194804D02*
X147901047Y-130813851D01*
D11*
X139525990Y-65802693D02*
X139586466Y-65863170D01*
X139586466Y-65863170D02*
X139767895Y-65923646D01*
X139767895Y-65923646D02*
X139888847Y-65923646D01*
X139888847Y-65923646D02*
X140070276Y-65863170D01*
X140070276Y-65863170D02*
X140191228Y-65742217D01*
X140191228Y-65742217D02*
X140251705Y-65621265D01*
X140251705Y-65621265D02*
X140312181Y-65379360D01*
X140312181Y-65379360D02*
X140312181Y-65197931D01*
X140312181Y-65197931D02*
X140251705Y-64956027D01*
X140251705Y-64956027D02*
X140191228Y-64835074D01*
X140191228Y-64835074D02*
X140070276Y-64714122D01*
X140070276Y-64714122D02*
X139888847Y-64653646D01*
X139888847Y-64653646D02*
X139767895Y-64653646D01*
X139767895Y-64653646D02*
X139586466Y-64714122D01*
X139586466Y-64714122D02*
X139525990Y-64774598D01*
X139102657Y-64653646D02*
X138316466Y-64653646D01*
X138316466Y-64653646D02*
X138739800Y-65137455D01*
X138739800Y-65137455D02*
X138558371Y-65137455D01*
X138558371Y-65137455D02*
X138437419Y-65197931D01*
X138437419Y-65197931D02*
X138376943Y-65258408D01*
X138376943Y-65258408D02*
X138316466Y-65379360D01*
X138316466Y-65379360D02*
X138316466Y-65681741D01*
X138316466Y-65681741D02*
X138376943Y-65802693D01*
X138376943Y-65802693D02*
X138437419Y-65863170D01*
X138437419Y-65863170D02*
X138558371Y-65923646D01*
X138558371Y-65923646D02*
X138921228Y-65923646D01*
X138921228Y-65923646D02*
X139042181Y-65863170D01*
X139042181Y-65863170D02*
X139102657Y-65802693D01*
X137893133Y-64653646D02*
X137046466Y-64653646D01*
X137046466Y-64653646D02*
X137590752Y-65923646D01*
X139675990Y-135137232D02*
X139736466Y-135197709D01*
X139736466Y-135197709D02*
X139917895Y-135258185D01*
X139917895Y-135258185D02*
X140038847Y-135258185D01*
X140038847Y-135258185D02*
X140220276Y-135197709D01*
X140220276Y-135197709D02*
X140341228Y-135076756D01*
X140341228Y-135076756D02*
X140401705Y-134955804D01*
X140401705Y-134955804D02*
X140462181Y-134713899D01*
X140462181Y-134713899D02*
X140462181Y-134532470D01*
X140462181Y-134532470D02*
X140401705Y-134290566D01*
X140401705Y-134290566D02*
X140341228Y-134169613D01*
X140341228Y-134169613D02*
X140220276Y-134048661D01*
X140220276Y-134048661D02*
X140038847Y-133988185D01*
X140038847Y-133988185D02*
X139917895Y-133988185D01*
X139917895Y-133988185D02*
X139736466Y-134048661D01*
X139736466Y-134048661D02*
X139675990Y-134109137D01*
X139252657Y-133988185D02*
X138466466Y-133988185D01*
X138466466Y-133988185D02*
X138889800Y-134471994D01*
X138889800Y-134471994D02*
X138708371Y-134471994D01*
X138708371Y-134471994D02*
X138587419Y-134532470D01*
X138587419Y-134532470D02*
X138526943Y-134592947D01*
X138526943Y-134592947D02*
X138466466Y-134713899D01*
X138466466Y-134713899D02*
X138466466Y-135016280D01*
X138466466Y-135016280D02*
X138526943Y-135137232D01*
X138526943Y-135137232D02*
X138587419Y-135197709D01*
X138587419Y-135197709D02*
X138708371Y-135258185D01*
X138708371Y-135258185D02*
X139071228Y-135258185D01*
X139071228Y-135258185D02*
X139192181Y-135197709D01*
X139192181Y-135197709D02*
X139252657Y-135137232D01*
X137861704Y-135258185D02*
X137619800Y-135258185D01*
X137619800Y-135258185D02*
X137498847Y-135197709D01*
X137498847Y-135197709D02*
X137438371Y-135137232D01*
X137438371Y-135137232D02*
X137317419Y-134955804D01*
X137317419Y-134955804D02*
X137256942Y-134713899D01*
X137256942Y-134713899D02*
X137256942Y-134230089D01*
X137256942Y-134230089D02*
X137317419Y-134109137D01*
X137317419Y-134109137D02*
X137377895Y-134048661D01*
X137377895Y-134048661D02*
X137498847Y-133988185D01*
X137498847Y-133988185D02*
X137740752Y-133988185D01*
X137740752Y-133988185D02*
X137861704Y-134048661D01*
X137861704Y-134048661D02*
X137922181Y-134109137D01*
X137922181Y-134109137D02*
X137982657Y-134230089D01*
X137982657Y-134230089D02*
X137982657Y-134532470D01*
X137982657Y-134532470D02*
X137922181Y-134653423D01*
X137922181Y-134653423D02*
X137861704Y-134713899D01*
X137861704Y-134713899D02*
X137740752Y-134774375D01*
X137740752Y-134774375D02*
X137498847Y-134774375D01*
X137498847Y-134774375D02*
X137377895Y-134713899D01*
X137377895Y-134713899D02*
X137317419Y-134653423D01*
X137317419Y-134653423D02*
X137256942Y-134532470D01*
X139475990Y-73602693D02*
X139536466Y-73663170D01*
X139536466Y-73663170D02*
X139717895Y-73723646D01*
X139717895Y-73723646D02*
X139838847Y-73723646D01*
X139838847Y-73723646D02*
X140020276Y-73663170D01*
X140020276Y-73663170D02*
X140141228Y-73542217D01*
X140141228Y-73542217D02*
X140201705Y-73421265D01*
X140201705Y-73421265D02*
X140262181Y-73179360D01*
X140262181Y-73179360D02*
X140262181Y-72997931D01*
X140262181Y-72997931D02*
X140201705Y-72756027D01*
X140201705Y-72756027D02*
X140141228Y-72635074D01*
X140141228Y-72635074D02*
X140020276Y-72514122D01*
X140020276Y-72514122D02*
X139838847Y-72453646D01*
X139838847Y-72453646D02*
X139717895Y-72453646D01*
X139717895Y-72453646D02*
X139536466Y-72514122D01*
X139536466Y-72514122D02*
X139475990Y-72574598D01*
X139052657Y-72453646D02*
X138266466Y-72453646D01*
X138266466Y-72453646D02*
X138689800Y-72937455D01*
X138689800Y-72937455D02*
X138508371Y-72937455D01*
X138508371Y-72937455D02*
X138387419Y-72997931D01*
X138387419Y-72997931D02*
X138326943Y-73058408D01*
X138326943Y-73058408D02*
X138266466Y-73179360D01*
X138266466Y-73179360D02*
X138266466Y-73481741D01*
X138266466Y-73481741D02*
X138326943Y-73602693D01*
X138326943Y-73602693D02*
X138387419Y-73663170D01*
X138387419Y-73663170D02*
X138508371Y-73723646D01*
X138508371Y-73723646D02*
X138871228Y-73723646D01*
X138871228Y-73723646D02*
X138992181Y-73663170D01*
X138992181Y-73663170D02*
X139052657Y-73602693D01*
X137177895Y-72453646D02*
X137419800Y-72453646D01*
X137419800Y-72453646D02*
X137540752Y-72514122D01*
X137540752Y-72514122D02*
X137601228Y-72574598D01*
X137601228Y-72574598D02*
X137722181Y-72756027D01*
X137722181Y-72756027D02*
X137782657Y-72997931D01*
X137782657Y-72997931D02*
X137782657Y-73481741D01*
X137782657Y-73481741D02*
X137722181Y-73602693D01*
X137722181Y-73602693D02*
X137661704Y-73663170D01*
X137661704Y-73663170D02*
X137540752Y-73723646D01*
X137540752Y-73723646D02*
X137298847Y-73723646D01*
X137298847Y-73723646D02*
X137177895Y-73663170D01*
X137177895Y-73663170D02*
X137117419Y-73602693D01*
X137117419Y-73602693D02*
X137056942Y-73481741D01*
X137056942Y-73481741D02*
X137056942Y-73179360D01*
X137056942Y-73179360D02*
X137117419Y-73058408D01*
X137117419Y-73058408D02*
X137177895Y-72997931D01*
X137177895Y-72997931D02*
X137298847Y-72937455D01*
X137298847Y-72937455D02*
X137540752Y-72937455D01*
X137540752Y-72937455D02*
X137661704Y-72997931D01*
X137661704Y-72997931D02*
X137722181Y-73058408D01*
X137722181Y-73058408D02*
X137782657Y-73179360D01*
D12*
X149091881Y-68691470D02*
X148615690Y-68358137D01*
X149091881Y-68120042D02*
X148091881Y-68120042D01*
X148091881Y-68120042D02*
X148091881Y-68500994D01*
X148091881Y-68500994D02*
X148139500Y-68596232D01*
X148139500Y-68596232D02*
X148187119Y-68643851D01*
X148187119Y-68643851D02*
X148282357Y-68691470D01*
X148282357Y-68691470D02*
X148425214Y-68691470D01*
X148425214Y-68691470D02*
X148520452Y-68643851D01*
X148520452Y-68643851D02*
X148568071Y-68596232D01*
X148568071Y-68596232D02*
X148615690Y-68500994D01*
X148615690Y-68500994D02*
X148615690Y-68120042D01*
X148187119Y-69072423D02*
X148139500Y-69120042D01*
X148139500Y-69120042D02*
X148091881Y-69215280D01*
X148091881Y-69215280D02*
X148091881Y-69453375D01*
X148091881Y-69453375D02*
X148139500Y-69548613D01*
X148139500Y-69548613D02*
X148187119Y-69596232D01*
X148187119Y-69596232D02*
X148282357Y-69643851D01*
X148282357Y-69643851D02*
X148377595Y-69643851D01*
X148377595Y-69643851D02*
X148520452Y-69596232D01*
X148520452Y-69596232D02*
X149091881Y-69024804D01*
X149091881Y-69024804D02*
X149091881Y-69643851D01*
X148187119Y-70024804D02*
X148139500Y-70072423D01*
X148139500Y-70072423D02*
X148091881Y-70167661D01*
X148091881Y-70167661D02*
X148091881Y-70405756D01*
X148091881Y-70405756D02*
X148139500Y-70500994D01*
X148139500Y-70500994D02*
X148187119Y-70548613D01*
X148187119Y-70548613D02*
X148282357Y-70596232D01*
X148282357Y-70596232D02*
X148377595Y-70596232D01*
X148377595Y-70596232D02*
X148520452Y-70548613D01*
X148520452Y-70548613D02*
X149091881Y-69977185D01*
X149091881Y-69977185D02*
X149091881Y-70596232D01*
X148474381Y-79411470D02*
X147998190Y-79078137D01*
X148474381Y-78840042D02*
X147474381Y-78840042D01*
X147474381Y-78840042D02*
X147474381Y-79220994D01*
X147474381Y-79220994D02*
X147522000Y-79316232D01*
X147522000Y-79316232D02*
X147569619Y-79363851D01*
X147569619Y-79363851D02*
X147664857Y-79411470D01*
X147664857Y-79411470D02*
X147807714Y-79411470D01*
X147807714Y-79411470D02*
X147902952Y-79363851D01*
X147902952Y-79363851D02*
X147950571Y-79316232D01*
X147950571Y-79316232D02*
X147998190Y-79220994D01*
X147998190Y-79220994D02*
X147998190Y-78840042D01*
X147569619Y-79792423D02*
X147522000Y-79840042D01*
X147522000Y-79840042D02*
X147474381Y-79935280D01*
X147474381Y-79935280D02*
X147474381Y-80173375D01*
X147474381Y-80173375D02*
X147522000Y-80268613D01*
X147522000Y-80268613D02*
X147569619Y-80316232D01*
X147569619Y-80316232D02*
X147664857Y-80363851D01*
X147664857Y-80363851D02*
X147760095Y-80363851D01*
X147760095Y-80363851D02*
X147902952Y-80316232D01*
X147902952Y-80316232D02*
X148474381Y-79744804D01*
X148474381Y-79744804D02*
X148474381Y-80363851D01*
X147474381Y-80697185D02*
X147474381Y-81316232D01*
X147474381Y-81316232D02*
X147855333Y-80982899D01*
X147855333Y-80982899D02*
X147855333Y-81125756D01*
X147855333Y-81125756D02*
X147902952Y-81220994D01*
X147902952Y-81220994D02*
X147950571Y-81268613D01*
X147950571Y-81268613D02*
X148045809Y-81316232D01*
X148045809Y-81316232D02*
X148283904Y-81316232D01*
X148283904Y-81316232D02*
X148379142Y-81268613D01*
X148379142Y-81268613D02*
X148426762Y-81220994D01*
X148426762Y-81220994D02*
X148474381Y-81125756D01*
X148474381Y-81125756D02*
X148474381Y-80840042D01*
X148474381Y-80840042D02*
X148426762Y-80744804D01*
X148426762Y-80744804D02*
X148379142Y-80697185D01*
X148319142Y-74261470D02*
X148366762Y-74213851D01*
X148366762Y-74213851D02*
X148414381Y-74070994D01*
X148414381Y-74070994D02*
X148414381Y-73975756D01*
X148414381Y-73975756D02*
X148366762Y-73832899D01*
X148366762Y-73832899D02*
X148271523Y-73737661D01*
X148271523Y-73737661D02*
X148176285Y-73690042D01*
X148176285Y-73690042D02*
X147985809Y-73642423D01*
X147985809Y-73642423D02*
X147842952Y-73642423D01*
X147842952Y-73642423D02*
X147652476Y-73690042D01*
X147652476Y-73690042D02*
X147557238Y-73737661D01*
X147557238Y-73737661D02*
X147462000Y-73832899D01*
X147462000Y-73832899D02*
X147414381Y-73975756D01*
X147414381Y-73975756D02*
X147414381Y-74070994D01*
X147414381Y-74070994D02*
X147462000Y-74213851D01*
X147462000Y-74213851D02*
X147509619Y-74261470D01*
X147414381Y-75166232D02*
X147414381Y-74690042D01*
X147414381Y-74690042D02*
X147890571Y-74642423D01*
X147890571Y-74642423D02*
X147842952Y-74690042D01*
X147842952Y-74690042D02*
X147795333Y-74785280D01*
X147795333Y-74785280D02*
X147795333Y-75023375D01*
X147795333Y-75023375D02*
X147842952Y-75118613D01*
X147842952Y-75118613D02*
X147890571Y-75166232D01*
X147890571Y-75166232D02*
X147985809Y-75213851D01*
X147985809Y-75213851D02*
X148223904Y-75213851D01*
X148223904Y-75213851D02*
X148319142Y-75166232D01*
X148319142Y-75166232D02*
X148366762Y-75118613D01*
X148366762Y-75118613D02*
X148414381Y-75023375D01*
X148414381Y-75023375D02*
X148414381Y-74785280D01*
X148414381Y-74785280D02*
X148366762Y-74690042D01*
X148366762Y-74690042D02*
X148319142Y-74642423D01*
X147414381Y-75832899D02*
X147414381Y-75928137D01*
X147414381Y-75928137D02*
X147462000Y-76023375D01*
X147462000Y-76023375D02*
X147509619Y-76070994D01*
X147509619Y-76070994D02*
X147604857Y-76118613D01*
X147604857Y-76118613D02*
X147795333Y-76166232D01*
X147795333Y-76166232D02*
X148033428Y-76166232D01*
X148033428Y-76166232D02*
X148223904Y-76118613D01*
X148223904Y-76118613D02*
X148319142Y-76070994D01*
X148319142Y-76070994D02*
X148366762Y-76023375D01*
X148366762Y-76023375D02*
X148414381Y-75928137D01*
X148414381Y-75928137D02*
X148414381Y-75832899D01*
X148414381Y-75832899D02*
X148366762Y-75737661D01*
X148366762Y-75737661D02*
X148319142Y-75690042D01*
X148319142Y-75690042D02*
X148223904Y-75642423D01*
X148223904Y-75642423D02*
X148033428Y-75594804D01*
X148033428Y-75594804D02*
X147795333Y-75594804D01*
X147795333Y-75594804D02*
X147604857Y-75642423D01*
X147604857Y-75642423D02*
X147509619Y-75690042D01*
X147509619Y-75690042D02*
X147462000Y-75737661D01*
X147462000Y-75737661D02*
X147414381Y-75832899D01*
D13*
%TO.C,PS4*%
X107284562Y-141174328D02*
X107284562Y-141174328D01*
X107384562Y-141174328D02*
X107384562Y-141174328D01*
D14*
X108134562Y-130674328D02*
X131634562Y-130674328D01*
X108134562Y-131574328D02*
X108134562Y-130674328D01*
X108134562Y-139074328D02*
X108134562Y-137074328D01*
X108134562Y-143474328D02*
X108134562Y-146274328D01*
X108134562Y-146274328D02*
X131634562Y-146274328D01*
X131634562Y-130674328D02*
X131634562Y-131574328D01*
X131634562Y-139074328D02*
X131634562Y-137074328D01*
X131634562Y-146274328D02*
X131634562Y-143474328D01*
D13*
X107284562Y-141174328D02*
G75*
G02*
X107384562Y-141174328I50000J0D01*
G01*
X107384562Y-141174328D02*
G75*
G02*
X107284562Y-141174328I-50000J0D01*
G01*
%TO.C,PS3*%
X107484562Y-88149328D02*
X107484562Y-88149328D01*
X107584562Y-88149328D02*
X107584562Y-88149328D01*
D14*
X108334562Y-93249328D02*
X131834562Y-93249328D01*
X108334562Y-90449328D02*
X108334562Y-93249328D01*
X108334562Y-86049328D02*
X108334562Y-84049328D01*
X108334562Y-78549328D02*
X108334562Y-77649328D01*
X108334562Y-77649328D02*
X131834562Y-77649328D01*
X131834562Y-93249328D02*
X131834562Y-90449328D01*
X131834562Y-86049328D02*
X131834562Y-84049328D01*
X131834562Y-77649328D02*
X131834562Y-78549328D01*
D13*
X107584562Y-88149328D02*
G75*
G02*
X107484562Y-88149328I-50000J0D01*
G01*
X107484562Y-88149328D02*
G75*
G02*
X107584562Y-88149328I50000J0D01*
G01*
D14*
%TO.C,C28*%
X207284562Y-88624328D02*
G75*
G02*
X182284562Y-88624328I-12500000J0D01*
G01*
X182284562Y-88624328D02*
G75*
G02*
X207284562Y-88624328I12500000J0D01*
G01*
D13*
X194784562Y-101724328D02*
G75*
G02*
X194784562Y-101624328I0J50000D01*
G01*
X194784562Y-101624328D02*
G75*
G02*
X194784562Y-101724328I0J-50000D01*
G01*
D14*
X182284562Y-88624328D02*
X182284562Y-88624328D01*
X207284562Y-88624328D02*
X207284562Y-88624328D01*
D13*
X194784562Y-101624328D02*
X194784562Y-101624328D01*
X194784562Y-101724328D02*
X194784562Y-101724328D01*
D14*
%TO.C,C32*%
X207309562Y-116024328D02*
G75*
G02*
X182309562Y-116024328I-12500000J0D01*
G01*
X182309562Y-116024328D02*
G75*
G02*
X207309562Y-116024328I12500000J0D01*
G01*
D13*
X194809562Y-129124328D02*
G75*
G02*
X194809562Y-129024328I0J50000D01*
G01*
X194809562Y-129024328D02*
G75*
G02*
X194809562Y-129124328I0J-50000D01*
G01*
D14*
X182309562Y-116024328D02*
X182309562Y-116024328D01*
X207309562Y-116024328D02*
X207309562Y-116024328D01*
D13*
X194809562Y-129024328D02*
X194809562Y-129024328D01*
X194809562Y-129124328D02*
X194809562Y-129124328D01*
D14*
%TO.C,C30*%
X207409562Y-61574328D02*
G75*
G02*
X182409562Y-61574328I-12500000J0D01*
G01*
X182409562Y-61574328D02*
G75*
G02*
X207409562Y-61574328I12500000J0D01*
G01*
D13*
X194909562Y-74674328D02*
G75*
G02*
X194909562Y-74574328I0J50000D01*
G01*
X194909562Y-74574328D02*
G75*
G02*
X194909562Y-74674328I0J-50000D01*
G01*
D14*
X182409562Y-61574328D02*
X182409562Y-61574328D01*
X207409562Y-61574328D02*
X207409562Y-61574328D01*
D13*
X194909562Y-74574328D02*
X194909562Y-74574328D01*
X194909562Y-74674328D02*
X194909562Y-74674328D01*
D14*
%TO.C,C60*%
X207309562Y-143324328D02*
G75*
G02*
X182309562Y-143324328I-12500000J0D01*
G01*
X182309562Y-143324328D02*
G75*
G02*
X207309562Y-143324328I12500000J0D01*
G01*
D13*
X194809562Y-156424328D02*
G75*
G02*
X194809562Y-156324328I0J50000D01*
G01*
X194809562Y-156324328D02*
G75*
G02*
X194809562Y-156424328I0J-50000D01*
G01*
D14*
X182309562Y-143324328D02*
X182309562Y-143324328D01*
X207309562Y-143324328D02*
X207309562Y-143324328D01*
D13*
X194809562Y-156324328D02*
X194809562Y-156324328D01*
X194809562Y-156424328D02*
X194809562Y-156424328D01*
D15*
%TO.C,C46*%
X150809562Y-63350576D02*
X150809562Y-64773080D01*
X148989562Y-63350576D02*
X148989562Y-64773080D01*
%TO.C,R24*%
X150489562Y-133867264D02*
X150489562Y-135321392D01*
X148669562Y-133867264D02*
X148669562Y-135321392D01*
D14*
%TO.C,C59*%
X134209562Y-121474328D02*
G75*
G02*
X134109562Y-121474328I-50000J0D01*
G01*
X134109562Y-121474328D02*
G75*
G02*
X134209562Y-121474328I50000J0D01*
G01*
D13*
%TO.C,PS1*%
X107509562Y-59724328D02*
G75*
G02*
X107409562Y-59724328I-50000J0D01*
G01*
X107409562Y-59724328D02*
G75*
G02*
X107509562Y-59724328I50000J0D01*
G01*
D14*
X131759562Y-64824328D02*
X131759562Y-62024328D01*
X131759562Y-57624328D02*
X131759562Y-55624328D01*
X131759562Y-49224328D02*
X131759562Y-50124328D01*
X108259562Y-64824328D02*
X131759562Y-64824328D01*
X108259562Y-62024328D02*
X108259562Y-64824328D01*
X108259562Y-57624328D02*
X108259562Y-55624328D01*
X108259562Y-50124328D02*
X108259562Y-49224328D01*
X108259562Y-49224328D02*
X131759562Y-49224328D01*
D13*
X107509562Y-59724328D02*
X107509562Y-59724328D01*
X107409562Y-59724328D02*
X107409562Y-59724328D01*
D15*
%TO.C,C14*%
X150539562Y-128793076D02*
X150539562Y-130215580D01*
X148719562Y-128793076D02*
X148719562Y-130215580D01*
D14*
%TO.C,C37*%
X134534562Y-65349328D02*
G75*
G02*
X134434562Y-65349328I-50000J0D01*
G01*
X134434562Y-65349328D02*
G75*
G02*
X134534562Y-65349328I50000J0D01*
G01*
%TO.C,C39*%
X134259562Y-129399328D02*
G75*
G02*
X134159562Y-129399328I-50000J0D01*
G01*
X134159562Y-129399328D02*
G75*
G02*
X134259562Y-129399328I50000J0D01*
G01*
%TO.C,C36*%
X134484562Y-73149328D02*
G75*
G02*
X134384562Y-73149328I-50000J0D01*
G01*
X134384562Y-73149328D02*
G75*
G02*
X134484562Y-73149328I50000J0D01*
G01*
D15*
%TO.C,R22*%
X150774562Y-68342264D02*
X150774562Y-69796392D01*
X148954562Y-68342264D02*
X148954562Y-69796392D01*
%TO.C,R23*%
X150759562Y-79327264D02*
X150759562Y-80781392D01*
X148939562Y-79327264D02*
X148939562Y-80781392D01*
%TO.C,R21*%
X150569562Y-122497264D02*
X150569562Y-123951392D01*
X148749562Y-122497264D02*
X148749562Y-123951392D01*
%TO.C,C6*%
X150569562Y-117513076D02*
X150569562Y-118935580D01*
X148749562Y-117513076D02*
X148749562Y-118935580D01*
%TO.C,C50*%
X150719562Y-74193076D02*
X150719562Y-75615580D01*
X148899562Y-74193076D02*
X148899562Y-75615580D01*
D13*
%TO.C,PS2*%
X107234562Y-113274328D02*
G75*
G02*
X107134562Y-113274328I-50000J0D01*
G01*
X107134562Y-113274328D02*
G75*
G02*
X107234562Y-113274328I50000J0D01*
G01*
D14*
X131484562Y-118374328D02*
X131484562Y-115574328D01*
X131484562Y-111174328D02*
X131484562Y-109174328D01*
X131484562Y-102774328D02*
X131484562Y-103674328D01*
X107984562Y-118374328D02*
X131484562Y-118374328D01*
X107984562Y-115574328D02*
X107984562Y-118374328D01*
X107984562Y-111174328D02*
X107984562Y-109174328D01*
X107984562Y-103674328D02*
X107984562Y-102774328D01*
X107984562Y-102774328D02*
X131484562Y-102774328D01*
D13*
X107234562Y-113274328D02*
X107234562Y-113274328D01*
X107134562Y-113274328D02*
X107134562Y-113274328D01*
%TD*%
%LPC*%
D16*
%TO.C,PS4*%
X108884562Y-141174328D03*
D17*
X108884562Y-134424328D03*
X130884562Y-134424328D03*
D16*
X130884562Y-141174328D03*
%TD*%
%TO.C,PS3*%
X109084562Y-88149328D03*
D17*
X109084562Y-81399328D03*
X131084562Y-81399328D03*
D16*
X131084562Y-88149328D03*
%TD*%
D18*
%TO.C,REF\u002A\u002A*%
X210084562Y-51699328D03*
%TD*%
D19*
%TO.C,C28*%
X194784562Y-83624328D03*
D20*
X194784562Y-93624328D03*
%TD*%
D21*
%TO.C,J1*%
X164134562Y-94309328D03*
X164134562Y-96849328D03*
X161594562Y-96849328D03*
X161594562Y-94309328D03*
%TD*%
D22*
%TO.C,Q3*%
X145172062Y-78954328D03*
X145172062Y-76414328D03*
D23*
X145172062Y-73874328D03*
%TD*%
D18*
%TO.C,REF\u002A\u002A*%
X86234562Y-155074328D03*
%TD*%
D22*
%TO.C,Q5*%
X145034562Y-122174328D03*
X145034562Y-119634328D03*
D23*
X145034562Y-117094328D03*
%TD*%
D19*
%TO.C,C32*%
X194809562Y-111024328D03*
D20*
X194809562Y-121024328D03*
%TD*%
D24*
%TO.C,U5*%
X126154562Y-100930328D03*
X126154562Y-99025328D03*
X126154562Y-97120328D03*
X126154562Y-95215328D03*
D25*
X136324562Y-91723328D03*
X138864562Y-91723328D03*
X141404562Y-91723328D03*
X143944562Y-91723328D03*
X143944562Y-104423328D03*
X141404562Y-104423328D03*
X138864562Y-104423328D03*
X136324562Y-104423328D03*
%TD*%
D18*
%TO.C,REF\u002A\u002A*%
X86184562Y-51974328D03*
%TD*%
D21*
%TO.C,J2*%
X130509562Y-154699328D03*
X130509562Y-157239328D03*
X127969562Y-157239328D03*
X127969562Y-154699328D03*
%TD*%
%TO.C,J4*%
X138559562Y-154699328D03*
X136019562Y-154699328D03*
X136019562Y-157239328D03*
X138559562Y-157239328D03*
%TD*%
D22*
%TO.C,Q1*%
X145019562Y-133414328D03*
X145019562Y-130874328D03*
D23*
X145019562Y-128334328D03*
%TD*%
D19*
%TO.C,C30*%
X194909562Y-56574328D03*
D20*
X194909562Y-66574328D03*
%TD*%
D21*
%TO.C,J5*%
X153744562Y-83749328D03*
X153744562Y-86289328D03*
X156284562Y-86289328D03*
X156284562Y-83749328D03*
%TD*%
D22*
%TO.C,Q2*%
X145309562Y-67691828D03*
X145309562Y-65151828D03*
D23*
X145309562Y-62611828D03*
%TD*%
D19*
%TO.C,C60*%
X194809562Y-138324328D03*
D20*
X194809562Y-148324328D03*
%TD*%
D18*
%TO.C,REF\u002A\u002A*%
X210284562Y-155874328D03*
%TD*%
D26*
%TO.C,C46*%
X149899562Y-65624328D03*
X149899562Y-62499328D03*
%TD*%
D27*
%TO.C,J3*%
X88024562Y-126184328D03*
D28*
X88024562Y-121104328D03*
%TD*%
D29*
%TO.C,R24*%
X149579562Y-136144328D03*
X149579562Y-133044328D03*
%TD*%
D30*
%TO.C,C59*%
X141259562Y-121474328D03*
X135509562Y-121474328D03*
%TD*%
D16*
%TO.C,PS1*%
X131009562Y-59724328D03*
D17*
X131009562Y-52974328D03*
X109009562Y-52974328D03*
D16*
X109009562Y-59724328D03*
%TD*%
D19*
%TO.C,C41*%
X180009562Y-121049328D03*
D20*
X180009562Y-111049328D03*
%TD*%
D26*
%TO.C,C14*%
X149629562Y-131066828D03*
X149629562Y-127941828D03*
%TD*%
D19*
%TO.C,C31*%
X179984562Y-66424328D03*
D20*
X179984562Y-56424328D03*
%TD*%
D19*
%TO.C,C27*%
X179959562Y-93699328D03*
D20*
X179959562Y-83699328D03*
%TD*%
D30*
%TO.C,C37*%
X141584562Y-65349328D03*
X135834562Y-65349328D03*
%TD*%
%TO.C,C39*%
X141309562Y-129399328D03*
X135559562Y-129399328D03*
%TD*%
%TO.C,C36*%
X141534562Y-73149328D03*
X135784562Y-73149328D03*
%TD*%
D29*
%TO.C,R22*%
X149864562Y-70619328D03*
X149864562Y-67519328D03*
%TD*%
D19*
%TO.C,C29*%
X180034562Y-148449328D03*
D20*
X180034562Y-138449328D03*
%TD*%
D29*
%TO.C,R23*%
X149849562Y-81604328D03*
X149849562Y-78504328D03*
%TD*%
%TO.C,R21*%
X149659562Y-124774328D03*
X149659562Y-121674328D03*
%TD*%
D26*
%TO.C,C6*%
X149659562Y-119786828D03*
X149659562Y-116661828D03*
%TD*%
%TO.C,C50*%
X149809562Y-76466828D03*
X149809562Y-73341828D03*
%TD*%
D16*
%TO.C,PS2*%
X130734562Y-113274328D03*
D17*
X130734562Y-106524328D03*
X108734562Y-106524328D03*
D16*
X108734562Y-113274328D03*
%TD*%
D31*
%TO.C,D8*%
X149422562Y-151334328D03*
D32*
X149422562Y-153874328D03*
X149422562Y-156414328D03*
%TD*%
D33*
%TO.C,J9*%
X101347062Y-71969328D03*
D34*
X101347062Y-74509328D03*
X101347062Y-77049328D03*
X101347062Y-79589328D03*
X101347062Y-82129328D03*
X101347062Y-84669328D03*
X101347062Y-87209328D03*
X101347062Y-89749328D03*
X101347062Y-92289328D03*
X101347062Y-94829328D03*
X101347062Y-97369328D03*
X101347062Y-99909328D03*
X101347062Y-102449328D03*
X101347062Y-104989328D03*
X101347062Y-107529328D03*
%TD*%
D33*
%TO.C,J8*%
X86159562Y-71954328D03*
D34*
X86159562Y-74494328D03*
X86159562Y-77034328D03*
X86159562Y-79574328D03*
X86159562Y-82114328D03*
X86159562Y-84654328D03*
X86159562Y-87194328D03*
X86159562Y-89734328D03*
X86159562Y-92274328D03*
X86159562Y-94814328D03*
X86159562Y-97354328D03*
X86159562Y-99894328D03*
X86159562Y-102434328D03*
X86159562Y-104974328D03*
X86159562Y-107514328D03*
%TD*%
%LPD*%
M02*
