M48
; DRILL file {KiCad 9.0.5} date 2026-05-07T21:25:48+0200
; FORMAT={-:-/ absolute / inch / decimal}
; #@! TF.CreationDate,2026-05-07T21:25:48+02:00
; #@! TF.GenerationSoftware,Kicad,Pcbnew,9.0.5
; #@! TF.FileFunction,Plated,1,4,PTH
FMAT,2
INCH
; #@! TA.AperFunction,Plated,PTH,ViaDrill
T1C0.0157
; #@! TA.AperFunction,Plated,PTH,ViaDrill
T2C0.0236
; #@! TA.AperFunction,Plated,PTH,ViaDrill
T3C0.0315
; #@! TA.AperFunction,Plated,PTH,ComponentDrill
T4C0.0315
; #@! TA.AperFunction,Plated,PTH,ComponentDrill
T5C0.0346
; #@! TA.AperFunction,Plated,PTH,ComponentDrill
T6C0.0492
; #@! TA.AperFunction,Plated,PTH,ComponentDrill
T7C0.0512
; #@! TA.AperFunction,Plated,PTH,ComponentDrill
T8C0.0524
; #@! TA.AperFunction,Plated,PTH,ComponentDrill
T9C0.0630
; #@! TA.AperFunction,Plated,PTH,ComponentDrill
T10C0.0787
; #@! TA.AperFunction,Plated,PTH,ComponentDrill
T11C0.1260
%
G90
G05
T1
X3.4965Y-3.2262
X3.5878Y-5.698
X3.589Y-5.7827
X3.5917Y-5.4831
X3.5917Y-5.5846
X3.6539Y-5.4839
X3.6555Y-5.585
X3.6559Y-5.7823
X3.6579Y-5.6992
X3.6673Y-4.5122
X3.7189Y-5.7827
X3.7221Y-2.699
X3.7221Y-2.8089
X3.726Y-5.6921
X3.7268Y-5.4886
X3.7268Y-5.5846
X3.8165Y-5.4878
X3.8193Y-5.5811
X3.8193Y-5.6913
X3.8201Y-5.7811
X3.8446Y-1.9561
X3.8855Y-2.6372
X3.911Y-5.4913
X3.9154Y-5.6941
X3.9173Y-5.7811
X3.9181Y-5.5819
X3.9328Y-4.6065
X3.9855Y-2.2356
X3.9894Y-5.585
X3.9909Y-5.6988
X3.9909Y-5.7823
X3.9921Y-5.489
X4.0614Y-5.7016
X4.0614Y-5.7835
X4.0622Y-5.5902
X4.0634Y-5.4898
X4.0831Y-5.2544
X4.1701Y-5.0472
X4.4434Y-3.5911
X4.5725Y-2.8376
X4.5835Y-4.9984
X4.6658Y-2.4569
X4.7335Y-4.8108
X4.743Y-2.6844
X4.7454Y-4.6632
X4.7685Y-5.015
X4.8178Y-2.5675
X4.8198Y-2.7258
X4.8308Y-3.636
X4.832Y-2.4348
X4.8339Y-5.0874
X4.8343Y-2.9508
X4.841Y-4.7759
X4.8532Y-3.8994
X4.9713Y-5.1655
X4.9803Y-3.052
X4.9988Y-3.1059
T2
X3.561Y-4.4226
X3.6732Y-4.212
X3.7126Y-3.2484
X3.7185Y-3.4315
X4.3631Y-4.4639
X4.3654Y-4.2045
X4.3654Y-5.5624
X4.3694Y-5.3041
X4.3698Y-1.9718
X4.3796Y-3.2089
X4.38Y-2.2187
X4.3804Y-3.4734
T3
X3.9559Y-5.1831
X5.2091Y-5.2675
X5.2242Y-4.4365
X5.2316Y-3.4683
X5.2379Y-5.5659
X5.2454Y-3.2332
X5.2493Y-2.2214
X5.2576Y-4.2139
X5.265Y-1.9533
X5.3355Y-5.2514
X5.3619Y-3.1848
X8.3002Y-2.6287
X8.3004Y-3.3319
T4
X4.9667Y-3.7486
X4.9667Y-3.8236
X4.9667Y-3.8986
X4.9667Y-3.9736
T5
X3.3921Y-2.8328
X3.3921Y-2.9328
X3.3921Y-3.0328
X3.3921Y-3.1328
X3.3921Y-3.2328
X3.3921Y-3.3328
X3.3921Y-3.4328
X3.3921Y-3.5328
X3.3921Y-3.6328
X3.3921Y-3.7328
X3.3921Y-3.8328
X3.3921Y-3.9328
X3.3921Y-4.0328
X3.3921Y-4.1328
X3.3921Y-4.2328
X3.99Y-2.8334
X3.99Y-2.9334
X3.99Y-3.0334
X3.99Y-3.1334
X3.99Y-3.2334
X3.99Y-3.3334
X3.99Y-3.4334
X3.99Y-3.5334
X3.99Y-3.6334
X3.99Y-3.7334
X3.99Y-3.8334
X3.99Y-3.9334
X3.99Y-4.0334
X3.99Y-4.1334
X3.99Y-4.2334
T6
X5.7094Y-5.0525
X5.7094Y-5.1525
X5.7094Y-5.2525
X5.71Y-4.61
X5.71Y-4.71
X5.71Y-4.81
X5.7154Y-2.9084
X5.7154Y-3.0084
X5.7154Y-3.1084
X5.7208Y-2.465
X5.7208Y-2.565
X5.7208Y-2.665
T7
X3.4655Y-4.7679
X3.4655Y-4.9679
X5.3671Y-3.6112
X5.3671Y-4.1112
X5.4671Y-3.6112
X5.4671Y-4.1112
X5.5671Y-3.6112
X5.5671Y-4.1112
X5.6671Y-3.6112
X5.6671Y-4.1112
T8
X5.8828Y-5.958
X5.8828Y-6.058
X5.8828Y-6.158
T9
X5.0382Y-6.0905
X5.0382Y-6.1905
X5.1382Y-6.0905
X5.1382Y-6.1905
X5.3551Y-6.0905
X5.3551Y-6.1905
X5.4551Y-6.0905
X5.4551Y-6.1905
X6.0529Y-3.2972
X6.0529Y-3.3972
X6.1529Y-3.2972
X6.1529Y-3.3972
X6.362Y-3.713
X6.362Y-3.813
X6.462Y-3.713
X6.462Y-3.813
T10
X7.085Y-3.2952
X7.085Y-3.6889
X7.086Y-2.2214
X7.086Y-2.6151
X7.087Y-4.372
X7.087Y-4.7657
X7.088Y-5.4508
X7.088Y-5.8445
X7.6687Y-3.2923
X7.6687Y-3.686
X7.6697Y-4.371
X7.6697Y-4.7647
X7.6697Y-5.4458
X7.6697Y-5.8395
X7.6736Y-2.2273
X7.6736Y-2.621
T11
X3.3931Y-2.0462
X3.3951Y-6.1053
X8.271Y-2.0354
X8.2789Y-6.1368
M30
