%TF.GenerationSoftware,KiCad,Pcbnew,9.0.5*%
%TF.CreationDate,2026-05-07T21:25:48+02:00*%
%TF.ProjectId,Adrion_1,41647269-6f6e-45f3-912e-6b696361645f,rev?*%
%TF.SameCoordinates,Original*%
%TF.FileFunction,Copper,L2,Inr*%
%TF.FilePolarity,Positive*%
%FSLAX46Y46*%
G04 Gerber Fmt 4.6, Leading zero omitted, Abs format (unit mm)*
G04 Created by KiCad (PCBNEW 9.0.5) date 2026-05-07 21:25:48*
%MOMM*%
%LPD*%
G01*
G04 APERTURE LIST*
%TA.AperFunction,ComponentPad*%
%ADD10C,6.400000*%
%TD*%
%TA.AperFunction,ComponentPad*%
%ADD11C,3.000000*%
%TD*%
%TA.AperFunction,ComponentPad*%
%ADD12R,3.000000X3.000000*%
%TD*%
%TA.AperFunction,ComponentPad*%
%ADD13C,2.400000*%
%TD*%
%TA.AperFunction,ComponentPad*%
%ADD14C,1.875000*%
%TD*%
%TA.AperFunction,ComponentPad*%
%ADD15R,1.875000X1.875000*%
%TD*%
%TA.AperFunction,ComponentPad*%
%ADD16O,2.300000X1.300000*%
%TD*%
%TA.AperFunction,ComponentPad*%
%ADD17O,1.900000X2.540000*%
%TD*%
%TA.AperFunction,ComponentPad*%
%ADD18C,1.950000*%
%TD*%
%TA.AperFunction,ComponentPad*%
%ADD19R,1.950000X1.950000*%
%TD*%
%TA.AperFunction,ComponentPad*%
%ADD20R,2.000000X2.000000*%
%TD*%
%TA.AperFunction,ComponentPad*%
%ADD21C,2.000000*%
%TD*%
%TA.AperFunction,ComponentPad*%
%ADD22R,1.388000X1.388000*%
%TD*%
%TA.AperFunction,ComponentPad*%
%ADD23C,1.388000*%
%TD*%
%TA.AperFunction,ViaPad*%
%ADD24C,1.000000*%
%TD*%
%TA.AperFunction,ViaPad*%
%ADD25C,2.000000*%
%TD*%
%TA.AperFunction,ViaPad*%
%ADD26C,1.500000*%
%TD*%
G04 APERTURE END LIST*
D10*
%TO.N,N/C*%
%TO.C,REF\u002A\u002A*%
X210084562Y-51699328D03*
%TD*%
D11*
%TO.N,GNDPWR*%
%TO.C,C28*%
X194784562Y-83624328D03*
D12*
%TO.N,HV*%
X194784562Y-93624328D03*
%TD*%
D13*
%TO.N,Net-(U5-OUT_1)*%
%TO.C,J1*%
X164134562Y-94309328D03*
X164134562Y-96849328D03*
X161594562Y-96849328D03*
X161594562Y-94309328D03*
%TD*%
D14*
%TO.N,GNDPWR*%
%TO.C,Q3*%
X145172062Y-78954328D03*
%TO.N,Net-(IC2-VSSA)*%
X145172062Y-76414328D03*
D15*
%TO.N,Net-(Q3-G)*%
X145172062Y-73874328D03*
%TD*%
D10*
%TO.N,N/C*%
%TO.C,REF\u002A\u002A*%
X86234562Y-155074328D03*
%TD*%
D14*
%TO.N,Net-(IC3-VSSA)*%
%TO.C,Q5*%
X145034562Y-122174328D03*
%TO.N,HV*%
X145034562Y-119634328D03*
D15*
%TO.N,Net-(Q5-G)*%
X145034562Y-117094328D03*
%TD*%
D11*
%TO.N,GNDPWR*%
%TO.C,C32*%
X194809562Y-111024328D03*
D12*
%TO.N,HV*%
X194809562Y-121024328D03*
%TD*%
D16*
%TO.N,5V*%
%TO.C,U5*%
X126154562Y-100930328D03*
%TO.N,GND*%
X126154562Y-99025328D03*
%TO.N,Net-(U5-VOUT)*%
X126154562Y-97120328D03*
%TO.N,1.65V*%
X126154562Y-95215328D03*
D17*
%TO.N,Net-(U5-OUT_1)*%
X136324562Y-91723328D03*
X138864562Y-91723328D03*
X141404562Y-91723328D03*
X143944562Y-91723328D03*
%TO.N,Net-(IC3-VSSA)*%
X143944562Y-104423328D03*
X141404562Y-104423328D03*
X138864562Y-104423328D03*
X136324562Y-104423328D03*
%TD*%
D10*
%TO.N,N/C*%
%TO.C,REF\u002A\u002A*%
X86184562Y-51974328D03*
%TD*%
D13*
%TO.N,GNDPWR*%
%TO.C,J2*%
X130509562Y-154699328D03*
X130509562Y-157239328D03*
X127969562Y-157239328D03*
X127969562Y-154699328D03*
%TD*%
%TO.N,Net-(D8-Pad1)*%
%TO.C,J4*%
X138559562Y-154699328D03*
X136019562Y-154699328D03*
X136019562Y-157239328D03*
X138559562Y-157239328D03*
%TD*%
D14*
%TO.N,GNDPWR*%
%TO.C,Q1*%
X145019562Y-133414328D03*
%TO.N,Net-(IC3-VSSA)*%
X145019562Y-130874328D03*
D15*
%TO.N,Net-(Q1-G)*%
X145019562Y-128334328D03*
%TD*%
D11*
%TO.N,GNDPWR*%
%TO.C,C30*%
X194909562Y-56574328D03*
D12*
%TO.N,HV*%
X194909562Y-66574328D03*
%TD*%
D13*
%TO.N,Net-(IC2-VSSA)*%
%TO.C,J5*%
X153744562Y-83749328D03*
X153744562Y-86289328D03*
X156284562Y-86289328D03*
X156284562Y-83749328D03*
%TD*%
D14*
%TO.N,Net-(IC2-VSSA)*%
%TO.C,Q2*%
X145309562Y-67691828D03*
%TO.N,HV*%
X145309562Y-65151828D03*
D15*
%TO.N,Net-(Q2-G)*%
X145309562Y-62611828D03*
%TD*%
D11*
%TO.N,GNDPWR*%
%TO.C,C60*%
X194809562Y-138324328D03*
D12*
%TO.N,HV*%
X194809562Y-148324328D03*
%TD*%
D10*
%TO.N,N/C*%
%TO.C,REF\u002A\u002A*%
X210284562Y-155874328D03*
%TD*%
D18*
%TO.N,12V*%
%TO.C,J3*%
X88024562Y-126184328D03*
D19*
%TO.N,GND*%
X88024562Y-121104328D03*
%TD*%
D11*
%TO.N,GNDPWR*%
%TO.C,C41*%
X180009562Y-121049328D03*
D12*
%TO.N,HV*%
X180009562Y-111049328D03*
%TD*%
D11*
%TO.N,GNDPWR*%
%TO.C,C31*%
X179984562Y-66424328D03*
D12*
%TO.N,HV*%
X179984562Y-56424328D03*
%TD*%
D11*
%TO.N,GNDPWR*%
%TO.C,C27*%
X179959562Y-93699328D03*
D12*
%TO.N,HV*%
X179959562Y-83699328D03*
%TD*%
D11*
%TO.N,GNDPWR*%
%TO.C,C29*%
X180034562Y-148449328D03*
D12*
%TO.N,HV*%
X180034562Y-138449328D03*
%TD*%
D20*
%TO.N,Net-(D8-Pad1)*%
%TO.C,D8*%
X149422562Y-151334328D03*
D21*
%TO.N,HV*%
X149422562Y-153874328D03*
%TO.N,Net-(D8-Pad1)*%
X149422562Y-156414328D03*
%TD*%
D22*
%TO.N,unconnected-(J9-VIN-Pad1)*%
%TO.C,J9*%
X101347062Y-71969328D03*
D23*
%TO.N,GND*%
X101347062Y-74509328D03*
%TO.N,unconnected-(J9-~{RST}-Pad3)*%
X101347062Y-77049328D03*
%TO.N,5V*%
X101347062Y-79589328D03*
%TO.N,unconnected-(J9-PA2(A7)-Pad5)*%
X101347062Y-82129328D03*
%TO.N,PWM_AL*%
X101347062Y-84669328D03*
%TO.N,unconnected-(J9-PA6(A5)-Pad7)*%
X101347062Y-87209328D03*
%TO.N,unconnected-(J9-PA5(A4)-Pad8)*%
X101347062Y-89749328D03*
%TO.N,unconnected-(J9-PA4(A3)-Pad9)*%
X101347062Y-92289328D03*
%TO.N,unconnected-(J9-PA3(A2)-Pad10)*%
X101347062Y-94829328D03*
%TO.N,I_Sense*%
X101347062Y-97369328D03*
%TO.N,unconnected-(J9-PA0(A0)-Pad12)*%
X101347062Y-99909328D03*
%TO.N,unconnected-(J9-AREF-Pad13)*%
X101347062Y-102449328D03*
%TO.N,unconnected-(J9-3V3-Pad14)*%
X101347062Y-104989328D03*
%TO.N,unconnected-(J9-PB3(D13)-Pad15)*%
X101347062Y-107529328D03*
%TD*%
D22*
%TO.N,PWM_BH*%
%TO.C,J8*%
X86159562Y-71954328D03*
D23*
%TO.N,unconnected-(J8-PA10(D0)-Pad2)*%
X86159562Y-74494328D03*
%TO.N,unconnected-(J8-~{RST}-Pad3)*%
X86159562Y-77034328D03*
%TO.N,GND*%
X86159562Y-79574328D03*
%TO.N,EN_A*%
X86159562Y-82114328D03*
%TO.N,PWM_BL*%
X86159562Y-84654328D03*
%TO.N,EN_B*%
X86159562Y-87194328D03*
%TO.N,unconnected-(J8-PB6(D5)-Pad8)*%
X86159562Y-89734328D03*
%TO.N,unconnected-(J8-PB1(D6)-Pad9)*%
X86159562Y-92274328D03*
%TO.N,unconnected-(J8-NC-Pad10)*%
X86159562Y-94814328D03*
%TO.N,unconnected-(J8-NC-Pad11)*%
X86159562Y-97354328D03*
%TO.N,PWM_AH*%
X86159562Y-99894328D03*
%TO.N,unconnected-(J8-PA11(D10)-Pad13)*%
X86159562Y-102434328D03*
%TO.N,unconnected-(J8-PB5(D11)-Pad14)*%
X86159562Y-104974328D03*
%TO.N,unconnected-(J8-PB4(D12)-Pad15)*%
X86159562Y-107514328D03*
%TD*%
D24*
%TO.N,GND*%
X112862062Y-91214328D03*
X122790000Y-74950000D03*
X126970000Y-78890000D03*
%TO.N,3.3V*%
X126500000Y-77520000D03*
%TO.N,GND*%
X121120000Y-127380000D03*
X116420000Y-126960000D03*
%TO.N,3.3V*%
X122780000Y-129220000D03*
D25*
%TO.N,GNDPWR*%
X210830000Y-84630000D03*
D24*
%TO.N,GND*%
X105920000Y-128200000D03*
X92850000Y-141860000D03*
X91230000Y-141850000D03*
X92910000Y-144760000D03*
X103160000Y-146900000D03*
X97030000Y-146840000D03*
X94460000Y-146880000D03*
X91160000Y-146880000D03*
X92860000Y-146870000D03*
X101370000Y-146870000D03*
X99500000Y-146840000D03*
X101400000Y-139420000D03*
X103210000Y-139440000D03*
X103180000Y-141990000D03*
X101330000Y-141860000D03*
X103160000Y-144820000D03*
X101370000Y-144750000D03*
X91130000Y-144730000D03*
X92810000Y-139290000D03*
X91230000Y-139270000D03*
X99450000Y-144630000D03*
X97010000Y-144560000D03*
X94640000Y-144580000D03*
X99520000Y-141780000D03*
X97010000Y-141760000D03*
X94660000Y-141850000D03*
X99340000Y-139480000D03*
X96940000Y-139390000D03*
X94660000Y-139410000D03*
X103709543Y-133462850D03*
D25*
%TO.N,Net-(IC2-VDDA)*%
X133732062Y-49614328D03*
%TO.N,Net-(IC3-VDDB)*%
X132312062Y-133794328D03*
%TO.N,Net-(IC2-VDDB)*%
X133232062Y-82124328D03*
D24*
%TO.N,EN_B*%
X94542062Y-71347246D03*
%TO.N,EN_A*%
X93149562Y-114609328D03*
%TO.N,EN_B*%
X88812062Y-81944328D03*
D25*
%TO.N,Net-(IC2-VSSA)*%
X133332062Y-56424328D03*
%TO.N,Net-(IC3-VDDA)*%
X133542062Y-107034328D03*
%TO.N,Net-(IC3-VSSA)*%
X132694562Y-112686828D03*
D24*
%TO.N,PWM_BL*%
X98692062Y-66984328D03*
%TO.N,GND*%
X101232062Y-56784328D03*
D26*
X110822062Y-113384328D03*
D24*
X116142062Y-72074328D03*
X122422062Y-69235328D03*
X123272062Y-99044328D03*
X122732062Y-61844328D03*
X120532062Y-118444328D03*
X120232062Y-122194328D03*
X97652062Y-49684328D03*
X122702062Y-92354328D03*
X126272062Y-131204328D03*
D26*
X110882062Y-141284328D03*
X111262062Y-88224328D03*
D24*
X122372062Y-65214328D03*
%TO.N,3.3V*%
X122960293Y-121308675D03*
X120472062Y-68184328D03*
D26*
%TO.N,12V*%
X111242062Y-81506828D03*
D24*
%TO.N,3.3V*%
X118512062Y-62404328D03*
D25*
%TO.N,GNDPWR*%
X133042062Y-141374328D03*
D26*
%TO.N,5V*%
X94449562Y-87159328D03*
%TO.N,12V*%
X110882062Y-106794328D03*
D25*
%TO.N,GNDPWR*%
X136192062Y-80894328D03*
X210825000Y-66768500D03*
D26*
%TO.N,GND*%
X111252062Y-56354328D03*
%TO.N,12V*%
X110982062Y-134724328D03*
D25*
%TO.N,GNDPWR*%
X132882062Y-88094328D03*
D24*
%TO.N,PWM_AH*%
X99892062Y-117004328D03*
D25*
%TO.N,GNDPWR*%
X135522062Y-133384328D03*
D26*
%TO.N,5V*%
X94299562Y-82509328D03*
X93299562Y-106984328D03*
X90449562Y-112334328D03*
%TO.N,12V*%
X110992062Y-50084328D03*
D24*
%TO.N,PWM_BH*%
X94542062Y-68554328D03*
D25*
%TO.N,GND*%
X100480000Y-131650000D03*
%TD*%
%TA.AperFunction,Conductor*%
%TO.N,GNDPWR*%
G36*
X206343753Y-48306325D02*
G01*
X206410772Y-48326077D01*
X206455943Y-48377779D01*
X207001828Y-49544592D01*
X207012407Y-49613656D01*
X206992614Y-49666029D01*
X206906717Y-49794582D01*
X206906706Y-49794600D01*
X206735318Y-50115244D01*
X206735316Y-50115249D01*
X206596176Y-50451162D01*
X206490629Y-50799104D01*
X206490626Y-50799115D01*
X206419699Y-51155697D01*
X206384062Y-51517537D01*
X206384062Y-51881118D01*
X206419699Y-52242958D01*
X206490626Y-52599540D01*
X206490629Y-52599551D01*
X206596176Y-52947493D01*
X206735316Y-53283406D01*
X206735318Y-53283411D01*
X206906702Y-53604048D01*
X206906713Y-53604066D01*
X207108702Y-53906363D01*
X207108712Y-53906377D01*
X207339369Y-54187434D01*
X207596455Y-54444520D01*
X207596460Y-54444524D01*
X207596461Y-54444525D01*
X207877518Y-54675182D01*
X208179830Y-54877181D01*
X208179839Y-54877186D01*
X208179841Y-54877187D01*
X208500478Y-55048571D01*
X208500480Y-55048571D01*
X208500486Y-55048575D01*
X208836398Y-55187714D01*
X209184329Y-55293258D01*
X209184335Y-55293259D01*
X209184338Y-55293260D01*
X209184349Y-55293263D01*
X209383626Y-55332900D01*
X209540931Y-55364190D01*
X209663108Y-55376223D01*
X209727895Y-55402383D01*
X209763270Y-55447080D01*
X211129862Y-58368125D01*
X213587972Y-63622249D01*
X213599656Y-63674795D01*
X213599656Y-147125363D01*
X213579971Y-147192402D01*
X213541856Y-147230213D01*
X199907990Y-155838331D01*
X194312050Y-159371482D01*
X194139893Y-159480178D01*
X194073693Y-159499328D01*
X90137470Y-159499328D01*
X90070431Y-159479643D01*
X90024676Y-159426839D01*
X90013530Y-159371482D01*
X90062700Y-157787108D01*
X90161986Y-154587877D01*
X134319062Y-154587877D01*
X134319062Y-154810778D01*
X134319063Y-154810794D01*
X134348156Y-155031780D01*
X134348157Y-155031785D01*
X134348158Y-155031791D01*
X134405192Y-155244646D01*
X134405852Y-155247108D01*
X134405855Y-155247118D01*
X134491155Y-155453050D01*
X134491157Y-155453054D01*
X134602614Y-155646102D01*
X134602619Y-155646108D01*
X134602620Y-155646110D01*
X134738313Y-155822950D01*
X134738319Y-155822957D01*
X134797009Y-155881647D01*
X134830494Y-155942970D01*
X134825510Y-156012662D01*
X134797009Y-156057009D01*
X134738319Y-156115698D01*
X134738313Y-156115705D01*
X134602620Y-156292545D01*
X134602614Y-156292554D01*
X134491157Y-156485601D01*
X134491155Y-156485605D01*
X134405855Y-156691537D01*
X134405852Y-156691547D01*
X134348159Y-156906862D01*
X134348156Y-156906875D01*
X134319063Y-157127861D01*
X134319062Y-157127877D01*
X134319062Y-157350778D01*
X134319063Y-157350794D01*
X134348156Y-157571780D01*
X134348157Y-157571785D01*
X134348158Y-157571791D01*
X134405852Y-157787108D01*
X134405855Y-157787118D01*
X134491155Y-157993050D01*
X134491157Y-157993054D01*
X134602614Y-158186102D01*
X134602619Y-158186108D01*
X134602620Y-158186110D01*
X134738313Y-158362950D01*
X134738319Y-158362957D01*
X134895932Y-158520570D01*
X134895939Y-158520576D01*
X135021856Y-158617195D01*
X135072788Y-158656276D01*
X135265836Y-158767733D01*
X135471781Y-158853038D01*
X135687099Y-158910732D01*
X135908105Y-158939828D01*
X135908112Y-158939828D01*
X136131012Y-158939828D01*
X136131019Y-158939828D01*
X136352025Y-158910732D01*
X136567343Y-158853038D01*
X136773288Y-158767733D01*
X136966336Y-158656276D01*
X137143186Y-158520575D01*
X137201882Y-158461878D01*
X137263203Y-158428395D01*
X137332895Y-158433379D01*
X137377241Y-158461878D01*
X137435933Y-158520570D01*
X137435940Y-158520577D01*
X137564893Y-158619525D01*
X137612788Y-158656276D01*
X137805836Y-158767733D01*
X138011781Y-158853038D01*
X138227099Y-158910732D01*
X138448105Y-158939828D01*
X138448112Y-158939828D01*
X138671012Y-158939828D01*
X138671019Y-158939828D01*
X138892025Y-158910732D01*
X139107343Y-158853038D01*
X139313288Y-158767733D01*
X139506336Y-158656276D01*
X139683186Y-158520575D01*
X139840809Y-158362952D01*
X139976510Y-158186102D01*
X140087967Y-157993054D01*
X140173272Y-157787109D01*
X140230966Y-157571791D01*
X140260062Y-157350785D01*
X140260062Y-157127871D01*
X140230966Y-156906865D01*
X140173272Y-156691547D01*
X140087967Y-156485602D01*
X139976510Y-156292554D01*
X139840809Y-156115704D01*
X139782112Y-156057007D01*
X139748629Y-155995687D01*
X139753613Y-155925995D01*
X139782112Y-155881648D01*
X139840809Y-155822952D01*
X139976510Y-155646102D01*
X140087967Y-155453054D01*
X140173272Y-155247109D01*
X140230966Y-155031791D01*
X140260062Y-154810785D01*
X140260062Y-154587871D01*
X140230966Y-154366865D01*
X140173272Y-154151547D01*
X140087967Y-153945602D01*
X139976510Y-153752554D01*
X139840809Y-153575704D01*
X139840804Y-153575698D01*
X139683191Y-153418085D01*
X139683184Y-153418079D01*
X139506344Y-153282386D01*
X139506342Y-153282385D01*
X139506336Y-153282380D01*
X139313288Y-153170923D01*
X139313284Y-153170921D01*
X139107352Y-153085621D01*
X139107345Y-153085619D01*
X139107343Y-153085618D01*
X138892025Y-153027924D01*
X138892019Y-153027923D01*
X138892014Y-153027922D01*
X138671028Y-152998829D01*
X138671025Y-152998828D01*
X138671019Y-152998828D01*
X138448105Y-152998828D01*
X138448099Y-152998828D01*
X138448095Y-152998829D01*
X138227109Y-153027922D01*
X138227102Y-153027923D01*
X138227099Y-153027924D01*
X138011781Y-153085618D01*
X138011771Y-153085621D01*
X137805839Y-153170921D01*
X137805835Y-153170923D01*
X137612788Y-153282380D01*
X137612779Y-153282386D01*
X137435939Y-153418079D01*
X137435932Y-153418085D01*
X137377243Y-153476775D01*
X137315920Y-153510260D01*
X137246228Y-153505276D01*
X137201881Y-153476775D01*
X137143191Y-153418085D01*
X137143184Y-153418079D01*
X136966344Y-153282386D01*
X136966342Y-153282385D01*
X136966336Y-153282380D01*
X136773288Y-153170923D01*
X136773284Y-153170921D01*
X136567352Y-153085621D01*
X136567345Y-153085619D01*
X136567343Y-153085618D01*
X136352025Y-153027924D01*
X136352019Y-153027923D01*
X136352014Y-153027922D01*
X136131028Y-152998829D01*
X136131025Y-152998828D01*
X136131019Y-152998828D01*
X135908105Y-152998828D01*
X135908099Y-152998828D01*
X135908095Y-152998829D01*
X135687109Y-153027922D01*
X135687102Y-153027923D01*
X135687099Y-153027924D01*
X135471781Y-153085618D01*
X135471771Y-153085621D01*
X135265839Y-153170921D01*
X135265835Y-153170923D01*
X135072788Y-153282380D01*
X135072779Y-153282386D01*
X134895939Y-153418079D01*
X134895932Y-153418085D01*
X134738319Y-153575698D01*
X134738313Y-153575705D01*
X134602620Y-153752545D01*
X134602614Y-153752554D01*
X134491157Y-153945601D01*
X134491155Y-153945605D01*
X134405855Y-154151537D01*
X134405852Y-154151547D01*
X134348159Y-154366862D01*
X134348156Y-154366875D01*
X134319063Y-154587861D01*
X134319062Y-154587877D01*
X90161986Y-154587877D01*
X90230861Y-152368557D01*
X90252615Y-152302163D01*
X90306813Y-152258068D01*
X90353844Y-152248410D01*
X122734562Y-151999328D01*
X124659562Y-151574328D01*
X127772747Y-150286463D01*
X147922062Y-150286463D01*
X147922062Y-152382198D01*
X147922063Y-152382204D01*
X147928470Y-152441811D01*
X147978764Y-152576656D01*
X147978768Y-152576663D01*
X148065014Y-152691872D01*
X148065017Y-152691875D01*
X148180226Y-152778121D01*
X148188016Y-152782375D01*
X148186208Y-152785685D01*
X148227913Y-152816777D01*
X148252459Y-152882193D01*
X148237742Y-152950495D01*
X148229111Y-152964168D01*
X148139221Y-153087891D01*
X148031995Y-153298331D01*
X147959008Y-153522959D01*
X147922062Y-153756230D01*
X147922062Y-153992425D01*
X147959008Y-154225696D01*
X148031995Y-154450324D01*
X148121591Y-154626164D01*
X148139219Y-154660761D01*
X148278045Y-154851838D01*
X148445052Y-155018845D01*
X148479689Y-155044011D01*
X148522354Y-155099341D01*
X148528333Y-155168954D01*
X148495727Y-155230749D01*
X148479692Y-155244643D01*
X148476286Y-155247118D01*
X148445050Y-155269812D01*
X148278047Y-155436815D01*
X148278047Y-155436816D01*
X148278045Y-155436818D01*
X148266252Y-155453050D01*
X148139219Y-155627894D01*
X148031995Y-155838331D01*
X147959008Y-156062959D01*
X147922062Y-156296230D01*
X147922062Y-156532425D01*
X147959008Y-156765696D01*
X148031995Y-156990324D01*
X148139219Y-157200761D01*
X148278045Y-157391838D01*
X148445052Y-157558845D01*
X148636129Y-157697671D01*
X148735553Y-157748330D01*
X148846565Y-157804894D01*
X148846567Y-157804894D01*
X148846570Y-157804896D01*
X148966974Y-157844017D01*
X149071193Y-157877881D01*
X149304465Y-157914828D01*
X149304470Y-157914828D01*
X149540659Y-157914828D01*
X149773930Y-157877881D01*
X149998554Y-157804896D01*
X150208995Y-157697671D01*
X150400072Y-157558845D01*
X150567079Y-157391838D01*
X150705905Y-157200761D01*
X150813130Y-156990320D01*
X150886115Y-156765696D01*
X150897861Y-156691537D01*
X150923062Y-156532425D01*
X150923062Y-156296230D01*
X150886115Y-156062959D01*
X150841612Y-155925995D01*
X150813130Y-155838336D01*
X150813128Y-155838333D01*
X150813128Y-155838331D01*
X150705904Y-155627894D01*
X150567079Y-155436818D01*
X150400072Y-155269811D01*
X150365434Y-155244645D01*
X150322769Y-155189317D01*
X150316790Y-155119703D01*
X150349395Y-155057908D01*
X150365435Y-155044010D01*
X150400072Y-155018845D01*
X150567079Y-154851838D01*
X150705905Y-154660761D01*
X150813130Y-154450320D01*
X150886115Y-154225696D01*
X150897861Y-154151537D01*
X150923062Y-153992425D01*
X150923062Y-153756230D01*
X150886115Y-153522959D01*
X150813128Y-153298331D01*
X150748209Y-153170921D01*
X150705905Y-153087895D01*
X150616011Y-152964167D01*
X150592532Y-152898363D01*
X150608357Y-152830309D01*
X150657306Y-152782738D01*
X150657108Y-152782375D01*
X150658413Y-152781662D01*
X150658463Y-152781614D01*
X150658673Y-152781520D01*
X150664888Y-152778125D01*
X150664893Y-152778124D01*
X150780108Y-152691874D01*
X150866358Y-152576659D01*
X150916653Y-152441811D01*
X150923062Y-152382201D01*
X150923061Y-150286456D01*
X150916653Y-150226845D01*
X150899880Y-150181875D01*
X150866359Y-150091999D01*
X150866355Y-150091992D01*
X150780109Y-149976783D01*
X150780106Y-149976780D01*
X150664897Y-149890534D01*
X150664890Y-149890530D01*
X150530044Y-149840236D01*
X150530045Y-149840236D01*
X150470445Y-149833829D01*
X150470443Y-149833828D01*
X150470435Y-149833828D01*
X150470426Y-149833828D01*
X148374691Y-149833828D01*
X148374685Y-149833829D01*
X148315078Y-149840236D01*
X148180233Y-149890530D01*
X148180226Y-149890534D01*
X148065017Y-149976780D01*
X148065014Y-149976783D01*
X147978768Y-150091992D01*
X147978764Y-150091999D01*
X147928470Y-150226845D01*
X147922063Y-150286444D01*
X147922063Y-150286451D01*
X147922062Y-150286463D01*
X127772747Y-150286463D01*
X132334562Y-148399328D01*
X132334562Y-146776463D01*
X192809062Y-146776463D01*
X192809062Y-149872198D01*
X192809063Y-149872204D01*
X192815470Y-149931811D01*
X192865764Y-150066656D01*
X192865768Y-150066663D01*
X192952014Y-150181872D01*
X192952017Y-150181875D01*
X193067226Y-150268121D01*
X193067233Y-150268125D01*
X193202079Y-150318419D01*
X193202078Y-150318419D01*
X193209006Y-150319163D01*
X193261689Y-150324828D01*
X196357434Y-150324827D01*
X196417045Y-150318419D01*
X196551893Y-150268124D01*
X196667108Y-150181874D01*
X196753358Y-150066659D01*
X196803653Y-149931811D01*
X196810062Y-149872201D01*
X196810061Y-146776456D01*
X196803653Y-146716845D01*
X196753358Y-146581997D01*
X196753357Y-146581996D01*
X196753355Y-146581992D01*
X196667109Y-146466783D01*
X196667106Y-146466780D01*
X196551897Y-146380534D01*
X196551890Y-146380530D01*
X196417044Y-146330236D01*
X196417045Y-146330236D01*
X196357445Y-146323829D01*
X196357443Y-146323828D01*
X196357435Y-146323828D01*
X196357426Y-146323828D01*
X193261691Y-146323828D01*
X193261685Y-146323829D01*
X193202078Y-146330236D01*
X193067233Y-146380530D01*
X193067226Y-146380534D01*
X192952017Y-146466780D01*
X192952014Y-146466783D01*
X192865768Y-146581992D01*
X192865764Y-146581999D01*
X192815470Y-146716845D01*
X192809063Y-146776444D01*
X192809063Y-146776451D01*
X192809062Y-146776463D01*
X132334562Y-146776463D01*
X132334562Y-135415874D01*
X132354247Y-135348835D01*
X132407051Y-135303080D01*
X132439164Y-135293401D01*
X132446256Y-135292277D01*
X132663430Y-135257881D01*
X132888054Y-135184896D01*
X133098495Y-135077671D01*
X133289572Y-134938845D01*
X133456579Y-134771838D01*
X133595405Y-134580761D01*
X133702630Y-134370320D01*
X133775615Y-134145696D01*
X133812562Y-133912425D01*
X133812562Y-133676230D01*
X133775615Y-133442959D01*
X133702628Y-133218331D01*
X133646064Y-133107319D01*
X133595405Y-133007895D01*
X133500978Y-132877928D01*
X133477499Y-132812124D01*
X133493324Y-132744070D01*
X133535647Y-132699850D01*
X135429617Y-131518013D01*
X135494858Y-131499214D01*
X143240389Y-131474389D01*
X143277857Y-131480060D01*
X143762225Y-131631829D01*
X143820312Y-131670657D01*
X143825467Y-131677270D01*
X143891454Y-131768092D01*
X143922717Y-131811122D01*
X144082768Y-131971173D01*
X144265886Y-132104216D01*
X144361167Y-132152764D01*
X144467556Y-132206973D01*
X144467558Y-132206973D01*
X144467561Y-132206975D01*
X144582950Y-132244467D01*
X144682828Y-132276920D01*
X144906384Y-132312328D01*
X144906389Y-132312328D01*
X145132740Y-132312328D01*
X145356295Y-132276920D01*
X145546809Y-132215017D01*
X145616648Y-132213023D01*
X145622202Y-132214622D01*
X146922838Y-132622154D01*
X146980923Y-132660981D01*
X147008796Y-132725050D01*
X147009760Y-132740209D01*
X147034562Y-144099328D01*
X169534562Y-143949328D01*
X176359562Y-137949328D01*
X176359562Y-137949327D01*
X176358405Y-136901463D01*
X178034062Y-136901463D01*
X178034062Y-139997198D01*
X178034063Y-139997204D01*
X178040470Y-140056811D01*
X178090764Y-140191656D01*
X178090768Y-140191663D01*
X178177014Y-140306872D01*
X178177017Y-140306875D01*
X178292226Y-140393121D01*
X178292233Y-140393125D01*
X178427079Y-140443419D01*
X178427078Y-140443419D01*
X178434006Y-140444163D01*
X178486689Y-140449828D01*
X181582434Y-140449827D01*
X181642045Y-140443419D01*
X181776893Y-140393124D01*
X181892108Y-140306874D01*
X181978358Y-140191659D01*
X182028653Y-140056811D01*
X182035062Y-139997201D01*
X182035061Y-136901456D01*
X182028653Y-136841845D01*
X181978358Y-136706997D01*
X181978357Y-136706996D01*
X181978355Y-136706992D01*
X181892109Y-136591783D01*
X181892106Y-136591780D01*
X181776897Y-136505534D01*
X181776890Y-136505530D01*
X181642044Y-136455236D01*
X181642045Y-136455236D01*
X181582445Y-136448829D01*
X181582443Y-136448828D01*
X181582435Y-136448828D01*
X181582426Y-136448828D01*
X178486691Y-136448828D01*
X178486685Y-136448829D01*
X178427078Y-136455236D01*
X178292233Y-136505530D01*
X178292226Y-136505534D01*
X178177017Y-136591780D01*
X178177014Y-136591783D01*
X178090768Y-136706992D01*
X178090764Y-136706999D01*
X178040470Y-136841845D01*
X178034404Y-136898271D01*
X178034063Y-136901451D01*
X178034062Y-136901463D01*
X176358405Y-136901463D01*
X176358401Y-136898271D01*
X176339156Y-119476463D01*
X192809062Y-119476463D01*
X192809062Y-122572198D01*
X192809063Y-122572204D01*
X192815470Y-122631811D01*
X192865764Y-122766656D01*
X192865768Y-122766663D01*
X192952014Y-122881872D01*
X192952017Y-122881875D01*
X193067226Y-122968121D01*
X193067233Y-122968125D01*
X193202079Y-123018419D01*
X193202078Y-123018419D01*
X193209006Y-123019163D01*
X193261689Y-123024828D01*
X196357434Y-123024827D01*
X196417045Y-123018419D01*
X196551893Y-122968124D01*
X196667108Y-122881874D01*
X196753358Y-122766659D01*
X196803653Y-122631811D01*
X196810062Y-122572201D01*
X196810061Y-119476456D01*
X196803653Y-119416845D01*
X196799749Y-119406379D01*
X196753359Y-119281999D01*
X196753355Y-119281992D01*
X196667109Y-119166783D01*
X196667106Y-119166780D01*
X196551897Y-119080534D01*
X196551890Y-119080530D01*
X196417044Y-119030236D01*
X196417045Y-119030236D01*
X196357445Y-119023829D01*
X196357443Y-119023828D01*
X196357435Y-119023828D01*
X196357426Y-119023828D01*
X193261691Y-119023828D01*
X193261685Y-119023829D01*
X193202078Y-119030236D01*
X193067233Y-119080530D01*
X193067226Y-119080534D01*
X192952017Y-119166780D01*
X192952014Y-119166783D01*
X192865768Y-119281992D01*
X192865764Y-119281999D01*
X192815470Y-119416845D01*
X192812462Y-119444828D01*
X192809063Y-119476451D01*
X192809062Y-119476463D01*
X176339156Y-119476463D01*
X176339152Y-119473271D01*
X176328137Y-109501463D01*
X178009062Y-109501463D01*
X178009062Y-112597198D01*
X178009063Y-112597204D01*
X178015470Y-112656811D01*
X178065764Y-112791656D01*
X178065768Y-112791663D01*
X178152014Y-112906872D01*
X178152017Y-112906875D01*
X178267226Y-112993121D01*
X178267233Y-112993125D01*
X178402079Y-113043419D01*
X178402078Y-113043419D01*
X178409006Y-113044163D01*
X178461689Y-113049828D01*
X181557434Y-113049827D01*
X181617045Y-113043419D01*
X181751893Y-112993124D01*
X181867108Y-112906874D01*
X181953358Y-112791659D01*
X182003653Y-112656811D01*
X182010062Y-112597201D01*
X182010061Y-109501456D01*
X182003653Y-109441845D01*
X181953358Y-109306997D01*
X181953357Y-109306996D01*
X181953355Y-109306992D01*
X181867109Y-109191783D01*
X181867106Y-109191780D01*
X181751897Y-109105534D01*
X181751890Y-109105530D01*
X181617044Y-109055236D01*
X181617045Y-109055236D01*
X181557445Y-109048829D01*
X181557443Y-109048828D01*
X181557435Y-109048828D01*
X181557426Y-109048828D01*
X178461691Y-109048828D01*
X178461685Y-109048829D01*
X178402078Y-109055236D01*
X178267233Y-109105530D01*
X178267226Y-109105534D01*
X178152017Y-109191780D01*
X178152014Y-109191783D01*
X178065768Y-109306992D01*
X178065764Y-109306999D01*
X178015470Y-109441845D01*
X178009404Y-109498271D01*
X178009063Y-109501451D01*
X178009062Y-109501463D01*
X176328137Y-109501463D01*
X176328133Y-109498271D01*
X176308888Y-92076463D01*
X192784062Y-92076463D01*
X192784062Y-95172198D01*
X192784063Y-95172204D01*
X192790470Y-95231811D01*
X192840764Y-95366656D01*
X192840768Y-95366663D01*
X192927014Y-95481872D01*
X192927017Y-95481875D01*
X193042226Y-95568121D01*
X193042233Y-95568125D01*
X193177079Y-95618419D01*
X193177078Y-95618419D01*
X193184006Y-95619163D01*
X193236689Y-95624828D01*
X196332434Y-95624827D01*
X196392045Y-95618419D01*
X196526893Y-95568124D01*
X196642108Y-95481874D01*
X196728358Y-95366659D01*
X196778653Y-95231811D01*
X196785062Y-95172201D01*
X196785061Y-92076456D01*
X196778653Y-92016845D01*
X196775956Y-92009615D01*
X196728359Y-91881999D01*
X196728355Y-91881992D01*
X196642109Y-91766783D01*
X196642106Y-91766780D01*
X196526897Y-91680534D01*
X196526890Y-91680530D01*
X196392044Y-91630236D01*
X196392045Y-91630236D01*
X196332445Y-91623829D01*
X196332443Y-91623828D01*
X196332435Y-91623828D01*
X196332426Y-91623828D01*
X193236691Y-91623828D01*
X193236685Y-91623829D01*
X193177078Y-91630236D01*
X193042233Y-91680530D01*
X193042226Y-91680534D01*
X192927017Y-91766780D01*
X192927014Y-91766783D01*
X192840768Y-91881992D01*
X192840764Y-91881999D01*
X192790470Y-92016845D01*
X192785563Y-92062493D01*
X192784063Y-92076451D01*
X192784062Y-92076463D01*
X176308888Y-92076463D01*
X176308884Y-92073271D01*
X176297924Y-82151463D01*
X177959062Y-82151463D01*
X177959062Y-85247198D01*
X177959063Y-85247204D01*
X177965470Y-85306811D01*
X178015764Y-85441656D01*
X178015768Y-85441663D01*
X178102014Y-85556872D01*
X178102017Y-85556875D01*
X178217226Y-85643121D01*
X178217233Y-85643125D01*
X178352079Y-85693419D01*
X178352078Y-85693419D01*
X178359006Y-85694163D01*
X178411689Y-85699828D01*
X181507434Y-85699827D01*
X181567045Y-85693419D01*
X181701893Y-85643124D01*
X181817108Y-85556874D01*
X181903358Y-85441659D01*
X181953653Y-85306811D01*
X181960062Y-85247201D01*
X181960061Y-82151456D01*
X181953653Y-82091845D01*
X181932570Y-82035319D01*
X181903359Y-81956999D01*
X181903355Y-81956992D01*
X181817109Y-81841783D01*
X181817106Y-81841780D01*
X181701897Y-81755534D01*
X181701890Y-81755530D01*
X181567044Y-81705236D01*
X181567045Y-81705236D01*
X181507445Y-81698829D01*
X181507443Y-81698828D01*
X181507435Y-81698828D01*
X181507426Y-81698828D01*
X178411691Y-81698828D01*
X178411685Y-81698829D01*
X178352078Y-81705236D01*
X178217233Y-81755530D01*
X178217226Y-81755534D01*
X178102017Y-81841780D01*
X178102014Y-81841783D01*
X178015768Y-81956992D01*
X178015764Y-81956999D01*
X177965470Y-82091845D01*
X177959404Y-82148271D01*
X177959063Y-82151451D01*
X177959062Y-82151463D01*
X176297924Y-82151463D01*
X176297920Y-82148271D01*
X176295298Y-79775616D01*
X176280709Y-66569541D01*
X176359562Y-66624328D01*
X183709562Y-71349328D01*
X183709562Y-65026463D01*
X192909062Y-65026463D01*
X192909062Y-68122198D01*
X192909063Y-68122204D01*
X192915470Y-68181811D01*
X192965764Y-68316656D01*
X192965768Y-68316663D01*
X193052014Y-68431872D01*
X193052017Y-68431875D01*
X193167226Y-68518121D01*
X193167233Y-68518125D01*
X193302079Y-68568419D01*
X193302078Y-68568419D01*
X193309006Y-68569163D01*
X193361689Y-68574828D01*
X196457434Y-68574827D01*
X196517045Y-68568419D01*
X196651893Y-68518124D01*
X196767108Y-68431874D01*
X196853358Y-68316659D01*
X196903653Y-68181811D01*
X196910062Y-68122201D01*
X196910061Y-65026456D01*
X196903653Y-64966845D01*
X196853358Y-64831997D01*
X196853357Y-64831996D01*
X196853355Y-64831992D01*
X196767109Y-64716783D01*
X196767106Y-64716780D01*
X196651897Y-64630534D01*
X196651890Y-64630530D01*
X196517044Y-64580236D01*
X196517045Y-64580236D01*
X196457445Y-64573829D01*
X196457443Y-64573828D01*
X196457435Y-64573828D01*
X196457426Y-64573828D01*
X193361691Y-64573828D01*
X193361685Y-64573829D01*
X193302078Y-64580236D01*
X193167233Y-64630530D01*
X193167226Y-64630534D01*
X193052017Y-64716780D01*
X193052014Y-64716783D01*
X192965768Y-64831992D01*
X192965764Y-64831999D01*
X192915470Y-64966845D01*
X192909063Y-65026444D01*
X192909063Y-65026451D01*
X192909062Y-65026463D01*
X183709562Y-65026463D01*
X183709562Y-48283485D01*
X206343753Y-48306325D01*
G37*
%TD.AperFunction*%
%TA.AperFunction,Conductor*%
G36*
X176203476Y-48112474D02*
G01*
X176249231Y-48165278D01*
X176250720Y-48172108D01*
X176260398Y-48181714D01*
X176260398Y-48181715D01*
X176018963Y-48183233D01*
X176022650Y-48175162D01*
X176030048Y-48149865D01*
X176036934Y-48143884D01*
X176040724Y-48135586D01*
X176062901Y-48121333D01*
X176082801Y-48104052D01*
X176093384Y-48101743D01*
X176099502Y-48097812D01*
X176134437Y-48092789D01*
X176136437Y-48092789D01*
X176203476Y-48112474D01*
G37*
%TD.AperFunction*%
%TD*%
%TA.AperFunction,Conductor*%
%TO.N,GND*%
G36*
X103620622Y-48092790D02*
G01*
X103921474Y-48094127D01*
X127476017Y-48198779D01*
X127542968Y-48218761D01*
X127588488Y-48271768D01*
X127599466Y-48322855D01*
X127581743Y-76929394D01*
X127562017Y-76996421D01*
X127509185Y-77042143D01*
X127440020Y-77052044D01*
X127376482Y-77022980D01*
X127354641Y-76998207D01*
X127277142Y-76882222D01*
X127277136Y-76882214D01*
X127137785Y-76742863D01*
X127137781Y-76742860D01*
X126973920Y-76633371D01*
X126973907Y-76633364D01*
X126791839Y-76557950D01*
X126791829Y-76557947D01*
X126598543Y-76519500D01*
X126598541Y-76519500D01*
X126401459Y-76519500D01*
X126401457Y-76519500D01*
X126208170Y-76557947D01*
X126208160Y-76557950D01*
X126026092Y-76633364D01*
X126026079Y-76633371D01*
X125862218Y-76742860D01*
X125862214Y-76742863D01*
X125722863Y-76882214D01*
X125722860Y-76882218D01*
X125613371Y-77046079D01*
X125613364Y-77046092D01*
X125537950Y-77228160D01*
X125537947Y-77228170D01*
X125499500Y-77421456D01*
X125499500Y-77421459D01*
X125499500Y-77618541D01*
X125499500Y-77618543D01*
X125499499Y-77618543D01*
X125537947Y-77811829D01*
X125537950Y-77811839D01*
X125613364Y-77993907D01*
X125613371Y-77993920D01*
X125722860Y-78157781D01*
X125722863Y-78157785D01*
X125862214Y-78297136D01*
X125862218Y-78297139D01*
X126026079Y-78406628D01*
X126026092Y-78406635D01*
X126208160Y-78482049D01*
X126208165Y-78482051D01*
X126208169Y-78482051D01*
X126208170Y-78482052D01*
X126401456Y-78520500D01*
X126401459Y-78520500D01*
X126598543Y-78520500D01*
X126728582Y-78494632D01*
X126791835Y-78482051D01*
X126973914Y-78406632D01*
X127137782Y-78297139D01*
X127277139Y-78157782D01*
X127353909Y-78042887D01*
X127407519Y-77998083D01*
X127476844Y-77989376D01*
X127539872Y-78019530D01*
X127576592Y-78078973D01*
X127581010Y-78111856D01*
X127571033Y-94215799D01*
X127551307Y-94282826D01*
X127498475Y-94328548D01*
X127429310Y-94338449D01*
X127374148Y-94316040D01*
X127257559Y-94231334D01*
X127257558Y-94231333D01*
X127257556Y-94231332D01*
X127205862Y-94204992D01*
X127096201Y-94149116D01*
X127096198Y-94149115D01*
X126923972Y-94093157D01*
X126745113Y-94064828D01*
X126745108Y-94064828D01*
X125564016Y-94064828D01*
X125564011Y-94064828D01*
X125385151Y-94093157D01*
X125212925Y-94149115D01*
X125212922Y-94149116D01*
X125051564Y-94231334D01*
X124905067Y-94337769D01*
X124905062Y-94337773D01*
X124777007Y-94465828D01*
X124777003Y-94465833D01*
X124670568Y-94612330D01*
X124588350Y-94773688D01*
X124588349Y-94773691D01*
X124532391Y-94945917D01*
X124504062Y-95124776D01*
X124504062Y-95305879D01*
X124532391Y-95484738D01*
X124588349Y-95656964D01*
X124588350Y-95656967D01*
X124670568Y-95818325D01*
X124777003Y-95964822D01*
X124777007Y-95964827D01*
X124892327Y-96080147D01*
X124925812Y-96141470D01*
X124920828Y-96211162D01*
X124892327Y-96255509D01*
X124777007Y-96370828D01*
X124777003Y-96370833D01*
X124670568Y-96517330D01*
X124588350Y-96678688D01*
X124588349Y-96678691D01*
X124532391Y-96850917D01*
X124504062Y-97029776D01*
X124504062Y-97210879D01*
X124532391Y-97389738D01*
X124588349Y-97561964D01*
X124588350Y-97561967D01*
X124670568Y-97723325D01*
X124777003Y-97869822D01*
X124777007Y-97869827D01*
X124905062Y-97997882D01*
X124905067Y-97997886D01*
X125032849Y-98090724D01*
X125051568Y-98104324D01*
X125157046Y-98158068D01*
X125212922Y-98186539D01*
X125212925Y-98186540D01*
X125299038Y-98214519D01*
X125385153Y-98242499D01*
X125467991Y-98255619D01*
X125564011Y-98270828D01*
X125564016Y-98270828D01*
X126745113Y-98270828D01*
X126831821Y-98257093D01*
X126923971Y-98242499D01*
X127096201Y-98186539D01*
X127257556Y-98104324D01*
X127336089Y-98047266D01*
X127371728Y-98021374D01*
X127437534Y-97997894D01*
X127505588Y-98013720D01*
X127554283Y-98063825D01*
X127568613Y-98121769D01*
X127567494Y-99928227D01*
X127547768Y-99995254D01*
X127494936Y-100040976D01*
X127425771Y-100050877D01*
X127370609Y-100028469D01*
X127257555Y-99946331D01*
X127096201Y-99864116D01*
X127096198Y-99864115D01*
X126923972Y-99808157D01*
X126745113Y-99779828D01*
X126745108Y-99779828D01*
X125564016Y-99779828D01*
X125564011Y-99779828D01*
X125385151Y-99808157D01*
X125212925Y-99864115D01*
X125212922Y-99864116D01*
X125051564Y-99946334D01*
X124905067Y-100052769D01*
X124905062Y-100052773D01*
X124777007Y-100180828D01*
X124777003Y-100180833D01*
X124670568Y-100327330D01*
X124588350Y-100488688D01*
X124588349Y-100488691D01*
X124532391Y-100660917D01*
X124504062Y-100839776D01*
X124504062Y-101020879D01*
X124532391Y-101199738D01*
X124588349Y-101371964D01*
X124588350Y-101371967D01*
X124670568Y-101533325D01*
X124777003Y-101679822D01*
X124777007Y-101679827D01*
X124905062Y-101807882D01*
X124905067Y-101807886D01*
X124998186Y-101875540D01*
X125051568Y-101914324D01*
X125157046Y-101968068D01*
X125212922Y-101996539D01*
X125212925Y-101996540D01*
X125299038Y-102024519D01*
X125385153Y-102052499D01*
X125467991Y-102065619D01*
X125564011Y-102080828D01*
X125564016Y-102080828D01*
X126745113Y-102080828D01*
X126831821Y-102067093D01*
X126923971Y-102052499D01*
X127096201Y-101996539D01*
X127257556Y-101914324D01*
X127369367Y-101833088D01*
X127435173Y-101809609D01*
X127503227Y-101825434D01*
X127551922Y-101875540D01*
X127566252Y-101933484D01*
X127537582Y-148209857D01*
X127517856Y-148276884D01*
X127465024Y-148322606D01*
X127413763Y-148333780D01*
X82929338Y-148398883D01*
X82862270Y-148379296D01*
X82816438Y-148326559D01*
X82805157Y-148274883D01*
X82805157Y-134625905D01*
X109731562Y-134625905D01*
X109731562Y-134822750D01*
X109762352Y-135017154D01*
X109823179Y-135204357D01*
X109912538Y-135379733D01*
X110028234Y-135538974D01*
X110167416Y-135678156D01*
X110326657Y-135793852D01*
X110409517Y-135836071D01*
X110502032Y-135883210D01*
X110502034Y-135883210D01*
X110502037Y-135883212D01*
X110602379Y-135915815D01*
X110689235Y-135944037D01*
X110883640Y-135974828D01*
X110883645Y-135974828D01*
X111080484Y-135974828D01*
X111274888Y-135944037D01*
X111462087Y-135883212D01*
X111637467Y-135793852D01*
X111796708Y-135678156D01*
X111935890Y-135538974D01*
X112051586Y-135379733D01*
X112140946Y-135204353D01*
X112201771Y-135017154D01*
X112232562Y-134822750D01*
X112232562Y-134625905D01*
X112201771Y-134431501D01*
X112140944Y-134244298D01*
X112051585Y-134068922D01*
X111935890Y-133909682D01*
X111796708Y-133770500D01*
X111637467Y-133654804D01*
X111462091Y-133565445D01*
X111274888Y-133504618D01*
X111080484Y-133473828D01*
X111080479Y-133473828D01*
X110883645Y-133473828D01*
X110883640Y-133473828D01*
X110689235Y-133504618D01*
X110502032Y-133565445D01*
X110326656Y-133654804D01*
X110235803Y-133720813D01*
X110167416Y-133770500D01*
X110167414Y-133770502D01*
X110167413Y-133770502D01*
X110028236Y-133909679D01*
X110028236Y-133909680D01*
X110028234Y-133909682D01*
X109978547Y-133978069D01*
X109912538Y-134068922D01*
X109823179Y-134244298D01*
X109762352Y-134431501D01*
X109731562Y-134625905D01*
X82805157Y-134625905D01*
X82805157Y-129318543D01*
X121779499Y-129318543D01*
X121817947Y-129511829D01*
X121817950Y-129511839D01*
X121893364Y-129693907D01*
X121893371Y-129693920D01*
X122002860Y-129857781D01*
X122002863Y-129857785D01*
X122142214Y-129997136D01*
X122142218Y-129997139D01*
X122306079Y-130106628D01*
X122306092Y-130106635D01*
X122488160Y-130182049D01*
X122488165Y-130182051D01*
X122488169Y-130182051D01*
X122488170Y-130182052D01*
X122681456Y-130220500D01*
X122681459Y-130220500D01*
X122878543Y-130220500D01*
X123008582Y-130194632D01*
X123071835Y-130182051D01*
X123253914Y-130106632D01*
X123417782Y-129997139D01*
X123557139Y-129857782D01*
X123666632Y-129693914D01*
X123742051Y-129511835D01*
X123780500Y-129318541D01*
X123780500Y-129121459D01*
X123780500Y-129121456D01*
X123742052Y-128928170D01*
X123742051Y-128928169D01*
X123742051Y-128928165D01*
X123742049Y-128928160D01*
X123666635Y-128746092D01*
X123666628Y-128746079D01*
X123557139Y-128582218D01*
X123557136Y-128582214D01*
X123417785Y-128442863D01*
X123417781Y-128442860D01*
X123253920Y-128333371D01*
X123253907Y-128333364D01*
X123071839Y-128257950D01*
X123071829Y-128257947D01*
X122878543Y-128219500D01*
X122878541Y-128219500D01*
X122681459Y-128219500D01*
X122681457Y-128219500D01*
X122488170Y-128257947D01*
X122488160Y-128257950D01*
X122306092Y-128333364D01*
X122306079Y-128333371D01*
X122142218Y-128442860D01*
X122142214Y-128442863D01*
X122002863Y-128582214D01*
X122002860Y-128582218D01*
X121893371Y-128746079D01*
X121893364Y-128746092D01*
X121817950Y-128928160D01*
X121817947Y-128928170D01*
X121779500Y-129121456D01*
X121779500Y-129121459D01*
X121779500Y-129318541D01*
X121779500Y-129318543D01*
X121779499Y-129318543D01*
X82805157Y-129318543D01*
X82805157Y-126068198D01*
X86549062Y-126068198D01*
X86549062Y-126300457D01*
X86585393Y-126529842D01*
X86657163Y-126750728D01*
X86762601Y-126957659D01*
X86899113Y-127145552D01*
X87063338Y-127309777D01*
X87251231Y-127446289D01*
X87348998Y-127496104D01*
X87458161Y-127551726D01*
X87458163Y-127551726D01*
X87458166Y-127551728D01*
X87679048Y-127623497D01*
X87797230Y-127642214D01*
X87908433Y-127659828D01*
X87908438Y-127659828D01*
X88140691Y-127659828D01*
X88242064Y-127643771D01*
X88370076Y-127623497D01*
X88590958Y-127551728D01*
X88797893Y-127446289D01*
X88985786Y-127309777D01*
X89150011Y-127145552D01*
X89286523Y-126957659D01*
X89391962Y-126750724D01*
X89463731Y-126529842D01*
X89484005Y-126401830D01*
X89500062Y-126300457D01*
X89500062Y-126068198D01*
X89480794Y-125946550D01*
X89463731Y-125838814D01*
X89391962Y-125617932D01*
X89391960Y-125617929D01*
X89391960Y-125617927D01*
X89286522Y-125410996D01*
X89150011Y-125223104D01*
X88985786Y-125058879D01*
X88797893Y-124922367D01*
X88590962Y-124816929D01*
X88370076Y-124745159D01*
X88140691Y-124708828D01*
X88140686Y-124708828D01*
X87908438Y-124708828D01*
X87908433Y-124708828D01*
X87679047Y-124745159D01*
X87458161Y-124816929D01*
X87251230Y-124922367D01*
X87063335Y-125058881D01*
X86899115Y-125223101D01*
X86762601Y-125410996D01*
X86657163Y-125617927D01*
X86585393Y-125838813D01*
X86549062Y-126068198D01*
X82805157Y-126068198D01*
X82805157Y-121407218D01*
X121959792Y-121407218D01*
X121998240Y-121600504D01*
X121998243Y-121600514D01*
X122073657Y-121782582D01*
X122073664Y-121782595D01*
X122183153Y-121946456D01*
X122183156Y-121946460D01*
X122322507Y-122085811D01*
X122322511Y-122085814D01*
X122486372Y-122195303D01*
X122486385Y-122195310D01*
X122668453Y-122270724D01*
X122668458Y-122270726D01*
X122668462Y-122270726D01*
X122668463Y-122270727D01*
X122861749Y-122309175D01*
X122861752Y-122309175D01*
X123058836Y-122309175D01*
X123188875Y-122283307D01*
X123252128Y-122270726D01*
X123434207Y-122195307D01*
X123598075Y-122085814D01*
X123737432Y-121946457D01*
X123846925Y-121782589D01*
X123922344Y-121600510D01*
X123960793Y-121407216D01*
X123960793Y-121210134D01*
X123960793Y-121210131D01*
X123922345Y-121016845D01*
X123922344Y-121016844D01*
X123922344Y-121016840D01*
X123922342Y-121016835D01*
X123846928Y-120834767D01*
X123846921Y-120834754D01*
X123737432Y-120670893D01*
X123737429Y-120670889D01*
X123598078Y-120531538D01*
X123598074Y-120531535D01*
X123434213Y-120422046D01*
X123434200Y-120422039D01*
X123252132Y-120346625D01*
X123252122Y-120346622D01*
X123058836Y-120308175D01*
X123058834Y-120308175D01*
X122861752Y-120308175D01*
X122861750Y-120308175D01*
X122668463Y-120346622D01*
X122668453Y-120346625D01*
X122486385Y-120422039D01*
X122486372Y-120422046D01*
X122322511Y-120531535D01*
X122322507Y-120531538D01*
X122183156Y-120670889D01*
X122183153Y-120670893D01*
X122073664Y-120834754D01*
X122073657Y-120834767D01*
X121998243Y-121016835D01*
X121998240Y-121016845D01*
X121959793Y-121210131D01*
X121959793Y-121210134D01*
X121959793Y-121407216D01*
X121959793Y-121407218D01*
X121959792Y-121407218D01*
X82805157Y-121407218D01*
X82805157Y-117102871D01*
X98891561Y-117102871D01*
X98930009Y-117296157D01*
X98930012Y-117296167D01*
X99005426Y-117478235D01*
X99005433Y-117478248D01*
X99114922Y-117642109D01*
X99114925Y-117642113D01*
X99254276Y-117781464D01*
X99254280Y-117781467D01*
X99418141Y-117890956D01*
X99418154Y-117890963D01*
X99600222Y-117966377D01*
X99600227Y-117966379D01*
X99600231Y-117966379D01*
X99600232Y-117966380D01*
X99793518Y-118004828D01*
X99793521Y-118004828D01*
X99990605Y-118004828D01*
X100120644Y-117978960D01*
X100183897Y-117966379D01*
X100365976Y-117890960D01*
X100529844Y-117781467D01*
X100669201Y-117642110D01*
X100778694Y-117478242D01*
X100854113Y-117296163D01*
X100892562Y-117102869D01*
X100892562Y-116905787D01*
X100892562Y-116905784D01*
X100854114Y-116712498D01*
X100854113Y-116712497D01*
X100854113Y-116712493D01*
X100854111Y-116712488D01*
X100778697Y-116530420D01*
X100778690Y-116530407D01*
X100669201Y-116366546D01*
X100669198Y-116366542D01*
X100529847Y-116227191D01*
X100529843Y-116227188D01*
X100365982Y-116117699D01*
X100365969Y-116117692D01*
X100183901Y-116042278D01*
X100183891Y-116042275D01*
X99990605Y-116003828D01*
X99990603Y-116003828D01*
X99793521Y-116003828D01*
X99793519Y-116003828D01*
X99600232Y-116042275D01*
X99600222Y-116042278D01*
X99418154Y-116117692D01*
X99418141Y-116117699D01*
X99254280Y-116227188D01*
X99254276Y-116227191D01*
X99114925Y-116366542D01*
X99114922Y-116366546D01*
X99005433Y-116530407D01*
X99005426Y-116530420D01*
X98930012Y-116712488D01*
X98930009Y-116712498D01*
X98891562Y-116905784D01*
X98891562Y-116905787D01*
X98891562Y-117102869D01*
X98891562Y-117102871D01*
X98891561Y-117102871D01*
X82805157Y-117102871D01*
X82805157Y-114707871D01*
X92149061Y-114707871D01*
X92187509Y-114901157D01*
X92187512Y-114901167D01*
X92262926Y-115083235D01*
X92262933Y-115083248D01*
X92372422Y-115247109D01*
X92372425Y-115247113D01*
X92511776Y-115386464D01*
X92511780Y-115386467D01*
X92675641Y-115495956D01*
X92675654Y-115495963D01*
X92857722Y-115571377D01*
X92857727Y-115571379D01*
X92857731Y-115571379D01*
X92857732Y-115571380D01*
X93051018Y-115609828D01*
X93051021Y-115609828D01*
X93248105Y-115609828D01*
X93378144Y-115583960D01*
X93441397Y-115571379D01*
X93623476Y-115495960D01*
X93787344Y-115386467D01*
X93926701Y-115247110D01*
X94036194Y-115083242D01*
X94111613Y-114901163D01*
X94150062Y-114707869D01*
X94150062Y-114510787D01*
X94150062Y-114510784D01*
X94111614Y-114317498D01*
X94111613Y-114317497D01*
X94111613Y-114317493D01*
X94111611Y-114317488D01*
X94036197Y-114135420D01*
X94036190Y-114135407D01*
X93926701Y-113971546D01*
X93926698Y-113971542D01*
X93787347Y-113832191D01*
X93787343Y-113832188D01*
X93623482Y-113722699D01*
X93623469Y-113722692D01*
X93441401Y-113647278D01*
X93441391Y-113647275D01*
X93248105Y-113608828D01*
X93248103Y-113608828D01*
X93051021Y-113608828D01*
X93051019Y-113608828D01*
X92857732Y-113647275D01*
X92857722Y-113647278D01*
X92675654Y-113722692D01*
X92675641Y-113722699D01*
X92511780Y-113832188D01*
X92511776Y-113832191D01*
X92372425Y-113971542D01*
X92372422Y-113971546D01*
X92262933Y-114135407D01*
X92262926Y-114135420D01*
X92187512Y-114317488D01*
X92187509Y-114317498D01*
X92149062Y-114510784D01*
X92149062Y-114510787D01*
X92149062Y-114707869D01*
X92149062Y-114707871D01*
X92149061Y-114707871D01*
X82805157Y-114707871D01*
X82805157Y-112235905D01*
X89199062Y-112235905D01*
X89199062Y-112432750D01*
X89229852Y-112627154D01*
X89290679Y-112814357D01*
X89380038Y-112989733D01*
X89495734Y-113148974D01*
X89634916Y-113288156D01*
X89794157Y-113403852D01*
X89877017Y-113446071D01*
X89969532Y-113493210D01*
X89969534Y-113493210D01*
X89969537Y-113493212D01*
X90069879Y-113525815D01*
X90156735Y-113554037D01*
X90351140Y-113584828D01*
X90351145Y-113584828D01*
X90547984Y-113584828D01*
X90742388Y-113554037D01*
X90929587Y-113493212D01*
X91104967Y-113403852D01*
X91264208Y-113288156D01*
X91403390Y-113148974D01*
X91519086Y-112989733D01*
X91608446Y-112814353D01*
X91669271Y-112627154D01*
X91700062Y-112432750D01*
X91700062Y-112235905D01*
X91669271Y-112041501D01*
X91608444Y-111854298D01*
X91519085Y-111678922D01*
X91403390Y-111519682D01*
X91264208Y-111380500D01*
X91104967Y-111264804D01*
X90929591Y-111175445D01*
X90742388Y-111114618D01*
X90547984Y-111083828D01*
X90547979Y-111083828D01*
X90351145Y-111083828D01*
X90351140Y-111083828D01*
X90156735Y-111114618D01*
X89969532Y-111175445D01*
X89794156Y-111264804D01*
X89703303Y-111330813D01*
X89634916Y-111380500D01*
X89634914Y-111380502D01*
X89634913Y-111380502D01*
X89495736Y-111519679D01*
X89495736Y-111519680D01*
X89495734Y-111519682D01*
X89446047Y-111588069D01*
X89380038Y-111678922D01*
X89290679Y-111854298D01*
X89229852Y-112041501D01*
X89199062Y-112235905D01*
X82805157Y-112235905D01*
X82805157Y-82020313D01*
X84965062Y-82020313D01*
X84965062Y-82208342D01*
X84994473Y-82394041D01*
X85052576Y-82572861D01*
X85099886Y-82665710D01*
X85128294Y-82721464D01*
X85137936Y-82740386D01*
X85248442Y-82892486D01*
X85248446Y-82892491D01*
X85381398Y-83025443D01*
X85381403Y-83025447D01*
X85514073Y-83121836D01*
X85533507Y-83135956D01*
X85640252Y-83190345D01*
X85701028Y-83221313D01*
X85701030Y-83221313D01*
X85701033Y-83221315D01*
X85785247Y-83248678D01*
X85839780Y-83266397D01*
X85897455Y-83305835D01*
X85924653Y-83370194D01*
X85912738Y-83439040D01*
X85865494Y-83490516D01*
X85839780Y-83502259D01*
X85701028Y-83547342D01*
X85533503Y-83632702D01*
X85381403Y-83743208D01*
X85381398Y-83743212D01*
X85248446Y-83876164D01*
X85248442Y-83876169D01*
X85137936Y-84028269D01*
X85052576Y-84195794D01*
X84994473Y-84374614D01*
X84965062Y-84560313D01*
X84965062Y-84748342D01*
X84994473Y-84934041D01*
X85052576Y-85112861D01*
X85137936Y-85280386D01*
X85248442Y-85432486D01*
X85248446Y-85432491D01*
X85381398Y-85565443D01*
X85381403Y-85565447D01*
X85514073Y-85661836D01*
X85533507Y-85675956D01*
X85640252Y-85730345D01*
X85701028Y-85761313D01*
X85701030Y-85761313D01*
X85701033Y-85761315D01*
X85785247Y-85788678D01*
X85839780Y-85806397D01*
X85897455Y-85845835D01*
X85924653Y-85910194D01*
X85912738Y-85979040D01*
X85865494Y-86030516D01*
X85839780Y-86042259D01*
X85701028Y-86087342D01*
X85533503Y-86172702D01*
X85381403Y-86283208D01*
X85381398Y-86283212D01*
X85248446Y-86416164D01*
X85248442Y-86416169D01*
X85137936Y-86568269D01*
X85052576Y-86735794D01*
X84994473Y-86914614D01*
X84965062Y-87100313D01*
X84965062Y-87288342D01*
X84994473Y-87474041D01*
X85052576Y-87652861D01*
X85111278Y-87768068D01*
X85135055Y-87814733D01*
X85137936Y-87820386D01*
X85248442Y-87972486D01*
X85248446Y-87972491D01*
X85381398Y-88105443D01*
X85381403Y-88105447D01*
X85514073Y-88201836D01*
X85533507Y-88215956D01*
X85640252Y-88270345D01*
X85701028Y-88301313D01*
X85701030Y-88301313D01*
X85701033Y-88301315D01*
X85785247Y-88328678D01*
X85839780Y-88346397D01*
X85897455Y-88385835D01*
X85924653Y-88450194D01*
X85912738Y-88519040D01*
X85865494Y-88570516D01*
X85839780Y-88582259D01*
X85701028Y-88627342D01*
X85533503Y-88712702D01*
X85381403Y-88823208D01*
X85381398Y-88823212D01*
X85248446Y-88956164D01*
X85248442Y-88956169D01*
X85137936Y-89108269D01*
X85052576Y-89275794D01*
X84994473Y-89454614D01*
X84965062Y-89640313D01*
X84965062Y-89828342D01*
X84994473Y-90014041D01*
X85052576Y-90192861D01*
X85137936Y-90360386D01*
X85248442Y-90512486D01*
X85248446Y-90512491D01*
X85381398Y-90645443D01*
X85381403Y-90645447D01*
X85514073Y-90741836D01*
X85533507Y-90755956D01*
X85640252Y-90810345D01*
X85701028Y-90841313D01*
X85701030Y-90841313D01*
X85701033Y-90841315D01*
X85785247Y-90868678D01*
X85839780Y-90886397D01*
X85897455Y-90925835D01*
X85924653Y-90990194D01*
X85912738Y-91059040D01*
X85865494Y-91110516D01*
X85839780Y-91122259D01*
X85701028Y-91167342D01*
X85533503Y-91252702D01*
X85381403Y-91363208D01*
X85381398Y-91363212D01*
X85248446Y-91496164D01*
X85248442Y-91496169D01*
X85137936Y-91648269D01*
X85052576Y-91815794D01*
X84994473Y-91994614D01*
X84965062Y-92180313D01*
X84965062Y-92368342D01*
X84994473Y-92554041D01*
X85052576Y-92732861D01*
X85137936Y-92900386D01*
X85248442Y-93052486D01*
X85248446Y-93052491D01*
X85381398Y-93185443D01*
X85381403Y-93185447D01*
X85514073Y-93281836D01*
X85533507Y-93295956D01*
X85640252Y-93350345D01*
X85701028Y-93381313D01*
X85701030Y-93381313D01*
X85701033Y-93381315D01*
X85785247Y-93408678D01*
X85839780Y-93426397D01*
X85897455Y-93465835D01*
X85924653Y-93530194D01*
X85912738Y-93599040D01*
X85865494Y-93650516D01*
X85839780Y-93662259D01*
X85701028Y-93707342D01*
X85533503Y-93792702D01*
X85381403Y-93903208D01*
X85381398Y-93903212D01*
X85248446Y-94036164D01*
X85248442Y-94036169D01*
X85137936Y-94188269D01*
X85052576Y-94355794D01*
X84994473Y-94534614D01*
X84965062Y-94720313D01*
X84965062Y-94908342D01*
X84994473Y-95094041D01*
X85052576Y-95272861D01*
X85137936Y-95440386D01*
X85248442Y-95592486D01*
X85248446Y-95592491D01*
X85381398Y-95725443D01*
X85381403Y-95725447D01*
X85509236Y-95818322D01*
X85533507Y-95835956D01*
X85640252Y-95890345D01*
X85701028Y-95921313D01*
X85701030Y-95921313D01*
X85701033Y-95921315D01*
X85785247Y-95948678D01*
X85839780Y-95966397D01*
X85897455Y-96005835D01*
X85924653Y-96070194D01*
X85912738Y-96139040D01*
X85865494Y-96190516D01*
X85839780Y-96202259D01*
X85701028Y-96247342D01*
X85533503Y-96332702D01*
X85381403Y-96443208D01*
X85381398Y-96443212D01*
X85248446Y-96576164D01*
X85248442Y-96576169D01*
X85137936Y-96728269D01*
X85052576Y-96895794D01*
X84994473Y-97074614D01*
X84965062Y-97260313D01*
X84965062Y-97448342D01*
X84994473Y-97634041D01*
X85052576Y-97812861D01*
X85137936Y-97980386D01*
X85248442Y-98132486D01*
X85248446Y-98132491D01*
X85381398Y-98265443D01*
X85381403Y-98265447D01*
X85514073Y-98361836D01*
X85533507Y-98375956D01*
X85640252Y-98430345D01*
X85701028Y-98461313D01*
X85701030Y-98461313D01*
X85701033Y-98461315D01*
X85785247Y-98488678D01*
X85839780Y-98506397D01*
X85897455Y-98545835D01*
X85924653Y-98610194D01*
X85912738Y-98679040D01*
X85865494Y-98730516D01*
X85839780Y-98742259D01*
X85701028Y-98787342D01*
X85533503Y-98872702D01*
X85381403Y-98983208D01*
X85381398Y-98983212D01*
X85248446Y-99116164D01*
X85248442Y-99116169D01*
X85137936Y-99268269D01*
X85052576Y-99435794D01*
X84994473Y-99614614D01*
X84965062Y-99800313D01*
X84965062Y-99988342D01*
X84994473Y-100174041D01*
X85052576Y-100352861D01*
X85137936Y-100520386D01*
X85248442Y-100672486D01*
X85248446Y-100672491D01*
X85381398Y-100805443D01*
X85381403Y-100805447D01*
X85428662Y-100839782D01*
X85533507Y-100915956D01*
X85640252Y-100970345D01*
X85701028Y-101001313D01*
X85701030Y-101001313D01*
X85701033Y-101001315D01*
X85761245Y-101020879D01*
X85839780Y-101046397D01*
X85897455Y-101085835D01*
X85924653Y-101150194D01*
X85912738Y-101219040D01*
X85865494Y-101270516D01*
X85839780Y-101282259D01*
X85701028Y-101327342D01*
X85533503Y-101412702D01*
X85381403Y-101523208D01*
X85381398Y-101523212D01*
X85248446Y-101656164D01*
X85248442Y-101656169D01*
X85137936Y-101808269D01*
X85052576Y-101975794D01*
X84994473Y-102154614D01*
X84965062Y-102340313D01*
X84965062Y-102528342D01*
X84994473Y-102714041D01*
X85052576Y-102892861D01*
X85137936Y-103060386D01*
X85248442Y-103212486D01*
X85248446Y-103212491D01*
X85381398Y-103345443D01*
X85381403Y-103345447D01*
X85514073Y-103441836D01*
X85533507Y-103455956D01*
X85640252Y-103510345D01*
X85701028Y-103541313D01*
X85701030Y-103541313D01*
X85701033Y-103541315D01*
X85785247Y-103568678D01*
X85839780Y-103586397D01*
X85897455Y-103625835D01*
X85924653Y-103690194D01*
X85912738Y-103759040D01*
X85865494Y-103810516D01*
X85839780Y-103822259D01*
X85701028Y-103867342D01*
X85533503Y-103952702D01*
X85381403Y-104063208D01*
X85381398Y-104063212D01*
X85248446Y-104196164D01*
X85248442Y-104196169D01*
X85137936Y-104348269D01*
X85052576Y-104515794D01*
X84994473Y-104694614D01*
X84965062Y-104880313D01*
X84965062Y-105068342D01*
X84994473Y-105254041D01*
X85052576Y-105432861D01*
X85137936Y-105600386D01*
X85248442Y-105752486D01*
X85248446Y-105752491D01*
X85381398Y-105885443D01*
X85381403Y-105885447D01*
X85421810Y-105914804D01*
X85533507Y-105995956D01*
X85640252Y-106050345D01*
X85701028Y-106081313D01*
X85701030Y-106081313D01*
X85701033Y-106081315D01*
X85785247Y-106108678D01*
X85839780Y-106126397D01*
X85897455Y-106165835D01*
X85924653Y-106230194D01*
X85912738Y-106299040D01*
X85865494Y-106350516D01*
X85839780Y-106362259D01*
X85701028Y-106407342D01*
X85533503Y-106492702D01*
X85381403Y-106603208D01*
X85381398Y-106603212D01*
X85248446Y-106736164D01*
X85248442Y-106736169D01*
X85137936Y-106888269D01*
X85052576Y-107055794D01*
X84994473Y-107234614D01*
X84965062Y-107420313D01*
X84965062Y-107608342D01*
X84994473Y-107794041D01*
X85052576Y-107972861D01*
X85137936Y-108140386D01*
X85248442Y-108292486D01*
X85248446Y-108292491D01*
X85381398Y-108425443D01*
X85381403Y-108425447D01*
X85514073Y-108521836D01*
X85533507Y-108535956D01*
X85640252Y-108590345D01*
X85701028Y-108621313D01*
X85701030Y-108621313D01*
X85701033Y-108621315D01*
X85796882Y-108652458D01*
X85879848Y-108679416D01*
X86065548Y-108708828D01*
X86065553Y-108708828D01*
X86253576Y-108708828D01*
X86439275Y-108679416D01*
X86618091Y-108621315D01*
X86785617Y-108535956D01*
X86937727Y-108425442D01*
X87070676Y-108292493D01*
X87181190Y-108140383D01*
X87266549Y-107972857D01*
X87324650Y-107794041D01*
X87354062Y-107608342D01*
X87354062Y-107420313D01*
X87324650Y-107234614D01*
X87275304Y-107082745D01*
X87266549Y-107055799D01*
X87266547Y-107055796D01*
X87266547Y-107055794D01*
X87206188Y-106937334D01*
X87203795Y-106932639D01*
X87181190Y-106888273D01*
X87179470Y-106885905D01*
X92049062Y-106885905D01*
X92049062Y-107082750D01*
X92079852Y-107277154D01*
X92140679Y-107464357D01*
X92221684Y-107623337D01*
X92230038Y-107639733D01*
X92345734Y-107798974D01*
X92484916Y-107938156D01*
X92644157Y-108053852D01*
X92727017Y-108096071D01*
X92819532Y-108143210D01*
X92819534Y-108143210D01*
X92819537Y-108143212D01*
X92919879Y-108175815D01*
X93006735Y-108204037D01*
X93201140Y-108234828D01*
X93201145Y-108234828D01*
X93397984Y-108234828D01*
X93592388Y-108204037D01*
X93779587Y-108143212D01*
X93954967Y-108053852D01*
X94114208Y-107938156D01*
X94253390Y-107798974D01*
X94369086Y-107639733D01*
X94458446Y-107464353D01*
X94519271Y-107277154D01*
X94523633Y-107249614D01*
X94550062Y-107082750D01*
X94550062Y-106885905D01*
X94519271Y-106691501D01*
X94459550Y-106507702D01*
X94458446Y-106504303D01*
X94458444Y-106504300D01*
X94458444Y-106504298D01*
X94379438Y-106349240D01*
X94369086Y-106328923D01*
X94253390Y-106169682D01*
X94114208Y-106030500D01*
X93954967Y-105914804D01*
X93926780Y-105900442D01*
X93779591Y-105825445D01*
X93592388Y-105764618D01*
X93397984Y-105733828D01*
X93397979Y-105733828D01*
X93201145Y-105733828D01*
X93201140Y-105733828D01*
X93006735Y-105764618D01*
X92819532Y-105825445D01*
X92644156Y-105914804D01*
X92554865Y-105979679D01*
X92484916Y-106030500D01*
X92484914Y-106030502D01*
X92484913Y-106030502D01*
X92345736Y-106169679D01*
X92345736Y-106169680D01*
X92345734Y-106169682D01*
X92331251Y-106189616D01*
X92230038Y-106328922D01*
X92140679Y-106504298D01*
X92079852Y-106691501D01*
X92049062Y-106885905D01*
X87179470Y-106885905D01*
X87167070Y-106868839D01*
X87070681Y-106736169D01*
X87070677Y-106736164D01*
X86937725Y-106603212D01*
X86937720Y-106603208D01*
X86785620Y-106492702D01*
X86785619Y-106492701D01*
X86785617Y-106492700D01*
X86733302Y-106466044D01*
X86618095Y-106407342D01*
X86479343Y-106362259D01*
X86421668Y-106322821D01*
X86394470Y-106258462D01*
X86406385Y-106189616D01*
X86453629Y-106138140D01*
X86479343Y-106126397D01*
X86618091Y-106081315D01*
X86785617Y-105995956D01*
X86937727Y-105885442D01*
X87070676Y-105752493D01*
X87181190Y-105600383D01*
X87266549Y-105432857D01*
X87324650Y-105254041D01*
X87354062Y-105068342D01*
X87354062Y-104880313D01*
X87324650Y-104694614D01*
X87297692Y-104611648D01*
X87266549Y-104515799D01*
X87266547Y-104515796D01*
X87266547Y-104515794D01*
X87235579Y-104455018D01*
X87181190Y-104348273D01*
X87167070Y-104328839D01*
X87070681Y-104196169D01*
X87070677Y-104196164D01*
X86937725Y-104063212D01*
X86937720Y-104063208D01*
X86785620Y-103952702D01*
X86785619Y-103952701D01*
X86785617Y-103952700D01*
X86733302Y-103926044D01*
X86618095Y-103867342D01*
X86479343Y-103822259D01*
X86421668Y-103782821D01*
X86394470Y-103718462D01*
X86406385Y-103649616D01*
X86453629Y-103598140D01*
X86479343Y-103586397D01*
X86618091Y-103541315D01*
X86785617Y-103455956D01*
X86937727Y-103345442D01*
X87070676Y-103212493D01*
X87181190Y-103060383D01*
X87266549Y-102892857D01*
X87324650Y-102714041D01*
X87354062Y-102528342D01*
X87354062Y-102340313D01*
X87324650Y-102154614D01*
X87273288Y-101996539D01*
X87266549Y-101975799D01*
X87266547Y-101975796D01*
X87266547Y-101975794D01*
X87193834Y-101833089D01*
X87181190Y-101808273D01*
X87167070Y-101788839D01*
X87070681Y-101656169D01*
X87070677Y-101656164D01*
X86937725Y-101523212D01*
X86937720Y-101523208D01*
X86785620Y-101412702D01*
X86785619Y-101412701D01*
X86785617Y-101412700D01*
X86733302Y-101386044D01*
X86618095Y-101327342D01*
X86479343Y-101282259D01*
X86421668Y-101242821D01*
X86394470Y-101178462D01*
X86406385Y-101109616D01*
X86453629Y-101058140D01*
X86479343Y-101046397D01*
X86618091Y-101001315D01*
X86785617Y-100915956D01*
X86937727Y-100805442D01*
X87070676Y-100672493D01*
X87181190Y-100520383D01*
X87266549Y-100352857D01*
X87324650Y-100174041D01*
X87354062Y-99988342D01*
X87354062Y-99800313D01*
X87324650Y-99614614D01*
X87297692Y-99531648D01*
X87266549Y-99435799D01*
X87266547Y-99435796D01*
X87266547Y-99435794D01*
X87235579Y-99375018D01*
X87181190Y-99268273D01*
X87167070Y-99248839D01*
X87070681Y-99116169D01*
X87070677Y-99116164D01*
X86937725Y-98983212D01*
X86937720Y-98983208D01*
X86785620Y-98872702D01*
X86785619Y-98872701D01*
X86785617Y-98872700D01*
X86733302Y-98846044D01*
X86618095Y-98787342D01*
X86479343Y-98742259D01*
X86421668Y-98702821D01*
X86394470Y-98638462D01*
X86406385Y-98569616D01*
X86453629Y-98518140D01*
X86479343Y-98506397D01*
X86618091Y-98461315D01*
X86785617Y-98375956D01*
X86937727Y-98265442D01*
X87070676Y-98132493D01*
X87181190Y-97980383D01*
X87266549Y-97812857D01*
X87324650Y-97634041D01*
X87336066Y-97561964D01*
X87354062Y-97448342D01*
X87354062Y-97260313D01*
X87324650Y-97074614D01*
X87297692Y-96991648D01*
X87266549Y-96895799D01*
X87266547Y-96895796D01*
X87266547Y-96895794D01*
X87235579Y-96835018D01*
X87181190Y-96728273D01*
X87145165Y-96678688D01*
X87070681Y-96576169D01*
X87070677Y-96576164D01*
X86937725Y-96443212D01*
X86937720Y-96443208D01*
X86785620Y-96332702D01*
X86785619Y-96332701D01*
X86785617Y-96332700D01*
X86733302Y-96306044D01*
X86618095Y-96247342D01*
X86479343Y-96202259D01*
X86421668Y-96162821D01*
X86394470Y-96098462D01*
X86406385Y-96029616D01*
X86453629Y-95978140D01*
X86479343Y-95966397D01*
X86484175Y-95964827D01*
X86618091Y-95921315D01*
X86785617Y-95835956D01*
X86937727Y-95725442D01*
X87070676Y-95592493D01*
X87181190Y-95440383D01*
X87266549Y-95272857D01*
X87324650Y-95094041D01*
X87348110Y-94945919D01*
X87354062Y-94908342D01*
X87354062Y-94720313D01*
X87324650Y-94534614D01*
X87297692Y-94451648D01*
X87266549Y-94355799D01*
X87266547Y-94355796D01*
X87266547Y-94355794D01*
X87229367Y-94282826D01*
X87181190Y-94188273D01*
X87152740Y-94149115D01*
X87070681Y-94036169D01*
X87070677Y-94036164D01*
X86937725Y-93903212D01*
X86937720Y-93903208D01*
X86785620Y-93792702D01*
X86785619Y-93792701D01*
X86785617Y-93792700D01*
X86733302Y-93766044D01*
X86618095Y-93707342D01*
X86479343Y-93662259D01*
X86421668Y-93622821D01*
X86394470Y-93558462D01*
X86406385Y-93489616D01*
X86453629Y-93438140D01*
X86479343Y-93426397D01*
X86618091Y-93381315D01*
X86785617Y-93295956D01*
X86937727Y-93185442D01*
X87070676Y-93052493D01*
X87181190Y-92900383D01*
X87266549Y-92732857D01*
X87324650Y-92554041D01*
X87354062Y-92368342D01*
X87354062Y-92180313D01*
X87324650Y-91994614D01*
X87297692Y-91911648D01*
X87266549Y-91815799D01*
X87266547Y-91815796D01*
X87266547Y-91815794D01*
X87235579Y-91755018D01*
X87181190Y-91648273D01*
X87167070Y-91628839D01*
X87070681Y-91496169D01*
X87070677Y-91496164D01*
X86937725Y-91363212D01*
X86937720Y-91363208D01*
X86785620Y-91252702D01*
X86785619Y-91252701D01*
X86785617Y-91252700D01*
X86733302Y-91226044D01*
X86618095Y-91167342D01*
X86479343Y-91122259D01*
X86421668Y-91082821D01*
X86394470Y-91018462D01*
X86406385Y-90949616D01*
X86453629Y-90898140D01*
X86479343Y-90886397D01*
X86618091Y-90841315D01*
X86785617Y-90755956D01*
X86937727Y-90645442D01*
X87070676Y-90512493D01*
X87181190Y-90360383D01*
X87266549Y-90192857D01*
X87324650Y-90014041D01*
X87354062Y-89828342D01*
X87354062Y-89640313D01*
X87324650Y-89454614D01*
X87297692Y-89371648D01*
X87266549Y-89275799D01*
X87266547Y-89275796D01*
X87266547Y-89275794D01*
X87235579Y-89215018D01*
X87181190Y-89108273D01*
X87167070Y-89088839D01*
X87070681Y-88956169D01*
X87070677Y-88956164D01*
X86937725Y-88823212D01*
X86937720Y-88823208D01*
X86785620Y-88712702D01*
X86785619Y-88712701D01*
X86785617Y-88712700D01*
X86733302Y-88686044D01*
X86618095Y-88627342D01*
X86479343Y-88582259D01*
X86421668Y-88542821D01*
X86394470Y-88478462D01*
X86406385Y-88409616D01*
X86453629Y-88358140D01*
X86479343Y-88346397D01*
X86618091Y-88301315D01*
X86785617Y-88215956D01*
X86937727Y-88105442D01*
X87070676Y-87972493D01*
X87181190Y-87820383D01*
X87266549Y-87652857D01*
X87324650Y-87474041D01*
X87354062Y-87288342D01*
X87354062Y-87100313D01*
X87350122Y-87075437D01*
X87347820Y-87060905D01*
X93199062Y-87060905D01*
X93199062Y-87257750D01*
X93229852Y-87452154D01*
X93290679Y-87639357D01*
X93305201Y-87667857D01*
X93380038Y-87814733D01*
X93495734Y-87973974D01*
X93634916Y-88113156D01*
X93794157Y-88228852D01*
X93877017Y-88271071D01*
X93969532Y-88318210D01*
X93969534Y-88318210D01*
X93969537Y-88318212D01*
X94056281Y-88346397D01*
X94156735Y-88379037D01*
X94351140Y-88409828D01*
X94351145Y-88409828D01*
X94547984Y-88409828D01*
X94742388Y-88379037D01*
X94760537Y-88373140D01*
X94929587Y-88318212D01*
X95104967Y-88228852D01*
X95264208Y-88113156D01*
X95403390Y-87973974D01*
X95519086Y-87814733D01*
X95608446Y-87639353D01*
X95669271Y-87452154D01*
X95700062Y-87257750D01*
X95700062Y-87060905D01*
X95669271Y-86866501D01*
X95641049Y-86779645D01*
X95608446Y-86679303D01*
X95608444Y-86679300D01*
X95608444Y-86679298D01*
X95519085Y-86503922D01*
X95403390Y-86344682D01*
X95264208Y-86205500D01*
X95104967Y-86089804D01*
X95100133Y-86087341D01*
X94929591Y-86000445D01*
X94742388Y-85939618D01*
X94547984Y-85908828D01*
X94547979Y-85908828D01*
X94351145Y-85908828D01*
X94351140Y-85908828D01*
X94156735Y-85939618D01*
X93969532Y-86000445D01*
X93794156Y-86089804D01*
X93703303Y-86155813D01*
X93634916Y-86205500D01*
X93634914Y-86205502D01*
X93634913Y-86205502D01*
X93495736Y-86344679D01*
X93495736Y-86344680D01*
X93495734Y-86344682D01*
X93446047Y-86413069D01*
X93380038Y-86503922D01*
X93290679Y-86679298D01*
X93229852Y-86866501D01*
X93199062Y-87060905D01*
X87347820Y-87060905D01*
X87324650Y-86914614D01*
X87297692Y-86831648D01*
X87266549Y-86735799D01*
X87266547Y-86735796D01*
X87266547Y-86735794D01*
X87235579Y-86675018D01*
X87181190Y-86568273D01*
X87134437Y-86503923D01*
X87070681Y-86416169D01*
X87070677Y-86416164D01*
X86937725Y-86283212D01*
X86937720Y-86283208D01*
X86785620Y-86172702D01*
X86785619Y-86172701D01*
X86785617Y-86172700D01*
X86733302Y-86146044D01*
X86618095Y-86087342D01*
X86479343Y-86042259D01*
X86421668Y-86002821D01*
X86394470Y-85938462D01*
X86406385Y-85869616D01*
X86453629Y-85818140D01*
X86479343Y-85806397D01*
X86618091Y-85761315D01*
X86785617Y-85675956D01*
X86937727Y-85565442D01*
X87070676Y-85432493D01*
X87181190Y-85280383D01*
X87266549Y-85112857D01*
X87324650Y-84934041D01*
X87354062Y-84748342D01*
X87354062Y-84560313D01*
X87324650Y-84374614D01*
X87297692Y-84291648D01*
X87266549Y-84195799D01*
X87266547Y-84195796D01*
X87266547Y-84195794D01*
X87235579Y-84135018D01*
X87181190Y-84028273D01*
X87167070Y-84008839D01*
X87070681Y-83876169D01*
X87070677Y-83876164D01*
X86937725Y-83743212D01*
X86937720Y-83743208D01*
X86785620Y-83632702D01*
X86785619Y-83632701D01*
X86785617Y-83632700D01*
X86733302Y-83606044D01*
X86618095Y-83547342D01*
X86479343Y-83502259D01*
X86421668Y-83462821D01*
X86394470Y-83398462D01*
X86406385Y-83329616D01*
X86453629Y-83278140D01*
X86479343Y-83266397D01*
X86618091Y-83221315D01*
X86785617Y-83135956D01*
X86937727Y-83025442D01*
X87070676Y-82892493D01*
X87181190Y-82740383D01*
X87266549Y-82572857D01*
X87324650Y-82394041D01*
X87336143Y-82321475D01*
X87354062Y-82208342D01*
X87354062Y-82042871D01*
X87811561Y-82042871D01*
X87850009Y-82236157D01*
X87850012Y-82236167D01*
X87925426Y-82418235D01*
X87925433Y-82418248D01*
X88034922Y-82582109D01*
X88034925Y-82582113D01*
X88174276Y-82721464D01*
X88174280Y-82721467D01*
X88338141Y-82830956D01*
X88338154Y-82830963D01*
X88486686Y-82892486D01*
X88520227Y-82906379D01*
X88520231Y-82906379D01*
X88520232Y-82906380D01*
X88713518Y-82944828D01*
X88713521Y-82944828D01*
X88910605Y-82944828D01*
X89040644Y-82918960D01*
X89103897Y-82906379D01*
X89285976Y-82830960D01*
X89449844Y-82721467D01*
X89589201Y-82582110D01*
X89698694Y-82418242D01*
X89701733Y-82410905D01*
X93049062Y-82410905D01*
X93049062Y-82607750D01*
X93079852Y-82802154D01*
X93140679Y-82989357D01*
X93215374Y-83135953D01*
X93230038Y-83164733D01*
X93345734Y-83323974D01*
X93484916Y-83463156D01*
X93644157Y-83578852D01*
X93727017Y-83621071D01*
X93819532Y-83668210D01*
X93819534Y-83668210D01*
X93819537Y-83668212D01*
X93919879Y-83700815D01*
X94006735Y-83729037D01*
X94201140Y-83759828D01*
X94201145Y-83759828D01*
X94397984Y-83759828D01*
X94592388Y-83729037D01*
X94779587Y-83668212D01*
X94954967Y-83578852D01*
X95114208Y-83463156D01*
X95253390Y-83323974D01*
X95369086Y-83164733D01*
X95458446Y-82989353D01*
X95519271Y-82802154D01*
X95529054Y-82740386D01*
X95550062Y-82607750D01*
X95550062Y-82410905D01*
X95519271Y-82216501D01*
X95491049Y-82129645D01*
X95458446Y-82029303D01*
X95458444Y-82029300D01*
X95458444Y-82029298D01*
X95369085Y-81853922D01*
X95365955Y-81849614D01*
X95253390Y-81694682D01*
X95114208Y-81555500D01*
X94954967Y-81439804D01*
X94779591Y-81350445D01*
X94592388Y-81289618D01*
X94397984Y-81258828D01*
X94397979Y-81258828D01*
X94201145Y-81258828D01*
X94201140Y-81258828D01*
X94006735Y-81289618D01*
X93819532Y-81350445D01*
X93644156Y-81439804D01*
X93556805Y-81503269D01*
X93484916Y-81555500D01*
X93484914Y-81555502D01*
X93484913Y-81555502D01*
X93345736Y-81694679D01*
X93345736Y-81694680D01*
X93345734Y-81694682D01*
X93296047Y-81763069D01*
X93230038Y-81853922D01*
X93140679Y-82029298D01*
X93079852Y-82216501D01*
X93049062Y-82410905D01*
X89701733Y-82410905D01*
X89738776Y-82321476D01*
X89774111Y-82236167D01*
X89774113Y-82236163D01*
X89812562Y-82042869D01*
X89812562Y-81845787D01*
X89812562Y-81845784D01*
X89774114Y-81652498D01*
X89774113Y-81652497D01*
X89774113Y-81652493D01*
X89774111Y-81652488D01*
X89698697Y-81470420D01*
X89698690Y-81470407D01*
X89589201Y-81306546D01*
X89589198Y-81306542D01*
X89449847Y-81167191D01*
X89449843Y-81167188D01*
X89285982Y-81057699D01*
X89285969Y-81057692D01*
X89103901Y-80982278D01*
X89103891Y-80982275D01*
X88910605Y-80943828D01*
X88910603Y-80943828D01*
X88713521Y-80943828D01*
X88713519Y-80943828D01*
X88520232Y-80982275D01*
X88520222Y-80982278D01*
X88338154Y-81057692D01*
X88338141Y-81057699D01*
X88174280Y-81167188D01*
X88174276Y-81167191D01*
X88034925Y-81306542D01*
X88034922Y-81306546D01*
X87925433Y-81470407D01*
X87925426Y-81470420D01*
X87850012Y-81652488D01*
X87850009Y-81652498D01*
X87811562Y-81845784D01*
X87811562Y-81845787D01*
X87811562Y-82042869D01*
X87811562Y-82042871D01*
X87811561Y-82042871D01*
X87354062Y-82042871D01*
X87354062Y-82020313D01*
X87328527Y-81859093D01*
X87327708Y-81853922D01*
X87324650Y-81834615D01*
X87266549Y-81655799D01*
X87266547Y-81655796D01*
X87266547Y-81655794D01*
X87215444Y-81555500D01*
X87181190Y-81488273D01*
X87123163Y-81408405D01*
X87070681Y-81336169D01*
X87070677Y-81336164D01*
X86937725Y-81203212D01*
X86937720Y-81203208D01*
X86785620Y-81092702D01*
X86785619Y-81092701D01*
X86785617Y-81092700D01*
X86716910Y-81057692D01*
X86618095Y-81007342D01*
X86439275Y-80949239D01*
X86253576Y-80919828D01*
X86253571Y-80919828D01*
X86065553Y-80919828D01*
X86065548Y-80919828D01*
X85879848Y-80949239D01*
X85701028Y-81007342D01*
X85533503Y-81092702D01*
X85381403Y-81203208D01*
X85381398Y-81203212D01*
X85248446Y-81336164D01*
X85248442Y-81336169D01*
X85137936Y-81488269D01*
X85052576Y-81655794D01*
X84994473Y-81834614D01*
X84965062Y-82020313D01*
X82805157Y-82020313D01*
X82805157Y-71212463D01*
X84965062Y-71212463D01*
X84965062Y-72696198D01*
X84965063Y-72696204D01*
X84971470Y-72755811D01*
X85021764Y-72890656D01*
X85021768Y-72890663D01*
X85108014Y-73005872D01*
X85108017Y-73005875D01*
X85223226Y-73092121D01*
X85223233Y-73092125D01*
X85358079Y-73142419D01*
X85358078Y-73142419D01*
X85365006Y-73143163D01*
X85417689Y-73148828D01*
X85653465Y-73148827D01*
X85720503Y-73168511D01*
X85766258Y-73221315D01*
X85776202Y-73290474D01*
X85747177Y-73354029D01*
X85705019Y-73384433D01*
X85705374Y-73385129D01*
X85533503Y-73472702D01*
X85381403Y-73583208D01*
X85381398Y-73583212D01*
X85248446Y-73716164D01*
X85248442Y-73716169D01*
X85137936Y-73868269D01*
X85052576Y-74035794D01*
X84994473Y-74214614D01*
X84965062Y-74400313D01*
X84965062Y-74588342D01*
X84994473Y-74774041D01*
X85052576Y-74952861D01*
X85137936Y-75120386D01*
X85248442Y-75272486D01*
X85248446Y-75272491D01*
X85381398Y-75405443D01*
X85381403Y-75405447D01*
X85514073Y-75501836D01*
X85533507Y-75515956D01*
X85640252Y-75570345D01*
X85701028Y-75601313D01*
X85701030Y-75601313D01*
X85701033Y-75601315D01*
X85785247Y-75628678D01*
X85839780Y-75646397D01*
X85897455Y-75685835D01*
X85924653Y-75750194D01*
X85912738Y-75819040D01*
X85865494Y-75870516D01*
X85839780Y-75882259D01*
X85701028Y-75927342D01*
X85533503Y-76012702D01*
X85381403Y-76123208D01*
X85381398Y-76123212D01*
X85248446Y-76256164D01*
X85248442Y-76256169D01*
X85137936Y-76408269D01*
X85052576Y-76575794D01*
X84994473Y-76754614D01*
X84965062Y-76940313D01*
X84965062Y-77128342D01*
X84994473Y-77314041D01*
X85052576Y-77492861D01*
X85137936Y-77660386D01*
X85248442Y-77812486D01*
X85248446Y-77812491D01*
X85381398Y-77945443D01*
X85381403Y-77945447D01*
X85448113Y-77993914D01*
X85533507Y-78055956D01*
X85640252Y-78110345D01*
X85701028Y-78141313D01*
X85701030Y-78141313D01*
X85701033Y-78141315D01*
X85796882Y-78172458D01*
X85879848Y-78199416D01*
X86065548Y-78228828D01*
X86065553Y-78228828D01*
X86253576Y-78228828D01*
X86439275Y-78199416D01*
X86618091Y-78141315D01*
X86785617Y-78055956D01*
X86937727Y-77945442D01*
X87070676Y-77812493D01*
X87181190Y-77660383D01*
X87266549Y-77492857D01*
X87324650Y-77314041D01*
X87354062Y-77128342D01*
X87354062Y-76955313D01*
X100152562Y-76955313D01*
X100152562Y-77143342D01*
X100181973Y-77329041D01*
X100240076Y-77507861D01*
X100325436Y-77675386D01*
X100435942Y-77827486D01*
X100435946Y-77827491D01*
X100568898Y-77960443D01*
X100568903Y-77960447D01*
X100650225Y-78019530D01*
X100721007Y-78070956D01*
X100801278Y-78111856D01*
X100888528Y-78156313D01*
X100888530Y-78156313D01*
X100888533Y-78156315D01*
X100972747Y-78183678D01*
X101027280Y-78201397D01*
X101084955Y-78240835D01*
X101112153Y-78305194D01*
X101100238Y-78374040D01*
X101052994Y-78425516D01*
X101027280Y-78437259D01*
X100888528Y-78482342D01*
X100721003Y-78567702D01*
X100568903Y-78678208D01*
X100568898Y-78678212D01*
X100435946Y-78811164D01*
X100435942Y-78811169D01*
X100325436Y-78963269D01*
X100240076Y-79130794D01*
X100181973Y-79309614D01*
X100152562Y-79495313D01*
X100152562Y-79683342D01*
X100181973Y-79869041D01*
X100240076Y-80047861D01*
X100325436Y-80215386D01*
X100435942Y-80367486D01*
X100435946Y-80367491D01*
X100568898Y-80500443D01*
X100568903Y-80500447D01*
X100701573Y-80596836D01*
X100721007Y-80610956D01*
X100827752Y-80665345D01*
X100888528Y-80696313D01*
X100888530Y-80696313D01*
X100888533Y-80696315D01*
X100972747Y-80723678D01*
X101027280Y-80741397D01*
X101084955Y-80780835D01*
X101112153Y-80845194D01*
X101100238Y-80914040D01*
X101052994Y-80965516D01*
X101027280Y-80977259D01*
X100888528Y-81022342D01*
X100721003Y-81107702D01*
X100568903Y-81218208D01*
X100568898Y-81218212D01*
X100435946Y-81351164D01*
X100435942Y-81351169D01*
X100325436Y-81503269D01*
X100240076Y-81670794D01*
X100181973Y-81849614D01*
X100152562Y-82035313D01*
X100152562Y-82223342D01*
X100181973Y-82409041D01*
X100240076Y-82587861D01*
X100279743Y-82665710D01*
X100308151Y-82721464D01*
X100325436Y-82755386D01*
X100435942Y-82907486D01*
X100435946Y-82907491D01*
X100568898Y-83040443D01*
X100568903Y-83040447D01*
X100700357Y-83135953D01*
X100721007Y-83150956D01*
X100827752Y-83205345D01*
X100888528Y-83236313D01*
X100888530Y-83236313D01*
X100888533Y-83236315D01*
X100972747Y-83263678D01*
X101027280Y-83281397D01*
X101084955Y-83320835D01*
X101112153Y-83385194D01*
X101100238Y-83454040D01*
X101052994Y-83505516D01*
X101027280Y-83517259D01*
X100888528Y-83562342D01*
X100721003Y-83647702D01*
X100568903Y-83758208D01*
X100568898Y-83758212D01*
X100435946Y-83891164D01*
X100435942Y-83891169D01*
X100325436Y-84043269D01*
X100240076Y-84210794D01*
X100181973Y-84389614D01*
X100152562Y-84575313D01*
X100152562Y-84763342D01*
X100181973Y-84949041D01*
X100240076Y-85127861D01*
X100325436Y-85295386D01*
X100435942Y-85447486D01*
X100435946Y-85447491D01*
X100568898Y-85580443D01*
X100568903Y-85580447D01*
X100700357Y-85675953D01*
X100721007Y-85690956D01*
X100827752Y-85745345D01*
X100888528Y-85776313D01*
X100888530Y-85776313D01*
X100888533Y-85776315D01*
X100972747Y-85803678D01*
X101027280Y-85821397D01*
X101084955Y-85860835D01*
X101112153Y-85925194D01*
X101100238Y-85994040D01*
X101052994Y-86045516D01*
X101027280Y-86057259D01*
X100888528Y-86102342D01*
X100721003Y-86187702D01*
X100568903Y-86298208D01*
X100568898Y-86298212D01*
X100435946Y-86431164D01*
X100435942Y-86431169D01*
X100325436Y-86583269D01*
X100240076Y-86750794D01*
X100181973Y-86929614D01*
X100152562Y-87115313D01*
X100152562Y-87303342D01*
X100181973Y-87489041D01*
X100240076Y-87667861D01*
X100298778Y-87783068D01*
X100314912Y-87814733D01*
X100325436Y-87835386D01*
X100435942Y-87987486D01*
X100435946Y-87987491D01*
X100568898Y-88120443D01*
X100568903Y-88120447D01*
X100700357Y-88215953D01*
X100721007Y-88230956D01*
X100827752Y-88285345D01*
X100888528Y-88316313D01*
X100888530Y-88316313D01*
X100888533Y-88316315D01*
X100972747Y-88343678D01*
X101027280Y-88361397D01*
X101084955Y-88400835D01*
X101112153Y-88465194D01*
X101100238Y-88534040D01*
X101052994Y-88585516D01*
X101027280Y-88597259D01*
X100888528Y-88642342D01*
X100721003Y-88727702D01*
X100568903Y-88838208D01*
X100568898Y-88838212D01*
X100435946Y-88971164D01*
X100435942Y-88971169D01*
X100325436Y-89123269D01*
X100240076Y-89290794D01*
X100181973Y-89469614D01*
X100152562Y-89655313D01*
X100152562Y-89843342D01*
X100181973Y-90029041D01*
X100240076Y-90207861D01*
X100325436Y-90375386D01*
X100435942Y-90527486D01*
X100435946Y-90527491D01*
X100568898Y-90660443D01*
X100568903Y-90660447D01*
X100700357Y-90755953D01*
X100721007Y-90770956D01*
X100827752Y-90825345D01*
X100888528Y-90856313D01*
X100888530Y-90856313D01*
X100888533Y-90856315D01*
X100972747Y-90883678D01*
X101027280Y-90901397D01*
X101084955Y-90940835D01*
X101112153Y-91005194D01*
X101100238Y-91074040D01*
X101052994Y-91125516D01*
X101027280Y-91137259D01*
X100888528Y-91182342D01*
X100721003Y-91267702D01*
X100568903Y-91378208D01*
X100568898Y-91378212D01*
X100435946Y-91511164D01*
X100435942Y-91511169D01*
X100325436Y-91663269D01*
X100240076Y-91830794D01*
X100181973Y-92009614D01*
X100152562Y-92195313D01*
X100152562Y-92383342D01*
X100181973Y-92569041D01*
X100240076Y-92747861D01*
X100325436Y-92915386D01*
X100435942Y-93067486D01*
X100435946Y-93067491D01*
X100568898Y-93200443D01*
X100568903Y-93200447D01*
X100700357Y-93295953D01*
X100721007Y-93310956D01*
X100827752Y-93365345D01*
X100888528Y-93396313D01*
X100888530Y-93396313D01*
X100888533Y-93396315D01*
X100972747Y-93423678D01*
X101027280Y-93441397D01*
X101084955Y-93480835D01*
X101112153Y-93545194D01*
X101100238Y-93614040D01*
X101052994Y-93665516D01*
X101027280Y-93677259D01*
X100888528Y-93722342D01*
X100721003Y-93807702D01*
X100568903Y-93918208D01*
X100568898Y-93918212D01*
X100435946Y-94051164D01*
X100435942Y-94051169D01*
X100325436Y-94203269D01*
X100240076Y-94370794D01*
X100181973Y-94549614D01*
X100152562Y-94735313D01*
X100152562Y-94923342D01*
X100181973Y-95109041D01*
X100240076Y-95287861D01*
X100325436Y-95455386D01*
X100435942Y-95607486D01*
X100435946Y-95607491D01*
X100568898Y-95740443D01*
X100568903Y-95740447D01*
X100676090Y-95818322D01*
X100721007Y-95850956D01*
X100827752Y-95905345D01*
X100888528Y-95936313D01*
X100888530Y-95936313D01*
X100888533Y-95936315D01*
X100972747Y-95963678D01*
X101027280Y-95981397D01*
X101084955Y-96020835D01*
X101112153Y-96085194D01*
X101100238Y-96154040D01*
X101052994Y-96205516D01*
X101027280Y-96217259D01*
X100888528Y-96262342D01*
X100721003Y-96347702D01*
X100568903Y-96458208D01*
X100568898Y-96458212D01*
X100435946Y-96591164D01*
X100435942Y-96591169D01*
X100325436Y-96743269D01*
X100240076Y-96910794D01*
X100181973Y-97089614D01*
X100152562Y-97275313D01*
X100152562Y-97463342D01*
X100181973Y-97649041D01*
X100240076Y-97827861D01*
X100325436Y-97995386D01*
X100435942Y-98147486D01*
X100435946Y-98147491D01*
X100568898Y-98280443D01*
X100568903Y-98280447D01*
X100700357Y-98375953D01*
X100721007Y-98390956D01*
X100827752Y-98445345D01*
X100888528Y-98476313D01*
X100888530Y-98476313D01*
X100888533Y-98476315D01*
X100972747Y-98503678D01*
X101027280Y-98521397D01*
X101084955Y-98560835D01*
X101112153Y-98625194D01*
X101100238Y-98694040D01*
X101052994Y-98745516D01*
X101027280Y-98757259D01*
X100888528Y-98802342D01*
X100721003Y-98887702D01*
X100568903Y-98998208D01*
X100568898Y-98998212D01*
X100435946Y-99131164D01*
X100435942Y-99131169D01*
X100325436Y-99283269D01*
X100240076Y-99450794D01*
X100181973Y-99629614D01*
X100152562Y-99815313D01*
X100152562Y-100003342D01*
X100181973Y-100189041D01*
X100240076Y-100367861D01*
X100325436Y-100535386D01*
X100435942Y-100687486D01*
X100435946Y-100687491D01*
X100568898Y-100820443D01*
X100568903Y-100820447D01*
X100595516Y-100839782D01*
X100721007Y-100930956D01*
X100827752Y-100985345D01*
X100888528Y-101016313D01*
X100888530Y-101016313D01*
X100888533Y-101016315D01*
X100902580Y-101020879D01*
X101027280Y-101061397D01*
X101084955Y-101100835D01*
X101112153Y-101165194D01*
X101100238Y-101234040D01*
X101052994Y-101285516D01*
X101027280Y-101297259D01*
X100888528Y-101342342D01*
X100721003Y-101427702D01*
X100568903Y-101538208D01*
X100568898Y-101538212D01*
X100435946Y-101671164D01*
X100435942Y-101671169D01*
X100325436Y-101823269D01*
X100240076Y-101990794D01*
X100181973Y-102169614D01*
X100152562Y-102355313D01*
X100152562Y-102543342D01*
X100181973Y-102729041D01*
X100240076Y-102907861D01*
X100325436Y-103075386D01*
X100435942Y-103227486D01*
X100435946Y-103227491D01*
X100568898Y-103360443D01*
X100568903Y-103360447D01*
X100700357Y-103455953D01*
X100721007Y-103470956D01*
X100827752Y-103525345D01*
X100888528Y-103556313D01*
X100888530Y-103556313D01*
X100888533Y-103556315D01*
X100972747Y-103583678D01*
X101027280Y-103601397D01*
X101084955Y-103640835D01*
X101112153Y-103705194D01*
X101100238Y-103774040D01*
X101052994Y-103825516D01*
X101027280Y-103837259D01*
X100888528Y-103882342D01*
X100721003Y-103967702D01*
X100568903Y-104078208D01*
X100568898Y-104078212D01*
X100435946Y-104211164D01*
X100435942Y-104211169D01*
X100325436Y-104363269D01*
X100240076Y-104530794D01*
X100181973Y-104709614D01*
X100152562Y-104895313D01*
X100152562Y-105083342D01*
X100181973Y-105269041D01*
X100240076Y-105447861D01*
X100325436Y-105615386D01*
X100435942Y-105767486D01*
X100435946Y-105767491D01*
X100568898Y-105900443D01*
X100568903Y-105900447D01*
X100677958Y-105979679D01*
X100721007Y-106010956D01*
X100827752Y-106065345D01*
X100888528Y-106096313D01*
X100888530Y-106096313D01*
X100888533Y-106096315D01*
X100972747Y-106123678D01*
X101027280Y-106141397D01*
X101084955Y-106180835D01*
X101112153Y-106245194D01*
X101100238Y-106314040D01*
X101052994Y-106365516D01*
X101027280Y-106377259D01*
X100888528Y-106422342D01*
X100721003Y-106507702D01*
X100568903Y-106618208D01*
X100568898Y-106618212D01*
X100435946Y-106751164D01*
X100435942Y-106751169D01*
X100325436Y-106903269D01*
X100240076Y-107070794D01*
X100181973Y-107249614D01*
X100152562Y-107435313D01*
X100152562Y-107623342D01*
X100181973Y-107809041D01*
X100240076Y-107987861D01*
X100325436Y-108155386D01*
X100435942Y-108307486D01*
X100435946Y-108307491D01*
X100568898Y-108440443D01*
X100568903Y-108440447D01*
X100700357Y-108535953D01*
X100721007Y-108550956D01*
X100827752Y-108605345D01*
X100888528Y-108636313D01*
X100888530Y-108636313D01*
X100888533Y-108636315D01*
X100984382Y-108667458D01*
X101067348Y-108694416D01*
X101253048Y-108723828D01*
X101253053Y-108723828D01*
X101441076Y-108723828D01*
X101626775Y-108694416D01*
X101672940Y-108679416D01*
X101805591Y-108636315D01*
X101973117Y-108550956D01*
X102125227Y-108440442D01*
X102258176Y-108307493D01*
X102368690Y-108155383D01*
X102454049Y-107987857D01*
X102512150Y-107809041D01*
X102521794Y-107748153D01*
X102541562Y-107623342D01*
X102541562Y-107435313D01*
X102512150Y-107249614D01*
X102457932Y-107082750D01*
X102454049Y-107070799D01*
X102454047Y-107070796D01*
X102454047Y-107070794D01*
X102423079Y-107010018D01*
X102368690Y-106903273D01*
X102355434Y-106885027D01*
X102267448Y-106763924D01*
X102267447Y-106763923D01*
X102258179Y-106751166D01*
X102202918Y-106695905D01*
X109631562Y-106695905D01*
X109631562Y-106892750D01*
X109662352Y-107087154D01*
X109723179Y-107274357D01*
X109797548Y-107420313D01*
X109812538Y-107449733D01*
X109928234Y-107608974D01*
X110067416Y-107748156D01*
X110226657Y-107863852D01*
X110309517Y-107906071D01*
X110402032Y-107953210D01*
X110402034Y-107953210D01*
X110402037Y-107953212D01*
X110502379Y-107985815D01*
X110589235Y-108014037D01*
X110783640Y-108044828D01*
X110783645Y-108044828D01*
X110980484Y-108044828D01*
X111174888Y-108014037D01*
X111362087Y-107953212D01*
X111537467Y-107863852D01*
X111696708Y-107748156D01*
X111835890Y-107608974D01*
X111951586Y-107449733D01*
X112040946Y-107274353D01*
X112101771Y-107087154D01*
X112130895Y-106903273D01*
X112132562Y-106892750D01*
X112132562Y-106695905D01*
X112101771Y-106501501D01*
X112057586Y-106365516D01*
X112040946Y-106314303D01*
X112040944Y-106314300D01*
X112040944Y-106314298D01*
X111959480Y-106154416D01*
X111951586Y-106138923D01*
X111835890Y-105979682D01*
X111696708Y-105840500D01*
X111537467Y-105724804D01*
X111362091Y-105635445D01*
X111174888Y-105574618D01*
X110980484Y-105543828D01*
X110980479Y-105543828D01*
X110783645Y-105543828D01*
X110783640Y-105543828D01*
X110589235Y-105574618D01*
X110402032Y-105635445D01*
X110226656Y-105724804D01*
X110167901Y-105767493D01*
X110067416Y-105840500D01*
X110067414Y-105840502D01*
X110067413Y-105840502D01*
X109928236Y-105979679D01*
X109928236Y-105979680D01*
X109928234Y-105979682D01*
X109905514Y-106010953D01*
X109812538Y-106138922D01*
X109723179Y-106314298D01*
X109662352Y-106501501D01*
X109631562Y-106695905D01*
X102202918Y-106695905D01*
X102125225Y-106618212D01*
X102125220Y-106618208D01*
X101973120Y-106507702D01*
X101973119Y-106507701D01*
X101973117Y-106507700D01*
X101920802Y-106481044D01*
X101805595Y-106422342D01*
X101666843Y-106377259D01*
X101609168Y-106337821D01*
X101581970Y-106273462D01*
X101593885Y-106204616D01*
X101641129Y-106153140D01*
X101666843Y-106141397D01*
X101676867Y-106138140D01*
X101805591Y-106096315D01*
X101973117Y-106010956D01*
X102125227Y-105900442D01*
X102258176Y-105767493D01*
X102368690Y-105615383D01*
X102454049Y-105447857D01*
X102512150Y-105269041D01*
X102514526Y-105254041D01*
X102541562Y-105083342D01*
X102541562Y-104895313D01*
X102512150Y-104709614D01*
X102454047Y-104530794D01*
X102423079Y-104470018D01*
X102368690Y-104363273D01*
X102354570Y-104343839D01*
X102258181Y-104211169D01*
X102258177Y-104211164D01*
X102125225Y-104078212D01*
X102125220Y-104078208D01*
X101973120Y-103967702D01*
X101973119Y-103967701D01*
X101973117Y-103967700D01*
X101920802Y-103941044D01*
X101805595Y-103882342D01*
X101666843Y-103837259D01*
X101609168Y-103797821D01*
X101581970Y-103733462D01*
X101593885Y-103664616D01*
X101641129Y-103613140D01*
X101666843Y-103601397D01*
X101676867Y-103598140D01*
X101805591Y-103556315D01*
X101973117Y-103470956D01*
X102125227Y-103360442D01*
X102258176Y-103227493D01*
X102368690Y-103075383D01*
X102454049Y-102907857D01*
X102512150Y-102729041D01*
X102514526Y-102714041D01*
X102541562Y-102543342D01*
X102541562Y-102355313D01*
X102512150Y-102169614D01*
X102483301Y-102080828D01*
X102454049Y-101990799D01*
X102454047Y-101990796D01*
X102454047Y-101990794D01*
X102395321Y-101875540D01*
X102368690Y-101823273D01*
X102354570Y-101803839D01*
X102258181Y-101671169D01*
X102258177Y-101671164D01*
X102125225Y-101538212D01*
X102125220Y-101538208D01*
X101973120Y-101427702D01*
X101973119Y-101427701D01*
X101973117Y-101427700D01*
X101920802Y-101401044D01*
X101805595Y-101342342D01*
X101666843Y-101297259D01*
X101609168Y-101257821D01*
X101581970Y-101193462D01*
X101593885Y-101124616D01*
X101641129Y-101073140D01*
X101666843Y-101061397D01*
X101676867Y-101058140D01*
X101805591Y-101016315D01*
X101973117Y-100930956D01*
X102125227Y-100820442D01*
X102258176Y-100687493D01*
X102368690Y-100535383D01*
X102454049Y-100367857D01*
X102512150Y-100189041D01*
X102514526Y-100174041D01*
X102541562Y-100003342D01*
X102541562Y-99815313D01*
X102512150Y-99629614D01*
X102454047Y-99450794D01*
X102423079Y-99390018D01*
X102368690Y-99283273D01*
X102354570Y-99263839D01*
X102258181Y-99131169D01*
X102258177Y-99131164D01*
X102125225Y-98998212D01*
X102125220Y-98998208D01*
X101973120Y-98887702D01*
X101973119Y-98887701D01*
X101973117Y-98887700D01*
X101920802Y-98861044D01*
X101805595Y-98802342D01*
X101666843Y-98757259D01*
X101609168Y-98717821D01*
X101581970Y-98653462D01*
X101593885Y-98584616D01*
X101641129Y-98533140D01*
X101666843Y-98521397D01*
X101676867Y-98518140D01*
X101805591Y-98476315D01*
X101973117Y-98390956D01*
X102125227Y-98280442D01*
X102258176Y-98147493D01*
X102368690Y-97995383D01*
X102454049Y-97827857D01*
X102512150Y-97649041D01*
X102525941Y-97561967D01*
X102541562Y-97463342D01*
X102541562Y-97275313D01*
X102512150Y-97089614D01*
X102454047Y-96910794D01*
X102423079Y-96850018D01*
X102368690Y-96743273D01*
X102321767Y-96678689D01*
X102258181Y-96591169D01*
X102258177Y-96591164D01*
X102125225Y-96458212D01*
X102125220Y-96458208D01*
X101973120Y-96347702D01*
X101973119Y-96347701D01*
X101973117Y-96347700D01*
X101920802Y-96321044D01*
X101805595Y-96262342D01*
X101666843Y-96217259D01*
X101609168Y-96177821D01*
X101581970Y-96113462D01*
X101593885Y-96044616D01*
X101641129Y-95993140D01*
X101666843Y-95981397D01*
X101676867Y-95978140D01*
X101805591Y-95936315D01*
X101973117Y-95850956D01*
X102125227Y-95740442D01*
X102258176Y-95607493D01*
X102368690Y-95455383D01*
X102454049Y-95287857D01*
X102512150Y-95109041D01*
X102514526Y-95094041D01*
X102541562Y-94923342D01*
X102541562Y-94735313D01*
X102512150Y-94549614D01*
X102454047Y-94370794D01*
X102409224Y-94282826D01*
X102368690Y-94203273D01*
X102354570Y-94183839D01*
X102258181Y-94051169D01*
X102258177Y-94051164D01*
X102125225Y-93918212D01*
X102125220Y-93918208D01*
X101973120Y-93807702D01*
X101973119Y-93807701D01*
X101973117Y-93807700D01*
X101920802Y-93781044D01*
X101805595Y-93722342D01*
X101666843Y-93677259D01*
X101609168Y-93637821D01*
X101581970Y-93573462D01*
X101593885Y-93504616D01*
X101641129Y-93453140D01*
X101666843Y-93441397D01*
X101676867Y-93438140D01*
X101805591Y-93396315D01*
X101973117Y-93310956D01*
X102125227Y-93200442D01*
X102258176Y-93067493D01*
X102368690Y-92915383D01*
X102454049Y-92747857D01*
X102512150Y-92569041D01*
X102514526Y-92554041D01*
X102541562Y-92383342D01*
X102541562Y-92195313D01*
X102512150Y-92009614D01*
X102454047Y-91830794D01*
X102423079Y-91770018D01*
X102368690Y-91663273D01*
X102354570Y-91643839D01*
X102258181Y-91511169D01*
X102258177Y-91511164D01*
X102125225Y-91378212D01*
X102125220Y-91378208D01*
X101973120Y-91267702D01*
X101973119Y-91267701D01*
X101973117Y-91267700D01*
X101920802Y-91241044D01*
X101805595Y-91182342D01*
X101666843Y-91137259D01*
X101609168Y-91097821D01*
X101581970Y-91033462D01*
X101593885Y-90964616D01*
X101641129Y-90913140D01*
X101666843Y-90901397D01*
X101676867Y-90898140D01*
X101805591Y-90856315D01*
X101973117Y-90770956D01*
X102125227Y-90660442D01*
X102258176Y-90527493D01*
X102368690Y-90375383D01*
X102454049Y-90207857D01*
X102512150Y-90029041D01*
X102514526Y-90014041D01*
X102541562Y-89843342D01*
X102541562Y-89655313D01*
X102512150Y-89469614D01*
X102454047Y-89290794D01*
X102423079Y-89230018D01*
X102368690Y-89123273D01*
X102354570Y-89103839D01*
X102258181Y-88971169D01*
X102258177Y-88971164D01*
X102125225Y-88838212D01*
X102125220Y-88838208D01*
X101973120Y-88727702D01*
X101973119Y-88727701D01*
X101973117Y-88727700D01*
X101920802Y-88701044D01*
X101805595Y-88642342D01*
X101666843Y-88597259D01*
X101609168Y-88557821D01*
X101581970Y-88493462D01*
X101593885Y-88424616D01*
X101641129Y-88373140D01*
X101666843Y-88361397D01*
X101676867Y-88358140D01*
X101805591Y-88316315D01*
X101973117Y-88230956D01*
X102125227Y-88120442D01*
X102258176Y-87987493D01*
X102368690Y-87835383D01*
X102454049Y-87667857D01*
X102512150Y-87489041D01*
X102517992Y-87452154D01*
X102541562Y-87303342D01*
X102541562Y-87115313D01*
X102512150Y-86929614D01*
X102454047Y-86750794D01*
X102417617Y-86679298D01*
X102368690Y-86583273D01*
X102311039Y-86503923D01*
X102258181Y-86431169D01*
X102258177Y-86431164D01*
X102125225Y-86298212D01*
X102125220Y-86298208D01*
X101973120Y-86187702D01*
X101973119Y-86187701D01*
X101973117Y-86187700D01*
X101920802Y-86161044D01*
X101805595Y-86102342D01*
X101666843Y-86057259D01*
X101609168Y-86017821D01*
X101581970Y-85953462D01*
X101593885Y-85884616D01*
X101641129Y-85833140D01*
X101666843Y-85821397D01*
X101676867Y-85818140D01*
X101805591Y-85776315D01*
X101973117Y-85690956D01*
X102125227Y-85580442D01*
X102258176Y-85447493D01*
X102368690Y-85295383D01*
X102454049Y-85127857D01*
X102512150Y-84949041D01*
X102514526Y-84934041D01*
X102541562Y-84763342D01*
X102541562Y-84575313D01*
X102512150Y-84389614D01*
X102454047Y-84210794D01*
X102423079Y-84150018D01*
X102368690Y-84043273D01*
X102354570Y-84023839D01*
X102258181Y-83891169D01*
X102258177Y-83891164D01*
X102125225Y-83758212D01*
X102125220Y-83758208D01*
X101973120Y-83647702D01*
X101973119Y-83647701D01*
X101973117Y-83647700D01*
X101920802Y-83621044D01*
X101805595Y-83562342D01*
X101666843Y-83517259D01*
X101609168Y-83477821D01*
X101581970Y-83413462D01*
X101593885Y-83344616D01*
X101641129Y-83293140D01*
X101666843Y-83281397D01*
X101676867Y-83278140D01*
X101805591Y-83236315D01*
X101973117Y-83150956D01*
X102125227Y-83040442D01*
X102258176Y-82907493D01*
X102368690Y-82755383D01*
X102454049Y-82587857D01*
X102512150Y-82409041D01*
X102526019Y-82321474D01*
X102541562Y-82223342D01*
X102541562Y-82035313D01*
X102512150Y-81849614D01*
X102454047Y-81670794D01*
X102395301Y-81555500D01*
X102368690Y-81503273D01*
X102357789Y-81488269D01*
X102349184Y-81476424D01*
X102299765Y-81408405D01*
X109991562Y-81408405D01*
X109991562Y-81605250D01*
X110022352Y-81799654D01*
X110083179Y-81986857D01*
X110111719Y-82042869D01*
X110172538Y-82162233D01*
X110288234Y-82321474D01*
X110427416Y-82460656D01*
X110586657Y-82576352D01*
X110669517Y-82618571D01*
X110762032Y-82665710D01*
X110762034Y-82665710D01*
X110762037Y-82665712D01*
X110862379Y-82698315D01*
X110949235Y-82726537D01*
X111143640Y-82757328D01*
X111143645Y-82757328D01*
X111340484Y-82757328D01*
X111534888Y-82726537D01*
X111550501Y-82721464D01*
X111722087Y-82665712D01*
X111897467Y-82576352D01*
X112056708Y-82460656D01*
X112195890Y-82321474D01*
X112311586Y-82162233D01*
X112400946Y-81986853D01*
X112461771Y-81799654D01*
X112478397Y-81694680D01*
X112492562Y-81605250D01*
X112492562Y-81408405D01*
X112461771Y-81214001D01*
X112410984Y-81057696D01*
X112400946Y-81026803D01*
X112400944Y-81026800D01*
X112400944Y-81026798D01*
X112311585Y-80851422D01*
X112307060Y-80845194D01*
X112195890Y-80692182D01*
X112056708Y-80553000D01*
X111897467Y-80437304D01*
X111722091Y-80347945D01*
X111534888Y-80287118D01*
X111340484Y-80256328D01*
X111340479Y-80256328D01*
X111143645Y-80256328D01*
X111143640Y-80256328D01*
X110949235Y-80287118D01*
X110762032Y-80347945D01*
X110586656Y-80437304D01*
X110499755Y-80500442D01*
X110427416Y-80553000D01*
X110427414Y-80553002D01*
X110427413Y-80553002D01*
X110288236Y-80692179D01*
X110288236Y-80692180D01*
X110288234Y-80692182D01*
X110252477Y-80741397D01*
X110172538Y-80851422D01*
X110083179Y-81026798D01*
X110022352Y-81214001D01*
X109991562Y-81408405D01*
X102299765Y-81408405D01*
X102258181Y-81351169D01*
X102258177Y-81351164D01*
X102125225Y-81218212D01*
X102125220Y-81218208D01*
X101973120Y-81107702D01*
X101973119Y-81107701D01*
X101973117Y-81107700D01*
X101920802Y-81081044D01*
X101805595Y-81022342D01*
X101666843Y-80977259D01*
X101609168Y-80937821D01*
X101581970Y-80873462D01*
X101593885Y-80804616D01*
X101641129Y-80753140D01*
X101666843Y-80741397D01*
X101805591Y-80696315D01*
X101973117Y-80610956D01*
X102125227Y-80500442D01*
X102258176Y-80367493D01*
X102368690Y-80215383D01*
X102454049Y-80047857D01*
X102512150Y-79869041D01*
X102541562Y-79683342D01*
X102541562Y-79495313D01*
X102512150Y-79309614D01*
X102454047Y-79130794D01*
X102423079Y-79070018D01*
X102368690Y-78963273D01*
X102354570Y-78943839D01*
X102258181Y-78811169D01*
X102258177Y-78811164D01*
X102125225Y-78678212D01*
X102125220Y-78678208D01*
X101973120Y-78567702D01*
X101973119Y-78567701D01*
X101973117Y-78567700D01*
X101920802Y-78541044D01*
X101805595Y-78482342D01*
X101666843Y-78437259D01*
X101609168Y-78397821D01*
X101581970Y-78333462D01*
X101593885Y-78264616D01*
X101641129Y-78213140D01*
X101666843Y-78201397D01*
X101672940Y-78199416D01*
X101805591Y-78156315D01*
X101973117Y-78070956D01*
X102125227Y-77960442D01*
X102258176Y-77827493D01*
X102368690Y-77675383D01*
X102454049Y-77507857D01*
X102512150Y-77329041D01*
X102528128Y-77228160D01*
X102541562Y-77143342D01*
X102541562Y-76955313D01*
X102512150Y-76769614D01*
X102485192Y-76686648D01*
X102454049Y-76590799D01*
X102454047Y-76590796D01*
X102454047Y-76590794D01*
X102417720Y-76519500D01*
X102368690Y-76423273D01*
X102354570Y-76403839D01*
X102258181Y-76271169D01*
X102258177Y-76271164D01*
X102125225Y-76138212D01*
X102125220Y-76138208D01*
X101973120Y-76027702D01*
X101973119Y-76027701D01*
X101973117Y-76027700D01*
X101920802Y-76001044D01*
X101805595Y-75942342D01*
X101626775Y-75884239D01*
X101441076Y-75854828D01*
X101441071Y-75854828D01*
X101253053Y-75854828D01*
X101253048Y-75854828D01*
X101067348Y-75884239D01*
X100888528Y-75942342D01*
X100721003Y-76027702D01*
X100568903Y-76138208D01*
X100568898Y-76138212D01*
X100435946Y-76271164D01*
X100435942Y-76271169D01*
X100325436Y-76423269D01*
X100240076Y-76590794D01*
X100181973Y-76769614D01*
X100152562Y-76955313D01*
X87354062Y-76955313D01*
X87354062Y-76940313D01*
X87324650Y-76754614D01*
X87285253Y-76633364D01*
X87266549Y-76575799D01*
X87266547Y-76575796D01*
X87266547Y-76575794D01*
X87235579Y-76515018D01*
X87181190Y-76408273D01*
X87167070Y-76388839D01*
X87070681Y-76256169D01*
X87070677Y-76256164D01*
X86937725Y-76123212D01*
X86937720Y-76123208D01*
X86785620Y-76012702D01*
X86785619Y-76012701D01*
X86785617Y-76012700D01*
X86733302Y-75986044D01*
X86618095Y-75927342D01*
X86479343Y-75882259D01*
X86421668Y-75842821D01*
X86394470Y-75778462D01*
X86406385Y-75709616D01*
X86453629Y-75658140D01*
X86479343Y-75646397D01*
X86618091Y-75601315D01*
X86785617Y-75515956D01*
X86937727Y-75405442D01*
X87070676Y-75272493D01*
X87181190Y-75120383D01*
X87266549Y-74952857D01*
X87324650Y-74774041D01*
X87354062Y-74588342D01*
X87354062Y-74400313D01*
X87324650Y-74214614D01*
X87266547Y-74035794D01*
X87235579Y-73975018D01*
X87181190Y-73868273D01*
X87167070Y-73848839D01*
X87070681Y-73716169D01*
X87070677Y-73716164D01*
X86937725Y-73583212D01*
X86937720Y-73583208D01*
X86785620Y-73472702D01*
X86785619Y-73472701D01*
X86785617Y-73472700D01*
X86618091Y-73387341D01*
X86613750Y-73385129D01*
X86614232Y-73384182D01*
X86563809Y-73343558D01*
X86541737Y-73277267D01*
X86559008Y-73209565D01*
X86610140Y-73161949D01*
X86665656Y-73148827D01*
X86901434Y-73148827D01*
X86961045Y-73142419D01*
X87095893Y-73092124D01*
X87211108Y-73005874D01*
X87297358Y-72890659D01*
X87347653Y-72755811D01*
X87354062Y-72696201D01*
X87354061Y-71445789D01*
X93541561Y-71445789D01*
X93580009Y-71639075D01*
X93580012Y-71639085D01*
X93655426Y-71821153D01*
X93655433Y-71821166D01*
X93764922Y-71985027D01*
X93764925Y-71985031D01*
X93904276Y-72124382D01*
X93904280Y-72124385D01*
X94068141Y-72233874D01*
X94068154Y-72233881D01*
X94250222Y-72309295D01*
X94250227Y-72309297D01*
X94250231Y-72309297D01*
X94250232Y-72309298D01*
X94443518Y-72347746D01*
X94443521Y-72347746D01*
X94640605Y-72347746D01*
X94770644Y-72321878D01*
X94833897Y-72309297D01*
X95015976Y-72233878D01*
X95179844Y-72124385D01*
X95319201Y-71985028D01*
X95428694Y-71821160D01*
X95504113Y-71639081D01*
X95542562Y-71445787D01*
X95542562Y-71248705D01*
X95542561Y-71248702D01*
X95542487Y-71248327D01*
X95542487Y-71248326D01*
X95538337Y-71227463D01*
X100152562Y-71227463D01*
X100152562Y-72711198D01*
X100152563Y-72711204D01*
X100158970Y-72770811D01*
X100209264Y-72905656D01*
X100209268Y-72905663D01*
X100295514Y-73020872D01*
X100295517Y-73020875D01*
X100410726Y-73107121D01*
X100410733Y-73107125D01*
X100545579Y-73157419D01*
X100545578Y-73157419D01*
X100552506Y-73158163D01*
X100605189Y-73163828D01*
X102088934Y-73163827D01*
X102148545Y-73157419D01*
X102283393Y-73107124D01*
X102398608Y-73020874D01*
X102484858Y-72905659D01*
X102535153Y-72770811D01*
X102541562Y-72711201D01*
X102541561Y-71227456D01*
X102535153Y-71167845D01*
X102529558Y-71152845D01*
X102484859Y-71032999D01*
X102484855Y-71032992D01*
X102398609Y-70917783D01*
X102398606Y-70917780D01*
X102283397Y-70831534D01*
X102283390Y-70831530D01*
X102148544Y-70781236D01*
X102148545Y-70781236D01*
X102088945Y-70774829D01*
X102088943Y-70774828D01*
X102088935Y-70774828D01*
X102088926Y-70774828D01*
X100605191Y-70774828D01*
X100605185Y-70774829D01*
X100545578Y-70781236D01*
X100410733Y-70831530D01*
X100410726Y-70831534D01*
X100295517Y-70917780D01*
X100295514Y-70917783D01*
X100209268Y-71032992D01*
X100209264Y-71032999D01*
X100158970Y-71167845D01*
X100152563Y-71227444D01*
X100152563Y-71227451D01*
X100152562Y-71227463D01*
X95538337Y-71227463D01*
X95504114Y-71055416D01*
X95504113Y-71055415D01*
X95504113Y-71055411D01*
X95440893Y-70902783D01*
X95428697Y-70873338D01*
X95428690Y-70873325D01*
X95319201Y-70709464D01*
X95319198Y-70709460D01*
X95179847Y-70570109D01*
X95179843Y-70570106D01*
X95015982Y-70460617D01*
X95015969Y-70460610D01*
X94833901Y-70385196D01*
X94833891Y-70385193D01*
X94640605Y-70346746D01*
X94640603Y-70346746D01*
X94443521Y-70346746D01*
X94443519Y-70346746D01*
X94250232Y-70385193D01*
X94250222Y-70385196D01*
X94068154Y-70460610D01*
X94068141Y-70460617D01*
X93904280Y-70570106D01*
X93904276Y-70570109D01*
X93764925Y-70709460D01*
X93764922Y-70709464D01*
X93655433Y-70873325D01*
X93655426Y-70873338D01*
X93580012Y-71055406D01*
X93580009Y-71055416D01*
X93541562Y-71248702D01*
X93541562Y-71248704D01*
X93541562Y-71248705D01*
X93541562Y-71445787D01*
X93541562Y-71445789D01*
X93541561Y-71445789D01*
X87354061Y-71445789D01*
X87354061Y-71212456D01*
X87347653Y-71152845D01*
X87311314Y-71055416D01*
X87297359Y-71017999D01*
X87297355Y-71017992D01*
X87211109Y-70902783D01*
X87211106Y-70902780D01*
X87095897Y-70816534D01*
X87095890Y-70816530D01*
X86961044Y-70766236D01*
X86961045Y-70766236D01*
X86901445Y-70759829D01*
X86901443Y-70759828D01*
X86901435Y-70759828D01*
X86901426Y-70759828D01*
X85417691Y-70759828D01*
X85417685Y-70759829D01*
X85358078Y-70766236D01*
X85223233Y-70816530D01*
X85223226Y-70816534D01*
X85108017Y-70902780D01*
X85108014Y-70902783D01*
X85021768Y-71017992D01*
X85021764Y-71017999D01*
X84971470Y-71152845D01*
X84965063Y-71212444D01*
X84965063Y-71212451D01*
X84965062Y-71212463D01*
X82805157Y-71212463D01*
X82805157Y-68652871D01*
X93541561Y-68652871D01*
X93580009Y-68846157D01*
X93580012Y-68846167D01*
X93655426Y-69028235D01*
X93655433Y-69028248D01*
X93764922Y-69192109D01*
X93764925Y-69192113D01*
X93904276Y-69331464D01*
X93904280Y-69331467D01*
X94068141Y-69440956D01*
X94068154Y-69440963D01*
X94250222Y-69516377D01*
X94250227Y-69516379D01*
X94250231Y-69516379D01*
X94250232Y-69516380D01*
X94443518Y-69554828D01*
X94443521Y-69554828D01*
X94640605Y-69554828D01*
X94770644Y-69528960D01*
X94833897Y-69516379D01*
X95015976Y-69440960D01*
X95179844Y-69331467D01*
X95319201Y-69192110D01*
X95428694Y-69028242D01*
X95504113Y-68846163D01*
X95541492Y-68658248D01*
X95542562Y-68652871D01*
X95542562Y-68455784D01*
X95508167Y-68282871D01*
X119471561Y-68282871D01*
X119510009Y-68476157D01*
X119510012Y-68476167D01*
X119585426Y-68658235D01*
X119585433Y-68658248D01*
X119694922Y-68822109D01*
X119694925Y-68822113D01*
X119834276Y-68961464D01*
X119834280Y-68961467D01*
X119998141Y-69070956D01*
X119998154Y-69070963D01*
X120180222Y-69146377D01*
X120180227Y-69146379D01*
X120180231Y-69146379D01*
X120180232Y-69146380D01*
X120373518Y-69184828D01*
X120373521Y-69184828D01*
X120570605Y-69184828D01*
X120700644Y-69158960D01*
X120763897Y-69146379D01*
X120945976Y-69070960D01*
X121109844Y-68961467D01*
X121249201Y-68822110D01*
X121358694Y-68658242D01*
X121434113Y-68476163D01*
X121472562Y-68282869D01*
X121472562Y-68085787D01*
X121472562Y-68085784D01*
X121434114Y-67892498D01*
X121434113Y-67892497D01*
X121434113Y-67892493D01*
X121386353Y-67777189D01*
X121358697Y-67710420D01*
X121358690Y-67710407D01*
X121249201Y-67546546D01*
X121249198Y-67546542D01*
X121109847Y-67407191D01*
X121109843Y-67407188D01*
X120945982Y-67297699D01*
X120945969Y-67297692D01*
X120763901Y-67222278D01*
X120763891Y-67222275D01*
X120570605Y-67183828D01*
X120570603Y-67183828D01*
X120373521Y-67183828D01*
X120373519Y-67183828D01*
X120180232Y-67222275D01*
X120180222Y-67222278D01*
X119998154Y-67297692D01*
X119998141Y-67297699D01*
X119834280Y-67407188D01*
X119834276Y-67407191D01*
X119694925Y-67546542D01*
X119694922Y-67546546D01*
X119585433Y-67710407D01*
X119585426Y-67710420D01*
X119510012Y-67892488D01*
X119510009Y-67892498D01*
X119471562Y-68085784D01*
X119471562Y-68085787D01*
X119471562Y-68282869D01*
X119471562Y-68282871D01*
X119471561Y-68282871D01*
X95508167Y-68282871D01*
X95504114Y-68262498D01*
X95504113Y-68262497D01*
X95504113Y-68262493D01*
X95430920Y-68085787D01*
X95428697Y-68080420D01*
X95428690Y-68080407D01*
X95319201Y-67916546D01*
X95319198Y-67916542D01*
X95179847Y-67777191D01*
X95179843Y-67777188D01*
X95015982Y-67667699D01*
X95015969Y-67667692D01*
X94833901Y-67592278D01*
X94833891Y-67592275D01*
X94640605Y-67553828D01*
X94640603Y-67553828D01*
X94443521Y-67553828D01*
X94443519Y-67553828D01*
X94250232Y-67592275D01*
X94250222Y-67592278D01*
X94068154Y-67667692D01*
X94068141Y-67667699D01*
X93904280Y-67777188D01*
X93904276Y-67777191D01*
X93764925Y-67916542D01*
X93764922Y-67916546D01*
X93655433Y-68080407D01*
X93655426Y-68080420D01*
X93580012Y-68262488D01*
X93580009Y-68262498D01*
X93541562Y-68455784D01*
X93541562Y-68455787D01*
X93541562Y-68652869D01*
X93541562Y-68652871D01*
X93541561Y-68652871D01*
X82805157Y-68652871D01*
X82805157Y-67082871D01*
X97691561Y-67082871D01*
X97730009Y-67276157D01*
X97730012Y-67276167D01*
X97805426Y-67458235D01*
X97805433Y-67458248D01*
X97914922Y-67622109D01*
X97914925Y-67622113D01*
X98054276Y-67761464D01*
X98054280Y-67761467D01*
X98218141Y-67870956D01*
X98218154Y-67870963D01*
X98328203Y-67916546D01*
X98400227Y-67946379D01*
X98400231Y-67946379D01*
X98400232Y-67946380D01*
X98593518Y-67984828D01*
X98593521Y-67984828D01*
X98790605Y-67984828D01*
X98925085Y-67958078D01*
X98965762Y-67949986D01*
X98983897Y-67946379D01*
X99165976Y-67870960D01*
X99329844Y-67761467D01*
X99469201Y-67622110D01*
X99578694Y-67458242D01*
X99654113Y-67276163D01*
X99692562Y-67082869D01*
X99692562Y-66885787D01*
X99692562Y-66885784D01*
X99654114Y-66692498D01*
X99654113Y-66692497D01*
X99654113Y-66692493D01*
X99654111Y-66692488D01*
X99578697Y-66510420D01*
X99578690Y-66510407D01*
X99469201Y-66346546D01*
X99469198Y-66346542D01*
X99329847Y-66207191D01*
X99329843Y-66207188D01*
X99165982Y-66097699D01*
X99165969Y-66097692D01*
X98983901Y-66022278D01*
X98983891Y-66022275D01*
X98790605Y-65983828D01*
X98790603Y-65983828D01*
X98593521Y-65983828D01*
X98593519Y-65983828D01*
X98400232Y-66022275D01*
X98400222Y-66022278D01*
X98218154Y-66097692D01*
X98218141Y-66097699D01*
X98054280Y-66207188D01*
X98054276Y-66207191D01*
X97914925Y-66346542D01*
X97914922Y-66346546D01*
X97805433Y-66510407D01*
X97805426Y-66510420D01*
X97730012Y-66692488D01*
X97730009Y-66692498D01*
X97691562Y-66885784D01*
X97691562Y-66885787D01*
X97691562Y-67082869D01*
X97691562Y-67082871D01*
X97691561Y-67082871D01*
X82805157Y-67082871D01*
X82805157Y-62502871D01*
X117511561Y-62502871D01*
X117550009Y-62696157D01*
X117550012Y-62696167D01*
X117625426Y-62878235D01*
X117625433Y-62878248D01*
X117734922Y-63042109D01*
X117734925Y-63042113D01*
X117874276Y-63181464D01*
X117874280Y-63181467D01*
X118038141Y-63290956D01*
X118038154Y-63290963D01*
X118220222Y-63366377D01*
X118220227Y-63366379D01*
X118220231Y-63366379D01*
X118220232Y-63366380D01*
X118413518Y-63404828D01*
X118413521Y-63404828D01*
X118610605Y-63404828D01*
X118740644Y-63378960D01*
X118803897Y-63366379D01*
X118985976Y-63290960D01*
X119149844Y-63181467D01*
X119289201Y-63042110D01*
X119398694Y-62878242D01*
X119474113Y-62696163D01*
X119512562Y-62502869D01*
X119512562Y-62305787D01*
X119512562Y-62305784D01*
X119474114Y-62112498D01*
X119474113Y-62112497D01*
X119474113Y-62112493D01*
X119474111Y-62112488D01*
X119398697Y-61930420D01*
X119398690Y-61930407D01*
X119289201Y-61766546D01*
X119289198Y-61766542D01*
X119149847Y-61627191D01*
X119149843Y-61627188D01*
X118985982Y-61517699D01*
X118985969Y-61517692D01*
X118803901Y-61442278D01*
X118803891Y-61442275D01*
X118610605Y-61403828D01*
X118610603Y-61403828D01*
X118413521Y-61403828D01*
X118413519Y-61403828D01*
X118220232Y-61442275D01*
X118220222Y-61442278D01*
X118038154Y-61517692D01*
X118038141Y-61517699D01*
X117874280Y-61627188D01*
X117874276Y-61627191D01*
X117734925Y-61766542D01*
X117734922Y-61766546D01*
X117625433Y-61930407D01*
X117625426Y-61930420D01*
X117550012Y-62112488D01*
X117550009Y-62112498D01*
X117511562Y-62305784D01*
X117511562Y-62305787D01*
X117511562Y-62502869D01*
X117511562Y-62502871D01*
X117511561Y-62502871D01*
X82805157Y-62502871D01*
X82805157Y-53986188D01*
X82824842Y-53919149D01*
X82877646Y-53873394D01*
X82946804Y-53863450D01*
X83010360Y-53892475D01*
X83032255Y-53917293D01*
X83033496Y-53919149D01*
X83208702Y-54181363D01*
X83208712Y-54181377D01*
X83439369Y-54462434D01*
X83696455Y-54719520D01*
X83696460Y-54719524D01*
X83696461Y-54719525D01*
X83977518Y-54950182D01*
X84279830Y-55152181D01*
X84279839Y-55152186D01*
X84279841Y-55152187D01*
X84600478Y-55323571D01*
X84600480Y-55323571D01*
X84600486Y-55323575D01*
X84936398Y-55462714D01*
X85284329Y-55568258D01*
X85284335Y-55568259D01*
X85284338Y-55568260D01*
X85284349Y-55568263D01*
X85640931Y-55639190D01*
X86002768Y-55674828D01*
X86002771Y-55674828D01*
X86366353Y-55674828D01*
X86366356Y-55674828D01*
X86728193Y-55639190D01*
X86797607Y-55625382D01*
X87084774Y-55568263D01*
X87084785Y-55568260D01*
X87084785Y-55568259D01*
X87084795Y-55568258D01*
X87432726Y-55462714D01*
X87768638Y-55323575D01*
X88089294Y-55152181D01*
X88391606Y-54950182D01*
X88672663Y-54719525D01*
X88929759Y-54462429D01*
X89160416Y-54181372D01*
X89362415Y-53879060D01*
X89533809Y-53558404D01*
X89672948Y-53222492D01*
X89778492Y-52874561D01*
X89778494Y-52874551D01*
X89778497Y-52874540D01*
X89849424Y-52517958D01*
X89885062Y-52156118D01*
X89885062Y-51792537D01*
X89849424Y-51430697D01*
X89778497Y-51074115D01*
X89778494Y-51074104D01*
X89778493Y-51074101D01*
X89778492Y-51074095D01*
X89672948Y-50726164D01*
X89533809Y-50390252D01*
X89422894Y-50182745D01*
X89362421Y-50069607D01*
X89362408Y-50069585D01*
X89349275Y-50049931D01*
X89306494Y-49985905D01*
X109741562Y-49985905D01*
X109741562Y-50182750D01*
X109772352Y-50377154D01*
X109833179Y-50564357D01*
X109915623Y-50726162D01*
X109922538Y-50739733D01*
X110038234Y-50898974D01*
X110177416Y-51038156D01*
X110336657Y-51153852D01*
X110419517Y-51196071D01*
X110512032Y-51243210D01*
X110512034Y-51243210D01*
X110512037Y-51243212D01*
X110612379Y-51275815D01*
X110699235Y-51304037D01*
X110893640Y-51334828D01*
X110893645Y-51334828D01*
X111090484Y-51334828D01*
X111284888Y-51304037D01*
X111472087Y-51243212D01*
X111647467Y-51153852D01*
X111806708Y-51038156D01*
X111945890Y-50898974D01*
X112061586Y-50739733D01*
X112150946Y-50564353D01*
X112211771Y-50377154D01*
X112242562Y-50182750D01*
X112242562Y-49985905D01*
X112211771Y-49791501D01*
X112150944Y-49604298D01*
X112090784Y-49486227D01*
X112061586Y-49428923D01*
X111945890Y-49269682D01*
X111806708Y-49130500D01*
X111647467Y-49014804D01*
X111472091Y-48925445D01*
X111284888Y-48864618D01*
X111090484Y-48833828D01*
X111090479Y-48833828D01*
X110893645Y-48833828D01*
X110893640Y-48833828D01*
X110699235Y-48864618D01*
X110512032Y-48925445D01*
X110336656Y-49014804D01*
X110245803Y-49080813D01*
X110177416Y-49130500D01*
X110177414Y-49130502D01*
X110177413Y-49130502D01*
X110038236Y-49269679D01*
X110038236Y-49269680D01*
X110038234Y-49269682D01*
X109988547Y-49338069D01*
X109922538Y-49428922D01*
X109833179Y-49604298D01*
X109772352Y-49791501D01*
X109741562Y-49985905D01*
X89306494Y-49985905D01*
X89160416Y-49767284D01*
X88929759Y-49486227D01*
X88929758Y-49486226D01*
X88929754Y-49486221D01*
X88672668Y-49229135D01*
X88391611Y-48998478D01*
X88391610Y-48998477D01*
X88391606Y-48998474D01*
X88089294Y-48796475D01*
X88089289Y-48796472D01*
X88089282Y-48796468D01*
X87768645Y-48625084D01*
X87768640Y-48625082D01*
X87432727Y-48485942D01*
X87084785Y-48380395D01*
X87084774Y-48380392D01*
X86873688Y-48338406D01*
X86811777Y-48306022D01*
X86777203Y-48245306D01*
X86780942Y-48175536D01*
X86821808Y-48118864D01*
X86886826Y-48093283D01*
X86897879Y-48092789D01*
X103620071Y-48092789D01*
X103620622Y-48092790D01*
G37*
%TD.AperFunction*%
%TD*%
%TA.AperFunction,Conductor*%
%TO.N,GNDPWR*%
G36*
X183651944Y-48154912D02*
G01*
X183698030Y-48207427D01*
X183709562Y-48259647D01*
X183709562Y-71349328D01*
X176359562Y-66624328D01*
X176280711Y-66569541D01*
X159451421Y-54876463D01*
X177984062Y-54876463D01*
X177984062Y-57972198D01*
X177984063Y-57972204D01*
X177990470Y-58031811D01*
X178040764Y-58166656D01*
X178040768Y-58166663D01*
X178127014Y-58281872D01*
X178127017Y-58281875D01*
X178242226Y-58368121D01*
X178242233Y-58368125D01*
X178377079Y-58418419D01*
X178377078Y-58418419D01*
X178384006Y-58419163D01*
X178436689Y-58424828D01*
X181532434Y-58424827D01*
X181592045Y-58418419D01*
X181726893Y-58368124D01*
X181842108Y-58281874D01*
X181928358Y-58166659D01*
X181978653Y-58031811D01*
X181985062Y-57972201D01*
X181985061Y-54876456D01*
X181978653Y-54816845D01*
X181928358Y-54681997D01*
X181928357Y-54681996D01*
X181928355Y-54681992D01*
X181842109Y-54566783D01*
X181842106Y-54566780D01*
X181726897Y-54480534D01*
X181726890Y-54480530D01*
X181592044Y-54430236D01*
X181592045Y-54430236D01*
X181532445Y-54423829D01*
X181532443Y-54423828D01*
X181532435Y-54423828D01*
X181532426Y-54423828D01*
X178436691Y-54423828D01*
X178436685Y-54423829D01*
X178377078Y-54430236D01*
X178242233Y-54480530D01*
X178242226Y-54480534D01*
X178127017Y-54566780D01*
X178127014Y-54566783D01*
X178040768Y-54681992D01*
X178040764Y-54681999D01*
X177990470Y-54816845D01*
X177984063Y-54876444D01*
X177984063Y-54876451D01*
X177984062Y-54876463D01*
X159451421Y-54876463D01*
X158768689Y-54402097D01*
X158768688Y-54402097D01*
X158768687Y-54402097D01*
X142645441Y-54587421D01*
X137959562Y-58524327D01*
X138009561Y-73999327D01*
X138009562Y-73999328D01*
X143917125Y-77154703D01*
X143959021Y-77191192D01*
X144075217Y-77351122D01*
X144235268Y-77511173D01*
X144418386Y-77644216D01*
X144513667Y-77692764D01*
X144620056Y-77746973D01*
X144620058Y-77746973D01*
X144620061Y-77746975D01*
X144735450Y-77784467D01*
X144835328Y-77816920D01*
X145058884Y-77852328D01*
X145192193Y-77852328D01*
X145250613Y-77866952D01*
X145734138Y-78125214D01*
X146369885Y-78464782D01*
X146419744Y-78513730D01*
X146435456Y-78572646D01*
X146483607Y-82521064D01*
X146464741Y-82588338D01*
X146414320Y-82633857D01*
X133135435Y-89161609D01*
X133080731Y-89174328D01*
X131784611Y-89174328D01*
X131717572Y-89154643D01*
X131671817Y-89101839D01*
X131660615Y-89049284D01*
X131677412Y-87053675D01*
X131711859Y-82961340D01*
X131732108Y-82894473D01*
X131785295Y-82849164D01*
X131854534Y-82839803D01*
X131917844Y-82869362D01*
X131946336Y-82906087D01*
X131948715Y-82910755D01*
X131948718Y-82910759D01*
X131948719Y-82910761D01*
X132087545Y-83101838D01*
X132254552Y-83268845D01*
X132445629Y-83407671D01*
X132545053Y-83458330D01*
X132656065Y-83514894D01*
X132656067Y-83514894D01*
X132656070Y-83514896D01*
X132776474Y-83554017D01*
X132880693Y-83587881D01*
X133113965Y-83624828D01*
X133113970Y-83624828D01*
X133350159Y-83624828D01*
X133583430Y-83587881D01*
X133808054Y-83514896D01*
X134018495Y-83407671D01*
X134209572Y-83268845D01*
X134376579Y-83101838D01*
X134515405Y-82910761D01*
X134622630Y-82700320D01*
X134695615Y-82475696D01*
X134718314Y-82332380D01*
X134732562Y-82242425D01*
X134732562Y-82006230D01*
X134695615Y-81772959D01*
X134622628Y-81548331D01*
X134566064Y-81437319D01*
X134515405Y-81337895D01*
X134376579Y-81146818D01*
X134209572Y-80979811D01*
X134018495Y-80840985D01*
X133808058Y-80733761D01*
X133583430Y-80660774D01*
X133350159Y-80623828D01*
X133350154Y-80623828D01*
X133113970Y-80623828D01*
X133113965Y-80623828D01*
X132880693Y-80660774D01*
X132656065Y-80733761D01*
X132445628Y-80840985D01*
X132336612Y-80920190D01*
X132254552Y-80979811D01*
X132254550Y-80979813D01*
X132254549Y-80979813D01*
X132087546Y-81146816D01*
X131950481Y-81335468D01*
X131895150Y-81378134D01*
X131825537Y-81384112D01*
X131763742Y-81351506D01*
X131729385Y-81290667D01*
X131726167Y-81261546D01*
X131926824Y-57423563D01*
X131947072Y-57356698D01*
X132000259Y-57311389D01*
X132069499Y-57302028D01*
X132132808Y-57331587D01*
X132151136Y-57351727D01*
X132184935Y-57398246D01*
X132187545Y-57401838D01*
X132354552Y-57568845D01*
X132545629Y-57707671D01*
X132645053Y-57758330D01*
X132756065Y-57814894D01*
X132756067Y-57814894D01*
X132756070Y-57814896D01*
X132876474Y-57854017D01*
X132980693Y-57887881D01*
X133213965Y-57924828D01*
X133213970Y-57924828D01*
X133450159Y-57924828D01*
X133683430Y-57887881D01*
X133908054Y-57814896D01*
X134118495Y-57707671D01*
X134309572Y-57568845D01*
X134476579Y-57401838D01*
X134615405Y-57210761D01*
X134722630Y-57000320D01*
X134795615Y-56775696D01*
X134832562Y-56542425D01*
X134832562Y-56306230D01*
X134795615Y-56072959D01*
X134722628Y-55848331D01*
X134615404Y-55637894D01*
X134476579Y-55446818D01*
X134309572Y-55279811D01*
X134118495Y-55140985D01*
X133908058Y-55033761D01*
X133683430Y-54960774D01*
X133450159Y-54923828D01*
X133450154Y-54923828D01*
X133213970Y-54923828D01*
X133213965Y-54923828D01*
X132980693Y-54960774D01*
X132756065Y-55033761D01*
X132545628Y-55140985D01*
X132436612Y-55220190D01*
X132354552Y-55279811D01*
X132354550Y-55279813D01*
X132354549Y-55279813D01*
X132187547Y-55446815D01*
X132187542Y-55446821D01*
X132168173Y-55473480D01*
X132112843Y-55516144D01*
X132043229Y-55522122D01*
X131981435Y-55489514D01*
X131947079Y-55428675D01*
X131943861Y-55399554D01*
X131991091Y-49788649D01*
X132011340Y-49721781D01*
X132064527Y-49676472D01*
X132133767Y-49667111D01*
X132197076Y-49696670D01*
X132234354Y-49755764D01*
X132237560Y-49770298D01*
X132268508Y-49965696D01*
X132341495Y-50190324D01*
X132448719Y-50400761D01*
X132587545Y-50591838D01*
X132754552Y-50758845D01*
X132945629Y-50897671D01*
X133045053Y-50948330D01*
X133156065Y-51004894D01*
X133156067Y-51004894D01*
X133156070Y-51004896D01*
X133276474Y-51044017D01*
X133380693Y-51077881D01*
X133613965Y-51114828D01*
X133613970Y-51114828D01*
X133850159Y-51114828D01*
X134083430Y-51077881D01*
X134308054Y-51004896D01*
X134518495Y-50897671D01*
X134709572Y-50758845D01*
X134876579Y-50591838D01*
X135015405Y-50400761D01*
X135122630Y-50190320D01*
X135195615Y-49965696D01*
X135232562Y-49732425D01*
X135232562Y-49496230D01*
X135195615Y-49262959D01*
X135122628Y-49038331D01*
X135015404Y-48827894D01*
X135015402Y-48827891D01*
X134877611Y-48638238D01*
X134854132Y-48572435D01*
X134869957Y-48504381D01*
X134920063Y-48455686D01*
X134977145Y-48441358D01*
X183584784Y-48135649D01*
X183651944Y-48154912D01*
G37*
%TD.AperFunction*%
%TD*%
M02*
