%TF.GenerationSoftware,KiCad,Pcbnew,9.0.5*%
%TF.CreationDate,2026-05-07T21:25:48+02:00*%
%TF.ProjectId,Adrion_1,41647269-6f6e-45f3-912e-6b696361645f,rev?*%
%TF.SameCoordinates,Original*%
%TF.FileFunction,Copper,L3,Inr*%
%TF.FilePolarity,Positive*%
%FSLAX46Y46*%
G04 Gerber Fmt 4.6, Leading zero omitted, Abs format (unit mm)*
G04 Created by KiCad (PCBNEW 9.0.5) date 2026-05-07 21:25:48*
%MOMM*%
%LPD*%
G01*
G04 APERTURE LIST*
%TA.AperFunction,ComponentPad*%
%ADD10C,6.400000*%
%TD*%
%TA.AperFunction,ComponentPad*%
%ADD11C,3.000000*%
%TD*%
%TA.AperFunction,ComponentPad*%
%ADD12R,3.000000X3.000000*%
%TD*%
%TA.AperFunction,ComponentPad*%
%ADD13C,2.400000*%
%TD*%
%TA.AperFunction,ComponentPad*%
%ADD14C,1.875000*%
%TD*%
%TA.AperFunction,ComponentPad*%
%ADD15R,1.875000X1.875000*%
%TD*%
%TA.AperFunction,ComponentPad*%
%ADD16O,2.300000X1.300000*%
%TD*%
%TA.AperFunction,ComponentPad*%
%ADD17O,1.900000X2.540000*%
%TD*%
%TA.AperFunction,ComponentPad*%
%ADD18C,1.950000*%
%TD*%
%TA.AperFunction,ComponentPad*%
%ADD19R,1.950000X1.950000*%
%TD*%
%TA.AperFunction,ComponentPad*%
%ADD20R,2.000000X2.000000*%
%TD*%
%TA.AperFunction,ComponentPad*%
%ADD21C,2.000000*%
%TD*%
%TA.AperFunction,ComponentPad*%
%ADD22R,1.388000X1.388000*%
%TD*%
%TA.AperFunction,ComponentPad*%
%ADD23C,1.388000*%
%TD*%
%TA.AperFunction,ViaPad*%
%ADD24C,1.000000*%
%TD*%
%TA.AperFunction,ViaPad*%
%ADD25C,2.000000*%
%TD*%
%TA.AperFunction,ViaPad*%
%ADD26C,1.500000*%
%TD*%
G04 APERTURE END LIST*
D10*
%TO.N,N/C*%
%TO.C,REF\u002A\u002A*%
X210084562Y-51699328D03*
%TD*%
D11*
%TO.N,GNDPWR*%
%TO.C,C28*%
X194784562Y-83624328D03*
D12*
%TO.N,HV*%
X194784562Y-93624328D03*
%TD*%
D13*
%TO.N,Net-(U5-OUT_1)*%
%TO.C,J1*%
X164134562Y-94309328D03*
X164134562Y-96849328D03*
X161594562Y-96849328D03*
X161594562Y-94309328D03*
%TD*%
D14*
%TO.N,GNDPWR*%
%TO.C,Q3*%
X145172062Y-78954328D03*
%TO.N,Net-(IC2-VSSA)*%
X145172062Y-76414328D03*
D15*
%TO.N,Net-(Q3-G)*%
X145172062Y-73874328D03*
%TD*%
D10*
%TO.N,N/C*%
%TO.C,REF\u002A\u002A*%
X86234562Y-155074328D03*
%TD*%
D14*
%TO.N,Net-(IC3-VSSA)*%
%TO.C,Q5*%
X145034562Y-122174328D03*
%TO.N,HV*%
X145034562Y-119634328D03*
D15*
%TO.N,Net-(Q5-G)*%
X145034562Y-117094328D03*
%TD*%
D11*
%TO.N,GNDPWR*%
%TO.C,C32*%
X194809562Y-111024328D03*
D12*
%TO.N,HV*%
X194809562Y-121024328D03*
%TD*%
D16*
%TO.N,5V*%
%TO.C,U5*%
X126154562Y-100930328D03*
%TO.N,GND*%
X126154562Y-99025328D03*
%TO.N,Net-(U5-VOUT)*%
X126154562Y-97120328D03*
%TO.N,1.65V*%
X126154562Y-95215328D03*
D17*
%TO.N,Net-(U5-OUT_1)*%
X136324562Y-91723328D03*
X138864562Y-91723328D03*
X141404562Y-91723328D03*
X143944562Y-91723328D03*
%TO.N,Net-(IC3-VSSA)*%
X143944562Y-104423328D03*
X141404562Y-104423328D03*
X138864562Y-104423328D03*
X136324562Y-104423328D03*
%TD*%
D10*
%TO.N,N/C*%
%TO.C,REF\u002A\u002A*%
X86184562Y-51974328D03*
%TD*%
D13*
%TO.N,GNDPWR*%
%TO.C,J2*%
X130509562Y-154699328D03*
X130509562Y-157239328D03*
X127969562Y-157239328D03*
X127969562Y-154699328D03*
%TD*%
%TO.N,Net-(D8-Pad1)*%
%TO.C,J4*%
X138559562Y-154699328D03*
X136019562Y-154699328D03*
X136019562Y-157239328D03*
X138559562Y-157239328D03*
%TD*%
D14*
%TO.N,GNDPWR*%
%TO.C,Q1*%
X145019562Y-133414328D03*
%TO.N,Net-(IC3-VSSA)*%
X145019562Y-130874328D03*
D15*
%TO.N,Net-(Q1-G)*%
X145019562Y-128334328D03*
%TD*%
D11*
%TO.N,GNDPWR*%
%TO.C,C30*%
X194909562Y-56574328D03*
D12*
%TO.N,HV*%
X194909562Y-66574328D03*
%TD*%
D13*
%TO.N,Net-(IC2-VSSA)*%
%TO.C,J5*%
X153744562Y-83749328D03*
X153744562Y-86289328D03*
X156284562Y-86289328D03*
X156284562Y-83749328D03*
%TD*%
D14*
%TO.N,Net-(IC2-VSSA)*%
%TO.C,Q2*%
X145309562Y-67691828D03*
%TO.N,HV*%
X145309562Y-65151828D03*
D15*
%TO.N,Net-(Q2-G)*%
X145309562Y-62611828D03*
%TD*%
D11*
%TO.N,GNDPWR*%
%TO.C,C60*%
X194809562Y-138324328D03*
D12*
%TO.N,HV*%
X194809562Y-148324328D03*
%TD*%
D10*
%TO.N,N/C*%
%TO.C,REF\u002A\u002A*%
X210284562Y-155874328D03*
%TD*%
D18*
%TO.N,12V*%
%TO.C,J3*%
X88024562Y-126184328D03*
D19*
%TO.N,GND*%
X88024562Y-121104328D03*
%TD*%
D11*
%TO.N,GNDPWR*%
%TO.C,C41*%
X180009562Y-121049328D03*
D12*
%TO.N,HV*%
X180009562Y-111049328D03*
%TD*%
D11*
%TO.N,GNDPWR*%
%TO.C,C31*%
X179984562Y-66424328D03*
D12*
%TO.N,HV*%
X179984562Y-56424328D03*
%TD*%
D11*
%TO.N,GNDPWR*%
%TO.C,C27*%
X179959562Y-93699328D03*
D12*
%TO.N,HV*%
X179959562Y-83699328D03*
%TD*%
D11*
%TO.N,GNDPWR*%
%TO.C,C29*%
X180034562Y-148449328D03*
D12*
%TO.N,HV*%
X180034562Y-138449328D03*
%TD*%
D20*
%TO.N,Net-(D8-Pad1)*%
%TO.C,D8*%
X149422562Y-151334328D03*
D21*
%TO.N,HV*%
X149422562Y-153874328D03*
%TO.N,Net-(D8-Pad1)*%
X149422562Y-156414328D03*
%TD*%
D22*
%TO.N,unconnected-(J9-VIN-Pad1)*%
%TO.C,J9*%
X101347062Y-71969328D03*
D23*
%TO.N,GND*%
X101347062Y-74509328D03*
%TO.N,unconnected-(J9-~{RST}-Pad3)*%
X101347062Y-77049328D03*
%TO.N,5V*%
X101347062Y-79589328D03*
%TO.N,unconnected-(J9-PA2(A7)-Pad5)*%
X101347062Y-82129328D03*
%TO.N,PWM_AL*%
X101347062Y-84669328D03*
%TO.N,unconnected-(J9-PA6(A5)-Pad7)*%
X101347062Y-87209328D03*
%TO.N,unconnected-(J9-PA5(A4)-Pad8)*%
X101347062Y-89749328D03*
%TO.N,unconnected-(J9-PA4(A3)-Pad9)*%
X101347062Y-92289328D03*
%TO.N,unconnected-(J9-PA3(A2)-Pad10)*%
X101347062Y-94829328D03*
%TO.N,I_Sense*%
X101347062Y-97369328D03*
%TO.N,unconnected-(J9-PA0(A0)-Pad12)*%
X101347062Y-99909328D03*
%TO.N,unconnected-(J9-AREF-Pad13)*%
X101347062Y-102449328D03*
%TO.N,unconnected-(J9-3V3-Pad14)*%
X101347062Y-104989328D03*
%TO.N,unconnected-(J9-PB3(D13)-Pad15)*%
X101347062Y-107529328D03*
%TD*%
D22*
%TO.N,PWM_BH*%
%TO.C,J8*%
X86159562Y-71954328D03*
D23*
%TO.N,unconnected-(J8-PA10(D0)-Pad2)*%
X86159562Y-74494328D03*
%TO.N,unconnected-(J8-~{RST}-Pad3)*%
X86159562Y-77034328D03*
%TO.N,GND*%
X86159562Y-79574328D03*
%TO.N,EN_A*%
X86159562Y-82114328D03*
%TO.N,PWM_BL*%
X86159562Y-84654328D03*
%TO.N,EN_B*%
X86159562Y-87194328D03*
%TO.N,unconnected-(J8-PB6(D5)-Pad8)*%
X86159562Y-89734328D03*
%TO.N,unconnected-(J8-PB1(D6)-Pad9)*%
X86159562Y-92274328D03*
%TO.N,unconnected-(J8-NC-Pad10)*%
X86159562Y-94814328D03*
%TO.N,unconnected-(J8-NC-Pad11)*%
X86159562Y-97354328D03*
%TO.N,PWM_AH*%
X86159562Y-99894328D03*
%TO.N,unconnected-(J8-PA11(D10)-Pad13)*%
X86159562Y-102434328D03*
%TO.N,unconnected-(J8-PB5(D11)-Pad14)*%
X86159562Y-104974328D03*
%TO.N,unconnected-(J8-PB4(D12)-Pad15)*%
X86159562Y-107514328D03*
%TD*%
D24*
%TO.N,GND*%
X112862062Y-91214328D03*
X122790000Y-74950000D03*
X126970000Y-78890000D03*
%TO.N,3.3V*%
X126500000Y-77520000D03*
%TO.N,GND*%
X121120000Y-127380000D03*
X116420000Y-126960000D03*
%TO.N,3.3V*%
X122780000Y-129220000D03*
D25*
%TO.N,GNDPWR*%
X210830000Y-84630000D03*
D24*
%TO.N,GND*%
X105920000Y-128200000D03*
X92850000Y-141860000D03*
X91230000Y-141850000D03*
X92910000Y-144760000D03*
X103160000Y-146900000D03*
X97030000Y-146840000D03*
X94460000Y-146880000D03*
X91160000Y-146880000D03*
X92860000Y-146870000D03*
X101370000Y-146870000D03*
X99500000Y-146840000D03*
X101400000Y-139420000D03*
X103210000Y-139440000D03*
X103180000Y-141990000D03*
X101330000Y-141860000D03*
X103160000Y-144820000D03*
X101370000Y-144750000D03*
X91130000Y-144730000D03*
X92810000Y-139290000D03*
X91230000Y-139270000D03*
X99450000Y-144630000D03*
X97010000Y-144560000D03*
X94640000Y-144580000D03*
X99520000Y-141780000D03*
X97010000Y-141760000D03*
X94660000Y-141850000D03*
X99340000Y-139480000D03*
X96940000Y-139390000D03*
X94660000Y-139410000D03*
X103709543Y-133462850D03*
D25*
%TO.N,Net-(IC2-VDDA)*%
X133732062Y-49614328D03*
%TO.N,Net-(IC3-VDDB)*%
X132312062Y-133794328D03*
%TO.N,Net-(IC2-VDDB)*%
X133232062Y-82124328D03*
D24*
%TO.N,EN_B*%
X94542062Y-71347246D03*
%TO.N,EN_A*%
X93149562Y-114609328D03*
%TO.N,EN_B*%
X88812062Y-81944328D03*
D25*
%TO.N,Net-(IC2-VSSA)*%
X133332062Y-56424328D03*
%TO.N,Net-(IC3-VDDA)*%
X133542062Y-107034328D03*
%TO.N,Net-(IC3-VSSA)*%
X132694562Y-112686828D03*
D24*
%TO.N,PWM_BL*%
X98692062Y-66984328D03*
%TO.N,GND*%
X101232062Y-56784328D03*
D26*
X110822062Y-113384328D03*
D24*
X116142062Y-72074328D03*
X122422062Y-69235328D03*
X123272062Y-99044328D03*
X122732062Y-61844328D03*
X120532062Y-118444328D03*
X120232062Y-122194328D03*
X97652062Y-49684328D03*
X122702062Y-92354328D03*
X126272062Y-131204328D03*
D26*
X110882062Y-141284328D03*
X111262062Y-88224328D03*
D24*
X122372062Y-65214328D03*
%TO.N,3.3V*%
X122960293Y-121308675D03*
X120472062Y-68184328D03*
D26*
%TO.N,12V*%
X111242062Y-81506828D03*
D24*
%TO.N,3.3V*%
X118512062Y-62404328D03*
D25*
%TO.N,GNDPWR*%
X133042062Y-141374328D03*
D26*
%TO.N,5V*%
X94449562Y-87159328D03*
%TO.N,12V*%
X110882062Y-106794328D03*
D25*
%TO.N,GNDPWR*%
X136192062Y-80894328D03*
X210825000Y-66768500D03*
D26*
%TO.N,GND*%
X111252062Y-56354328D03*
%TO.N,12V*%
X110982062Y-134724328D03*
D25*
%TO.N,GNDPWR*%
X132882062Y-88094328D03*
D24*
%TO.N,PWM_AH*%
X99892062Y-117004328D03*
D25*
%TO.N,GNDPWR*%
X135522062Y-133384328D03*
D26*
%TO.N,5V*%
X94299562Y-82509328D03*
X93299562Y-106984328D03*
X90449562Y-112334328D03*
%TO.N,12V*%
X110992062Y-50084328D03*
D24*
%TO.N,PWM_BH*%
X94542062Y-68554328D03*
D25*
%TO.N,GND*%
X100480000Y-131650000D03*
%TD*%
%TA.AperFunction,Conductor*%
%TO.N,HV*%
G36*
X206335866Y-48112474D02*
G01*
X206379861Y-48161586D01*
X206905624Y-49219121D01*
X207038142Y-49485671D01*
X207050360Y-49554464D01*
X207030209Y-49609763D01*
X206906719Y-49794579D01*
X206906702Y-49794607D01*
X206735318Y-50115244D01*
X206735316Y-50115249D01*
X206596176Y-50451162D01*
X206490629Y-50799104D01*
X206490626Y-50799115D01*
X206419699Y-51155697D01*
X206384062Y-51517537D01*
X206384062Y-51881118D01*
X206419699Y-52242958D01*
X206490626Y-52599540D01*
X206490629Y-52599551D01*
X206596176Y-52947493D01*
X206735316Y-53283406D01*
X206735318Y-53283411D01*
X206906702Y-53604048D01*
X206906713Y-53604066D01*
X207108702Y-53906363D01*
X207108712Y-53906377D01*
X207339369Y-54187434D01*
X207596455Y-54444520D01*
X207596460Y-54444524D01*
X207596461Y-54444525D01*
X207877518Y-54675182D01*
X208179830Y-54877181D01*
X208179839Y-54877186D01*
X208179841Y-54877187D01*
X208500478Y-55048571D01*
X208500480Y-55048571D01*
X208500486Y-55048575D01*
X208728898Y-55143186D01*
X208761077Y-55156515D01*
X208815480Y-55200356D01*
X208837545Y-55266650D01*
X208837617Y-55272358D01*
X208559561Y-82174326D01*
X208559562Y-82174328D01*
X209692200Y-83483024D01*
X209721187Y-83546595D01*
X209711203Y-83615748D01*
X209688404Y-83648567D01*
X209688652Y-83648779D01*
X209686540Y-83651252D01*
X209686131Y-83651841D01*
X209685487Y-83652484D01*
X209546657Y-83843566D01*
X209439433Y-84054003D01*
X209366446Y-84278631D01*
X209329500Y-84511902D01*
X209329500Y-84748097D01*
X209366446Y-84981368D01*
X209439433Y-85205996D01*
X209546657Y-85416433D01*
X209685483Y-85607510D01*
X209852490Y-85774517D01*
X210043567Y-85913343D01*
X210128984Y-85956865D01*
X210254003Y-86020566D01*
X210254005Y-86020566D01*
X210254008Y-86020568D01*
X210374412Y-86059689D01*
X210478631Y-86093553D01*
X210711903Y-86130500D01*
X210711908Y-86130500D01*
X210948097Y-86130500D01*
X211181368Y-86093553D01*
X211405992Y-86020568D01*
X211616433Y-85913343D01*
X211634287Y-85900370D01*
X211700089Y-85876890D01*
X211768144Y-85892712D01*
X211800934Y-85919540D01*
X213354577Y-87714682D01*
X213383564Y-87778254D01*
X213384814Y-87795145D01*
X213599654Y-126763707D01*
X213599656Y-126764391D01*
X213599656Y-146703725D01*
X213579971Y-146770764D01*
X213543345Y-146807620D01*
X194065479Y-159497798D01*
X193998564Y-159517901D01*
X193997662Y-159517903D01*
X152887664Y-159475533D01*
X151750700Y-159474362D01*
X151750694Y-159474362D01*
X151750674Y-159474362D01*
X145376813Y-159499163D01*
X145309698Y-159479739D01*
X145300999Y-159473658D01*
X141269020Y-156389858D01*
X141146604Y-156296230D01*
X147922062Y-156296230D01*
X147922062Y-156532425D01*
X147959008Y-156765696D01*
X148031995Y-156990324D01*
X148139219Y-157200761D01*
X148278045Y-157391838D01*
X148445052Y-157558845D01*
X148636129Y-157697671D01*
X148735553Y-157748330D01*
X148846565Y-157804894D01*
X148846567Y-157804894D01*
X148846570Y-157804896D01*
X148966974Y-157844017D01*
X149071193Y-157877881D01*
X149304465Y-157914828D01*
X149304470Y-157914828D01*
X149540659Y-157914828D01*
X149773930Y-157877881D01*
X149998554Y-157804896D01*
X150208995Y-157697671D01*
X150400072Y-157558845D01*
X150567079Y-157391838D01*
X150705905Y-157200761D01*
X150813130Y-156990320D01*
X150886115Y-156765696D01*
X150897859Y-156691547D01*
X150923062Y-156532425D01*
X150923062Y-156296230D01*
X150886115Y-156062959D01*
X150813128Y-155838331D01*
X150705904Y-155627894D01*
X150567079Y-155436818D01*
X150400072Y-155269811D01*
X150208995Y-155130985D01*
X149998558Y-155023761D01*
X149773930Y-154950774D01*
X149540659Y-154913828D01*
X149540654Y-154913828D01*
X149304470Y-154913828D01*
X149304465Y-154913828D01*
X149071193Y-154950774D01*
X148846565Y-155023761D01*
X148636128Y-155130985D01*
X148527112Y-155210190D01*
X148445052Y-155269811D01*
X148445050Y-155269813D01*
X148445049Y-155269813D01*
X148278047Y-155436815D01*
X148278047Y-155436816D01*
X148278045Y-155436818D01*
X148266249Y-155453054D01*
X148139219Y-155627894D01*
X148031995Y-155838331D01*
X147959008Y-156062959D01*
X147922062Y-156296230D01*
X141146604Y-156296230D01*
X140153131Y-155536387D01*
X140111840Y-155480024D01*
X140107576Y-155410285D01*
X140113900Y-155390445D01*
X140173272Y-155247109D01*
X140230966Y-155031791D01*
X140260062Y-154810785D01*
X140260062Y-154587871D01*
X140230966Y-154366865D01*
X140173272Y-154151547D01*
X140087967Y-153945602D01*
X139976510Y-153752554D01*
X139840809Y-153575704D01*
X139840804Y-153575698D01*
X139683191Y-153418085D01*
X139683184Y-153418079D01*
X139506344Y-153282386D01*
X139506342Y-153282385D01*
X139506336Y-153282380D01*
X139313288Y-153170923D01*
X139313284Y-153170921D01*
X139107352Y-153085621D01*
X139107345Y-153085619D01*
X139107343Y-153085618D01*
X138892025Y-153027924D01*
X138892019Y-153027923D01*
X138892014Y-153027922D01*
X138671028Y-152998829D01*
X138671025Y-152998828D01*
X138671019Y-152998828D01*
X138448105Y-152998828D01*
X138448099Y-152998828D01*
X138448095Y-152998829D01*
X138227109Y-153027922D01*
X138227102Y-153027923D01*
X138227099Y-153027924D01*
X138011781Y-153085618D01*
X138011771Y-153085621D01*
X137805839Y-153170921D01*
X137805835Y-153170923D01*
X137612788Y-153282380D01*
X137612779Y-153282386D01*
X137485128Y-153380336D01*
X137419959Y-153405530D01*
X137351514Y-153391491D01*
X137334310Y-153380454D01*
X136948820Y-153085618D01*
X134006666Y-150835355D01*
X133965376Y-150778993D01*
X133958040Y-150740047D01*
X133946401Y-150286463D01*
X147922062Y-150286463D01*
X147922062Y-152382198D01*
X147922063Y-152382204D01*
X147928470Y-152441811D01*
X147978764Y-152576656D01*
X147978768Y-152576663D01*
X148065014Y-152691872D01*
X148065017Y-152691875D01*
X148180226Y-152778121D01*
X148180233Y-152778125D01*
X148315079Y-152828419D01*
X148315078Y-152828419D01*
X148322006Y-152829163D01*
X148374689Y-152834828D01*
X150470434Y-152834827D01*
X150530045Y-152828419D01*
X150664893Y-152778124D01*
X150780108Y-152691874D01*
X150866358Y-152576659D01*
X150916653Y-152441811D01*
X150923062Y-152382201D01*
X150923061Y-150286456D01*
X150916653Y-150226845D01*
X150866358Y-150091997D01*
X150866357Y-150091996D01*
X150866355Y-150091992D01*
X150780109Y-149976783D01*
X150780106Y-149976780D01*
X150664897Y-149890534D01*
X150664890Y-149890530D01*
X150530044Y-149840236D01*
X150530045Y-149840236D01*
X150470445Y-149833829D01*
X150470443Y-149833828D01*
X150470435Y-149833828D01*
X150470426Y-149833828D01*
X148374691Y-149833828D01*
X148374685Y-149833829D01*
X148315078Y-149840236D01*
X148180233Y-149890530D01*
X148180226Y-149890534D01*
X148065017Y-149976780D01*
X148065014Y-149976783D01*
X147978768Y-150091992D01*
X147978764Y-150091999D01*
X147928470Y-150226845D01*
X147922063Y-150286444D01*
X147922063Y-150286451D01*
X147922062Y-150286463D01*
X133946401Y-150286463D01*
X133895893Y-148318200D01*
X178034062Y-148318200D01*
X178034062Y-148580455D01*
X178060685Y-148782667D01*
X178068292Y-148840444D01*
X178136164Y-149093746D01*
X178136167Y-149093756D01*
X178236515Y-149336018D01*
X178236520Y-149336028D01*
X178367637Y-149563131D01*
X178527280Y-149771179D01*
X178527288Y-149771188D01*
X178712702Y-149956602D01*
X178712710Y-149956609D01*
X178712711Y-149956610D01*
X178739001Y-149976783D01*
X178920758Y-150116252D01*
X179147861Y-150247369D01*
X179147871Y-150247374D01*
X179390133Y-150347722D01*
X179390143Y-150347726D01*
X179643446Y-150415598D01*
X179903442Y-150449828D01*
X179903449Y-150449828D01*
X180165675Y-150449828D01*
X180165682Y-150449828D01*
X180425678Y-150415598D01*
X180678981Y-150347726D01*
X180921259Y-150247371D01*
X181148365Y-150116252D01*
X181356413Y-149956610D01*
X181356417Y-149956605D01*
X181356422Y-149956602D01*
X181541836Y-149771188D01*
X181541839Y-149771183D01*
X181541844Y-149771179D01*
X181701486Y-149563131D01*
X181832605Y-149336025D01*
X181932960Y-149093747D01*
X182000832Y-148840444D01*
X182035062Y-148580448D01*
X182035062Y-148318208D01*
X182000832Y-148058212D01*
X181932960Y-147804909D01*
X181932956Y-147804899D01*
X181832608Y-147562637D01*
X181832603Y-147562627D01*
X181701486Y-147335524D01*
X181541843Y-147127476D01*
X181541836Y-147127468D01*
X181356422Y-146942054D01*
X181356413Y-146942046D01*
X181148365Y-146782403D01*
X180921262Y-146651286D01*
X180921252Y-146651281D01*
X180678990Y-146550933D01*
X180678983Y-146550931D01*
X180678981Y-146550930D01*
X180425678Y-146483058D01*
X180367901Y-146475451D01*
X180165689Y-146448828D01*
X180165682Y-146448828D01*
X179903442Y-146448828D01*
X179903434Y-146448828D01*
X179672334Y-146479254D01*
X179643446Y-146483058D01*
X179390143Y-146550930D01*
X179390133Y-146550933D01*
X179147871Y-146651281D01*
X179147861Y-146651286D01*
X178920758Y-146782403D01*
X178712710Y-146942046D01*
X178527280Y-147127476D01*
X178367637Y-147335524D01*
X178236520Y-147562627D01*
X178236515Y-147562637D01*
X178136167Y-147804899D01*
X178136164Y-147804909D01*
X178068292Y-148058213D01*
X178034062Y-148318200D01*
X133895893Y-148318200D01*
X133753649Y-142774991D01*
X133771607Y-142707473D01*
X133821315Y-142661328D01*
X133828495Y-142657671D01*
X134019572Y-142518845D01*
X134186579Y-142351838D01*
X134325405Y-142160761D01*
X134432630Y-141950320D01*
X134505615Y-141725696D01*
X134542562Y-141492425D01*
X134542562Y-141256230D01*
X134505615Y-141022959D01*
X134432628Y-140798331D01*
X134325404Y-140587894D01*
X134186579Y-140396818D01*
X134019572Y-140229811D01*
X133828495Y-140090985D01*
X133748641Y-140050297D01*
X133697845Y-140002322D01*
X133680978Y-139942996D01*
X133546231Y-134691963D01*
X133564188Y-134624447D01*
X133569855Y-134615926D01*
X133595405Y-134580761D01*
X133702630Y-134370320D01*
X133775615Y-134145696D01*
X133804975Y-133960324D01*
X133812562Y-133912425D01*
X133812562Y-133758415D01*
X133832247Y-133691376D01*
X133885051Y-133645621D01*
X133954209Y-133635677D01*
X134017765Y-133664702D01*
X134055539Y-133723480D01*
X134057231Y-133731002D01*
X134057374Y-133730968D01*
X134058508Y-133735696D01*
X134131495Y-133960324D01*
X134225948Y-134145696D01*
X134238719Y-134170761D01*
X134377545Y-134361838D01*
X134544552Y-134528845D01*
X134735629Y-134667671D01*
X134783305Y-134691963D01*
X134946065Y-134774894D01*
X134946067Y-134774894D01*
X134946070Y-134774896D01*
X135066474Y-134814017D01*
X135170693Y-134847881D01*
X135403965Y-134884828D01*
X135403970Y-134884828D01*
X135640159Y-134884828D01*
X135873430Y-134847881D01*
X136098054Y-134774896D01*
X136308495Y-134667671D01*
X136499572Y-134528845D01*
X136666579Y-134361838D01*
X136805405Y-134170761D01*
X136912630Y-133960320D01*
X136985615Y-133735696D01*
X136992635Y-133691376D01*
X137022562Y-133502425D01*
X137022562Y-133266230D01*
X136985615Y-133032959D01*
X136923389Y-132841449D01*
X136912630Y-132808336D01*
X136912628Y-132808333D01*
X136912628Y-132808331D01*
X136837381Y-132660652D01*
X136805405Y-132597895D01*
X136666579Y-132406818D01*
X136499572Y-132239811D01*
X136308495Y-132100985D01*
X136098058Y-131993761D01*
X135873430Y-131920774D01*
X135640159Y-131883828D01*
X135640154Y-131883828D01*
X135403970Y-131883828D01*
X135403965Y-131883828D01*
X135170693Y-131920774D01*
X134946065Y-131993761D01*
X134735628Y-132100985D01*
X134626612Y-132180190D01*
X134544552Y-132239811D01*
X134544550Y-132239813D01*
X134544549Y-132239813D01*
X134377547Y-132406815D01*
X134377547Y-132406816D01*
X134377545Y-132406818D01*
X134326167Y-132477534D01*
X134238719Y-132597894D01*
X134131495Y-132808331D01*
X134058508Y-133032959D01*
X134021562Y-133266230D01*
X134021562Y-133420240D01*
X134001877Y-133487279D01*
X133949073Y-133533034D01*
X133879915Y-133542978D01*
X133816359Y-133513953D01*
X133778585Y-133455175D01*
X133776892Y-133447653D01*
X133776750Y-133447688D01*
X133775615Y-133442959D01*
X133741751Y-133338740D01*
X133702630Y-133218336D01*
X133702628Y-133218333D01*
X133702628Y-133218331D01*
X133608176Y-133032960D01*
X133595405Y-133007895D01*
X133522285Y-132907255D01*
X133498806Y-132841449D01*
X133498645Y-132837551D01*
X133497895Y-132808331D01*
X133137787Y-118775018D01*
X133155745Y-118707498D01*
X133207358Y-118660403D01*
X133260283Y-118647848D01*
X143751604Y-118524421D01*
X143767453Y-118525251D01*
X146002960Y-118786853D01*
X146067258Y-118814196D01*
X146106565Y-118871961D01*
X146112501Y-118906617D01*
X146156798Y-120523447D01*
X146138957Y-120591000D01*
X146087426Y-120638184D01*
X146061345Y-120647523D01*
X145474153Y-120786195D01*
X145407334Y-120783446D01*
X145394752Y-120779357D01*
X145371293Y-120771735D01*
X145147740Y-120736328D01*
X145147735Y-120736328D01*
X144921389Y-120736328D01*
X144921384Y-120736328D01*
X144697828Y-120771735D01*
X144482556Y-120841682D01*
X144280882Y-120944442D01*
X144097774Y-121077477D01*
X144097767Y-121077483D01*
X144078466Y-121096783D01*
X144019289Y-121129778D01*
X139384562Y-122224327D01*
X139384562Y-122224328D01*
X143659562Y-143124328D01*
X150959562Y-144274328D01*
X150959564Y-144274327D01*
X150959565Y-144274328D01*
X158946839Y-143953896D01*
X169596543Y-143526655D01*
X176164561Y-138193200D01*
X192809062Y-138193200D01*
X192809062Y-138455455D01*
X192835685Y-138657667D01*
X192843292Y-138715444D01*
X192911164Y-138968746D01*
X192911167Y-138968756D01*
X193011515Y-139211018D01*
X193011520Y-139211028D01*
X193142637Y-139438131D01*
X193302280Y-139646179D01*
X193302288Y-139646188D01*
X193487702Y-139831602D01*
X193487710Y-139831609D01*
X193695758Y-139991252D01*
X193922861Y-140122369D01*
X193922871Y-140122374D01*
X194165133Y-140222722D01*
X194165143Y-140222726D01*
X194418446Y-140290598D01*
X194678442Y-140324828D01*
X194678449Y-140324828D01*
X194940675Y-140324828D01*
X194940682Y-140324828D01*
X195200678Y-140290598D01*
X195453981Y-140222726D01*
X195696259Y-140122371D01*
X195923365Y-139991252D01*
X196131413Y-139831610D01*
X196131417Y-139831605D01*
X196131422Y-139831602D01*
X196316836Y-139646188D01*
X196316839Y-139646183D01*
X196316844Y-139646179D01*
X196476486Y-139438131D01*
X196607605Y-139211025D01*
X196707960Y-138968747D01*
X196775832Y-138715444D01*
X196810062Y-138455448D01*
X196810062Y-138193208D01*
X196775832Y-137933212D01*
X196707960Y-137679909D01*
X196707956Y-137679899D01*
X196607608Y-137437637D01*
X196607603Y-137437627D01*
X196476486Y-137210524D01*
X196316843Y-137002476D01*
X196316836Y-137002468D01*
X196131422Y-136817054D01*
X196131413Y-136817046D01*
X195923365Y-136657403D01*
X195696262Y-136526286D01*
X195696252Y-136526281D01*
X195453990Y-136425933D01*
X195453983Y-136425931D01*
X195453981Y-136425930D01*
X195200678Y-136358058D01*
X195142901Y-136350451D01*
X194940689Y-136323828D01*
X194940682Y-136323828D01*
X194678442Y-136323828D01*
X194678434Y-136323828D01*
X194447334Y-136354254D01*
X194418446Y-136358058D01*
X194165143Y-136425930D01*
X194165133Y-136425933D01*
X193922871Y-136526281D01*
X193922861Y-136526286D01*
X193695758Y-136657403D01*
X193487710Y-136817046D01*
X193302280Y-137002476D01*
X193142637Y-137210524D01*
X193011520Y-137437627D01*
X193011515Y-137437637D01*
X192911167Y-137679899D01*
X192911164Y-137679909D01*
X192843292Y-137933213D01*
X192809062Y-138193200D01*
X176164561Y-138193200D01*
X176372523Y-138024328D01*
X176351449Y-120918200D01*
X178009062Y-120918200D01*
X178009062Y-121180455D01*
X178035685Y-121382667D01*
X178043292Y-121440444D01*
X178111164Y-121693746D01*
X178111167Y-121693756D01*
X178211515Y-121936018D01*
X178211520Y-121936028D01*
X178342637Y-122163131D01*
X178502280Y-122371179D01*
X178502288Y-122371188D01*
X178687702Y-122556602D01*
X178687710Y-122556609D01*
X178895758Y-122716252D01*
X179122861Y-122847369D01*
X179122871Y-122847374D01*
X179365133Y-122947722D01*
X179365143Y-122947726D01*
X179618446Y-123015598D01*
X179878442Y-123049828D01*
X179878449Y-123049828D01*
X180140675Y-123049828D01*
X180140682Y-123049828D01*
X180400678Y-123015598D01*
X180653981Y-122947726D01*
X180896259Y-122847371D01*
X181123365Y-122716252D01*
X181331413Y-122556610D01*
X181331417Y-122556605D01*
X181331422Y-122556602D01*
X181516836Y-122371188D01*
X181516839Y-122371183D01*
X181516844Y-122371179D01*
X181676486Y-122163131D01*
X181807605Y-121936025D01*
X181907960Y-121693747D01*
X181975832Y-121440444D01*
X182010062Y-121180448D01*
X182010062Y-120918208D01*
X181975832Y-120658212D01*
X181907960Y-120404909D01*
X181907956Y-120404899D01*
X181807608Y-120162637D01*
X181807603Y-120162627D01*
X181676486Y-119935524D01*
X181516843Y-119727476D01*
X181516836Y-119727468D01*
X181331422Y-119542054D01*
X181331413Y-119542046D01*
X181123365Y-119382403D01*
X180896262Y-119251286D01*
X180896252Y-119251281D01*
X180653990Y-119150933D01*
X180653983Y-119150931D01*
X180653981Y-119150930D01*
X180400678Y-119083058D01*
X180342901Y-119075451D01*
X180140689Y-119048828D01*
X180140682Y-119048828D01*
X179878442Y-119048828D01*
X179878434Y-119048828D01*
X179647334Y-119079254D01*
X179618446Y-119083058D01*
X179365143Y-119150930D01*
X179365133Y-119150933D01*
X179122871Y-119251281D01*
X179122861Y-119251286D01*
X178895758Y-119382403D01*
X178687710Y-119542046D01*
X178502280Y-119727476D01*
X178342637Y-119935524D01*
X178211520Y-120162627D01*
X178211515Y-120162637D01*
X178111167Y-120404899D01*
X178111164Y-120404909D01*
X178048659Y-120638184D01*
X178043292Y-120658213D01*
X178009062Y-120918200D01*
X176351449Y-120918200D01*
X176339099Y-110893200D01*
X192809062Y-110893200D01*
X192809062Y-111155455D01*
X192835685Y-111357667D01*
X192843292Y-111415444D01*
X192877286Y-111542311D01*
X192911164Y-111668746D01*
X192911167Y-111668756D01*
X193011515Y-111911018D01*
X193011520Y-111911028D01*
X193142637Y-112138131D01*
X193302280Y-112346179D01*
X193302288Y-112346188D01*
X193487702Y-112531602D01*
X193487710Y-112531609D01*
X193695758Y-112691252D01*
X193922861Y-112822369D01*
X193922871Y-112822374D01*
X194165133Y-112922722D01*
X194165143Y-112922726D01*
X194418446Y-112990598D01*
X194678442Y-113024828D01*
X194678449Y-113024828D01*
X194940675Y-113024828D01*
X194940682Y-113024828D01*
X195200678Y-112990598D01*
X195453981Y-112922726D01*
X195696259Y-112822371D01*
X195923365Y-112691252D01*
X196131413Y-112531610D01*
X196131417Y-112531605D01*
X196131422Y-112531602D01*
X196316836Y-112346188D01*
X196316839Y-112346183D01*
X196316844Y-112346179D01*
X196476486Y-112138131D01*
X196607605Y-111911025D01*
X196707960Y-111668747D01*
X196775832Y-111415444D01*
X196810062Y-111155448D01*
X196810062Y-110893208D01*
X196775832Y-110633212D01*
X196707960Y-110379909D01*
X196707956Y-110379899D01*
X196607608Y-110137637D01*
X196607603Y-110137627D01*
X196476486Y-109910524D01*
X196316843Y-109702476D01*
X196316836Y-109702468D01*
X196131422Y-109517054D01*
X196131413Y-109517046D01*
X195923365Y-109357403D01*
X195696262Y-109226286D01*
X195696252Y-109226281D01*
X195453990Y-109125933D01*
X195453983Y-109125931D01*
X195453981Y-109125930D01*
X195200678Y-109058058D01*
X195142901Y-109050451D01*
X194940689Y-109023828D01*
X194940682Y-109023828D01*
X194678442Y-109023828D01*
X194678434Y-109023828D01*
X194447334Y-109054254D01*
X194418446Y-109058058D01*
X194165143Y-109125930D01*
X194165133Y-109125933D01*
X193922871Y-109226281D01*
X193922861Y-109226286D01*
X193695758Y-109357403D01*
X193487710Y-109517046D01*
X193302280Y-109702476D01*
X193142637Y-109910524D01*
X193011520Y-110137627D01*
X193011515Y-110137637D01*
X192911167Y-110379899D01*
X192911164Y-110379909D01*
X192843292Y-110633213D01*
X192809062Y-110893200D01*
X176339099Y-110893200D01*
X176317755Y-93568200D01*
X177959062Y-93568200D01*
X177959062Y-93830455D01*
X177985685Y-94032667D01*
X177993292Y-94090444D01*
X178022077Y-94197871D01*
X178061164Y-94343746D01*
X178061167Y-94343756D01*
X178161515Y-94586018D01*
X178161520Y-94586028D01*
X178292637Y-94813131D01*
X178452280Y-95021179D01*
X178452288Y-95021188D01*
X178637702Y-95206602D01*
X178637710Y-95206609D01*
X178845758Y-95366252D01*
X179072861Y-95497369D01*
X179072871Y-95497374D01*
X179270726Y-95579328D01*
X179315143Y-95597726D01*
X179568446Y-95665598D01*
X179828442Y-95699828D01*
X179828449Y-95699828D01*
X180090675Y-95699828D01*
X180090682Y-95699828D01*
X180350678Y-95665598D01*
X180603981Y-95597726D01*
X180846259Y-95497371D01*
X181073365Y-95366252D01*
X181281413Y-95206610D01*
X181281417Y-95206605D01*
X181281422Y-95206602D01*
X181466836Y-95021188D01*
X181466839Y-95021183D01*
X181466844Y-95021179D01*
X181626486Y-94813131D01*
X181757605Y-94586025D01*
X181857960Y-94343747D01*
X181925832Y-94090444D01*
X181960062Y-93830448D01*
X181960062Y-93568208D01*
X181925832Y-93308212D01*
X181857960Y-93054909D01*
X181857956Y-93054899D01*
X181757608Y-92812637D01*
X181757603Y-92812627D01*
X181626486Y-92585524D01*
X181466843Y-92377476D01*
X181466836Y-92377468D01*
X181281422Y-92192054D01*
X181281413Y-92192046D01*
X181073365Y-92032403D01*
X180846262Y-91901286D01*
X180846252Y-91901281D01*
X180603990Y-91800933D01*
X180603983Y-91800931D01*
X180603981Y-91800930D01*
X180350678Y-91733058D01*
X180292901Y-91725451D01*
X180090689Y-91698828D01*
X180090682Y-91698828D01*
X179828442Y-91698828D01*
X179828434Y-91698828D01*
X179597334Y-91729254D01*
X179568446Y-91733058D01*
X179315143Y-91800930D01*
X179315133Y-91800933D01*
X179072871Y-91901281D01*
X179072861Y-91901286D01*
X178845758Y-92032403D01*
X178637710Y-92192046D01*
X178452280Y-92377476D01*
X178292637Y-92585524D01*
X178161520Y-92812627D01*
X178161515Y-92812637D01*
X178061167Y-93054899D01*
X178061164Y-93054909D01*
X177999805Y-93283907D01*
X177993292Y-93308213D01*
X177959062Y-93568200D01*
X176317755Y-93568200D01*
X176305343Y-83493200D01*
X192784062Y-83493200D01*
X192784062Y-83755455D01*
X192795663Y-83843566D01*
X192818292Y-84015444D01*
X192836070Y-84081791D01*
X192886164Y-84268746D01*
X192886167Y-84268756D01*
X192986515Y-84511018D01*
X192986520Y-84511028D01*
X193117637Y-84738131D01*
X193277280Y-84946179D01*
X193277288Y-84946188D01*
X193462702Y-85131602D01*
X193462710Y-85131609D01*
X193670758Y-85291252D01*
X193897861Y-85422369D01*
X193897871Y-85422374D01*
X194140133Y-85522722D01*
X194140143Y-85522726D01*
X194393446Y-85590598D01*
X194653442Y-85624828D01*
X194653449Y-85624828D01*
X194915675Y-85624828D01*
X194915682Y-85624828D01*
X195175678Y-85590598D01*
X195428981Y-85522726D01*
X195671259Y-85422371D01*
X195898365Y-85291252D01*
X196106413Y-85131610D01*
X196106417Y-85131605D01*
X196106422Y-85131602D01*
X196291836Y-84946188D01*
X196291839Y-84946183D01*
X196291844Y-84946179D01*
X196451486Y-84738131D01*
X196582605Y-84511025D01*
X196682960Y-84268747D01*
X196750832Y-84015444D01*
X196785062Y-83755448D01*
X196785062Y-83493208D01*
X196750832Y-83233212D01*
X196682960Y-82979909D01*
X196609497Y-82802554D01*
X196582608Y-82737637D01*
X196582603Y-82737627D01*
X196451486Y-82510524D01*
X196328986Y-82350882D01*
X196291844Y-82302477D01*
X196291843Y-82302476D01*
X196291836Y-82302468D01*
X196106422Y-82117054D01*
X196106413Y-82117046D01*
X195898365Y-81957403D01*
X195671262Y-81826286D01*
X195671252Y-81826281D01*
X195428990Y-81725933D01*
X195428983Y-81725931D01*
X195428981Y-81725930D01*
X195175678Y-81658058D01*
X195117901Y-81650451D01*
X194915689Y-81623828D01*
X194915682Y-81623828D01*
X194653442Y-81623828D01*
X194653434Y-81623828D01*
X194422334Y-81654254D01*
X194393446Y-81658058D01*
X194308717Y-81680761D01*
X194140143Y-81725930D01*
X194140133Y-81725933D01*
X193897871Y-81826281D01*
X193897861Y-81826286D01*
X193670758Y-81957403D01*
X193462710Y-82117046D01*
X193277280Y-82302476D01*
X193117637Y-82510524D01*
X192986520Y-82737627D01*
X192986515Y-82737637D01*
X192886167Y-82979899D01*
X192886164Y-82979909D01*
X192846082Y-83129500D01*
X192818292Y-83233213D01*
X192784062Y-83493200D01*
X176305343Y-83493200D01*
X176284562Y-66624328D01*
X175816543Y-66293200D01*
X177984062Y-66293200D01*
X177984062Y-66555455D01*
X177993130Y-66624328D01*
X178018292Y-66815444D01*
X178086164Y-67068746D01*
X178086167Y-67068756D01*
X178186515Y-67311018D01*
X178186520Y-67311028D01*
X178317637Y-67538131D01*
X178477280Y-67746179D01*
X178477288Y-67746188D01*
X178662702Y-67931602D01*
X178662710Y-67931609D01*
X178870758Y-68091252D01*
X179097861Y-68222369D01*
X179097871Y-68222374D01*
X179340133Y-68322722D01*
X179340143Y-68322726D01*
X179593446Y-68390598D01*
X179853442Y-68424828D01*
X179853449Y-68424828D01*
X180115675Y-68424828D01*
X180115682Y-68424828D01*
X180375678Y-68390598D01*
X180628981Y-68322726D01*
X180871259Y-68222371D01*
X181098365Y-68091252D01*
X181306413Y-67931610D01*
X181306417Y-67931605D01*
X181306422Y-67931602D01*
X181491836Y-67746188D01*
X181491839Y-67746183D01*
X181491844Y-67746179D01*
X181651486Y-67538131D01*
X181782605Y-67311025D01*
X181882960Y-67068747D01*
X181950832Y-66815444D01*
X181985062Y-66555448D01*
X181985062Y-66293208D01*
X181950832Y-66033212D01*
X181882960Y-65779909D01*
X181882956Y-65779899D01*
X181782608Y-65537637D01*
X181782603Y-65537627D01*
X181651486Y-65310524D01*
X181491843Y-65102476D01*
X181491836Y-65102468D01*
X181306422Y-64917054D01*
X181306413Y-64917046D01*
X181098365Y-64757403D01*
X180871262Y-64626286D01*
X180871252Y-64626281D01*
X180628990Y-64525933D01*
X180628983Y-64525931D01*
X180628981Y-64525930D01*
X180375678Y-64458058D01*
X180317901Y-64450451D01*
X180115689Y-64423828D01*
X180115682Y-64423828D01*
X179853442Y-64423828D01*
X179853434Y-64423828D01*
X179622334Y-64454254D01*
X179593446Y-64458058D01*
X179340143Y-64525930D01*
X179340133Y-64525933D01*
X179097871Y-64626281D01*
X179097861Y-64626286D01*
X178870758Y-64757403D01*
X178662710Y-64917046D01*
X178477280Y-65102476D01*
X178317637Y-65310524D01*
X178186520Y-65537627D01*
X178186515Y-65537637D01*
X178086167Y-65779899D01*
X178086164Y-65779909D01*
X178018292Y-66033213D01*
X177984062Y-66293200D01*
X175816543Y-66293200D01*
X172441106Y-63905045D01*
X162031824Y-56540375D01*
X161894476Y-56443200D01*
X192909062Y-56443200D01*
X192909062Y-56705455D01*
X192935685Y-56907667D01*
X192943292Y-56965444D01*
X193005961Y-57199328D01*
X193011164Y-57218746D01*
X193011167Y-57218756D01*
X193111515Y-57461018D01*
X193111520Y-57461028D01*
X193242637Y-57688131D01*
X193402280Y-57896179D01*
X193402288Y-57896188D01*
X193587702Y-58081602D01*
X193587710Y-58081609D01*
X193795758Y-58241252D01*
X194022861Y-58372369D01*
X194022871Y-58372374D01*
X194265133Y-58472722D01*
X194265143Y-58472726D01*
X194518446Y-58540598D01*
X194778442Y-58574828D01*
X194778449Y-58574828D01*
X195040675Y-58574828D01*
X195040682Y-58574828D01*
X195300678Y-58540598D01*
X195553981Y-58472726D01*
X195796259Y-58372371D01*
X196023365Y-58241252D01*
X196231413Y-58081610D01*
X196231417Y-58081605D01*
X196231422Y-58081602D01*
X196416836Y-57896188D01*
X196416839Y-57896183D01*
X196416844Y-57896179D01*
X196576486Y-57688131D01*
X196707605Y-57461025D01*
X196807960Y-57218747D01*
X196875832Y-56965444D01*
X196910062Y-56705448D01*
X196910062Y-56443208D01*
X196875832Y-56183212D01*
X196807960Y-55929909D01*
X196807956Y-55929899D01*
X196707608Y-55687637D01*
X196707603Y-55687627D01*
X196576486Y-55460524D01*
X196416843Y-55252476D01*
X196416836Y-55252468D01*
X196231422Y-55067054D01*
X196231413Y-55067046D01*
X196023365Y-54907403D01*
X195796262Y-54776286D01*
X195796252Y-54776281D01*
X195553990Y-54675933D01*
X195553983Y-54675931D01*
X195553981Y-54675930D01*
X195300678Y-54608058D01*
X195242901Y-54600451D01*
X195040689Y-54573828D01*
X195040682Y-54573828D01*
X194778442Y-54573828D01*
X194778434Y-54573828D01*
X194547334Y-54604254D01*
X194518446Y-54608058D01*
X194267953Y-54675177D01*
X194265143Y-54675930D01*
X194265133Y-54675933D01*
X194022871Y-54776281D01*
X194022861Y-54776286D01*
X193795758Y-54907403D01*
X193587710Y-55067046D01*
X193402280Y-55252476D01*
X193242637Y-55460524D01*
X193111520Y-55687627D01*
X193111515Y-55687637D01*
X193011167Y-55929899D01*
X193011164Y-55929909D01*
X192943292Y-56183213D01*
X192909062Y-56443200D01*
X161894476Y-56443200D01*
X160057026Y-55143186D01*
X160057022Y-55143185D01*
X141538543Y-55455294D01*
X141538541Y-55455295D01*
X139459562Y-57199327D01*
X139459562Y-57199328D01*
X140335348Y-58574827D01*
X143709061Y-63873542D01*
X143709562Y-63874328D01*
X143709562Y-63874327D01*
X143709563Y-63874328D01*
X143713716Y-63874266D01*
X143925521Y-63871104D01*
X143992845Y-63889785D01*
X144012073Y-63905045D01*
X144014515Y-63906873D01*
X144014516Y-63906874D01*
X144033887Y-63921375D01*
X144129726Y-63993121D01*
X144129733Y-63993125D01*
X144264579Y-64043419D01*
X144264578Y-64043419D01*
X144271506Y-64044163D01*
X144324189Y-64049828D01*
X146294934Y-64049827D01*
X146354545Y-64043419D01*
X146489393Y-63993124D01*
X146604608Y-63906874D01*
X146625454Y-63879026D01*
X146628349Y-63876859D01*
X146629805Y-63873542D01*
X146656112Y-63856075D01*
X146681383Y-63837157D01*
X146685880Y-63836310D01*
X146688013Y-63834895D01*
X146722860Y-63829353D01*
X146933713Y-63826206D01*
X147001038Y-63844888D01*
X147047575Y-63897003D01*
X147059562Y-63950192D01*
X147059562Y-65192104D01*
X147043874Y-65252473D01*
X146884931Y-65537637D01*
X146349474Y-66498308D01*
X146299641Y-66547282D01*
X146231241Y-66561540D01*
X146168277Y-66538255D01*
X146063238Y-66461940D01*
X145861567Y-66359182D01*
X145646295Y-66289235D01*
X145422740Y-66253828D01*
X145422735Y-66253828D01*
X145196389Y-66253828D01*
X145196384Y-66253828D01*
X144972828Y-66289235D01*
X144757556Y-66359182D01*
X144555883Y-66461941D01*
X144515201Y-66491498D01*
X144449394Y-66514977D01*
X144383426Y-66500302D01*
X139517650Y-63874328D01*
X132124670Y-59884465D01*
X132075023Y-59835303D01*
X132059562Y-59775342D01*
X132059562Y-57573217D01*
X132079247Y-57506178D01*
X132132051Y-57460423D01*
X132201209Y-57450479D01*
X132264765Y-57479504D01*
X132271243Y-57485536D01*
X132354552Y-57568845D01*
X132545629Y-57707671D01*
X132645053Y-57758330D01*
X132756065Y-57814894D01*
X132756067Y-57814894D01*
X132756070Y-57814896D01*
X132876474Y-57854017D01*
X132980693Y-57887881D01*
X133213965Y-57924828D01*
X133213970Y-57924828D01*
X133450159Y-57924828D01*
X133683430Y-57887881D01*
X133908054Y-57814896D01*
X134118495Y-57707671D01*
X134309572Y-57568845D01*
X134476579Y-57401838D01*
X134615405Y-57210761D01*
X134722630Y-57000320D01*
X134795615Y-56775696D01*
X134806742Y-56705441D01*
X134832562Y-56542425D01*
X134832562Y-56306230D01*
X134795615Y-56072959D01*
X134749135Y-55929909D01*
X134722630Y-55848336D01*
X134722628Y-55848333D01*
X134722628Y-55848331D01*
X134640747Y-55687631D01*
X134615405Y-55637895D01*
X134476579Y-55446818D01*
X134309572Y-55279811D01*
X134118495Y-55140985D01*
X133908058Y-55033761D01*
X133683430Y-54960774D01*
X133450159Y-54923828D01*
X133450154Y-54923828D01*
X133213970Y-54923828D01*
X133213965Y-54923828D01*
X132980693Y-54960774D01*
X132756065Y-55033761D01*
X132545628Y-55140985D01*
X132481312Y-55187714D01*
X132354552Y-55279811D01*
X132354550Y-55279813D01*
X132354549Y-55279813D01*
X132271243Y-55363120D01*
X132209920Y-55396605D01*
X132140228Y-55391621D01*
X132084295Y-55349749D01*
X132059878Y-55284285D01*
X132059562Y-55275439D01*
X132059562Y-50105528D01*
X132079247Y-50038489D01*
X132132051Y-49992734D01*
X132201209Y-49982790D01*
X132264765Y-50011815D01*
X132301493Y-50067210D01*
X132341494Y-50190320D01*
X132448719Y-50400761D01*
X132587545Y-50591838D01*
X132754552Y-50758845D01*
X132945629Y-50897671D01*
X133045053Y-50948330D01*
X133156065Y-51004894D01*
X133156067Y-51004894D01*
X133156070Y-51004896D01*
X133276474Y-51044017D01*
X133380693Y-51077881D01*
X133613965Y-51114828D01*
X133613970Y-51114828D01*
X133850159Y-51114828D01*
X134083430Y-51077881D01*
X134308054Y-51004896D01*
X134518495Y-50897671D01*
X134709572Y-50758845D01*
X134876579Y-50591838D01*
X135015405Y-50400761D01*
X135122630Y-50190320D01*
X135195615Y-49965696D01*
X135222713Y-49794607D01*
X135232562Y-49732425D01*
X135232562Y-49496230D01*
X135195615Y-49262959D01*
X135122628Y-49038331D01*
X135015404Y-48827894D01*
X134876579Y-48636818D01*
X134854220Y-48614459D01*
X134820735Y-48553136D01*
X134825719Y-48483444D01*
X134867591Y-48427511D01*
X134933055Y-48403094D01*
X134941279Y-48402779D01*
X199087006Y-48092790D01*
X199087605Y-48092789D01*
X206268827Y-48092789D01*
X206335866Y-48112474D01*
G37*
%TD.AperFunction*%
%TD*%
%TA.AperFunction,Conductor*%
%TO.N,12V*%
G36*
X97378336Y-48504013D02*
G01*
X97424091Y-48556817D01*
X97434035Y-48625975D01*
X97405010Y-48689531D01*
X97358749Y-48722889D01*
X97178154Y-48797692D01*
X97178141Y-48797699D01*
X97014280Y-48907188D01*
X97014276Y-48907191D01*
X96874925Y-49046542D01*
X96874922Y-49046546D01*
X96765433Y-49210407D01*
X96765426Y-49210420D01*
X96690012Y-49392488D01*
X96690009Y-49392498D01*
X96651562Y-49585784D01*
X96651562Y-49585787D01*
X96651562Y-49782869D01*
X96651562Y-49782871D01*
X96651561Y-49782871D01*
X96690009Y-49976157D01*
X96690012Y-49976167D01*
X96765426Y-50158235D01*
X96765433Y-50158248D01*
X96874922Y-50322109D01*
X96874925Y-50322113D01*
X97014276Y-50461464D01*
X97014280Y-50461467D01*
X97178141Y-50570956D01*
X97178154Y-50570963D01*
X97360222Y-50646377D01*
X97360227Y-50646379D01*
X97360231Y-50646379D01*
X97360232Y-50646380D01*
X97553518Y-50684828D01*
X97553521Y-50684828D01*
X97750605Y-50684828D01*
X97880644Y-50658960D01*
X97943897Y-50646379D01*
X98125976Y-50570960D01*
X98289844Y-50461467D01*
X98429201Y-50322110D01*
X98538694Y-50158242D01*
X98614113Y-49976163D01*
X98652562Y-49782869D01*
X98652562Y-49585787D01*
X98652562Y-49585784D01*
X98614114Y-49392498D01*
X98614113Y-49392497D01*
X98614113Y-49392493D01*
X98614111Y-49392488D01*
X98538697Y-49210420D01*
X98538690Y-49210407D01*
X98429201Y-49046546D01*
X98429198Y-49046542D01*
X98289847Y-48907191D01*
X98289843Y-48907188D01*
X98125982Y-48797699D01*
X98125969Y-48797692D01*
X97945375Y-48722889D01*
X97890971Y-48679048D01*
X97868906Y-48612754D01*
X97886185Y-48545055D01*
X97937322Y-48497444D01*
X97992827Y-48484328D01*
X127474507Y-48484328D01*
X127541546Y-48504013D01*
X127587301Y-48556817D01*
X127598507Y-48608404D01*
X127581185Y-76928557D01*
X127561459Y-76995584D01*
X127508627Y-77041307D01*
X127439463Y-77051208D01*
X127375925Y-77022144D01*
X127354083Y-76997372D01*
X127277139Y-76882218D01*
X127277136Y-76882214D01*
X127137785Y-76742863D01*
X127137781Y-76742860D01*
X126973920Y-76633371D01*
X126973907Y-76633364D01*
X126791839Y-76557950D01*
X126791829Y-76557947D01*
X126598543Y-76519500D01*
X126598541Y-76519500D01*
X126401459Y-76519500D01*
X126401457Y-76519500D01*
X126208170Y-76557947D01*
X126208160Y-76557950D01*
X126026092Y-76633364D01*
X126026079Y-76633371D01*
X125862218Y-76742860D01*
X125862214Y-76742863D01*
X125722863Y-76882214D01*
X125722860Y-76882218D01*
X125613371Y-77046079D01*
X125613364Y-77046092D01*
X125537950Y-77228160D01*
X125537947Y-77228170D01*
X125499500Y-77421456D01*
X125499500Y-77421459D01*
X125499500Y-77618541D01*
X125499500Y-77618543D01*
X125499499Y-77618543D01*
X125537947Y-77811829D01*
X125537950Y-77811839D01*
X125613364Y-77993907D01*
X125613371Y-77993920D01*
X125722860Y-78157781D01*
X125722863Y-78157785D01*
X125862217Y-78297139D01*
X125989404Y-78382122D01*
X126034209Y-78435734D01*
X126042916Y-78505059D01*
X126035075Y-78532675D01*
X126007948Y-78598167D01*
X126007947Y-78598171D01*
X125969500Y-78791456D01*
X125969500Y-78791459D01*
X125969500Y-78988541D01*
X125969500Y-78988543D01*
X125969499Y-78988543D01*
X126007947Y-79181829D01*
X126007950Y-79181839D01*
X126083364Y-79363907D01*
X126083371Y-79363920D01*
X126192860Y-79527781D01*
X126192863Y-79527785D01*
X126332214Y-79667136D01*
X126332218Y-79667139D01*
X126496079Y-79776628D01*
X126496092Y-79776635D01*
X126589560Y-79815350D01*
X126678165Y-79852051D01*
X126678169Y-79852051D01*
X126678170Y-79852052D01*
X126871456Y-79890500D01*
X126871459Y-79890500D01*
X127068543Y-79890500D01*
X127198582Y-79864632D01*
X127261835Y-79852051D01*
X127407913Y-79791543D01*
X127477380Y-79784075D01*
X127539860Y-79815350D01*
X127575512Y-79875439D01*
X127579364Y-79906181D01*
X127570612Y-94215492D01*
X127550886Y-94282519D01*
X127498054Y-94328242D01*
X127428890Y-94338143D01*
X127373727Y-94315734D01*
X127257559Y-94231334D01*
X127257558Y-94231333D01*
X127257556Y-94231332D01*
X127205862Y-94204992D01*
X127096201Y-94149116D01*
X127096198Y-94149115D01*
X126923972Y-94093157D01*
X126745113Y-94064828D01*
X126745108Y-94064828D01*
X125564016Y-94064828D01*
X125564011Y-94064828D01*
X125385151Y-94093157D01*
X125212925Y-94149115D01*
X125212922Y-94149116D01*
X125051564Y-94231334D01*
X124905067Y-94337769D01*
X124905062Y-94337773D01*
X124777007Y-94465828D01*
X124777003Y-94465833D01*
X124670568Y-94612330D01*
X124588350Y-94773688D01*
X124588349Y-94773691D01*
X124532391Y-94945917D01*
X124504062Y-95124776D01*
X124504062Y-95305879D01*
X124532391Y-95484738D01*
X124588349Y-95656964D01*
X124588350Y-95656967D01*
X124670568Y-95818325D01*
X124777003Y-95964822D01*
X124777007Y-95964827D01*
X124892327Y-96080147D01*
X124925812Y-96141470D01*
X124920828Y-96211162D01*
X124892327Y-96255509D01*
X124777007Y-96370828D01*
X124777003Y-96370833D01*
X124670568Y-96517330D01*
X124588350Y-96678688D01*
X124588349Y-96678691D01*
X124532391Y-96850917D01*
X124504062Y-97029776D01*
X124504062Y-97210879D01*
X124532391Y-97389738D01*
X124588349Y-97561964D01*
X124588350Y-97561967D01*
X124670568Y-97723325D01*
X124777003Y-97869822D01*
X124777007Y-97869827D01*
X124892327Y-97985147D01*
X124925812Y-98046470D01*
X124920828Y-98116162D01*
X124892327Y-98160509D01*
X124777007Y-98275828D01*
X124777003Y-98275833D01*
X124670568Y-98422330D01*
X124588350Y-98583688D01*
X124588349Y-98583691D01*
X124532391Y-98755917D01*
X124509095Y-98902999D01*
X124479166Y-98966134D01*
X124419854Y-99003065D01*
X124349991Y-99002067D01*
X124291759Y-98963457D01*
X124265005Y-98907793D01*
X124234114Y-98752498D01*
X124234113Y-98752497D01*
X124234113Y-98752493D01*
X124224481Y-98729240D01*
X124158697Y-98570420D01*
X124158690Y-98570407D01*
X124049201Y-98406546D01*
X124049198Y-98406542D01*
X123909847Y-98267191D01*
X123909843Y-98267188D01*
X123745982Y-98157699D01*
X123745969Y-98157692D01*
X123563901Y-98082278D01*
X123563891Y-98082275D01*
X123370605Y-98043828D01*
X123370603Y-98043828D01*
X123173521Y-98043828D01*
X123173519Y-98043828D01*
X122980232Y-98082275D01*
X122980222Y-98082278D01*
X122798154Y-98157692D01*
X122798141Y-98157699D01*
X122634280Y-98267188D01*
X122634276Y-98267191D01*
X122494925Y-98406542D01*
X122494922Y-98406546D01*
X122385433Y-98570407D01*
X122385426Y-98570420D01*
X122310012Y-98752488D01*
X122310009Y-98752498D01*
X122271562Y-98945784D01*
X122271562Y-98945787D01*
X122271562Y-99142869D01*
X122271562Y-99142871D01*
X122271561Y-99142871D01*
X122310009Y-99336157D01*
X122310012Y-99336167D01*
X122385426Y-99518235D01*
X122385433Y-99518248D01*
X122494922Y-99682109D01*
X122494925Y-99682113D01*
X122634276Y-99821464D01*
X122634280Y-99821467D01*
X122798141Y-99930956D01*
X122798154Y-99930963D01*
X122911298Y-99977828D01*
X122980227Y-100006379D01*
X122980231Y-100006379D01*
X122980232Y-100006380D01*
X123173518Y-100044828D01*
X123173521Y-100044828D01*
X123370605Y-100044828D01*
X123500644Y-100018960D01*
X123563897Y-100006379D01*
X123745976Y-99930960D01*
X123909844Y-99821467D01*
X124049201Y-99682110D01*
X124158694Y-99518242D01*
X124234113Y-99336163D01*
X124268355Y-99164017D01*
X124300740Y-99102107D01*
X124361455Y-99067533D01*
X124431225Y-99071272D01*
X124487897Y-99112138D01*
X124512445Y-99168810D01*
X124532391Y-99294738D01*
X124588349Y-99466964D01*
X124588350Y-99466967D01*
X124614477Y-99518242D01*
X124663581Y-99614614D01*
X124670568Y-99628325D01*
X124777003Y-99774822D01*
X124777007Y-99774827D01*
X124892327Y-99890147D01*
X124925812Y-99951470D01*
X124920828Y-100021162D01*
X124892327Y-100065509D01*
X124777007Y-100180828D01*
X124777003Y-100180833D01*
X124670568Y-100327330D01*
X124588350Y-100488688D01*
X124588349Y-100488691D01*
X124532391Y-100660917D01*
X124504062Y-100839776D01*
X124504062Y-101020879D01*
X124532391Y-101199738D01*
X124588349Y-101371964D01*
X124588350Y-101371967D01*
X124670568Y-101533325D01*
X124777003Y-101679822D01*
X124777007Y-101679827D01*
X124905062Y-101807882D01*
X124905067Y-101807886D01*
X125032849Y-101900724D01*
X125051568Y-101914324D01*
X125157046Y-101968068D01*
X125212922Y-101996539D01*
X125212925Y-101996540D01*
X125299038Y-102024519D01*
X125385153Y-102052499D01*
X125467991Y-102065619D01*
X125564011Y-102080828D01*
X125564016Y-102080828D01*
X126745113Y-102080828D01*
X126831821Y-102067093D01*
X126923971Y-102052499D01*
X127096201Y-101996539D01*
X127257556Y-101914324D01*
X127328933Y-101862465D01*
X127369007Y-101833351D01*
X127434813Y-101809871D01*
X127502867Y-101825697D01*
X127551562Y-101875802D01*
X127565892Y-101933745D01*
X127538360Y-146949263D01*
X127518634Y-147016290D01*
X127465802Y-147062013D01*
X127414541Y-147073187D01*
X104284681Y-147107037D01*
X104217613Y-147087450D01*
X104171781Y-147034713D01*
X104160500Y-146983037D01*
X104160500Y-146801456D01*
X104122052Y-146608170D01*
X104122051Y-146608169D01*
X104122051Y-146608165D01*
X104113765Y-146588160D01*
X104046635Y-146426092D01*
X104046628Y-146426079D01*
X103937139Y-146262218D01*
X103937136Y-146262214D01*
X103797785Y-146122863D01*
X103797781Y-146122860D01*
X103633920Y-146013371D01*
X103633907Y-146013364D01*
X103540225Y-145974561D01*
X103485821Y-145930721D01*
X103463756Y-145864427D01*
X103481035Y-145796727D01*
X103532172Y-145749116D01*
X103540225Y-145745439D01*
X103633907Y-145706635D01*
X103633907Y-145706634D01*
X103633914Y-145706632D01*
X103797782Y-145597139D01*
X103937139Y-145457782D01*
X104046632Y-145293914D01*
X104122051Y-145111835D01*
X104160500Y-144918541D01*
X104160500Y-144721459D01*
X104160500Y-144721456D01*
X104122052Y-144528170D01*
X104122051Y-144528169D01*
X104122051Y-144528165D01*
X104094421Y-144461459D01*
X104046635Y-144346092D01*
X104046628Y-144346079D01*
X103937139Y-144182218D01*
X103937136Y-144182214D01*
X103797785Y-144042863D01*
X103797781Y-144042860D01*
X103633920Y-143933371D01*
X103633907Y-143933364D01*
X103451839Y-143857950D01*
X103451829Y-143857947D01*
X103258543Y-143819500D01*
X103258541Y-143819500D01*
X103061459Y-143819500D01*
X103061457Y-143819500D01*
X102868170Y-143857947D01*
X102868160Y-143857950D01*
X102686092Y-143933364D01*
X102686079Y-143933371D01*
X102522218Y-144042860D01*
X102522214Y-144042863D01*
X102378553Y-144186525D01*
X102377126Y-144185098D01*
X102327009Y-144219224D01*
X102257165Y-144221082D01*
X102197403Y-144184884D01*
X102185821Y-144170109D01*
X102147139Y-144112218D01*
X102147136Y-144112214D01*
X102007785Y-143972863D01*
X102007781Y-143972860D01*
X101843920Y-143863371D01*
X101843907Y-143863364D01*
X101661839Y-143787950D01*
X101661829Y-143787947D01*
X101468543Y-143749500D01*
X101468541Y-143749500D01*
X101271459Y-143749500D01*
X101271457Y-143749500D01*
X101078170Y-143787947D01*
X101078160Y-143787950D01*
X100896092Y-143863364D01*
X100896079Y-143863371D01*
X100732218Y-143972860D01*
X100732214Y-143972863D01*
X100592863Y-144112214D01*
X100592858Y-144112220D01*
X100552353Y-144172840D01*
X100498741Y-144217644D01*
X100429416Y-144226351D01*
X100366389Y-144196196D01*
X100341184Y-144160556D01*
X100339502Y-144161456D01*
X100336628Y-144156079D01*
X100227139Y-143992218D01*
X100227136Y-143992214D01*
X100087785Y-143852863D01*
X100087781Y-143852860D01*
X99923920Y-143743371D01*
X99923907Y-143743364D01*
X99741839Y-143667950D01*
X99741829Y-143667947D01*
X99548543Y-143629500D01*
X99548541Y-143629500D01*
X99351459Y-143629500D01*
X99351457Y-143629500D01*
X99158170Y-143667947D01*
X99158160Y-143667950D01*
X98976092Y-143743364D01*
X98976079Y-143743371D01*
X98812218Y-143852860D01*
X98812214Y-143852863D01*
X98672863Y-143992214D01*
X98672860Y-143992218D01*
X98563371Y-144156079D01*
X98563364Y-144156092D01*
X98487950Y-144338160D01*
X98487947Y-144338170D01*
X98449500Y-144531456D01*
X98449500Y-144531459D01*
X98449500Y-144728541D01*
X98449500Y-144728543D01*
X98449499Y-144728543D01*
X98487947Y-144921829D01*
X98487950Y-144921839D01*
X98563364Y-145103907D01*
X98563371Y-145103920D01*
X98672860Y-145267781D01*
X98672863Y-145267785D01*
X98812214Y-145407136D01*
X98812218Y-145407139D01*
X98976079Y-145516628D01*
X98976092Y-145516635D01*
X99130278Y-145580500D01*
X99158165Y-145592051D01*
X99281721Y-145616628D01*
X99290403Y-145618355D01*
X99352314Y-145650740D01*
X99386888Y-145711455D01*
X99383149Y-145781225D01*
X99342283Y-145837897D01*
X99290405Y-145861589D01*
X99208169Y-145877947D01*
X99208160Y-145877950D01*
X99026092Y-145953364D01*
X99026079Y-145953371D01*
X98862218Y-146062860D01*
X98862214Y-146062863D01*
X98722863Y-146202214D01*
X98722860Y-146202218D01*
X98613371Y-146366079D01*
X98613364Y-146366092D01*
X98537950Y-146548160D01*
X98537947Y-146548170D01*
X98499500Y-146741456D01*
X98499500Y-146741459D01*
X98499500Y-146938541D01*
X98499500Y-146938543D01*
X98499499Y-146938543D01*
X98505256Y-146967480D01*
X98503386Y-146988374D01*
X98506403Y-147009139D01*
X98500334Y-147022477D01*
X98499029Y-147037072D01*
X98486158Y-147053639D01*
X98477471Y-147072737D01*
X98465154Y-147080677D01*
X98456166Y-147092249D01*
X98436382Y-147099228D01*
X98418748Y-147110598D01*
X98393938Y-147114202D01*
X98390277Y-147115494D01*
X98383821Y-147115672D01*
X98146473Y-147116020D01*
X98079405Y-147096434D01*
X98033572Y-147043697D01*
X98023527Y-146974553D01*
X98024669Y-146967853D01*
X98030500Y-146938541D01*
X98030500Y-146741459D01*
X98030500Y-146741456D01*
X97992052Y-146548170D01*
X97992051Y-146548169D01*
X97992051Y-146548165D01*
X97971213Y-146497857D01*
X97916635Y-146366092D01*
X97916628Y-146366079D01*
X97807139Y-146202218D01*
X97807136Y-146202214D01*
X97667785Y-146062863D01*
X97667781Y-146062860D01*
X97503920Y-145953371D01*
X97503907Y-145953364D01*
X97321839Y-145877950D01*
X97321829Y-145877947D01*
X97128543Y-145839500D01*
X97128541Y-145839500D01*
X96931459Y-145839500D01*
X96931457Y-145839500D01*
X96738170Y-145877947D01*
X96738160Y-145877950D01*
X96556092Y-145953364D01*
X96556079Y-145953371D01*
X96392218Y-146062860D01*
X96392214Y-146062863D01*
X96252863Y-146202214D01*
X96252860Y-146202218D01*
X96143371Y-146366079D01*
X96143364Y-146366092D01*
X96067950Y-146548160D01*
X96067947Y-146548170D01*
X96029500Y-146741456D01*
X96029500Y-146741459D01*
X96029500Y-146938541D01*
X96029500Y-146938543D01*
X96029499Y-146938543D01*
X96035975Y-146971094D01*
X96029748Y-147040686D01*
X95986886Y-147095863D01*
X95920996Y-147119108D01*
X95914540Y-147119286D01*
X95583585Y-147119771D01*
X95516516Y-147100185D01*
X95470684Y-147047448D01*
X95460000Y-146983617D01*
X95460500Y-146978540D01*
X95460500Y-146781456D01*
X95422052Y-146588170D01*
X95422051Y-146588169D01*
X95422051Y-146588165D01*
X95405481Y-146548160D01*
X95346635Y-146406092D01*
X95346628Y-146406079D01*
X95237139Y-146242218D01*
X95237136Y-146242214D01*
X95097785Y-146102863D01*
X95097781Y-146102860D01*
X94933920Y-145993371D01*
X94933907Y-145993364D01*
X94751839Y-145917950D01*
X94751829Y-145917947D01*
X94558543Y-145879500D01*
X94558541Y-145879500D01*
X94361459Y-145879500D01*
X94361457Y-145879500D01*
X94168170Y-145917947D01*
X94168160Y-145917950D01*
X93986092Y-145993364D01*
X93986079Y-145993371D01*
X93822218Y-146102860D01*
X93822214Y-146102863D01*
X93752681Y-146172397D01*
X93691358Y-146205882D01*
X93621666Y-146200898D01*
X93577319Y-146172397D01*
X93497785Y-146092863D01*
X93497781Y-146092860D01*
X93333920Y-145983371D01*
X93333907Y-145983364D01*
X93229012Y-145939916D01*
X93174608Y-145896075D01*
X93152543Y-145829781D01*
X93169822Y-145762082D01*
X93220959Y-145714471D01*
X93229012Y-145710794D01*
X93383907Y-145646635D01*
X93383907Y-145646634D01*
X93383914Y-145646632D01*
X93547782Y-145537139D01*
X93687139Y-145397782D01*
X93745679Y-145310170D01*
X93799288Y-145265368D01*
X93868613Y-145256659D01*
X93931640Y-145286813D01*
X93936460Y-145291382D01*
X94002214Y-145357136D01*
X94002218Y-145357139D01*
X94166079Y-145466628D01*
X94166092Y-145466635D01*
X94312164Y-145527139D01*
X94348165Y-145542051D01*
X94348169Y-145542051D01*
X94348170Y-145542052D01*
X94541456Y-145580500D01*
X94541459Y-145580500D01*
X94738543Y-145580500D01*
X94868582Y-145554632D01*
X94931835Y-145542051D01*
X95113914Y-145466632D01*
X95277782Y-145357139D01*
X95417139Y-145217782D01*
X95526632Y-145053914D01*
X95602051Y-144871835D01*
X95630554Y-144728543D01*
X95640500Y-144678543D01*
X95640500Y-144658543D01*
X96009499Y-144658543D01*
X96047947Y-144851829D01*
X96047950Y-144851839D01*
X96123364Y-145033907D01*
X96123371Y-145033920D01*
X96232860Y-145197781D01*
X96232863Y-145197785D01*
X96372214Y-145337136D01*
X96372218Y-145337139D01*
X96536079Y-145446628D01*
X96536092Y-145446635D01*
X96718160Y-145522049D01*
X96718165Y-145522051D01*
X96718169Y-145522051D01*
X96718170Y-145522052D01*
X96911456Y-145560500D01*
X96911459Y-145560500D01*
X97108543Y-145560500D01*
X97276271Y-145527136D01*
X97301835Y-145522051D01*
X97483914Y-145446632D01*
X97647782Y-145337139D01*
X97787139Y-145197782D01*
X97896632Y-145033914D01*
X97972051Y-144851835D01*
X97997985Y-144721456D01*
X98010500Y-144658543D01*
X98010500Y-144461456D01*
X97972052Y-144268170D01*
X97972051Y-144268169D01*
X97972051Y-144268165D01*
X97933598Y-144175331D01*
X97896635Y-144086092D01*
X97896628Y-144086079D01*
X97787139Y-143922218D01*
X97787136Y-143922214D01*
X97647785Y-143782863D01*
X97647781Y-143782860D01*
X97483920Y-143673371D01*
X97483907Y-143673364D01*
X97301839Y-143597950D01*
X97301829Y-143597947D01*
X97108543Y-143559500D01*
X97108541Y-143559500D01*
X96911459Y-143559500D01*
X96911457Y-143559500D01*
X96718170Y-143597947D01*
X96718160Y-143597950D01*
X96536092Y-143673364D01*
X96536079Y-143673371D01*
X96372218Y-143782860D01*
X96372214Y-143782863D01*
X96232863Y-143922214D01*
X96232860Y-143922218D01*
X96123371Y-144086079D01*
X96123364Y-144086092D01*
X96047950Y-144268160D01*
X96047947Y-144268170D01*
X96009500Y-144461456D01*
X96009500Y-144461459D01*
X96009500Y-144658541D01*
X96009500Y-144658543D01*
X96009499Y-144658543D01*
X95640500Y-144658543D01*
X95640500Y-144481457D01*
X95640121Y-144479552D01*
X95640121Y-144479549D01*
X95602052Y-144288170D01*
X95602051Y-144288169D01*
X95602051Y-144288165D01*
X95573495Y-144219224D01*
X95526635Y-144106092D01*
X95526628Y-144106079D01*
X95417139Y-143942218D01*
X95417136Y-143942214D01*
X95277785Y-143802863D01*
X95277781Y-143802860D01*
X95113920Y-143693371D01*
X95113907Y-143693364D01*
X94931839Y-143617950D01*
X94931829Y-143617947D01*
X94738543Y-143579500D01*
X94738541Y-143579500D01*
X94541459Y-143579500D01*
X94541457Y-143579500D01*
X94348170Y-143617947D01*
X94348160Y-143617950D01*
X94166092Y-143693364D01*
X94166079Y-143693371D01*
X94002218Y-143802860D01*
X94002214Y-143802863D01*
X93862863Y-143942214D01*
X93862860Y-143942218D01*
X93804322Y-144029827D01*
X93750710Y-144074632D01*
X93681385Y-144083339D01*
X93618357Y-144053184D01*
X93613539Y-144048617D01*
X93547785Y-143982863D01*
X93547781Y-143982860D01*
X93383920Y-143873371D01*
X93383907Y-143873364D01*
X93201839Y-143797950D01*
X93201829Y-143797947D01*
X93008543Y-143759500D01*
X93008541Y-143759500D01*
X92811459Y-143759500D01*
X92811457Y-143759500D01*
X92618170Y-143797947D01*
X92618160Y-143797950D01*
X92436092Y-143873364D01*
X92436079Y-143873371D01*
X92272218Y-143982860D01*
X92272214Y-143982863D01*
X92132863Y-144122214D01*
X92128997Y-144126926D01*
X92128001Y-144126109D01*
X92079491Y-144166636D01*
X92010164Y-144175331D01*
X91947142Y-144145164D01*
X91926920Y-144121822D01*
X91907139Y-144092217D01*
X91767785Y-143952863D01*
X91767781Y-143952860D01*
X91603920Y-143843371D01*
X91603907Y-143843364D01*
X91421839Y-143767950D01*
X91421829Y-143767947D01*
X91228543Y-143729500D01*
X91228541Y-143729500D01*
X91031459Y-143729500D01*
X91031457Y-143729500D01*
X90838170Y-143767947D01*
X90838160Y-143767950D01*
X90656092Y-143843364D01*
X90656079Y-143843371D01*
X90492218Y-143952860D01*
X90492214Y-143952863D01*
X90352863Y-144092214D01*
X90352860Y-144092218D01*
X90243371Y-144256079D01*
X90243364Y-144256092D01*
X90167950Y-144438160D01*
X90167947Y-144438170D01*
X90129500Y-144631456D01*
X90129500Y-144631459D01*
X90129500Y-144828541D01*
X90129500Y-144828543D01*
X90129499Y-144828543D01*
X90167947Y-145021829D01*
X90167950Y-145021839D01*
X90243364Y-145203907D01*
X90243371Y-145203920D01*
X90352860Y-145367781D01*
X90352863Y-145367785D01*
X90492214Y-145507136D01*
X90492218Y-145507139D01*
X90656079Y-145616628D01*
X90656092Y-145616635D01*
X90838157Y-145692048D01*
X90838159Y-145692048D01*
X90838165Y-145692051D01*
X90838170Y-145692052D01*
X90838658Y-145692200D01*
X90838888Y-145692350D01*
X90843792Y-145694382D01*
X90843406Y-145695311D01*
X90897098Y-145730495D01*
X90925557Y-145794306D01*
X90914999Y-145863374D01*
X90868777Y-145915769D01*
X90850120Y-145925423D01*
X90686088Y-145993366D01*
X90686079Y-145993371D01*
X90522218Y-146102860D01*
X90522214Y-146102863D01*
X90382863Y-146242214D01*
X90382860Y-146242218D01*
X90273371Y-146406079D01*
X90273364Y-146406092D01*
X90197950Y-146588160D01*
X90197947Y-146588170D01*
X90159500Y-146781456D01*
X90159500Y-146978540D01*
X90159729Y-146979692D01*
X90159673Y-146980308D01*
X90160097Y-146984606D01*
X90159282Y-146984686D01*
X90153503Y-147049284D01*
X90110641Y-147104462D01*
X90044752Y-147127708D01*
X90038293Y-147127886D01*
X82929338Y-147138291D01*
X82862270Y-147118704D01*
X82816438Y-147065967D01*
X82805157Y-147014291D01*
X82805157Y-141948543D01*
X90229499Y-141948543D01*
X90267947Y-142141829D01*
X90267950Y-142141839D01*
X90343364Y-142323907D01*
X90343371Y-142323920D01*
X90452860Y-142487781D01*
X90452863Y-142487785D01*
X90592214Y-142627136D01*
X90592218Y-142627139D01*
X90756079Y-142736628D01*
X90756092Y-142736635D01*
X90938160Y-142812049D01*
X90938165Y-142812051D01*
X90938169Y-142812051D01*
X90938170Y-142812052D01*
X91131456Y-142850500D01*
X91131459Y-142850500D01*
X91328543Y-142850500D01*
X91471572Y-142822049D01*
X91521835Y-142812051D01*
X91662655Y-142753721D01*
X91703907Y-142736635D01*
X91703907Y-142736634D01*
X91703914Y-142736632D01*
X91867782Y-142627139D01*
X91947319Y-142547601D01*
X92008639Y-142514117D01*
X92078331Y-142519101D01*
X92122680Y-142547602D01*
X92212214Y-142637136D01*
X92212218Y-142637139D01*
X92376079Y-142746628D01*
X92376092Y-142746635D01*
X92534025Y-142812052D01*
X92558165Y-142822051D01*
X92558169Y-142822051D01*
X92558170Y-142822052D01*
X92751456Y-142860500D01*
X92751459Y-142860500D01*
X92948543Y-142860500D01*
X93078582Y-142834632D01*
X93141835Y-142822051D01*
X93323914Y-142746632D01*
X93487782Y-142637139D01*
X93627139Y-142497782D01*
X93655238Y-142455727D01*
X93708847Y-142410923D01*
X93778172Y-142402214D01*
X93841200Y-142432367D01*
X93861442Y-142455727D01*
X93882860Y-142487781D01*
X93882863Y-142487785D01*
X94022214Y-142627136D01*
X94022218Y-142627139D01*
X94186079Y-142736628D01*
X94186092Y-142736635D01*
X94368160Y-142812049D01*
X94368165Y-142812051D01*
X94368169Y-142812051D01*
X94368170Y-142812052D01*
X94561456Y-142850500D01*
X94561459Y-142850500D01*
X94758543Y-142850500D01*
X94901572Y-142822049D01*
X94951835Y-142812051D01*
X95092655Y-142753721D01*
X95133907Y-142736635D01*
X95133907Y-142736634D01*
X95133914Y-142736632D01*
X95297782Y-142627139D01*
X95437139Y-142487782D01*
X95546632Y-142323914D01*
X95622051Y-142141835D01*
X95660500Y-141948541D01*
X95660500Y-141858543D01*
X96009499Y-141858543D01*
X96047947Y-142051829D01*
X96047950Y-142051839D01*
X96123364Y-142233907D01*
X96123371Y-142233920D01*
X96232860Y-142397781D01*
X96232863Y-142397785D01*
X96372214Y-142537136D01*
X96372218Y-142537139D01*
X96536079Y-142646628D01*
X96536092Y-142646635D01*
X96718160Y-142722049D01*
X96718165Y-142722051D01*
X96718169Y-142722051D01*
X96718170Y-142722052D01*
X96911456Y-142760500D01*
X96911459Y-142760500D01*
X97108543Y-142760500D01*
X97238582Y-142734632D01*
X97301835Y-142722051D01*
X97483914Y-142646632D01*
X97647782Y-142537139D01*
X97787139Y-142397782D01*
X97896632Y-142233914D01*
X97972051Y-142051835D01*
X98003953Y-141891456D01*
X98006522Y-141878543D01*
X98519499Y-141878543D01*
X98557947Y-142071829D01*
X98557950Y-142071839D01*
X98633364Y-142253907D01*
X98633371Y-142253920D01*
X98742860Y-142417781D01*
X98742863Y-142417785D01*
X98882214Y-142557136D01*
X98882218Y-142557139D01*
X99046079Y-142666628D01*
X99046092Y-142666635D01*
X99228160Y-142742049D01*
X99228165Y-142742051D01*
X99228169Y-142742051D01*
X99228170Y-142742052D01*
X99421456Y-142780500D01*
X99421459Y-142780500D01*
X99618543Y-142780500D01*
X99748582Y-142754632D01*
X99811835Y-142742051D01*
X99993914Y-142666632D01*
X100157782Y-142557139D01*
X100297139Y-142417782D01*
X100297141Y-142417778D01*
X100301003Y-142413074D01*
X100302686Y-142414455D01*
X100348750Y-142375937D01*
X100418072Y-142367210D01*
X100481108Y-142397347D01*
X100501374Y-142420728D01*
X100552860Y-142497781D01*
X100552863Y-142497785D01*
X100692214Y-142637136D01*
X100692218Y-142637139D01*
X100856079Y-142746628D01*
X100856092Y-142746635D01*
X101014025Y-142812052D01*
X101038165Y-142822051D01*
X101038169Y-142822051D01*
X101038170Y-142822052D01*
X101231456Y-142860500D01*
X101231459Y-142860500D01*
X101428543Y-142860500D01*
X101558582Y-142834632D01*
X101621835Y-142822051D01*
X101803914Y-142746632D01*
X101967782Y-142637139D01*
X102107139Y-142497782D01*
X102107149Y-142497765D01*
X102108464Y-142495800D01*
X102109425Y-142494996D01*
X102111003Y-142493074D01*
X102111367Y-142493373D01*
X102162074Y-142450993D01*
X102231399Y-142442283D01*
X102294428Y-142472436D01*
X102314670Y-142495796D01*
X102402860Y-142627781D01*
X102402863Y-142627785D01*
X102542214Y-142767136D01*
X102542218Y-142767139D01*
X102706079Y-142876628D01*
X102706092Y-142876635D01*
X102888160Y-142952049D01*
X102888165Y-142952051D01*
X102888169Y-142952051D01*
X102888170Y-142952052D01*
X103081456Y-142990500D01*
X103081459Y-142990500D01*
X103278543Y-142990500D01*
X103408582Y-142964632D01*
X103471835Y-142952051D01*
X103653914Y-142876632D01*
X103817782Y-142767139D01*
X103957139Y-142627782D01*
X104066632Y-142463914D01*
X104142051Y-142281835D01*
X104169900Y-142141829D01*
X104180500Y-142088543D01*
X104180500Y-141891456D01*
X104142052Y-141698170D01*
X104142051Y-141698169D01*
X104142051Y-141698165D01*
X104091927Y-141577154D01*
X104066635Y-141516092D01*
X104066628Y-141516079D01*
X103957139Y-141352218D01*
X103957136Y-141352214D01*
X103817785Y-141212863D01*
X103817781Y-141212860D01*
X103777440Y-141185905D01*
X109631562Y-141185905D01*
X109631562Y-141382750D01*
X109662352Y-141577154D01*
X109723179Y-141764357D01*
X109781359Y-141878541D01*
X109812538Y-141939733D01*
X109928234Y-142098974D01*
X110067416Y-142238156D01*
X110226657Y-142353852D01*
X110252874Y-142367210D01*
X110402032Y-142443210D01*
X110402034Y-142443210D01*
X110402037Y-142443212D01*
X110491979Y-142472436D01*
X110589235Y-142504037D01*
X110783640Y-142534828D01*
X110783645Y-142534828D01*
X110980484Y-142534828D01*
X111174888Y-142504037D01*
X111362087Y-142443212D01*
X111537467Y-142353852D01*
X111696708Y-142238156D01*
X111835890Y-142098974D01*
X111951586Y-141939733D01*
X112040946Y-141764353D01*
X112101771Y-141577154D01*
X112115865Y-141488170D01*
X112132562Y-141382750D01*
X112132562Y-141185905D01*
X112101771Y-140991501D01*
X112040944Y-140804298D01*
X111951585Y-140628922D01*
X111835890Y-140469682D01*
X111696708Y-140330500D01*
X111537467Y-140214804D01*
X111362091Y-140125445D01*
X111174888Y-140064618D01*
X110980484Y-140033828D01*
X110980479Y-140033828D01*
X110783645Y-140033828D01*
X110783640Y-140033828D01*
X110589235Y-140064618D01*
X110402032Y-140125445D01*
X110226656Y-140214804D01*
X110141554Y-140276635D01*
X110067416Y-140330500D01*
X110067414Y-140330502D01*
X110067413Y-140330502D01*
X109928236Y-140469679D01*
X109928236Y-140469680D01*
X109928234Y-140469682D01*
X109878547Y-140538069D01*
X109812538Y-140628922D01*
X109723179Y-140804298D01*
X109662352Y-140991501D01*
X109631562Y-141185905D01*
X103777440Y-141185905D01*
X103653920Y-141103371D01*
X103653907Y-141103364D01*
X103471839Y-141027950D01*
X103471829Y-141027947D01*
X103278543Y-140989500D01*
X103278541Y-140989500D01*
X103081459Y-140989500D01*
X103081457Y-140989500D01*
X102888170Y-141027947D01*
X102888160Y-141027950D01*
X102706092Y-141103364D01*
X102706079Y-141103371D01*
X102542218Y-141212860D01*
X102542214Y-141212863D01*
X102402861Y-141352216D01*
X102401529Y-141354211D01*
X102400561Y-141355019D01*
X102398997Y-141356926D01*
X102398635Y-141356629D01*
X102347913Y-141399012D01*
X102278588Y-141407715D01*
X102215562Y-141377556D01*
X102195329Y-141354203D01*
X102107142Y-141222222D01*
X102107136Y-141222214D01*
X101967785Y-141082863D01*
X101967781Y-141082860D01*
X101803920Y-140973371D01*
X101803907Y-140973364D01*
X101621839Y-140897950D01*
X101621829Y-140897947D01*
X101428543Y-140859500D01*
X101428541Y-140859500D01*
X101231459Y-140859500D01*
X101231457Y-140859500D01*
X101038170Y-140897947D01*
X101038160Y-140897950D01*
X100856092Y-140973364D01*
X100856079Y-140973371D01*
X100692218Y-141082860D01*
X100692214Y-141082863D01*
X100552863Y-141222214D01*
X100548997Y-141226926D01*
X100547319Y-141225549D01*
X100501212Y-141264079D01*
X100431887Y-141272783D01*
X100368861Y-141242626D01*
X100348625Y-141219272D01*
X100297139Y-141142217D01*
X100157785Y-141002863D01*
X100157781Y-141002860D01*
X99993920Y-140893371D01*
X99993907Y-140893364D01*
X99811839Y-140817950D01*
X99811829Y-140817947D01*
X99618543Y-140779500D01*
X99618541Y-140779500D01*
X99421459Y-140779500D01*
X99421457Y-140779500D01*
X99228170Y-140817947D01*
X99228160Y-140817950D01*
X99046092Y-140893364D01*
X99046079Y-140893371D01*
X98882218Y-141002860D01*
X98882214Y-141002863D01*
X98742863Y-141142214D01*
X98742860Y-141142218D01*
X98633371Y-141306079D01*
X98633364Y-141306092D01*
X98557950Y-141488160D01*
X98557947Y-141488170D01*
X98519500Y-141681456D01*
X98519500Y-141681459D01*
X98519500Y-141878541D01*
X98519500Y-141878543D01*
X98519499Y-141878543D01*
X98006522Y-141878543D01*
X98010500Y-141858543D01*
X98010500Y-141661456D01*
X97972052Y-141468170D01*
X97972051Y-141468169D01*
X97972051Y-141468165D01*
X97943407Y-141399012D01*
X97896635Y-141286092D01*
X97896628Y-141286079D01*
X97787139Y-141122218D01*
X97787136Y-141122214D01*
X97647785Y-140982863D01*
X97647781Y-140982860D01*
X97483920Y-140873371D01*
X97483907Y-140873364D01*
X97301839Y-140797950D01*
X97301829Y-140797947D01*
X97108543Y-140759500D01*
X97108541Y-140759500D01*
X96911459Y-140759500D01*
X96911457Y-140759500D01*
X96718170Y-140797947D01*
X96718160Y-140797950D01*
X96536092Y-140873364D01*
X96536079Y-140873371D01*
X96372218Y-140982860D01*
X96372214Y-140982863D01*
X96232863Y-141122214D01*
X96232860Y-141122218D01*
X96123371Y-141286079D01*
X96123364Y-141286092D01*
X96047950Y-141468160D01*
X96047947Y-141468170D01*
X96009500Y-141661456D01*
X96009500Y-141661459D01*
X96009500Y-141858541D01*
X96009500Y-141858543D01*
X96009499Y-141858543D01*
X95660500Y-141858543D01*
X95660500Y-141751459D01*
X95660500Y-141751456D01*
X95646198Y-141679559D01*
X95646198Y-141679558D01*
X95622052Y-141558172D01*
X95622052Y-141558170D01*
X95622051Y-141558165D01*
X95604624Y-141516092D01*
X95546635Y-141376092D01*
X95546628Y-141376079D01*
X95437139Y-141212218D01*
X95437136Y-141212214D01*
X95297785Y-141072863D01*
X95297781Y-141072860D01*
X95133920Y-140963371D01*
X95133907Y-140963364D01*
X94951839Y-140887950D01*
X94951829Y-140887947D01*
X94758543Y-140849500D01*
X94758541Y-140849500D01*
X94561459Y-140849500D01*
X94561457Y-140849500D01*
X94368170Y-140887947D01*
X94368160Y-140887950D01*
X94186092Y-140963364D01*
X94186079Y-140963371D01*
X94022218Y-141072860D01*
X94022214Y-141072863D01*
X93882863Y-141212214D01*
X93882860Y-141212218D01*
X93854761Y-141254272D01*
X93801149Y-141299077D01*
X93731824Y-141307784D01*
X93668796Y-141277630D01*
X93648557Y-141254271D01*
X93627142Y-141222222D01*
X93627136Y-141222214D01*
X93487785Y-141082863D01*
X93487781Y-141082860D01*
X93323920Y-140973371D01*
X93323907Y-140973364D01*
X93141839Y-140897950D01*
X93141829Y-140897947D01*
X92948543Y-140859500D01*
X92948541Y-140859500D01*
X92751459Y-140859500D01*
X92751457Y-140859500D01*
X92558170Y-140897947D01*
X92558160Y-140897950D01*
X92376092Y-140973364D01*
X92376079Y-140973371D01*
X92212218Y-141082860D01*
X92132680Y-141162398D01*
X92071356Y-141195882D01*
X92001665Y-141190898D01*
X91957319Y-141162398D01*
X91867782Y-141072861D01*
X91867781Y-141072860D01*
X91867780Y-141072859D01*
X91703920Y-140963371D01*
X91703907Y-140963364D01*
X91521839Y-140887950D01*
X91521829Y-140887947D01*
X91328543Y-140849500D01*
X91328541Y-140849500D01*
X91131459Y-140849500D01*
X91131457Y-140849500D01*
X90938170Y-140887947D01*
X90938160Y-140887950D01*
X90756092Y-140963364D01*
X90756079Y-140963371D01*
X90592218Y-141072860D01*
X90592214Y-141072863D01*
X90452863Y-141212214D01*
X90452860Y-141212218D01*
X90343371Y-141376079D01*
X90343364Y-141376092D01*
X90267950Y-141558160D01*
X90267947Y-141558170D01*
X90229500Y-141751456D01*
X90229500Y-141751459D01*
X90229500Y-141948541D01*
X90229500Y-141948543D01*
X90229499Y-141948543D01*
X82805157Y-141948543D01*
X82805157Y-139368543D01*
X90229499Y-139368543D01*
X90267947Y-139561829D01*
X90267950Y-139561839D01*
X90343364Y-139743907D01*
X90343371Y-139743920D01*
X90452860Y-139907781D01*
X90452863Y-139907785D01*
X90592214Y-140047136D01*
X90592218Y-140047139D01*
X90756079Y-140156628D01*
X90756092Y-140156635D01*
X90902164Y-140217139D01*
X90938165Y-140232051D01*
X90938169Y-140232051D01*
X90938170Y-140232052D01*
X91131456Y-140270500D01*
X91131459Y-140270500D01*
X91328543Y-140270500D01*
X91458582Y-140244632D01*
X91521835Y-140232051D01*
X91703914Y-140156632D01*
X91867782Y-140047139D01*
X91922320Y-139992600D01*
X91983639Y-139959117D01*
X92053331Y-139964100D01*
X92097680Y-139992602D01*
X92172214Y-140067136D01*
X92172218Y-140067139D01*
X92336079Y-140176628D01*
X92336092Y-140176635D01*
X92518160Y-140252049D01*
X92518165Y-140252051D01*
X92518169Y-140252051D01*
X92518170Y-140252052D01*
X92711456Y-140290500D01*
X92711459Y-140290500D01*
X92908543Y-140290500D01*
X93076271Y-140257136D01*
X93101835Y-140252051D01*
X93283914Y-140176632D01*
X93447782Y-140067139D01*
X93587139Y-139927782D01*
X93591806Y-139920798D01*
X93645418Y-139875992D01*
X93714742Y-139867283D01*
X93777770Y-139897437D01*
X93798011Y-139920796D01*
X93882860Y-140047781D01*
X93882863Y-140047785D01*
X94022214Y-140187136D01*
X94022218Y-140187139D01*
X94186079Y-140296628D01*
X94186092Y-140296635D01*
X94368160Y-140372049D01*
X94368165Y-140372051D01*
X94368169Y-140372051D01*
X94368170Y-140372052D01*
X94561456Y-140410500D01*
X94561459Y-140410500D01*
X94758543Y-140410500D01*
X94901572Y-140382049D01*
X94951835Y-140372051D01*
X95092655Y-140313721D01*
X95133907Y-140296635D01*
X95133907Y-140296634D01*
X95133914Y-140296632D01*
X95297782Y-140187139D01*
X95437139Y-140047782D01*
X95546632Y-139883914D01*
X95622051Y-139701835D01*
X95660500Y-139508541D01*
X95660500Y-139488543D01*
X95939499Y-139488543D01*
X95977947Y-139681829D01*
X95977950Y-139681839D01*
X96053364Y-139863907D01*
X96053371Y-139863920D01*
X96162860Y-140027781D01*
X96162863Y-140027785D01*
X96302214Y-140167136D01*
X96302218Y-140167139D01*
X96466079Y-140276628D01*
X96466092Y-140276635D01*
X96648160Y-140352049D01*
X96648165Y-140352051D01*
X96648169Y-140352051D01*
X96648170Y-140352052D01*
X96841456Y-140390500D01*
X96841459Y-140390500D01*
X97038543Y-140390500D01*
X97168582Y-140364632D01*
X97231835Y-140352051D01*
X97413914Y-140276632D01*
X97577782Y-140167139D01*
X97717139Y-140027782D01*
X97826632Y-139863914D01*
X97830587Y-139854367D01*
X97864772Y-139771835D01*
X97902051Y-139681835D01*
X97922597Y-139578543D01*
X98339499Y-139578543D01*
X98377947Y-139771829D01*
X98377950Y-139771839D01*
X98453364Y-139953907D01*
X98453371Y-139953920D01*
X98562860Y-140117781D01*
X98562863Y-140117785D01*
X98702214Y-140257136D01*
X98702218Y-140257139D01*
X98866079Y-140366628D01*
X98866092Y-140366635D01*
X99048160Y-140442049D01*
X99048165Y-140442051D01*
X99048169Y-140442051D01*
X99048170Y-140442052D01*
X99241456Y-140480500D01*
X99241459Y-140480500D01*
X99438543Y-140480500D01*
X99568582Y-140454632D01*
X99631835Y-140442051D01*
X99813914Y-140366632D01*
X99977782Y-140257139D01*
X100117139Y-140117782D01*
X100226632Y-139953914D01*
X100267865Y-139854368D01*
X100311705Y-139799964D01*
X100377999Y-139777899D01*
X100445699Y-139795178D01*
X100493310Y-139846315D01*
X100496987Y-139854367D01*
X100513366Y-139893911D01*
X100513371Y-139893920D01*
X100622860Y-140057781D01*
X100622863Y-140057785D01*
X100762214Y-140197136D01*
X100762218Y-140197139D01*
X100926079Y-140306628D01*
X100926092Y-140306635D01*
X101084025Y-140372052D01*
X101108165Y-140382051D01*
X101108169Y-140382051D01*
X101108170Y-140382052D01*
X101301456Y-140420500D01*
X101301459Y-140420500D01*
X101498543Y-140420500D01*
X101649359Y-140390500D01*
X101691835Y-140382051D01*
X101873914Y-140306632D01*
X102037782Y-140197139D01*
X102177139Y-140057782D01*
X102195216Y-140030726D01*
X102248826Y-139985923D01*
X102318151Y-139977214D01*
X102381179Y-140007368D01*
X102401419Y-140030725D01*
X102403492Y-140033828D01*
X102432862Y-140077784D01*
X102572214Y-140217136D01*
X102572218Y-140217139D01*
X102736079Y-140326628D01*
X102736092Y-140326635D01*
X102890278Y-140390500D01*
X102918165Y-140402051D01*
X102918169Y-140402051D01*
X102918170Y-140402052D01*
X103111456Y-140440500D01*
X103111459Y-140440500D01*
X103308543Y-140440500D01*
X103459359Y-140410500D01*
X103501835Y-140402051D01*
X103683914Y-140326632D01*
X103847782Y-140217139D01*
X103987139Y-140077782D01*
X104096632Y-139913914D01*
X104104918Y-139893911D01*
X104117340Y-139863920D01*
X104172051Y-139731835D01*
X104202543Y-139578543D01*
X104210500Y-139538543D01*
X104210500Y-139341456D01*
X104172052Y-139148170D01*
X104172051Y-139148169D01*
X104172051Y-139148165D01*
X104159623Y-139118160D01*
X104096635Y-138966092D01*
X104096628Y-138966079D01*
X103987139Y-138802218D01*
X103987136Y-138802214D01*
X103847785Y-138662863D01*
X103847781Y-138662860D01*
X103683920Y-138553371D01*
X103683907Y-138553364D01*
X103501839Y-138477950D01*
X103501829Y-138477947D01*
X103308543Y-138439500D01*
X103308541Y-138439500D01*
X103111459Y-138439500D01*
X103111457Y-138439500D01*
X102918170Y-138477947D01*
X102918160Y-138477950D01*
X102736092Y-138553364D01*
X102736079Y-138553371D01*
X102572218Y-138662860D01*
X102572214Y-138662863D01*
X102432863Y-138802214D01*
X102432859Y-138802219D01*
X102414781Y-138829274D01*
X102361167Y-138874077D01*
X102291842Y-138882783D01*
X102228816Y-138852626D01*
X102208579Y-138829271D01*
X102177139Y-138782217D01*
X102037785Y-138642863D01*
X102037781Y-138642860D01*
X101873920Y-138533371D01*
X101873907Y-138533364D01*
X101691839Y-138457950D01*
X101691829Y-138457947D01*
X101498543Y-138419500D01*
X101498541Y-138419500D01*
X101301459Y-138419500D01*
X101301457Y-138419500D01*
X101108170Y-138457947D01*
X101108160Y-138457950D01*
X100926092Y-138533364D01*
X100926079Y-138533371D01*
X100762218Y-138642860D01*
X100762214Y-138642863D01*
X100622863Y-138782214D01*
X100622860Y-138782218D01*
X100513371Y-138946079D01*
X100513366Y-138946089D01*
X100472134Y-139045632D01*
X100428293Y-139100035D01*
X100361998Y-139122100D01*
X100294299Y-139104821D01*
X100246689Y-139053683D01*
X100243012Y-139045632D01*
X100226632Y-139006086D01*
X100226628Y-139006079D01*
X100117139Y-138842218D01*
X100117136Y-138842214D01*
X99977785Y-138702863D01*
X99977781Y-138702860D01*
X99813920Y-138593371D01*
X99813907Y-138593364D01*
X99631839Y-138517950D01*
X99631829Y-138517947D01*
X99438543Y-138479500D01*
X99438541Y-138479500D01*
X99241459Y-138479500D01*
X99241457Y-138479500D01*
X99048170Y-138517947D01*
X99048160Y-138517950D01*
X98866092Y-138593364D01*
X98866079Y-138593371D01*
X98702218Y-138702860D01*
X98702214Y-138702863D01*
X98562863Y-138842214D01*
X98562860Y-138842218D01*
X98453371Y-139006079D01*
X98453364Y-139006092D01*
X98377950Y-139188160D01*
X98377947Y-139188170D01*
X98339500Y-139381456D01*
X98339500Y-139381459D01*
X98339500Y-139578541D01*
X98339500Y-139578543D01*
X98339499Y-139578543D01*
X97922597Y-139578543D01*
X97930554Y-139538543D01*
X97940500Y-139488543D01*
X97940500Y-139291456D01*
X97902052Y-139098170D01*
X97902051Y-139098169D01*
X97902051Y-139098165D01*
X97880291Y-139045632D01*
X97826635Y-138916092D01*
X97826628Y-138916079D01*
X97717139Y-138752218D01*
X97717136Y-138752214D01*
X97577785Y-138612863D01*
X97577781Y-138612860D01*
X97413920Y-138503371D01*
X97413907Y-138503364D01*
X97231839Y-138427950D01*
X97231829Y-138427947D01*
X97038543Y-138389500D01*
X97038541Y-138389500D01*
X96841459Y-138389500D01*
X96841457Y-138389500D01*
X96648170Y-138427947D01*
X96648160Y-138427950D01*
X96466092Y-138503364D01*
X96466079Y-138503371D01*
X96302218Y-138612860D01*
X96302214Y-138612863D01*
X96162863Y-138752214D01*
X96162860Y-138752218D01*
X96053371Y-138916079D01*
X96053364Y-138916092D01*
X95977950Y-139098160D01*
X95977947Y-139098170D01*
X95939500Y-139291456D01*
X95939500Y-139291459D01*
X95939500Y-139488541D01*
X95939500Y-139488543D01*
X95939499Y-139488543D01*
X95660500Y-139488543D01*
X95660500Y-139311459D01*
X95660121Y-139309552D01*
X95660121Y-139309549D01*
X95622052Y-139118170D01*
X95622051Y-139118169D01*
X95622051Y-139118165D01*
X95592007Y-139045632D01*
X95546635Y-138936092D01*
X95546628Y-138936079D01*
X95437139Y-138772218D01*
X95437136Y-138772214D01*
X95297785Y-138632863D01*
X95297781Y-138632860D01*
X95133920Y-138523371D01*
X95133907Y-138523364D01*
X94951839Y-138447950D01*
X94951829Y-138447947D01*
X94758543Y-138409500D01*
X94758541Y-138409500D01*
X94561459Y-138409500D01*
X94561457Y-138409500D01*
X94368170Y-138447947D01*
X94368160Y-138447950D01*
X94186092Y-138523364D01*
X94186079Y-138523371D01*
X94022218Y-138632860D01*
X94022214Y-138632863D01*
X93882863Y-138772214D01*
X93882857Y-138772222D01*
X93878189Y-138779208D01*
X93824575Y-138824011D01*
X93755250Y-138832715D01*
X93692223Y-138802558D01*
X93671988Y-138779203D01*
X93587142Y-138652222D01*
X93587136Y-138652214D01*
X93447785Y-138512863D01*
X93447781Y-138512860D01*
X93283920Y-138403371D01*
X93283907Y-138403364D01*
X93101839Y-138327950D01*
X93101829Y-138327947D01*
X92908543Y-138289500D01*
X92908541Y-138289500D01*
X92711459Y-138289500D01*
X92711457Y-138289500D01*
X92518170Y-138327947D01*
X92518160Y-138327950D01*
X92336092Y-138403364D01*
X92336079Y-138403371D01*
X92172218Y-138512860D01*
X92172214Y-138512863D01*
X92117681Y-138567397D01*
X92056358Y-138600882D01*
X91986666Y-138595898D01*
X91942319Y-138567397D01*
X91867785Y-138492863D01*
X91867781Y-138492860D01*
X91703920Y-138383371D01*
X91703907Y-138383364D01*
X91521839Y-138307950D01*
X91521829Y-138307947D01*
X91328543Y-138269500D01*
X91328541Y-138269500D01*
X91131459Y-138269500D01*
X91131457Y-138269500D01*
X90938170Y-138307947D01*
X90938160Y-138307950D01*
X90756092Y-138383364D01*
X90756079Y-138383371D01*
X90592218Y-138492860D01*
X90592214Y-138492863D01*
X90452863Y-138632214D01*
X90452860Y-138632218D01*
X90343371Y-138796079D01*
X90343364Y-138796092D01*
X90267950Y-138978160D01*
X90267947Y-138978170D01*
X90229500Y-139171456D01*
X90229500Y-139171459D01*
X90229500Y-139368541D01*
X90229500Y-139368543D01*
X90229499Y-139368543D01*
X82805157Y-139368543D01*
X82805157Y-133561393D01*
X102709042Y-133561393D01*
X102747490Y-133754679D01*
X102747493Y-133754689D01*
X102822907Y-133936757D01*
X102822914Y-133936770D01*
X102932403Y-134100631D01*
X102932406Y-134100635D01*
X103071757Y-134239986D01*
X103071761Y-134239989D01*
X103235622Y-134349478D01*
X103235635Y-134349485D01*
X103417703Y-134424899D01*
X103417708Y-134424901D01*
X103417712Y-134424901D01*
X103417713Y-134424902D01*
X103610999Y-134463350D01*
X103611002Y-134463350D01*
X103808086Y-134463350D01*
X103938125Y-134437482D01*
X104001378Y-134424901D01*
X104183457Y-134349482D01*
X104347325Y-134239989D01*
X104486682Y-134100632D01*
X104596175Y-133936764D01*
X104671594Y-133754685D01*
X104710043Y-133561391D01*
X104710043Y-133364309D01*
X104710043Y-133364306D01*
X104671595Y-133171020D01*
X104671594Y-133171019D01*
X104671594Y-133171015D01*
X104671592Y-133171010D01*
X104596178Y-132988942D01*
X104596171Y-132988929D01*
X104486682Y-132825068D01*
X104486679Y-132825064D01*
X104347328Y-132685713D01*
X104347324Y-132685710D01*
X104183463Y-132576221D01*
X104183450Y-132576214D01*
X104001382Y-132500800D01*
X104001372Y-132500797D01*
X103808086Y-132462350D01*
X103808084Y-132462350D01*
X103611002Y-132462350D01*
X103611000Y-132462350D01*
X103417713Y-132500797D01*
X103417703Y-132500800D01*
X103235635Y-132576214D01*
X103235622Y-132576221D01*
X103071761Y-132685710D01*
X103071757Y-132685713D01*
X102932406Y-132825064D01*
X102932403Y-132825068D01*
X102822914Y-132988929D01*
X102822907Y-132988942D01*
X102747493Y-133171010D01*
X102747490Y-133171020D01*
X102709043Y-133364306D01*
X102709043Y-133364309D01*
X102709043Y-133561391D01*
X102709043Y-133561393D01*
X102709042Y-133561393D01*
X82805157Y-133561393D01*
X82805157Y-131531902D01*
X98979500Y-131531902D01*
X98979500Y-131768097D01*
X99016446Y-132001368D01*
X99089433Y-132225996D01*
X99196657Y-132436433D01*
X99335483Y-132627510D01*
X99502490Y-132794517D01*
X99693567Y-132933343D01*
X99792991Y-132984002D01*
X99904003Y-133040566D01*
X99904005Y-133040566D01*
X99904008Y-133040568D01*
X100024412Y-133079689D01*
X100128631Y-133113553D01*
X100361903Y-133150500D01*
X100361908Y-133150500D01*
X100598097Y-133150500D01*
X100831368Y-133113553D01*
X101055992Y-133040568D01*
X101266433Y-132933343D01*
X101457510Y-132794517D01*
X101624517Y-132627510D01*
X101763343Y-132436433D01*
X101870568Y-132225992D01*
X101943553Y-132001368D01*
X101946705Y-131981467D01*
X101980500Y-131768097D01*
X101980500Y-131531902D01*
X101944224Y-131302871D01*
X125271561Y-131302871D01*
X125310009Y-131496157D01*
X125310012Y-131496167D01*
X125385426Y-131678235D01*
X125385433Y-131678248D01*
X125494922Y-131842109D01*
X125494925Y-131842113D01*
X125634276Y-131981464D01*
X125634280Y-131981467D01*
X125798141Y-132090956D01*
X125798154Y-132090963D01*
X125980222Y-132166377D01*
X125980227Y-132166379D01*
X125980231Y-132166379D01*
X125980232Y-132166380D01*
X126173518Y-132204828D01*
X126173521Y-132204828D01*
X126370605Y-132204828D01*
X126500644Y-132178960D01*
X126563897Y-132166379D01*
X126745976Y-132090960D01*
X126909844Y-131981467D01*
X127049201Y-131842110D01*
X127158694Y-131678242D01*
X127234113Y-131496163D01*
X127272562Y-131302869D01*
X127272562Y-131105787D01*
X127272562Y-131105784D01*
X127234114Y-130912498D01*
X127234113Y-130912497D01*
X127234113Y-130912493D01*
X127234111Y-130912488D01*
X127158697Y-130730420D01*
X127158690Y-130730407D01*
X127049201Y-130566546D01*
X127049198Y-130566542D01*
X126909847Y-130427191D01*
X126909843Y-130427188D01*
X126745982Y-130317699D01*
X126745969Y-130317692D01*
X126563901Y-130242278D01*
X126563891Y-130242275D01*
X126370605Y-130203828D01*
X126370603Y-130203828D01*
X126173521Y-130203828D01*
X126173519Y-130203828D01*
X125980232Y-130242275D01*
X125980222Y-130242278D01*
X125798154Y-130317692D01*
X125798141Y-130317699D01*
X125634280Y-130427188D01*
X125634276Y-130427191D01*
X125494925Y-130566542D01*
X125494922Y-130566546D01*
X125385433Y-130730407D01*
X125385426Y-130730420D01*
X125310012Y-130912488D01*
X125310009Y-130912498D01*
X125271562Y-131105784D01*
X125271562Y-131105787D01*
X125271562Y-131302869D01*
X125271562Y-131302871D01*
X125271561Y-131302871D01*
X101944224Y-131302871D01*
X101943553Y-131298632D01*
X101943552Y-131298628D01*
X101943552Y-131298627D01*
X101891365Y-131138013D01*
X101880893Y-131105784D01*
X101870568Y-131074008D01*
X101763343Y-130863567D01*
X101624517Y-130672490D01*
X101457510Y-130505483D01*
X101266433Y-130366657D01*
X101055996Y-130259433D01*
X100831368Y-130186446D01*
X100598097Y-130149500D01*
X100598092Y-130149500D01*
X100361908Y-130149500D01*
X100361903Y-130149500D01*
X100128631Y-130186446D01*
X99904003Y-130259433D01*
X99693566Y-130366657D01*
X99610253Y-130427188D01*
X99502490Y-130505483D01*
X99502488Y-130505485D01*
X99502487Y-130505485D01*
X99335485Y-130672487D01*
X99335485Y-130672488D01*
X99335483Y-130672490D01*
X99293404Y-130730407D01*
X99196657Y-130863566D01*
X99089433Y-131074003D01*
X99016446Y-131298631D01*
X98979500Y-131531902D01*
X82805157Y-131531902D01*
X82805157Y-129318543D01*
X121779499Y-129318543D01*
X121817947Y-129511829D01*
X121817950Y-129511839D01*
X121893364Y-129693907D01*
X121893371Y-129693920D01*
X122002860Y-129857781D01*
X122002863Y-129857785D01*
X122142214Y-129997136D01*
X122142218Y-129997139D01*
X122306079Y-130106628D01*
X122306092Y-130106635D01*
X122409579Y-130149500D01*
X122488165Y-130182051D01*
X122488169Y-130182051D01*
X122488170Y-130182052D01*
X122681456Y-130220500D01*
X122681459Y-130220500D01*
X122878543Y-130220500D01*
X123008582Y-130194632D01*
X123071835Y-130182051D01*
X123253914Y-130106632D01*
X123417782Y-129997139D01*
X123557139Y-129857782D01*
X123666632Y-129693914D01*
X123742051Y-129511835D01*
X123780500Y-129318541D01*
X123780500Y-129121459D01*
X123780500Y-129121456D01*
X123742052Y-128928170D01*
X123742051Y-128928169D01*
X123742051Y-128928165D01*
X123704615Y-128837785D01*
X123666635Y-128746092D01*
X123666628Y-128746079D01*
X123557139Y-128582218D01*
X123557136Y-128582214D01*
X123417785Y-128442863D01*
X123417781Y-128442860D01*
X123253920Y-128333371D01*
X123253907Y-128333364D01*
X123071839Y-128257950D01*
X123071829Y-128257947D01*
X122878543Y-128219500D01*
X122878541Y-128219500D01*
X122681459Y-128219500D01*
X122681457Y-128219500D01*
X122488170Y-128257947D01*
X122488160Y-128257950D01*
X122306092Y-128333364D01*
X122306079Y-128333371D01*
X122142218Y-128442860D01*
X122142214Y-128442863D01*
X122002863Y-128582214D01*
X122002860Y-128582218D01*
X121893371Y-128746079D01*
X121893364Y-128746092D01*
X121817950Y-128928160D01*
X121817947Y-128928170D01*
X121779500Y-129121456D01*
X121779500Y-129121459D01*
X121779500Y-129318541D01*
X121779500Y-129318543D01*
X121779499Y-129318543D01*
X82805157Y-129318543D01*
X82805157Y-128298543D01*
X104919499Y-128298543D01*
X104957947Y-128491829D01*
X104957950Y-128491839D01*
X105033364Y-128673907D01*
X105033371Y-128673920D01*
X105142860Y-128837781D01*
X105142863Y-128837785D01*
X105282214Y-128977136D01*
X105282218Y-128977139D01*
X105446079Y-129086628D01*
X105446092Y-129086635D01*
X105530166Y-129121459D01*
X105628165Y-129162051D01*
X105628169Y-129162051D01*
X105628170Y-129162052D01*
X105821456Y-129200500D01*
X105821459Y-129200500D01*
X106018543Y-129200500D01*
X106148582Y-129174632D01*
X106211835Y-129162051D01*
X106393914Y-129086632D01*
X106393920Y-129086628D01*
X106505213Y-129012265D01*
X106528907Y-128996432D01*
X106557782Y-128977139D01*
X106697139Y-128837782D01*
X106806632Y-128673914D01*
X106882051Y-128491835D01*
X106913572Y-128333371D01*
X106920500Y-128298543D01*
X106920500Y-128101456D01*
X106882052Y-127908170D01*
X106882051Y-127908169D01*
X106882051Y-127908165D01*
X106856565Y-127846635D01*
X106806635Y-127726092D01*
X106806628Y-127726079D01*
X106697139Y-127562218D01*
X106697136Y-127562214D01*
X106557785Y-127422863D01*
X106557781Y-127422860D01*
X106393920Y-127313371D01*
X106393907Y-127313364D01*
X106211839Y-127237950D01*
X106211829Y-127237947D01*
X106018543Y-127199500D01*
X106018541Y-127199500D01*
X105821459Y-127199500D01*
X105821457Y-127199500D01*
X105628170Y-127237947D01*
X105628160Y-127237950D01*
X105446092Y-127313364D01*
X105446079Y-127313371D01*
X105282218Y-127422860D01*
X105282214Y-127422863D01*
X105142863Y-127562214D01*
X105142860Y-127562218D01*
X105033371Y-127726079D01*
X105033364Y-127726092D01*
X104957950Y-127908160D01*
X104957947Y-127908170D01*
X104919500Y-128101456D01*
X104919500Y-128101459D01*
X104919500Y-128298541D01*
X104919500Y-128298543D01*
X104919499Y-128298543D01*
X82805157Y-128298543D01*
X82805157Y-127058543D01*
X115419499Y-127058543D01*
X115457947Y-127251829D01*
X115457950Y-127251839D01*
X115533364Y-127433907D01*
X115533371Y-127433920D01*
X115642860Y-127597781D01*
X115642863Y-127597785D01*
X115782214Y-127737136D01*
X115782218Y-127737139D01*
X115946079Y-127846628D01*
X115946092Y-127846635D01*
X116094629Y-127908160D01*
X116128165Y-127922051D01*
X116128169Y-127922051D01*
X116128170Y-127922052D01*
X116321456Y-127960500D01*
X116321459Y-127960500D01*
X116518543Y-127960500D01*
X116648582Y-127934632D01*
X116711835Y-127922051D01*
X116876334Y-127853914D01*
X116893907Y-127846635D01*
X116893907Y-127846634D01*
X116893914Y-127846632D01*
X117057782Y-127737139D01*
X117197139Y-127597782D01*
X117276812Y-127478543D01*
X120119499Y-127478543D01*
X120157947Y-127671829D01*
X120157950Y-127671839D01*
X120233364Y-127853907D01*
X120233371Y-127853920D01*
X120342860Y-128017781D01*
X120342863Y-128017785D01*
X120482214Y-128157136D01*
X120482218Y-128157139D01*
X120646079Y-128266628D01*
X120646092Y-128266635D01*
X120807202Y-128333368D01*
X120828165Y-128342051D01*
X120828169Y-128342051D01*
X120828170Y-128342052D01*
X121021456Y-128380500D01*
X121021459Y-128380500D01*
X121218543Y-128380500D01*
X121348582Y-128354632D01*
X121411835Y-128342051D01*
X121593914Y-128266632D01*
X121757782Y-128157139D01*
X121897139Y-128017782D01*
X122006632Y-127853914D01*
X122082051Y-127671835D01*
X122096781Y-127597781D01*
X122120500Y-127478543D01*
X122120500Y-127281456D01*
X122082052Y-127088170D01*
X122082051Y-127088169D01*
X122082051Y-127088165D01*
X122069781Y-127058543D01*
X122006635Y-126906092D01*
X122006628Y-126906079D01*
X121897139Y-126742218D01*
X121897136Y-126742214D01*
X121757785Y-126602863D01*
X121757781Y-126602860D01*
X121593920Y-126493371D01*
X121593907Y-126493364D01*
X121411839Y-126417950D01*
X121411829Y-126417947D01*
X121218543Y-126379500D01*
X121218541Y-126379500D01*
X121021459Y-126379500D01*
X121021457Y-126379500D01*
X120828170Y-126417947D01*
X120828160Y-126417950D01*
X120646092Y-126493364D01*
X120646079Y-126493371D01*
X120482218Y-126602860D01*
X120482214Y-126602863D01*
X120342863Y-126742214D01*
X120342860Y-126742218D01*
X120233371Y-126906079D01*
X120233364Y-126906092D01*
X120157950Y-127088160D01*
X120157947Y-127088170D01*
X120119500Y-127281456D01*
X120119500Y-127281459D01*
X120119500Y-127478541D01*
X120119500Y-127478543D01*
X120119499Y-127478543D01*
X117276812Y-127478543D01*
X117306632Y-127433914D01*
X117311210Y-127422863D01*
X117369780Y-127281459D01*
X117382051Y-127251835D01*
X117420500Y-127058541D01*
X117420500Y-126861459D01*
X117420500Y-126861456D01*
X117382052Y-126668170D01*
X117382051Y-126668169D01*
X117382051Y-126668165D01*
X117355002Y-126602863D01*
X117306635Y-126486092D01*
X117306628Y-126486079D01*
X117197139Y-126322218D01*
X117197136Y-126322214D01*
X117057785Y-126182863D01*
X117057781Y-126182860D01*
X116893920Y-126073371D01*
X116893907Y-126073364D01*
X116711839Y-125997950D01*
X116711829Y-125997947D01*
X116518543Y-125959500D01*
X116518541Y-125959500D01*
X116321459Y-125959500D01*
X116321457Y-125959500D01*
X116128170Y-125997947D01*
X116128160Y-125997950D01*
X115946092Y-126073364D01*
X115946079Y-126073371D01*
X115782218Y-126182860D01*
X115782214Y-126182863D01*
X115642863Y-126322214D01*
X115642860Y-126322218D01*
X115533371Y-126486079D01*
X115533364Y-126486092D01*
X115457950Y-126668160D01*
X115457947Y-126668170D01*
X115419500Y-126861456D01*
X115419500Y-126861459D01*
X115419500Y-127058541D01*
X115419500Y-127058543D01*
X115419499Y-127058543D01*
X82805157Y-127058543D01*
X82805157Y-120081463D01*
X86549062Y-120081463D01*
X86549062Y-122127198D01*
X86549063Y-122127204D01*
X86555470Y-122186811D01*
X86605764Y-122321656D01*
X86605768Y-122321663D01*
X86692014Y-122436872D01*
X86692017Y-122436875D01*
X86807226Y-122523121D01*
X86807233Y-122523125D01*
X86942079Y-122573419D01*
X86942078Y-122573419D01*
X86949006Y-122574163D01*
X87001689Y-122579828D01*
X89047434Y-122579827D01*
X89107045Y-122573419D01*
X89241893Y-122523124D01*
X89357108Y-122436874D01*
X89443358Y-122321659D01*
X89454095Y-122292871D01*
X119231561Y-122292871D01*
X119270009Y-122486157D01*
X119270012Y-122486167D01*
X119345426Y-122668235D01*
X119345433Y-122668248D01*
X119454922Y-122832109D01*
X119454925Y-122832113D01*
X119594276Y-122971464D01*
X119594280Y-122971467D01*
X119758141Y-123080956D01*
X119758154Y-123080963D01*
X119940222Y-123156377D01*
X119940227Y-123156379D01*
X119940231Y-123156379D01*
X119940232Y-123156380D01*
X120133518Y-123194828D01*
X120133521Y-123194828D01*
X120330605Y-123194828D01*
X120460644Y-123168960D01*
X120523897Y-123156379D01*
X120705976Y-123080960D01*
X120869844Y-122971467D01*
X121009201Y-122832110D01*
X121118694Y-122668242D01*
X121194113Y-122486163D01*
X121206694Y-122422910D01*
X121232562Y-122292871D01*
X121232562Y-122095784D01*
X121194114Y-121902498D01*
X121194113Y-121902497D01*
X121194113Y-121902493D01*
X121144445Y-121782582D01*
X121118697Y-121720420D01*
X121118690Y-121720407D01*
X121009201Y-121556546D01*
X121009198Y-121556542D01*
X120869847Y-121417191D01*
X120869843Y-121417188D01*
X120854922Y-121407218D01*
X121959792Y-121407218D01*
X121998240Y-121600504D01*
X121998243Y-121600514D01*
X122073657Y-121782582D01*
X122073664Y-121782595D01*
X122183153Y-121946456D01*
X122183156Y-121946460D01*
X122322507Y-122085811D01*
X122322511Y-122085814D01*
X122486372Y-122195303D01*
X122486385Y-122195310D01*
X122668453Y-122270724D01*
X122668458Y-122270726D01*
X122668462Y-122270726D01*
X122668463Y-122270727D01*
X122861749Y-122309175D01*
X122861752Y-122309175D01*
X123058836Y-122309175D01*
X123188875Y-122283307D01*
X123252128Y-122270726D01*
X123434207Y-122195307D01*
X123598075Y-122085814D01*
X123737432Y-121946457D01*
X123846925Y-121782589D01*
X123922344Y-121600510D01*
X123958809Y-121417191D01*
X123960793Y-121407218D01*
X123960793Y-121210131D01*
X123922345Y-121016845D01*
X123922344Y-121016844D01*
X123922344Y-121016840D01*
X123922342Y-121016835D01*
X123846928Y-120834767D01*
X123846921Y-120834754D01*
X123737432Y-120670893D01*
X123737429Y-120670889D01*
X123598078Y-120531538D01*
X123598074Y-120531535D01*
X123434213Y-120422046D01*
X123434200Y-120422039D01*
X123252132Y-120346625D01*
X123252122Y-120346622D01*
X123058836Y-120308175D01*
X123058834Y-120308175D01*
X122861752Y-120308175D01*
X122861750Y-120308175D01*
X122668463Y-120346622D01*
X122668453Y-120346625D01*
X122486385Y-120422039D01*
X122486372Y-120422046D01*
X122322511Y-120531535D01*
X122322507Y-120531538D01*
X122183156Y-120670889D01*
X122183153Y-120670893D01*
X122073664Y-120834754D01*
X122073657Y-120834767D01*
X121998243Y-121016835D01*
X121998240Y-121016845D01*
X121959793Y-121210131D01*
X121959793Y-121210134D01*
X121959793Y-121407216D01*
X121959793Y-121407218D01*
X121959792Y-121407218D01*
X120854922Y-121407218D01*
X120705982Y-121307699D01*
X120705969Y-121307692D01*
X120523901Y-121232278D01*
X120523891Y-121232275D01*
X120330605Y-121193828D01*
X120330603Y-121193828D01*
X120133521Y-121193828D01*
X120133519Y-121193828D01*
X119940232Y-121232275D01*
X119940222Y-121232278D01*
X119758154Y-121307692D01*
X119758141Y-121307699D01*
X119594280Y-121417188D01*
X119594276Y-121417191D01*
X119454925Y-121556542D01*
X119454922Y-121556546D01*
X119345433Y-121720407D01*
X119345426Y-121720420D01*
X119270012Y-121902488D01*
X119270009Y-121902498D01*
X119231562Y-122095784D01*
X119231562Y-122095787D01*
X119231562Y-122292869D01*
X119231562Y-122292871D01*
X119231561Y-122292871D01*
X89454095Y-122292871D01*
X89493653Y-122186811D01*
X89500062Y-122127201D01*
X89500061Y-120081456D01*
X89493653Y-120021845D01*
X89443358Y-119886997D01*
X89443357Y-119886996D01*
X89443355Y-119886992D01*
X89357109Y-119771783D01*
X89357106Y-119771780D01*
X89241897Y-119685534D01*
X89241890Y-119685530D01*
X89107044Y-119635236D01*
X89107045Y-119635236D01*
X89047445Y-119628829D01*
X89047443Y-119628828D01*
X89047435Y-119628828D01*
X89047426Y-119628828D01*
X87001691Y-119628828D01*
X87001685Y-119628829D01*
X86942078Y-119635236D01*
X86807233Y-119685530D01*
X86807226Y-119685534D01*
X86692017Y-119771780D01*
X86692014Y-119771783D01*
X86605768Y-119886992D01*
X86605764Y-119886999D01*
X86555470Y-120021845D01*
X86549063Y-120081444D01*
X86549063Y-120081451D01*
X86549062Y-120081463D01*
X82805157Y-120081463D01*
X82805157Y-118542871D01*
X119531561Y-118542871D01*
X119570009Y-118736157D01*
X119570012Y-118736167D01*
X119645426Y-118918235D01*
X119645433Y-118918248D01*
X119754922Y-119082109D01*
X119754925Y-119082113D01*
X119894276Y-119221464D01*
X119894280Y-119221467D01*
X120058141Y-119330956D01*
X120058154Y-119330963D01*
X120240222Y-119406377D01*
X120240227Y-119406379D01*
X120240231Y-119406379D01*
X120240232Y-119406380D01*
X120433518Y-119444828D01*
X120433521Y-119444828D01*
X120630605Y-119444828D01*
X120760644Y-119418960D01*
X120823897Y-119406379D01*
X121005976Y-119330960D01*
X121169844Y-119221467D01*
X121309201Y-119082110D01*
X121418694Y-118918242D01*
X121494113Y-118736163D01*
X121532562Y-118542869D01*
X121532562Y-118345787D01*
X121532562Y-118345784D01*
X121494114Y-118152498D01*
X121494113Y-118152497D01*
X121494113Y-118152493D01*
X121432949Y-118004828D01*
X121418697Y-117970420D01*
X121418690Y-117970407D01*
X121309201Y-117806546D01*
X121309198Y-117806542D01*
X121169847Y-117667191D01*
X121169843Y-117667188D01*
X121005982Y-117557699D01*
X121005969Y-117557692D01*
X120823901Y-117482278D01*
X120823891Y-117482275D01*
X120630605Y-117443828D01*
X120630603Y-117443828D01*
X120433521Y-117443828D01*
X120433519Y-117443828D01*
X120240232Y-117482275D01*
X120240222Y-117482278D01*
X120058154Y-117557692D01*
X120058141Y-117557699D01*
X119894280Y-117667188D01*
X119894276Y-117667191D01*
X119754925Y-117806542D01*
X119754922Y-117806546D01*
X119645433Y-117970407D01*
X119645426Y-117970420D01*
X119570012Y-118152488D01*
X119570009Y-118152498D01*
X119531562Y-118345784D01*
X119531562Y-118345787D01*
X119531562Y-118542869D01*
X119531562Y-118542871D01*
X119531561Y-118542871D01*
X82805157Y-118542871D01*
X82805157Y-117102871D01*
X98891561Y-117102871D01*
X98930009Y-117296157D01*
X98930012Y-117296167D01*
X99005426Y-117478235D01*
X99005433Y-117478248D01*
X99114922Y-117642109D01*
X99114925Y-117642113D01*
X99254276Y-117781464D01*
X99254280Y-117781467D01*
X99418141Y-117890956D01*
X99418154Y-117890963D01*
X99600222Y-117966377D01*
X99600227Y-117966379D01*
X99600231Y-117966379D01*
X99600232Y-117966380D01*
X99793518Y-118004828D01*
X99793521Y-118004828D01*
X99990605Y-118004828D01*
X100120644Y-117978960D01*
X100183897Y-117966379D01*
X100365976Y-117890960D01*
X100529844Y-117781467D01*
X100669201Y-117642110D01*
X100778694Y-117478242D01*
X100854113Y-117296163D01*
X100892562Y-117102869D01*
X100892562Y-116905787D01*
X100892562Y-116905784D01*
X100854114Y-116712498D01*
X100854113Y-116712497D01*
X100854113Y-116712493D01*
X100854111Y-116712488D01*
X100778697Y-116530420D01*
X100778690Y-116530407D01*
X100669201Y-116366546D01*
X100669198Y-116366542D01*
X100529847Y-116227191D01*
X100529843Y-116227188D01*
X100365982Y-116117699D01*
X100365969Y-116117692D01*
X100183901Y-116042278D01*
X100183891Y-116042275D01*
X99990605Y-116003828D01*
X99990603Y-116003828D01*
X99793521Y-116003828D01*
X99793519Y-116003828D01*
X99600232Y-116042275D01*
X99600222Y-116042278D01*
X99418154Y-116117692D01*
X99418141Y-116117699D01*
X99254280Y-116227188D01*
X99254276Y-116227191D01*
X99114925Y-116366542D01*
X99114922Y-116366546D01*
X99005433Y-116530407D01*
X99005426Y-116530420D01*
X98930012Y-116712488D01*
X98930009Y-116712498D01*
X98891562Y-116905784D01*
X98891562Y-116905787D01*
X98891562Y-117102869D01*
X98891562Y-117102871D01*
X98891561Y-117102871D01*
X82805157Y-117102871D01*
X82805157Y-114707871D01*
X92149061Y-114707871D01*
X92187509Y-114901157D01*
X92187512Y-114901167D01*
X92262926Y-115083235D01*
X92262933Y-115083248D01*
X92372422Y-115247109D01*
X92372425Y-115247113D01*
X92511776Y-115386464D01*
X92511780Y-115386467D01*
X92675641Y-115495956D01*
X92675654Y-115495963D01*
X92857722Y-115571377D01*
X92857727Y-115571379D01*
X92857731Y-115571379D01*
X92857732Y-115571380D01*
X93051018Y-115609828D01*
X93051021Y-115609828D01*
X93248105Y-115609828D01*
X93378144Y-115583960D01*
X93441397Y-115571379D01*
X93623476Y-115495960D01*
X93787344Y-115386467D01*
X93926701Y-115247110D01*
X94036194Y-115083242D01*
X94111613Y-114901163D01*
X94150062Y-114707869D01*
X94150062Y-114510787D01*
X94150062Y-114510784D01*
X94111614Y-114317498D01*
X94111613Y-114317497D01*
X94111613Y-114317493D01*
X94062522Y-114198975D01*
X94036197Y-114135420D01*
X94036190Y-114135407D01*
X93926701Y-113971546D01*
X93926698Y-113971542D01*
X93787347Y-113832191D01*
X93787343Y-113832188D01*
X93623482Y-113722699D01*
X93623469Y-113722692D01*
X93441401Y-113647278D01*
X93441391Y-113647275D01*
X93248105Y-113608828D01*
X93248103Y-113608828D01*
X93051021Y-113608828D01*
X93051019Y-113608828D01*
X92857732Y-113647275D01*
X92857722Y-113647278D01*
X92675654Y-113722692D01*
X92675641Y-113722699D01*
X92511780Y-113832188D01*
X92511776Y-113832191D01*
X92372425Y-113971542D01*
X92372422Y-113971546D01*
X92262933Y-114135407D01*
X92262926Y-114135420D01*
X92187512Y-114317488D01*
X92187509Y-114317498D01*
X92149062Y-114510784D01*
X92149062Y-114510787D01*
X92149062Y-114707869D01*
X92149062Y-114707871D01*
X92149061Y-114707871D01*
X82805157Y-114707871D01*
X82805157Y-112235905D01*
X89199062Y-112235905D01*
X89199062Y-112432750D01*
X89229852Y-112627154D01*
X89290679Y-112814357D01*
X89380038Y-112989733D01*
X89495734Y-113148974D01*
X89634916Y-113288156D01*
X89794157Y-113403852D01*
X89877017Y-113446071D01*
X89969532Y-113493210D01*
X89969534Y-113493210D01*
X89969537Y-113493212D01*
X90069879Y-113525815D01*
X90156735Y-113554037D01*
X90351140Y-113584828D01*
X90351145Y-113584828D01*
X90547984Y-113584828D01*
X90742388Y-113554037D01*
X90929587Y-113493212D01*
X91104967Y-113403852D01*
X91264208Y-113288156D01*
X91266459Y-113285905D01*
X109571562Y-113285905D01*
X109571562Y-113482750D01*
X109602352Y-113677154D01*
X109663179Y-113864357D01*
X109717793Y-113971542D01*
X109752538Y-114039733D01*
X109868234Y-114198974D01*
X110007416Y-114338156D01*
X110166657Y-114453852D01*
X110249517Y-114496071D01*
X110342032Y-114543210D01*
X110342034Y-114543210D01*
X110342037Y-114543212D01*
X110442379Y-114575815D01*
X110529235Y-114604037D01*
X110723640Y-114634828D01*
X110723645Y-114634828D01*
X110920484Y-114634828D01*
X111114888Y-114604037D01*
X111302087Y-114543212D01*
X111477467Y-114453852D01*
X111636708Y-114338156D01*
X111775890Y-114198974D01*
X111891586Y-114039733D01*
X111980946Y-113864353D01*
X112041771Y-113677154D01*
X112061271Y-113554037D01*
X112072562Y-113482750D01*
X112072562Y-113285905D01*
X112041771Y-113091501D01*
X111980944Y-112904298D01*
X111891585Y-112728922D01*
X111775890Y-112569682D01*
X111636708Y-112430500D01*
X111477467Y-112314804D01*
X111302091Y-112225445D01*
X111114888Y-112164618D01*
X110920484Y-112133828D01*
X110920479Y-112133828D01*
X110723645Y-112133828D01*
X110723640Y-112133828D01*
X110529235Y-112164618D01*
X110342032Y-112225445D01*
X110166656Y-112314804D01*
X110075803Y-112380813D01*
X110007416Y-112430500D01*
X110007414Y-112430502D01*
X110007413Y-112430502D01*
X109868236Y-112569679D01*
X109868236Y-112569680D01*
X109868234Y-112569682D01*
X109826478Y-112627154D01*
X109752538Y-112728922D01*
X109663179Y-112904298D01*
X109602352Y-113091501D01*
X109571562Y-113285905D01*
X91266459Y-113285905D01*
X91403390Y-113148974D01*
X91519086Y-112989733D01*
X91608446Y-112814353D01*
X91669271Y-112627154D01*
X91678374Y-112569679D01*
X91700062Y-112432750D01*
X91700062Y-112235905D01*
X91669271Y-112041501D01*
X91608444Y-111854298D01*
X91519085Y-111678922D01*
X91403390Y-111519682D01*
X91264208Y-111380500D01*
X91104967Y-111264804D01*
X90929591Y-111175445D01*
X90742388Y-111114618D01*
X90547984Y-111083828D01*
X90547979Y-111083828D01*
X90351145Y-111083828D01*
X90351140Y-111083828D01*
X90156735Y-111114618D01*
X89969532Y-111175445D01*
X89794156Y-111264804D01*
X89703303Y-111330813D01*
X89634916Y-111380500D01*
X89634914Y-111380502D01*
X89634913Y-111380502D01*
X89495736Y-111519679D01*
X89495736Y-111519680D01*
X89495734Y-111519682D01*
X89446047Y-111588069D01*
X89380038Y-111678922D01*
X89290679Y-111854298D01*
X89229852Y-112041501D01*
X89199062Y-112235905D01*
X82805157Y-112235905D01*
X82805157Y-71212463D01*
X84965062Y-71212463D01*
X84965062Y-72696198D01*
X84965063Y-72696204D01*
X84971470Y-72755811D01*
X85021764Y-72890656D01*
X85021768Y-72890663D01*
X85108014Y-73005872D01*
X85108017Y-73005875D01*
X85223226Y-73092121D01*
X85223233Y-73092125D01*
X85358079Y-73142419D01*
X85358078Y-73142419D01*
X85365006Y-73143163D01*
X85417689Y-73148828D01*
X85653465Y-73148827D01*
X85720503Y-73168511D01*
X85766258Y-73221315D01*
X85776202Y-73290474D01*
X85747177Y-73354029D01*
X85705019Y-73384433D01*
X85705374Y-73385129D01*
X85533503Y-73472702D01*
X85381403Y-73583208D01*
X85381398Y-73583212D01*
X85248446Y-73716164D01*
X85248442Y-73716169D01*
X85137936Y-73868269D01*
X85052576Y-74035794D01*
X84994473Y-74214614D01*
X84965062Y-74400313D01*
X84965062Y-74588342D01*
X84994473Y-74774041D01*
X85052576Y-74952861D01*
X85137936Y-75120386D01*
X85248442Y-75272486D01*
X85248446Y-75272491D01*
X85381398Y-75405443D01*
X85381403Y-75405447D01*
X85514073Y-75501836D01*
X85533507Y-75515956D01*
X85640252Y-75570345D01*
X85701028Y-75601313D01*
X85701030Y-75601313D01*
X85701033Y-75601315D01*
X85785247Y-75628678D01*
X85839780Y-75646397D01*
X85897455Y-75685835D01*
X85924653Y-75750194D01*
X85912738Y-75819040D01*
X85865494Y-75870516D01*
X85839780Y-75882259D01*
X85701028Y-75927342D01*
X85533503Y-76012702D01*
X85381403Y-76123208D01*
X85381398Y-76123212D01*
X85248446Y-76256164D01*
X85248442Y-76256169D01*
X85137936Y-76408269D01*
X85052576Y-76575794D01*
X84994473Y-76754614D01*
X84965062Y-76940313D01*
X84965062Y-77128342D01*
X84994473Y-77314041D01*
X85052576Y-77492861D01*
X85137936Y-77660386D01*
X85248442Y-77812486D01*
X85248446Y-77812491D01*
X85381398Y-77945443D01*
X85381403Y-77945447D01*
X85514073Y-78041836D01*
X85533507Y-78055956D01*
X85640252Y-78110345D01*
X85701028Y-78141313D01*
X85701030Y-78141313D01*
X85701033Y-78141315D01*
X85785247Y-78168678D01*
X85839780Y-78186397D01*
X85897455Y-78225835D01*
X85924653Y-78290194D01*
X85912738Y-78359040D01*
X85865494Y-78410516D01*
X85839780Y-78422259D01*
X85701028Y-78467342D01*
X85533503Y-78552702D01*
X85381403Y-78663208D01*
X85381398Y-78663212D01*
X85248446Y-78796164D01*
X85248442Y-78796169D01*
X85137936Y-78948269D01*
X85052576Y-79115794D01*
X84994473Y-79294614D01*
X84965062Y-79480313D01*
X84965062Y-79668342D01*
X84994473Y-79854041D01*
X85052576Y-80032861D01*
X85137936Y-80200386D01*
X85248442Y-80352486D01*
X85248446Y-80352491D01*
X85381398Y-80485443D01*
X85381403Y-80485447D01*
X85514073Y-80581836D01*
X85533507Y-80595956D01*
X85640252Y-80650345D01*
X85701028Y-80681313D01*
X85701030Y-80681313D01*
X85701033Y-80681315D01*
X85785247Y-80708678D01*
X85839780Y-80726397D01*
X85897455Y-80765835D01*
X85924653Y-80830194D01*
X85912738Y-80899040D01*
X85865494Y-80950516D01*
X85839780Y-80962259D01*
X85701028Y-81007342D01*
X85533503Y-81092702D01*
X85381403Y-81203208D01*
X85381398Y-81203212D01*
X85248446Y-81336164D01*
X85248442Y-81336169D01*
X85137936Y-81488269D01*
X85052576Y-81655794D01*
X84994473Y-81834614D01*
X84965062Y-82020313D01*
X84965062Y-82208342D01*
X84994473Y-82394041D01*
X85052576Y-82572861D01*
X85111278Y-82688068D01*
X85128294Y-82721464D01*
X85137936Y-82740386D01*
X85248442Y-82892486D01*
X85248446Y-82892491D01*
X85381398Y-83025443D01*
X85381403Y-83025447D01*
X85514073Y-83121836D01*
X85533507Y-83135956D01*
X85640252Y-83190345D01*
X85701028Y-83221313D01*
X85701030Y-83221313D01*
X85701033Y-83221315D01*
X85785247Y-83248678D01*
X85839780Y-83266397D01*
X85897455Y-83305835D01*
X85924653Y-83370194D01*
X85912738Y-83439040D01*
X85865494Y-83490516D01*
X85839780Y-83502259D01*
X85701028Y-83547342D01*
X85533503Y-83632702D01*
X85381403Y-83743208D01*
X85381398Y-83743212D01*
X85248446Y-83876164D01*
X85248442Y-83876169D01*
X85137936Y-84028269D01*
X85052576Y-84195794D01*
X84994473Y-84374614D01*
X84965062Y-84560313D01*
X84965062Y-84748342D01*
X84994473Y-84934041D01*
X85052576Y-85112861D01*
X85137936Y-85280386D01*
X85248442Y-85432486D01*
X85248446Y-85432491D01*
X85381398Y-85565443D01*
X85381403Y-85565447D01*
X85514073Y-85661836D01*
X85533507Y-85675956D01*
X85640252Y-85730345D01*
X85701028Y-85761313D01*
X85701030Y-85761313D01*
X85701033Y-85761315D01*
X85785247Y-85788678D01*
X85839780Y-85806397D01*
X85897455Y-85845835D01*
X85924653Y-85910194D01*
X85912738Y-85979040D01*
X85865494Y-86030516D01*
X85839780Y-86042259D01*
X85701028Y-86087342D01*
X85533503Y-86172702D01*
X85381403Y-86283208D01*
X85381398Y-86283212D01*
X85248446Y-86416164D01*
X85248442Y-86416169D01*
X85137936Y-86568269D01*
X85052576Y-86735794D01*
X84994473Y-86914614D01*
X84965062Y-87100313D01*
X84965062Y-87288342D01*
X84994473Y-87474041D01*
X85052576Y-87652861D01*
X85099169Y-87744303D01*
X85135055Y-87814733D01*
X85137936Y-87820386D01*
X85248442Y-87972486D01*
X85248446Y-87972491D01*
X85381398Y-88105443D01*
X85381403Y-88105447D01*
X85409570Y-88125911D01*
X85533507Y-88215956D01*
X85640252Y-88270345D01*
X85701028Y-88301313D01*
X85701030Y-88301313D01*
X85701033Y-88301315D01*
X85766988Y-88322745D01*
X85839780Y-88346397D01*
X85897455Y-88385835D01*
X85924653Y-88450194D01*
X85912738Y-88519040D01*
X85865494Y-88570516D01*
X85839780Y-88582259D01*
X85701028Y-88627342D01*
X85533503Y-88712702D01*
X85381403Y-88823208D01*
X85381398Y-88823212D01*
X85248446Y-88956164D01*
X85248442Y-88956169D01*
X85137936Y-89108269D01*
X85052576Y-89275794D01*
X84994473Y-89454614D01*
X84965062Y-89640313D01*
X84965062Y-89828342D01*
X84994473Y-90014041D01*
X85052576Y-90192861D01*
X85137936Y-90360386D01*
X85248442Y-90512486D01*
X85248446Y-90512491D01*
X85381398Y-90645443D01*
X85381403Y-90645447D01*
X85512106Y-90740407D01*
X85533507Y-90755956D01*
X85640252Y-90810345D01*
X85701028Y-90841313D01*
X85701030Y-90841313D01*
X85701033Y-90841315D01*
X85785247Y-90868678D01*
X85839780Y-90886397D01*
X85897455Y-90925835D01*
X85924653Y-90990194D01*
X85912738Y-91059040D01*
X85865494Y-91110516D01*
X85839780Y-91122259D01*
X85701028Y-91167342D01*
X85533503Y-91252702D01*
X85381403Y-91363208D01*
X85381398Y-91363212D01*
X85248446Y-91496164D01*
X85248442Y-91496169D01*
X85137936Y-91648269D01*
X85052576Y-91815794D01*
X84994473Y-91994614D01*
X84965062Y-92180313D01*
X84965062Y-92368342D01*
X84994473Y-92554041D01*
X85052576Y-92732861D01*
X85137936Y-92900386D01*
X85248442Y-93052486D01*
X85248446Y-93052491D01*
X85381398Y-93185443D01*
X85381403Y-93185447D01*
X85457811Y-93240960D01*
X85533507Y-93295956D01*
X85640252Y-93350345D01*
X85701028Y-93381313D01*
X85701030Y-93381313D01*
X85701033Y-93381315D01*
X85785247Y-93408678D01*
X85839780Y-93426397D01*
X85897455Y-93465835D01*
X85924653Y-93530194D01*
X85912738Y-93599040D01*
X85865494Y-93650516D01*
X85839780Y-93662259D01*
X85701028Y-93707342D01*
X85533503Y-93792702D01*
X85381403Y-93903208D01*
X85381398Y-93903212D01*
X85248446Y-94036164D01*
X85248442Y-94036169D01*
X85137936Y-94188269D01*
X85052576Y-94355794D01*
X84994473Y-94534614D01*
X84965062Y-94720313D01*
X84965062Y-94908342D01*
X84994473Y-95094041D01*
X85052576Y-95272861D01*
X85137936Y-95440386D01*
X85248442Y-95592486D01*
X85248446Y-95592491D01*
X85381398Y-95725443D01*
X85381403Y-95725447D01*
X85509236Y-95818322D01*
X85533507Y-95835956D01*
X85640252Y-95890345D01*
X85701028Y-95921313D01*
X85701030Y-95921313D01*
X85701033Y-95921315D01*
X85785247Y-95948678D01*
X85839780Y-95966397D01*
X85897455Y-96005835D01*
X85924653Y-96070194D01*
X85912738Y-96139040D01*
X85865494Y-96190516D01*
X85839780Y-96202259D01*
X85701028Y-96247342D01*
X85533503Y-96332702D01*
X85381403Y-96443208D01*
X85381398Y-96443212D01*
X85248446Y-96576164D01*
X85248442Y-96576169D01*
X85137936Y-96728269D01*
X85052576Y-96895794D01*
X84994473Y-97074614D01*
X84965062Y-97260313D01*
X84965062Y-97448342D01*
X84994473Y-97634041D01*
X85052576Y-97812861D01*
X85137936Y-97980386D01*
X85248442Y-98132486D01*
X85248446Y-98132491D01*
X85381398Y-98265443D01*
X85381403Y-98265447D01*
X85514073Y-98361836D01*
X85533507Y-98375956D01*
X85624521Y-98422330D01*
X85701028Y-98461313D01*
X85701030Y-98461313D01*
X85701033Y-98461315D01*
X85785247Y-98488678D01*
X85839780Y-98506397D01*
X85897455Y-98545835D01*
X85924653Y-98610194D01*
X85912738Y-98679040D01*
X85865494Y-98730516D01*
X85839780Y-98742259D01*
X85701028Y-98787342D01*
X85533503Y-98872702D01*
X85381403Y-98983208D01*
X85381398Y-98983212D01*
X85248446Y-99116164D01*
X85248442Y-99116169D01*
X85137936Y-99268269D01*
X85052576Y-99435794D01*
X84994473Y-99614614D01*
X84965062Y-99800313D01*
X84965062Y-99988342D01*
X84994473Y-100174041D01*
X85052576Y-100352861D01*
X85137936Y-100520386D01*
X85248442Y-100672486D01*
X85248446Y-100672491D01*
X85381398Y-100805443D01*
X85381403Y-100805447D01*
X85428662Y-100839782D01*
X85533507Y-100915956D01*
X85640252Y-100970345D01*
X85701028Y-101001313D01*
X85701030Y-101001313D01*
X85701033Y-101001315D01*
X85761245Y-101020879D01*
X85839780Y-101046397D01*
X85897455Y-101085835D01*
X85924653Y-101150194D01*
X85912738Y-101219040D01*
X85865494Y-101270516D01*
X85839780Y-101282259D01*
X85701028Y-101327342D01*
X85533503Y-101412702D01*
X85381403Y-101523208D01*
X85381398Y-101523212D01*
X85248446Y-101656164D01*
X85248442Y-101656169D01*
X85137936Y-101808269D01*
X85052576Y-101975794D01*
X84994473Y-102154614D01*
X84965062Y-102340313D01*
X84965062Y-102528342D01*
X84994473Y-102714041D01*
X85052576Y-102892861D01*
X85137936Y-103060386D01*
X85248442Y-103212486D01*
X85248446Y-103212491D01*
X85381398Y-103345443D01*
X85381403Y-103345447D01*
X85514073Y-103441836D01*
X85533507Y-103455956D01*
X85640252Y-103510345D01*
X85701028Y-103541313D01*
X85701030Y-103541313D01*
X85701033Y-103541315D01*
X85785247Y-103568678D01*
X85839780Y-103586397D01*
X85897455Y-103625835D01*
X85924653Y-103690194D01*
X85912738Y-103759040D01*
X85865494Y-103810516D01*
X85839780Y-103822259D01*
X85701028Y-103867342D01*
X85533503Y-103952702D01*
X85381403Y-104063208D01*
X85381398Y-104063212D01*
X85248446Y-104196164D01*
X85248442Y-104196169D01*
X85137936Y-104348269D01*
X85052576Y-104515794D01*
X84994473Y-104694614D01*
X84965062Y-104880313D01*
X84965062Y-105068342D01*
X84994473Y-105254041D01*
X85052576Y-105432861D01*
X85137936Y-105600386D01*
X85248442Y-105752486D01*
X85248446Y-105752491D01*
X85381398Y-105885443D01*
X85381403Y-105885447D01*
X85421810Y-105914804D01*
X85533507Y-105995956D01*
X85640252Y-106050345D01*
X85701028Y-106081313D01*
X85701030Y-106081313D01*
X85701033Y-106081315D01*
X85785247Y-106108678D01*
X85839780Y-106126397D01*
X85897455Y-106165835D01*
X85924653Y-106230194D01*
X85912738Y-106299040D01*
X85865494Y-106350516D01*
X85839780Y-106362259D01*
X85701028Y-106407342D01*
X85533503Y-106492702D01*
X85381403Y-106603208D01*
X85381398Y-106603212D01*
X85248446Y-106736164D01*
X85248442Y-106736169D01*
X85137936Y-106888269D01*
X85052576Y-107055794D01*
X84994473Y-107234614D01*
X84965062Y-107420313D01*
X84965062Y-107608342D01*
X84994473Y-107794041D01*
X85052576Y-107972861D01*
X85137936Y-108140386D01*
X85248442Y-108292486D01*
X85248446Y-108292491D01*
X85381398Y-108425443D01*
X85381403Y-108425447D01*
X85514073Y-108521836D01*
X85533507Y-108535956D01*
X85640252Y-108590345D01*
X85701028Y-108621313D01*
X85701030Y-108621313D01*
X85701033Y-108621315D01*
X85796882Y-108652458D01*
X85879848Y-108679416D01*
X86065548Y-108708828D01*
X86065553Y-108708828D01*
X86253576Y-108708828D01*
X86439275Y-108679416D01*
X86618091Y-108621315D01*
X86785617Y-108535956D01*
X86937727Y-108425442D01*
X87070676Y-108292493D01*
X87181190Y-108140383D01*
X87266549Y-107972857D01*
X87324650Y-107794041D01*
X87354062Y-107608342D01*
X87354062Y-107420313D01*
X87324650Y-107234614D01*
X87275304Y-107082745D01*
X87266549Y-107055799D01*
X87266547Y-107055796D01*
X87266547Y-107055794D01*
X87206188Y-106937334D01*
X87203795Y-106932639D01*
X87181190Y-106888273D01*
X87179470Y-106885905D01*
X92049062Y-106885905D01*
X92049062Y-107082750D01*
X92079852Y-107277154D01*
X92140679Y-107464357D01*
X92221684Y-107623337D01*
X92230038Y-107639733D01*
X92345734Y-107798974D01*
X92484916Y-107938156D01*
X92644157Y-108053852D01*
X92727017Y-108096071D01*
X92819532Y-108143210D01*
X92819534Y-108143210D01*
X92819537Y-108143212D01*
X92919879Y-108175815D01*
X93006735Y-108204037D01*
X93201140Y-108234828D01*
X93201145Y-108234828D01*
X93397984Y-108234828D01*
X93592388Y-108204037D01*
X93779587Y-108143212D01*
X93954967Y-108053852D01*
X94114208Y-107938156D01*
X94253390Y-107798974D01*
X94369086Y-107639733D01*
X94458446Y-107464353D01*
X94519271Y-107277154D01*
X94523633Y-107249614D01*
X94550062Y-107082750D01*
X94550062Y-106885905D01*
X94519271Y-106691501D01*
X94459550Y-106507702D01*
X94458446Y-106504303D01*
X94458444Y-106504300D01*
X94458444Y-106504298D01*
X94379438Y-106349240D01*
X94369086Y-106328923D01*
X94253390Y-106169682D01*
X94114208Y-106030500D01*
X93954967Y-105914804D01*
X93926780Y-105900442D01*
X93779591Y-105825445D01*
X93592388Y-105764618D01*
X93397984Y-105733828D01*
X93397979Y-105733828D01*
X93201145Y-105733828D01*
X93201140Y-105733828D01*
X93006735Y-105764618D01*
X92819532Y-105825445D01*
X92644156Y-105914804D01*
X92553303Y-105980813D01*
X92484916Y-106030500D01*
X92484914Y-106030502D01*
X92484913Y-106030502D01*
X92345736Y-106169679D01*
X92345736Y-106169680D01*
X92345734Y-106169682D01*
X92331251Y-106189616D01*
X92230038Y-106328922D01*
X92140679Y-106504298D01*
X92079852Y-106691501D01*
X92049062Y-106885905D01*
X87179470Y-106885905D01*
X87167070Y-106868839D01*
X87070681Y-106736169D01*
X87070677Y-106736164D01*
X86937725Y-106603212D01*
X86937720Y-106603208D01*
X86785620Y-106492702D01*
X86785619Y-106492701D01*
X86785617Y-106492700D01*
X86733302Y-106466044D01*
X86618095Y-106407342D01*
X86479343Y-106362259D01*
X86421668Y-106322821D01*
X86394470Y-106258462D01*
X86406385Y-106189616D01*
X86453629Y-106138140D01*
X86479343Y-106126397D01*
X86618091Y-106081315D01*
X86785617Y-105995956D01*
X86937727Y-105885442D01*
X87070676Y-105752493D01*
X87181190Y-105600383D01*
X87266549Y-105432857D01*
X87324650Y-105254041D01*
X87354062Y-105068342D01*
X87354062Y-104880313D01*
X87324650Y-104694614D01*
X87297692Y-104611648D01*
X87266549Y-104515799D01*
X87266547Y-104515796D01*
X87266547Y-104515794D01*
X87235579Y-104455018D01*
X87181190Y-104348273D01*
X87167070Y-104328839D01*
X87070681Y-104196169D01*
X87070677Y-104196164D01*
X86937725Y-104063212D01*
X86937720Y-104063208D01*
X86785620Y-103952702D01*
X86785619Y-103952701D01*
X86785617Y-103952700D01*
X86733302Y-103926044D01*
X86618095Y-103867342D01*
X86479343Y-103822259D01*
X86421668Y-103782821D01*
X86394470Y-103718462D01*
X86406385Y-103649616D01*
X86453629Y-103598140D01*
X86479343Y-103586397D01*
X86618091Y-103541315D01*
X86785617Y-103455956D01*
X86937727Y-103345442D01*
X87070676Y-103212493D01*
X87181190Y-103060383D01*
X87266549Y-102892857D01*
X87324650Y-102714041D01*
X87354062Y-102528342D01*
X87354062Y-102340313D01*
X87324650Y-102154614D01*
X87273288Y-101996539D01*
X87266549Y-101975799D01*
X87266547Y-101975796D01*
X87266547Y-101975794D01*
X87235224Y-101914321D01*
X87181190Y-101808273D01*
X87167070Y-101788839D01*
X87070681Y-101656169D01*
X87070677Y-101656164D01*
X86937725Y-101523212D01*
X86937720Y-101523208D01*
X86785620Y-101412702D01*
X86785619Y-101412701D01*
X86785617Y-101412700D01*
X86733302Y-101386044D01*
X86618095Y-101327342D01*
X86479343Y-101282259D01*
X86421668Y-101242821D01*
X86394470Y-101178462D01*
X86406385Y-101109616D01*
X86453629Y-101058140D01*
X86479343Y-101046397D01*
X86618091Y-101001315D01*
X86785617Y-100915956D01*
X86937727Y-100805442D01*
X87070676Y-100672493D01*
X87181190Y-100520383D01*
X87266549Y-100352857D01*
X87324650Y-100174041D01*
X87354062Y-99988342D01*
X87354062Y-99800313D01*
X87324650Y-99614614D01*
X87276675Y-99466964D01*
X87266549Y-99435799D01*
X87266547Y-99435796D01*
X87266547Y-99435794D01*
X87235579Y-99375018D01*
X87181190Y-99268273D01*
X87167070Y-99248839D01*
X87070681Y-99116169D01*
X87070677Y-99116164D01*
X86937725Y-98983212D01*
X86937720Y-98983208D01*
X86785620Y-98872702D01*
X86785619Y-98872701D01*
X86785617Y-98872700D01*
X86733302Y-98846044D01*
X86618095Y-98787342D01*
X86479343Y-98742259D01*
X86421668Y-98702821D01*
X86394470Y-98638462D01*
X86406385Y-98569616D01*
X86453629Y-98518140D01*
X86479343Y-98506397D01*
X86618091Y-98461315D01*
X86785617Y-98375956D01*
X86937727Y-98265442D01*
X87070676Y-98132493D01*
X87181190Y-97980383D01*
X87266549Y-97812857D01*
X87324650Y-97634041D01*
X87336066Y-97561964D01*
X87354062Y-97448342D01*
X87354062Y-97260313D01*
X87324650Y-97074614D01*
X87297692Y-96991648D01*
X87266549Y-96895799D01*
X87266547Y-96895796D01*
X87266547Y-96895794D01*
X87235579Y-96835018D01*
X87181190Y-96728273D01*
X87145165Y-96678688D01*
X87070681Y-96576169D01*
X87070677Y-96576164D01*
X86937725Y-96443212D01*
X86937720Y-96443208D01*
X86785620Y-96332702D01*
X86785619Y-96332701D01*
X86785617Y-96332700D01*
X86733302Y-96306044D01*
X86618095Y-96247342D01*
X86479343Y-96202259D01*
X86421668Y-96162821D01*
X86394470Y-96098462D01*
X86406385Y-96029616D01*
X86453629Y-95978140D01*
X86479343Y-95966397D01*
X86484175Y-95964827D01*
X86618091Y-95921315D01*
X86785617Y-95835956D01*
X86937727Y-95725442D01*
X87070676Y-95592493D01*
X87181190Y-95440383D01*
X87266549Y-95272857D01*
X87324650Y-95094041D01*
X87348110Y-94945919D01*
X87354062Y-94908342D01*
X87354062Y-94720313D01*
X87324650Y-94534614D01*
X87297692Y-94451648D01*
X87266549Y-94355799D01*
X87266547Y-94355796D01*
X87266547Y-94355794D01*
X87229211Y-94282519D01*
X87181190Y-94188273D01*
X87152740Y-94149115D01*
X87070681Y-94036169D01*
X87070677Y-94036164D01*
X86937725Y-93903212D01*
X86937720Y-93903208D01*
X86785620Y-93792702D01*
X86785619Y-93792701D01*
X86785617Y-93792700D01*
X86733302Y-93766044D01*
X86618095Y-93707342D01*
X86479343Y-93662259D01*
X86421668Y-93622821D01*
X86394470Y-93558462D01*
X86406385Y-93489616D01*
X86453629Y-93438140D01*
X86479343Y-93426397D01*
X86618091Y-93381315D01*
X86785617Y-93295956D01*
X86937727Y-93185442D01*
X87070676Y-93052493D01*
X87181190Y-92900383D01*
X87266549Y-92732857D01*
X87324650Y-92554041D01*
X87354062Y-92368342D01*
X87354062Y-92180313D01*
X87324650Y-91994614D01*
X87278347Y-91852109D01*
X87266549Y-91815799D01*
X87266547Y-91815796D01*
X87266547Y-91815794D01*
X87201555Y-91688242D01*
X87181190Y-91648273D01*
X87129544Y-91577188D01*
X87070681Y-91496169D01*
X87070677Y-91496164D01*
X86937725Y-91363212D01*
X86937720Y-91363208D01*
X86785620Y-91252702D01*
X86785619Y-91252701D01*
X86785617Y-91252700D01*
X86727222Y-91222946D01*
X86618095Y-91167342D01*
X86479343Y-91122259D01*
X86421668Y-91082821D01*
X86394470Y-91018462D01*
X86406385Y-90949616D01*
X86453629Y-90898140D01*
X86479343Y-90886397D01*
X86618091Y-90841315D01*
X86785617Y-90755956D01*
X86937727Y-90645442D01*
X87070676Y-90512493D01*
X87181190Y-90360383D01*
X87266549Y-90192857D01*
X87324650Y-90014041D01*
X87354062Y-89828342D01*
X87354062Y-89640313D01*
X87324650Y-89454614D01*
X87297692Y-89371648D01*
X87266549Y-89275799D01*
X87266547Y-89275796D01*
X87266547Y-89275794D01*
X87216797Y-89178156D01*
X87181190Y-89108273D01*
X87130842Y-89038974D01*
X87070681Y-88956169D01*
X87070677Y-88956164D01*
X86937725Y-88823212D01*
X86937720Y-88823208D01*
X86785620Y-88712702D01*
X86785619Y-88712701D01*
X86785617Y-88712700D01*
X86733302Y-88686044D01*
X86618095Y-88627342D01*
X86479343Y-88582259D01*
X86421668Y-88542821D01*
X86394470Y-88478462D01*
X86406385Y-88409616D01*
X86453629Y-88358140D01*
X86479343Y-88346397D01*
X86618091Y-88301315D01*
X86785617Y-88215956D01*
X86937727Y-88105442D01*
X87070676Y-87972493D01*
X87181190Y-87820383D01*
X87266549Y-87652857D01*
X87324650Y-87474041D01*
X87354062Y-87288342D01*
X87354062Y-87100313D01*
X87350122Y-87075437D01*
X87347820Y-87060905D01*
X93199062Y-87060905D01*
X93199062Y-87257750D01*
X93229852Y-87452154D01*
X93290679Y-87639357D01*
X93344152Y-87744303D01*
X93380038Y-87814733D01*
X93495734Y-87973974D01*
X93634916Y-88113156D01*
X93794157Y-88228852D01*
X93877017Y-88271071D01*
X93969532Y-88318210D01*
X93969534Y-88318210D01*
X93969537Y-88318212D01*
X94056281Y-88346397D01*
X94156735Y-88379037D01*
X94351140Y-88409828D01*
X94351145Y-88409828D01*
X94547984Y-88409828D01*
X94742388Y-88379037D01*
X94760537Y-88373140D01*
X94929587Y-88318212D01*
X95104967Y-88228852D01*
X95264208Y-88113156D01*
X95403390Y-87973974D01*
X95519086Y-87814733D01*
X95608446Y-87639353D01*
X95669271Y-87452154D01*
X95675998Y-87409679D01*
X95700062Y-87257750D01*
X95700062Y-87060905D01*
X95669271Y-86866501D01*
X95641049Y-86779645D01*
X95608446Y-86679303D01*
X95608444Y-86679300D01*
X95608444Y-86679298D01*
X95519085Y-86503922D01*
X95403390Y-86344682D01*
X95264208Y-86205500D01*
X95104967Y-86089804D01*
X95100133Y-86087341D01*
X94929591Y-86000445D01*
X94742388Y-85939618D01*
X94547984Y-85908828D01*
X94547979Y-85908828D01*
X94351145Y-85908828D01*
X94351140Y-85908828D01*
X94156735Y-85939618D01*
X93969532Y-86000445D01*
X93794156Y-86089804D01*
X93703303Y-86155813D01*
X93634916Y-86205500D01*
X93634914Y-86205502D01*
X93634913Y-86205502D01*
X93495736Y-86344679D01*
X93495736Y-86344680D01*
X93495734Y-86344682D01*
X93446047Y-86413069D01*
X93380038Y-86503922D01*
X93290679Y-86679298D01*
X93229852Y-86866501D01*
X93199062Y-87060905D01*
X87347820Y-87060905D01*
X87324650Y-86914614D01*
X87297692Y-86831648D01*
X87266549Y-86735799D01*
X87266547Y-86735796D01*
X87266547Y-86735794D01*
X87235579Y-86675018D01*
X87181190Y-86568273D01*
X87134437Y-86503923D01*
X87070681Y-86416169D01*
X87070677Y-86416164D01*
X86937725Y-86283212D01*
X86937720Y-86283208D01*
X86785620Y-86172702D01*
X86785619Y-86172701D01*
X86785617Y-86172700D01*
X86733302Y-86146044D01*
X86618095Y-86087342D01*
X86479343Y-86042259D01*
X86421668Y-86002821D01*
X86394470Y-85938462D01*
X86406385Y-85869616D01*
X86453629Y-85818140D01*
X86479343Y-85806397D01*
X86618091Y-85761315D01*
X86785617Y-85675956D01*
X86937727Y-85565442D01*
X87070676Y-85432493D01*
X87181190Y-85280383D01*
X87266549Y-85112857D01*
X87324650Y-84934041D01*
X87354062Y-84748342D01*
X87354062Y-84560313D01*
X87324650Y-84374614D01*
X87297692Y-84291648D01*
X87266549Y-84195799D01*
X87266547Y-84195796D01*
X87266547Y-84195794D01*
X87235579Y-84135018D01*
X87181190Y-84028273D01*
X87167070Y-84008839D01*
X87070681Y-83876169D01*
X87070677Y-83876164D01*
X86937725Y-83743212D01*
X86937720Y-83743208D01*
X86785620Y-83632702D01*
X86785619Y-83632701D01*
X86785617Y-83632700D01*
X86733302Y-83606044D01*
X86618095Y-83547342D01*
X86479343Y-83502259D01*
X86421668Y-83462821D01*
X86394470Y-83398462D01*
X86406385Y-83329616D01*
X86453629Y-83278140D01*
X86479343Y-83266397D01*
X86618091Y-83221315D01*
X86785617Y-83135956D01*
X86937727Y-83025442D01*
X87070676Y-82892493D01*
X87181190Y-82740383D01*
X87266549Y-82572857D01*
X87324650Y-82394041D01*
X87330265Y-82358587D01*
X87354062Y-82208342D01*
X87354062Y-82042871D01*
X87811561Y-82042871D01*
X87850009Y-82236157D01*
X87850012Y-82236167D01*
X87925426Y-82418235D01*
X87925433Y-82418248D01*
X88034922Y-82582109D01*
X88034925Y-82582113D01*
X88174276Y-82721464D01*
X88174280Y-82721467D01*
X88338141Y-82830956D01*
X88338154Y-82830963D01*
X88486686Y-82892486D01*
X88520227Y-82906379D01*
X88520231Y-82906379D01*
X88520232Y-82906380D01*
X88713518Y-82944828D01*
X88713521Y-82944828D01*
X88910605Y-82944828D01*
X89040644Y-82918960D01*
X89103897Y-82906379D01*
X89285976Y-82830960D01*
X89449844Y-82721467D01*
X89589201Y-82582110D01*
X89698694Y-82418242D01*
X89701733Y-82410905D01*
X93049062Y-82410905D01*
X93049062Y-82607750D01*
X93079852Y-82802154D01*
X93140679Y-82989357D01*
X93215374Y-83135953D01*
X93230038Y-83164733D01*
X93345734Y-83323974D01*
X93484916Y-83463156D01*
X93644157Y-83578852D01*
X93727017Y-83621071D01*
X93819532Y-83668210D01*
X93819534Y-83668210D01*
X93819537Y-83668212D01*
X93919879Y-83700815D01*
X94006735Y-83729037D01*
X94201140Y-83759828D01*
X94201145Y-83759828D01*
X94397984Y-83759828D01*
X94592388Y-83729037D01*
X94779587Y-83668212D01*
X94954967Y-83578852D01*
X95114208Y-83463156D01*
X95253390Y-83323974D01*
X95369086Y-83164733D01*
X95458446Y-82989353D01*
X95519271Y-82802154D01*
X95529054Y-82740386D01*
X95550062Y-82607750D01*
X95550062Y-82410905D01*
X95519271Y-82216501D01*
X95491049Y-82129645D01*
X95458446Y-82029303D01*
X95458444Y-82029300D01*
X95458444Y-82029298D01*
X95369085Y-81853922D01*
X95365955Y-81849614D01*
X95253390Y-81694682D01*
X95114208Y-81555500D01*
X94954967Y-81439804D01*
X94779591Y-81350445D01*
X94592388Y-81289618D01*
X94397984Y-81258828D01*
X94397979Y-81258828D01*
X94201145Y-81258828D01*
X94201140Y-81258828D01*
X94006735Y-81289618D01*
X93819532Y-81350445D01*
X93644156Y-81439804D01*
X93556805Y-81503269D01*
X93484916Y-81555500D01*
X93484914Y-81555502D01*
X93484913Y-81555502D01*
X93345736Y-81694679D01*
X93345736Y-81694680D01*
X93345734Y-81694682D01*
X93296047Y-81763069D01*
X93230038Y-81853922D01*
X93140679Y-82029298D01*
X93079852Y-82216501D01*
X93049062Y-82410905D01*
X89701733Y-82410905D01*
X89774113Y-82236163D01*
X89812562Y-82042869D01*
X89812562Y-81845787D01*
X89812562Y-81845784D01*
X89774114Y-81652498D01*
X89774113Y-81652497D01*
X89774113Y-81652493D01*
X89774111Y-81652488D01*
X89698697Y-81470420D01*
X89698690Y-81470407D01*
X89589201Y-81306546D01*
X89589198Y-81306542D01*
X89449847Y-81167191D01*
X89449843Y-81167188D01*
X89285982Y-81057699D01*
X89285969Y-81057692D01*
X89103901Y-80982278D01*
X89103891Y-80982275D01*
X88910605Y-80943828D01*
X88910603Y-80943828D01*
X88713521Y-80943828D01*
X88713519Y-80943828D01*
X88520232Y-80982275D01*
X88520222Y-80982278D01*
X88338154Y-81057692D01*
X88338141Y-81057699D01*
X88174280Y-81167188D01*
X88174276Y-81167191D01*
X88034925Y-81306542D01*
X88034922Y-81306546D01*
X87925433Y-81470407D01*
X87925426Y-81470420D01*
X87850012Y-81652488D01*
X87850009Y-81652498D01*
X87811562Y-81845784D01*
X87811562Y-81845787D01*
X87811562Y-82042869D01*
X87811562Y-82042871D01*
X87811561Y-82042871D01*
X87354062Y-82042871D01*
X87354062Y-82020313D01*
X87328527Y-81859093D01*
X87327708Y-81853922D01*
X87324650Y-81834615D01*
X87266549Y-81655799D01*
X87266547Y-81655796D01*
X87266547Y-81655794D01*
X87215444Y-81555500D01*
X87181190Y-81488273D01*
X87145975Y-81439804D01*
X87070681Y-81336169D01*
X87070677Y-81336164D01*
X86937725Y-81203212D01*
X86937720Y-81203208D01*
X86785620Y-81092702D01*
X86785619Y-81092701D01*
X86785617Y-81092700D01*
X86716910Y-81057692D01*
X86618095Y-81007342D01*
X86479343Y-80962259D01*
X86421668Y-80922821D01*
X86394470Y-80858462D01*
X86406385Y-80789616D01*
X86453629Y-80738140D01*
X86479343Y-80726397D01*
X86618091Y-80681315D01*
X86785617Y-80595956D01*
X86937727Y-80485442D01*
X87070676Y-80352493D01*
X87181190Y-80200383D01*
X87266549Y-80032857D01*
X87324650Y-79854041D01*
X87324965Y-79852050D01*
X87354062Y-79668342D01*
X87354062Y-79480313D01*
X87324650Y-79294614D01*
X87288005Y-79181835D01*
X87266549Y-79115799D01*
X87266547Y-79115796D01*
X87266547Y-79115794D01*
X87235579Y-79055018D01*
X87181190Y-78948273D01*
X87167070Y-78928839D01*
X87070681Y-78796169D01*
X87070677Y-78796164D01*
X86937725Y-78663212D01*
X86937720Y-78663208D01*
X86785620Y-78552702D01*
X86785619Y-78552701D01*
X86785617Y-78552700D01*
X86692117Y-78505059D01*
X86618095Y-78467342D01*
X86479343Y-78422259D01*
X86421668Y-78382821D01*
X86394470Y-78318462D01*
X86406385Y-78249616D01*
X86453629Y-78198140D01*
X86479343Y-78186397D01*
X86618091Y-78141315D01*
X86785617Y-78055956D01*
X86937727Y-77945442D01*
X87070676Y-77812493D01*
X87181190Y-77660383D01*
X87266549Y-77492857D01*
X87324650Y-77314041D01*
X87354062Y-77128342D01*
X87354062Y-76940313D01*
X87324650Y-76754614D01*
X87285253Y-76633364D01*
X87266549Y-76575799D01*
X87266547Y-76575796D01*
X87266547Y-76575794D01*
X87235579Y-76515018D01*
X87181190Y-76408273D01*
X87167070Y-76388839D01*
X87070681Y-76256169D01*
X87070677Y-76256164D01*
X86937725Y-76123212D01*
X86937720Y-76123208D01*
X86785620Y-76012702D01*
X86785619Y-76012701D01*
X86785617Y-76012700D01*
X86733302Y-75986044D01*
X86618095Y-75927342D01*
X86479343Y-75882259D01*
X86421668Y-75842821D01*
X86394470Y-75778462D01*
X86406385Y-75709616D01*
X86453629Y-75658140D01*
X86479343Y-75646397D01*
X86618091Y-75601315D01*
X86785617Y-75515956D01*
X86937727Y-75405442D01*
X87070676Y-75272493D01*
X87181190Y-75120383D01*
X87266549Y-74952857D01*
X87324650Y-74774041D01*
X87343003Y-74658165D01*
X87354062Y-74588342D01*
X87354062Y-74400313D01*
X87324650Y-74214614D01*
X87297692Y-74131648D01*
X87266549Y-74035799D01*
X87266547Y-74035796D01*
X87266547Y-74035794D01*
X87222577Y-73949500D01*
X87181190Y-73868273D01*
X87167070Y-73848839D01*
X87070681Y-73716169D01*
X87070677Y-73716164D01*
X86937725Y-73583212D01*
X86937720Y-73583208D01*
X86785620Y-73472702D01*
X86785619Y-73472701D01*
X86785617Y-73472700D01*
X86618091Y-73387341D01*
X86613750Y-73385129D01*
X86614232Y-73384182D01*
X86563809Y-73343558D01*
X86541737Y-73277267D01*
X86559008Y-73209565D01*
X86610140Y-73161949D01*
X86665656Y-73148827D01*
X86901434Y-73148827D01*
X86961045Y-73142419D01*
X87095893Y-73092124D01*
X87211108Y-73005874D01*
X87297358Y-72890659D01*
X87347653Y-72755811D01*
X87354062Y-72696201D01*
X87354061Y-71445789D01*
X93541561Y-71445789D01*
X93580009Y-71639075D01*
X93580012Y-71639085D01*
X93655426Y-71821153D01*
X93655433Y-71821166D01*
X93764922Y-71985027D01*
X93764925Y-71985031D01*
X93904276Y-72124382D01*
X93904280Y-72124385D01*
X94068141Y-72233874D01*
X94068154Y-72233881D01*
X94250222Y-72309295D01*
X94250227Y-72309297D01*
X94250231Y-72309297D01*
X94250232Y-72309298D01*
X94443518Y-72347746D01*
X94443521Y-72347746D01*
X94640605Y-72347746D01*
X94770644Y-72321878D01*
X94833897Y-72309297D01*
X95015976Y-72233878D01*
X95179844Y-72124385D01*
X95319201Y-71985028D01*
X95428694Y-71821160D01*
X95504113Y-71639081D01*
X95542562Y-71445787D01*
X95542562Y-71248705D01*
X95542561Y-71248702D01*
X95542487Y-71248327D01*
X95542487Y-71248326D01*
X95538337Y-71227463D01*
X100152562Y-71227463D01*
X100152562Y-72711198D01*
X100152563Y-72711204D01*
X100158970Y-72770811D01*
X100209264Y-72905656D01*
X100209268Y-72905663D01*
X100295514Y-73020872D01*
X100295517Y-73020875D01*
X100410726Y-73107121D01*
X100410733Y-73107125D01*
X100545579Y-73157419D01*
X100545578Y-73157419D01*
X100552506Y-73158163D01*
X100605189Y-73163828D01*
X100840965Y-73163827D01*
X100908003Y-73183511D01*
X100953758Y-73236315D01*
X100963702Y-73305474D01*
X100934677Y-73369029D01*
X100892519Y-73399433D01*
X100892874Y-73400129D01*
X100721003Y-73487702D01*
X100568903Y-73598208D01*
X100568898Y-73598212D01*
X100435946Y-73731164D01*
X100435942Y-73731169D01*
X100325436Y-73883269D01*
X100240076Y-74050794D01*
X100181973Y-74229614D01*
X100152562Y-74415313D01*
X100152562Y-74603342D01*
X100181973Y-74789041D01*
X100240076Y-74967861D01*
X100325436Y-75135386D01*
X100435942Y-75287486D01*
X100435946Y-75287491D01*
X100568898Y-75420443D01*
X100568903Y-75420447D01*
X100700357Y-75515953D01*
X100721007Y-75530956D01*
X100827752Y-75585345D01*
X100888528Y-75616313D01*
X100888530Y-75616313D01*
X100888533Y-75616315D01*
X100972747Y-75643678D01*
X101027280Y-75661397D01*
X101084955Y-75700835D01*
X101112153Y-75765194D01*
X101100238Y-75834040D01*
X101052994Y-75885516D01*
X101027280Y-75897259D01*
X100888528Y-75942342D01*
X100721003Y-76027702D01*
X100568903Y-76138208D01*
X100568898Y-76138212D01*
X100435946Y-76271164D01*
X100435942Y-76271169D01*
X100325436Y-76423269D01*
X100240076Y-76590794D01*
X100181973Y-76769614D01*
X100152562Y-76955313D01*
X100152562Y-77143342D01*
X100181973Y-77329041D01*
X100240076Y-77507861D01*
X100325436Y-77675386D01*
X100435942Y-77827486D01*
X100435946Y-77827491D01*
X100568898Y-77960443D01*
X100568903Y-77960447D01*
X100700357Y-78055953D01*
X100721007Y-78070956D01*
X100803250Y-78112861D01*
X100888528Y-78156313D01*
X100888530Y-78156313D01*
X100888533Y-78156315D01*
X100972747Y-78183678D01*
X101027280Y-78201397D01*
X101084955Y-78240835D01*
X101112153Y-78305194D01*
X101100238Y-78374040D01*
X101052994Y-78425516D01*
X101027280Y-78437259D01*
X100888528Y-78482342D01*
X100721003Y-78567702D01*
X100568903Y-78678208D01*
X100568898Y-78678212D01*
X100435946Y-78811164D01*
X100435942Y-78811169D01*
X100325436Y-78963269D01*
X100240076Y-79130794D01*
X100181973Y-79309614D01*
X100152562Y-79495313D01*
X100152562Y-79683342D01*
X100181973Y-79869041D01*
X100240076Y-80047861D01*
X100325436Y-80215386D01*
X100435942Y-80367486D01*
X100435946Y-80367491D01*
X100568898Y-80500443D01*
X100568903Y-80500447D01*
X100700357Y-80595953D01*
X100721007Y-80610956D01*
X100827752Y-80665345D01*
X100888528Y-80696313D01*
X100888530Y-80696313D01*
X100888533Y-80696315D01*
X100972747Y-80723678D01*
X101027280Y-80741397D01*
X101084955Y-80780835D01*
X101112153Y-80845194D01*
X101100238Y-80914040D01*
X101052994Y-80965516D01*
X101027280Y-80977259D01*
X100888528Y-81022342D01*
X100721003Y-81107702D01*
X100568903Y-81218208D01*
X100568898Y-81218212D01*
X100435946Y-81351164D01*
X100435942Y-81351169D01*
X100325436Y-81503269D01*
X100240076Y-81670794D01*
X100181973Y-81849614D01*
X100152562Y-82035313D01*
X100152562Y-82223342D01*
X100181973Y-82409041D01*
X100240076Y-82587861D01*
X100298778Y-82703068D01*
X100308151Y-82721464D01*
X100325436Y-82755386D01*
X100435942Y-82907486D01*
X100435946Y-82907491D01*
X100568898Y-83040443D01*
X100568903Y-83040447D01*
X100700357Y-83135953D01*
X100721007Y-83150956D01*
X100827752Y-83205345D01*
X100888528Y-83236313D01*
X100888530Y-83236313D01*
X100888533Y-83236315D01*
X100972747Y-83263678D01*
X101027280Y-83281397D01*
X101084955Y-83320835D01*
X101112153Y-83385194D01*
X101100238Y-83454040D01*
X101052994Y-83505516D01*
X101027280Y-83517259D01*
X100888528Y-83562342D01*
X100721003Y-83647702D01*
X100568903Y-83758208D01*
X100568898Y-83758212D01*
X100435946Y-83891164D01*
X100435942Y-83891169D01*
X100325436Y-84043269D01*
X100240076Y-84210794D01*
X100181973Y-84389614D01*
X100152562Y-84575313D01*
X100152562Y-84763342D01*
X100181973Y-84949041D01*
X100240076Y-85127861D01*
X100325436Y-85295386D01*
X100435942Y-85447486D01*
X100435946Y-85447491D01*
X100568898Y-85580443D01*
X100568903Y-85580447D01*
X100700357Y-85675953D01*
X100721007Y-85690956D01*
X100827752Y-85745345D01*
X100888528Y-85776313D01*
X100888530Y-85776313D01*
X100888533Y-85776315D01*
X100972747Y-85803678D01*
X101027280Y-85821397D01*
X101084955Y-85860835D01*
X101112153Y-85925194D01*
X101100238Y-85994040D01*
X101052994Y-86045516D01*
X101027280Y-86057259D01*
X100888528Y-86102342D01*
X100721003Y-86187702D01*
X100568903Y-86298208D01*
X100568898Y-86298212D01*
X100435946Y-86431164D01*
X100435942Y-86431169D01*
X100325436Y-86583269D01*
X100240076Y-86750794D01*
X100181973Y-86929614D01*
X100152562Y-87115313D01*
X100152562Y-87303342D01*
X100181973Y-87489041D01*
X100240076Y-87667861D01*
X100279026Y-87744303D01*
X100314912Y-87814733D01*
X100325436Y-87835386D01*
X100435942Y-87987486D01*
X100435946Y-87987491D01*
X100568898Y-88120443D01*
X100568903Y-88120447D01*
X100576424Y-88125911D01*
X100721007Y-88230956D01*
X100827752Y-88285345D01*
X100888528Y-88316313D01*
X100888530Y-88316313D01*
X100888533Y-88316315D01*
X100972747Y-88343678D01*
X101027280Y-88361397D01*
X101084955Y-88400835D01*
X101112153Y-88465194D01*
X101100238Y-88534040D01*
X101052994Y-88585516D01*
X101027280Y-88597259D01*
X100888528Y-88642342D01*
X100721003Y-88727702D01*
X100568903Y-88838208D01*
X100568898Y-88838212D01*
X100435946Y-88971164D01*
X100435942Y-88971169D01*
X100325436Y-89123269D01*
X100240076Y-89290794D01*
X100181973Y-89469614D01*
X100152562Y-89655313D01*
X100152562Y-89843342D01*
X100181973Y-90029041D01*
X100240076Y-90207861D01*
X100325436Y-90375386D01*
X100435942Y-90527486D01*
X100435946Y-90527491D01*
X100568898Y-90660443D01*
X100568903Y-90660447D01*
X100678960Y-90740407D01*
X100721007Y-90770956D01*
X100827752Y-90825345D01*
X100888528Y-90856313D01*
X100888530Y-90856313D01*
X100888533Y-90856315D01*
X100972747Y-90883678D01*
X101027280Y-90901397D01*
X101084955Y-90940835D01*
X101112153Y-91005194D01*
X101100238Y-91074040D01*
X101052994Y-91125516D01*
X101027280Y-91137259D01*
X100888528Y-91182342D01*
X100721003Y-91267702D01*
X100568903Y-91378208D01*
X100568898Y-91378212D01*
X100435946Y-91511164D01*
X100435942Y-91511169D01*
X100325436Y-91663269D01*
X100240076Y-91830794D01*
X100181973Y-92009614D01*
X100152562Y-92195313D01*
X100152562Y-92383342D01*
X100181973Y-92569041D01*
X100240076Y-92747861D01*
X100325436Y-92915386D01*
X100435942Y-93067486D01*
X100435946Y-93067491D01*
X100568898Y-93200443D01*
X100568903Y-93200447D01*
X100700357Y-93295953D01*
X100721007Y-93310956D01*
X100827752Y-93365345D01*
X100888528Y-93396313D01*
X100888530Y-93396313D01*
X100888533Y-93396315D01*
X100972747Y-93423678D01*
X101027280Y-93441397D01*
X101084955Y-93480835D01*
X101112153Y-93545194D01*
X101100238Y-93614040D01*
X101052994Y-93665516D01*
X101027280Y-93677259D01*
X100888528Y-93722342D01*
X100721003Y-93807702D01*
X100568903Y-93918208D01*
X100568898Y-93918212D01*
X100435946Y-94051164D01*
X100435942Y-94051169D01*
X100325436Y-94203269D01*
X100240076Y-94370794D01*
X100181973Y-94549614D01*
X100152562Y-94735313D01*
X100152562Y-94923342D01*
X100181973Y-95109041D01*
X100240076Y-95287861D01*
X100325436Y-95455386D01*
X100435942Y-95607486D01*
X100435946Y-95607491D01*
X100568898Y-95740443D01*
X100568903Y-95740447D01*
X100676090Y-95818322D01*
X100721007Y-95850956D01*
X100827752Y-95905345D01*
X100888528Y-95936313D01*
X100888530Y-95936313D01*
X100888533Y-95936315D01*
X100972747Y-95963678D01*
X101027280Y-95981397D01*
X101084955Y-96020835D01*
X101112153Y-96085194D01*
X101100238Y-96154040D01*
X101052994Y-96205516D01*
X101027280Y-96217259D01*
X100888528Y-96262342D01*
X100721003Y-96347702D01*
X100568903Y-96458208D01*
X100568898Y-96458212D01*
X100435946Y-96591164D01*
X100435942Y-96591169D01*
X100325436Y-96743269D01*
X100240076Y-96910794D01*
X100181973Y-97089614D01*
X100152562Y-97275313D01*
X100152562Y-97463342D01*
X100181973Y-97649041D01*
X100240076Y-97827861D01*
X100298778Y-97943068D01*
X100320218Y-97985147D01*
X100325436Y-97995386D01*
X100435942Y-98147486D01*
X100435946Y-98147491D01*
X100568898Y-98280443D01*
X100568903Y-98280447D01*
X100700357Y-98375953D01*
X100721007Y-98390956D01*
X100782590Y-98422334D01*
X100888528Y-98476313D01*
X100888530Y-98476313D01*
X100888533Y-98476315D01*
X100972747Y-98503678D01*
X101027280Y-98521397D01*
X101084955Y-98560835D01*
X101112153Y-98625194D01*
X101100238Y-98694040D01*
X101052994Y-98745516D01*
X101027280Y-98757259D01*
X100888528Y-98802342D01*
X100721003Y-98887702D01*
X100568903Y-98998208D01*
X100568898Y-98998212D01*
X100435946Y-99131164D01*
X100435942Y-99131169D01*
X100325436Y-99283269D01*
X100240076Y-99450794D01*
X100181973Y-99629614D01*
X100152562Y-99815313D01*
X100152562Y-100003342D01*
X100181973Y-100189041D01*
X100240076Y-100367861D01*
X100325436Y-100535386D01*
X100435942Y-100687486D01*
X100435946Y-100687491D01*
X100568898Y-100820443D01*
X100568903Y-100820447D01*
X100595516Y-100839782D01*
X100721007Y-100930956D01*
X100827752Y-100985345D01*
X100888528Y-101016313D01*
X100888530Y-101016313D01*
X100888533Y-101016315D01*
X100902580Y-101020879D01*
X101027280Y-101061397D01*
X101084955Y-101100835D01*
X101112153Y-101165194D01*
X101100238Y-101234040D01*
X101052994Y-101285516D01*
X101027280Y-101297259D01*
X100888528Y-101342342D01*
X100721003Y-101427702D01*
X100568903Y-101538208D01*
X100568898Y-101538212D01*
X100435946Y-101671164D01*
X100435942Y-101671169D01*
X100325436Y-101823269D01*
X100240076Y-101990794D01*
X100181973Y-102169614D01*
X100152562Y-102355313D01*
X100152562Y-102543342D01*
X100181973Y-102729041D01*
X100240076Y-102907861D01*
X100325436Y-103075386D01*
X100435942Y-103227486D01*
X100435946Y-103227491D01*
X100568898Y-103360443D01*
X100568903Y-103360447D01*
X100700357Y-103455953D01*
X100721007Y-103470956D01*
X100827752Y-103525345D01*
X100888528Y-103556313D01*
X100888530Y-103556313D01*
X100888533Y-103556315D01*
X100972747Y-103583678D01*
X101027280Y-103601397D01*
X101084955Y-103640835D01*
X101112153Y-103705194D01*
X101100238Y-103774040D01*
X101052994Y-103825516D01*
X101027280Y-103837259D01*
X100888528Y-103882342D01*
X100721003Y-103967702D01*
X100568903Y-104078208D01*
X100568898Y-104078212D01*
X100435946Y-104211164D01*
X100435942Y-104211169D01*
X100325436Y-104363269D01*
X100240076Y-104530794D01*
X100181973Y-104709614D01*
X100152562Y-104895313D01*
X100152562Y-105083342D01*
X100181973Y-105269041D01*
X100240076Y-105447861D01*
X100325436Y-105615386D01*
X100435942Y-105767486D01*
X100435946Y-105767491D01*
X100568898Y-105900443D01*
X100568903Y-105900447D01*
X100700357Y-105995953D01*
X100721007Y-106010956D01*
X100827752Y-106065345D01*
X100888528Y-106096313D01*
X100888530Y-106096313D01*
X100888533Y-106096315D01*
X100972747Y-106123678D01*
X101027280Y-106141397D01*
X101084955Y-106180835D01*
X101112153Y-106245194D01*
X101100238Y-106314040D01*
X101052994Y-106365516D01*
X101027280Y-106377259D01*
X100888528Y-106422342D01*
X100721003Y-106507702D01*
X100568903Y-106618208D01*
X100568898Y-106618212D01*
X100435946Y-106751164D01*
X100435942Y-106751169D01*
X100325436Y-106903269D01*
X100240076Y-107070794D01*
X100181973Y-107249614D01*
X100152562Y-107435313D01*
X100152562Y-107623342D01*
X100181973Y-107809041D01*
X100240076Y-107987861D01*
X100325436Y-108155386D01*
X100435942Y-108307486D01*
X100435946Y-108307491D01*
X100568898Y-108440443D01*
X100568903Y-108440447D01*
X100700357Y-108535953D01*
X100721007Y-108550956D01*
X100827752Y-108605345D01*
X100888528Y-108636313D01*
X100888530Y-108636313D01*
X100888533Y-108636315D01*
X100984382Y-108667458D01*
X101067348Y-108694416D01*
X101253048Y-108723828D01*
X101253053Y-108723828D01*
X101441076Y-108723828D01*
X101626775Y-108694416D01*
X101672940Y-108679416D01*
X101805591Y-108636315D01*
X101973117Y-108550956D01*
X102125227Y-108440442D01*
X102258176Y-108307493D01*
X102368690Y-108155383D01*
X102454049Y-107987857D01*
X102512150Y-107809041D01*
X102514526Y-107794041D01*
X102541562Y-107623342D01*
X102541562Y-107435313D01*
X102512150Y-107249614D01*
X102457932Y-107082750D01*
X102454049Y-107070799D01*
X102454047Y-107070796D01*
X102454047Y-107070794D01*
X102423079Y-107010018D01*
X102368690Y-106903273D01*
X102354570Y-106883839D01*
X102258181Y-106751169D01*
X102258177Y-106751164D01*
X102125225Y-106618212D01*
X102125220Y-106618208D01*
X101973120Y-106507702D01*
X101973119Y-106507701D01*
X101973117Y-106507700D01*
X101920802Y-106481044D01*
X101805595Y-106422342D01*
X101666843Y-106377259D01*
X101609168Y-106337821D01*
X101581970Y-106273462D01*
X101593885Y-106204616D01*
X101641129Y-106153140D01*
X101666843Y-106141397D01*
X101676867Y-106138140D01*
X101805591Y-106096315D01*
X101973117Y-106010956D01*
X102125227Y-105900442D01*
X102258176Y-105767493D01*
X102368690Y-105615383D01*
X102454049Y-105447857D01*
X102512150Y-105269041D01*
X102514526Y-105254041D01*
X102541562Y-105083342D01*
X102541562Y-104895313D01*
X102512150Y-104709614D01*
X102454047Y-104530794D01*
X102423079Y-104470018D01*
X102368690Y-104363273D01*
X102354570Y-104343839D01*
X102258181Y-104211169D01*
X102258177Y-104211164D01*
X102125225Y-104078212D01*
X102125220Y-104078208D01*
X101973120Y-103967702D01*
X101973119Y-103967701D01*
X101973117Y-103967700D01*
X101920802Y-103941044D01*
X101805595Y-103882342D01*
X101666843Y-103837259D01*
X101609168Y-103797821D01*
X101581970Y-103733462D01*
X101593885Y-103664616D01*
X101641129Y-103613140D01*
X101666843Y-103601397D01*
X101676867Y-103598140D01*
X101805591Y-103556315D01*
X101973117Y-103470956D01*
X102125227Y-103360442D01*
X102258176Y-103227493D01*
X102368690Y-103075383D01*
X102454049Y-102907857D01*
X102512150Y-102729041D01*
X102514526Y-102714041D01*
X102541562Y-102543342D01*
X102541562Y-102355313D01*
X102512150Y-102169614D01*
X102483301Y-102080828D01*
X102454049Y-101990799D01*
X102454047Y-101990796D01*
X102454047Y-101990794D01*
X102415081Y-101914321D01*
X102368690Y-101823273D01*
X102354570Y-101803839D01*
X102258181Y-101671169D01*
X102258177Y-101671164D01*
X102125225Y-101538212D01*
X102125220Y-101538208D01*
X101973120Y-101427702D01*
X101973119Y-101427701D01*
X101973117Y-101427700D01*
X101920802Y-101401044D01*
X101805595Y-101342342D01*
X101666843Y-101297259D01*
X101609168Y-101257821D01*
X101581970Y-101193462D01*
X101593885Y-101124616D01*
X101641129Y-101073140D01*
X101666843Y-101061397D01*
X101676867Y-101058140D01*
X101805591Y-101016315D01*
X101973117Y-100930956D01*
X102125227Y-100820442D01*
X102258176Y-100687493D01*
X102368690Y-100535383D01*
X102454049Y-100367857D01*
X102512150Y-100189041D01*
X102514526Y-100174041D01*
X102541562Y-100003342D01*
X102541562Y-99815313D01*
X102512150Y-99629614D01*
X102485192Y-99546648D01*
X102454049Y-99450799D01*
X102454047Y-99450796D01*
X102454047Y-99450794D01*
X102423079Y-99390018D01*
X102368690Y-99283273D01*
X102354570Y-99263839D01*
X102258181Y-99131169D01*
X102258177Y-99131164D01*
X102125225Y-98998212D01*
X102125220Y-98998208D01*
X101973120Y-98887702D01*
X101973119Y-98887701D01*
X101973117Y-98887700D01*
X101920802Y-98861044D01*
X101805595Y-98802342D01*
X101666843Y-98757259D01*
X101609168Y-98717821D01*
X101581970Y-98653462D01*
X101593885Y-98584616D01*
X101641129Y-98533140D01*
X101666843Y-98521397D01*
X101676867Y-98518140D01*
X101805591Y-98476315D01*
X101973117Y-98390956D01*
X102125227Y-98280442D01*
X102258176Y-98147493D01*
X102368690Y-97995383D01*
X102454049Y-97827857D01*
X102512150Y-97649041D01*
X102525941Y-97561967D01*
X102541562Y-97463342D01*
X102541562Y-97275313D01*
X102512150Y-97089614D01*
X102454047Y-96910794D01*
X102423079Y-96850018D01*
X102368690Y-96743273D01*
X102321767Y-96678689D01*
X102258181Y-96591169D01*
X102258177Y-96591164D01*
X102125225Y-96458212D01*
X102125220Y-96458208D01*
X101973120Y-96347702D01*
X101973119Y-96347701D01*
X101973117Y-96347700D01*
X101920802Y-96321044D01*
X101805595Y-96262342D01*
X101666843Y-96217259D01*
X101609168Y-96177821D01*
X101581970Y-96113462D01*
X101593885Y-96044616D01*
X101641129Y-95993140D01*
X101666843Y-95981397D01*
X101676867Y-95978140D01*
X101805591Y-95936315D01*
X101973117Y-95850956D01*
X102125227Y-95740442D01*
X102258176Y-95607493D01*
X102368690Y-95455383D01*
X102454049Y-95287857D01*
X102512150Y-95109041D01*
X102514526Y-95094041D01*
X102541562Y-94923342D01*
X102541562Y-94735313D01*
X102512150Y-94549614D01*
X102454047Y-94370794D01*
X102409068Y-94282519D01*
X102368690Y-94203273D01*
X102354570Y-94183839D01*
X102258181Y-94051169D01*
X102258177Y-94051164D01*
X102125225Y-93918212D01*
X102125220Y-93918208D01*
X101973120Y-93807702D01*
X101973119Y-93807701D01*
X101973117Y-93807700D01*
X101920802Y-93781044D01*
X101805595Y-93722342D01*
X101666843Y-93677259D01*
X101609168Y-93637821D01*
X101581970Y-93573462D01*
X101593885Y-93504616D01*
X101641129Y-93453140D01*
X101666843Y-93441397D01*
X101676867Y-93438140D01*
X101805591Y-93396315D01*
X101973117Y-93310956D01*
X102125227Y-93200442D01*
X102258176Y-93067493D01*
X102368690Y-92915383D01*
X102454049Y-92747857D01*
X102512150Y-92569041D01*
X102514526Y-92554041D01*
X102530550Y-92452871D01*
X121701561Y-92452871D01*
X121740009Y-92646157D01*
X121740012Y-92646167D01*
X121815426Y-92828235D01*
X121815433Y-92828248D01*
X121924922Y-92992109D01*
X121924925Y-92992113D01*
X122064276Y-93131464D01*
X122064280Y-93131467D01*
X122228141Y-93240956D01*
X122228154Y-93240963D01*
X122410222Y-93316377D01*
X122410227Y-93316379D01*
X122410231Y-93316379D01*
X122410232Y-93316380D01*
X122603518Y-93354828D01*
X122603521Y-93354828D01*
X122800605Y-93354828D01*
X122930644Y-93328960D01*
X122993897Y-93316379D01*
X123175976Y-93240960D01*
X123339844Y-93131467D01*
X123479201Y-92992110D01*
X123588694Y-92828242D01*
X123664113Y-92646163D01*
X123702562Y-92452869D01*
X123702562Y-92255787D01*
X123702562Y-92255784D01*
X123664114Y-92062498D01*
X123664113Y-92062497D01*
X123664113Y-92062493D01*
X123664111Y-92062488D01*
X123588697Y-91880420D01*
X123588690Y-91880407D01*
X123479201Y-91716546D01*
X123479198Y-91716542D01*
X123339847Y-91577191D01*
X123339843Y-91577188D01*
X123175982Y-91467699D01*
X123175969Y-91467692D01*
X122993901Y-91392278D01*
X122993891Y-91392275D01*
X122800605Y-91353828D01*
X122800603Y-91353828D01*
X122603521Y-91353828D01*
X122603519Y-91353828D01*
X122410232Y-91392275D01*
X122410222Y-91392278D01*
X122228154Y-91467692D01*
X122228141Y-91467699D01*
X122064280Y-91577188D01*
X122064276Y-91577191D01*
X121924925Y-91716542D01*
X121924922Y-91716546D01*
X121815433Y-91880407D01*
X121815426Y-91880420D01*
X121740012Y-92062488D01*
X121740009Y-92062498D01*
X121701562Y-92255784D01*
X121701562Y-92255787D01*
X121701562Y-92452869D01*
X121701562Y-92452871D01*
X121701561Y-92452871D01*
X102530550Y-92452871D01*
X102541562Y-92383342D01*
X102541562Y-92195313D01*
X102512150Y-92009614D01*
X102470170Y-91880414D01*
X102454049Y-91830799D01*
X102454047Y-91830796D01*
X102454047Y-91830794D01*
X102381412Y-91688242D01*
X102368690Y-91663273D01*
X102306146Y-91577188D01*
X102258181Y-91511169D01*
X102258177Y-91511164D01*
X102125225Y-91378212D01*
X102125220Y-91378208D01*
X102035290Y-91312871D01*
X111861561Y-91312871D01*
X111900009Y-91506157D01*
X111900012Y-91506167D01*
X111975426Y-91688235D01*
X111975433Y-91688248D01*
X112084922Y-91852109D01*
X112084925Y-91852113D01*
X112224276Y-91991464D01*
X112224280Y-91991467D01*
X112388141Y-92100956D01*
X112388154Y-92100963D01*
X112570222Y-92176377D01*
X112570227Y-92176379D01*
X112570231Y-92176379D01*
X112570232Y-92176380D01*
X112763518Y-92214828D01*
X112763521Y-92214828D01*
X112960605Y-92214828D01*
X113090644Y-92188960D01*
X113153897Y-92176379D01*
X113199489Y-92157494D01*
X113253473Y-92135134D01*
X113335969Y-92100963D01*
X113335969Y-92100962D01*
X113335976Y-92100960D01*
X113499844Y-91991467D01*
X113639201Y-91852110D01*
X113748694Y-91688242D01*
X113824113Y-91506163D01*
X113836694Y-91442910D01*
X113862562Y-91312871D01*
X113862562Y-91115784D01*
X113824114Y-90922498D01*
X113824113Y-90922497D01*
X113824113Y-90922493D01*
X113824111Y-90922488D01*
X113748697Y-90740420D01*
X113748690Y-90740407D01*
X113639201Y-90576546D01*
X113639198Y-90576542D01*
X113499847Y-90437191D01*
X113499843Y-90437188D01*
X113335982Y-90327699D01*
X113335969Y-90327692D01*
X113153901Y-90252278D01*
X113153891Y-90252275D01*
X112960605Y-90213828D01*
X112960603Y-90213828D01*
X112763521Y-90213828D01*
X112763519Y-90213828D01*
X112570232Y-90252275D01*
X112570222Y-90252278D01*
X112388154Y-90327692D01*
X112388141Y-90327699D01*
X112224280Y-90437188D01*
X112224276Y-90437191D01*
X112084925Y-90576542D01*
X112084922Y-90576546D01*
X111975433Y-90740407D01*
X111975426Y-90740420D01*
X111900012Y-90922488D01*
X111900009Y-90922498D01*
X111861562Y-91115784D01*
X111861562Y-91115787D01*
X111861562Y-91312869D01*
X111861562Y-91312871D01*
X111861561Y-91312871D01*
X102035290Y-91312871D01*
X101973120Y-91267702D01*
X101973119Y-91267701D01*
X101973117Y-91267700D01*
X101805591Y-91182341D01*
X101663387Y-91136136D01*
X101659985Y-91134805D01*
X101635126Y-91115571D01*
X101609168Y-91097821D01*
X101607702Y-91094352D01*
X101604725Y-91092049D01*
X101594210Y-91062426D01*
X101581970Y-91033462D01*
X101582612Y-91029751D01*
X101581353Y-91026204D01*
X101588523Y-90995593D01*
X101593885Y-90964616D01*
X101596430Y-90961842D01*
X101597289Y-90958177D01*
X101619866Y-90936307D01*
X101641129Y-90913140D01*
X101646150Y-90910846D01*
X101647475Y-90909564D01*
X101650125Y-90909031D01*
X101666843Y-90901397D01*
X101676867Y-90898140D01*
X101805591Y-90856315D01*
X101973117Y-90770956D01*
X102125227Y-90660442D01*
X102258176Y-90527493D01*
X102368690Y-90375383D01*
X102454049Y-90207857D01*
X102512150Y-90029041D01*
X102514526Y-90014041D01*
X102541562Y-89843342D01*
X102541562Y-89655313D01*
X102512150Y-89469614D01*
X102455041Y-89293852D01*
X102454049Y-89290799D01*
X102454047Y-89290796D01*
X102454047Y-89290794D01*
X102396654Y-89178156D01*
X102368690Y-89123273D01*
X102307444Y-89038975D01*
X102258181Y-88971169D01*
X102258177Y-88971164D01*
X102125225Y-88838212D01*
X102125220Y-88838208D01*
X101973120Y-88727702D01*
X101973119Y-88727701D01*
X101973117Y-88727700D01*
X101920802Y-88701044D01*
X101805595Y-88642342D01*
X101666843Y-88597259D01*
X101609168Y-88557821D01*
X101581970Y-88493462D01*
X101593885Y-88424616D01*
X101641129Y-88373140D01*
X101666843Y-88361397D01*
X101676867Y-88358140D01*
X101805591Y-88316315D01*
X101973117Y-88230956D01*
X102117708Y-88125905D01*
X110011562Y-88125905D01*
X110011562Y-88322750D01*
X110042352Y-88517154D01*
X110103179Y-88704357D01*
X110163737Y-88823208D01*
X110192538Y-88879733D01*
X110308234Y-89038974D01*
X110447416Y-89178156D01*
X110606657Y-89293852D01*
X110689517Y-89336071D01*
X110782032Y-89383210D01*
X110782034Y-89383210D01*
X110782037Y-89383212D01*
X110882379Y-89415815D01*
X110969235Y-89444037D01*
X111163640Y-89474828D01*
X111163645Y-89474828D01*
X111360484Y-89474828D01*
X111554888Y-89444037D01*
X111742087Y-89383212D01*
X111917467Y-89293852D01*
X112076708Y-89178156D01*
X112215890Y-89038974D01*
X112331586Y-88879733D01*
X112420946Y-88704353D01*
X112481771Y-88517154D01*
X112490001Y-88465194D01*
X112512562Y-88322750D01*
X112512562Y-88125905D01*
X112481771Y-87931501D01*
X112420944Y-87744298D01*
X112331585Y-87568922D01*
X112215890Y-87409682D01*
X112076708Y-87270500D01*
X111917467Y-87154804D01*
X111742091Y-87065445D01*
X111554888Y-87004618D01*
X111360484Y-86973828D01*
X111360479Y-86973828D01*
X111163645Y-86973828D01*
X111163640Y-86973828D01*
X110969235Y-87004618D01*
X110782032Y-87065445D01*
X110606656Y-87154804D01*
X110515803Y-87220813D01*
X110447416Y-87270500D01*
X110447414Y-87270502D01*
X110447413Y-87270502D01*
X110308236Y-87409679D01*
X110308236Y-87409680D01*
X110308234Y-87409682D01*
X110277376Y-87452154D01*
X110192538Y-87568922D01*
X110103179Y-87744298D01*
X110042352Y-87931501D01*
X110011562Y-88125905D01*
X102117708Y-88125905D01*
X102125227Y-88120442D01*
X102258176Y-87987493D01*
X102368690Y-87835383D01*
X102454049Y-87667857D01*
X102512150Y-87489041D01*
X102524719Y-87409682D01*
X102541562Y-87303342D01*
X102541562Y-87115313D01*
X102512150Y-86929614D01*
X102454047Y-86750794D01*
X102417617Y-86679298D01*
X102368690Y-86583273D01*
X102311039Y-86503923D01*
X102258181Y-86431169D01*
X102258177Y-86431164D01*
X102125225Y-86298212D01*
X102125220Y-86298208D01*
X101973120Y-86187702D01*
X101973119Y-86187701D01*
X101973117Y-86187700D01*
X101920802Y-86161044D01*
X101805595Y-86102342D01*
X101666843Y-86057259D01*
X101609168Y-86017821D01*
X101581970Y-85953462D01*
X101593885Y-85884616D01*
X101641129Y-85833140D01*
X101666843Y-85821397D01*
X101676867Y-85818140D01*
X101805591Y-85776315D01*
X101973117Y-85690956D01*
X102125227Y-85580442D01*
X102258176Y-85447493D01*
X102368690Y-85295383D01*
X102454049Y-85127857D01*
X102512150Y-84949041D01*
X102514526Y-84934041D01*
X102541562Y-84763342D01*
X102541562Y-84575313D01*
X102512150Y-84389614D01*
X102454047Y-84210794D01*
X102423079Y-84150018D01*
X102368690Y-84043273D01*
X102354570Y-84023839D01*
X102258181Y-83891169D01*
X102258177Y-83891164D01*
X102125225Y-83758212D01*
X102125220Y-83758208D01*
X101973120Y-83647702D01*
X101973119Y-83647701D01*
X101973117Y-83647700D01*
X101920802Y-83621044D01*
X101805595Y-83562342D01*
X101666843Y-83517259D01*
X101609168Y-83477821D01*
X101581970Y-83413462D01*
X101593885Y-83344616D01*
X101641129Y-83293140D01*
X101666843Y-83281397D01*
X101676867Y-83278140D01*
X101805591Y-83236315D01*
X101973117Y-83150956D01*
X102125227Y-83040442D01*
X102258176Y-82907493D01*
X102368690Y-82755383D01*
X102454049Y-82587857D01*
X102512150Y-82409041D01*
X102520141Y-82358587D01*
X102541562Y-82223342D01*
X102541562Y-82035313D01*
X102512150Y-81849614D01*
X102454047Y-81670794D01*
X102395301Y-81555500D01*
X102368690Y-81503273D01*
X102322577Y-81439804D01*
X102258181Y-81351169D01*
X102258177Y-81351164D01*
X102125225Y-81218212D01*
X102125220Y-81218208D01*
X101973120Y-81107702D01*
X101973119Y-81107701D01*
X101973117Y-81107700D01*
X101920802Y-81081044D01*
X101805595Y-81022342D01*
X101666843Y-80977259D01*
X101609168Y-80937821D01*
X101581970Y-80873462D01*
X101593885Y-80804616D01*
X101641129Y-80753140D01*
X101666843Y-80741397D01*
X101676867Y-80738140D01*
X101805591Y-80696315D01*
X101973117Y-80610956D01*
X102125227Y-80500442D01*
X102258176Y-80367493D01*
X102368690Y-80215383D01*
X102454049Y-80047857D01*
X102512150Y-79869041D01*
X102525607Y-79784075D01*
X102541562Y-79683342D01*
X102541562Y-79495313D01*
X102512150Y-79309614D01*
X102470633Y-79181839D01*
X102454049Y-79130799D01*
X102454047Y-79130796D01*
X102454047Y-79130794D01*
X102423079Y-79070018D01*
X102368690Y-78963273D01*
X102354570Y-78943839D01*
X102258181Y-78811169D01*
X102258177Y-78811164D01*
X102125225Y-78678212D01*
X102125220Y-78678208D01*
X101973120Y-78567702D01*
X101973119Y-78567701D01*
X101973117Y-78567700D01*
X101904377Y-78532675D01*
X101805595Y-78482342D01*
X101666843Y-78437259D01*
X101609168Y-78397821D01*
X101581970Y-78333462D01*
X101593885Y-78264616D01*
X101641129Y-78213140D01*
X101666843Y-78201397D01*
X101676867Y-78198140D01*
X101805591Y-78156315D01*
X101973117Y-78070956D01*
X102125227Y-77960442D01*
X102258176Y-77827493D01*
X102368690Y-77675383D01*
X102454049Y-77507857D01*
X102512150Y-77329041D01*
X102528128Y-77228160D01*
X102541562Y-77143342D01*
X102541562Y-76955313D01*
X102512150Y-76769614D01*
X102485192Y-76686648D01*
X102454049Y-76590799D01*
X102454047Y-76590796D01*
X102454047Y-76590794D01*
X102417720Y-76519500D01*
X102368690Y-76423273D01*
X102354570Y-76403839D01*
X102258181Y-76271169D01*
X102258177Y-76271164D01*
X102125225Y-76138212D01*
X102125220Y-76138208D01*
X101973120Y-76027702D01*
X101973119Y-76027701D01*
X101973117Y-76027700D01*
X101920802Y-76001044D01*
X101805595Y-75942342D01*
X101666843Y-75897259D01*
X101609168Y-75857821D01*
X101581970Y-75793462D01*
X101593885Y-75724616D01*
X101641129Y-75673140D01*
X101666843Y-75661397D01*
X101676867Y-75658140D01*
X101805591Y-75616315D01*
X101973117Y-75530956D01*
X102125227Y-75420442D01*
X102258176Y-75287493D01*
X102368690Y-75135383D01*
X102412937Y-75048543D01*
X121789499Y-75048543D01*
X121827947Y-75241829D01*
X121827950Y-75241839D01*
X121903364Y-75423907D01*
X121903371Y-75423920D01*
X122012860Y-75587781D01*
X122012863Y-75587785D01*
X122152214Y-75727136D01*
X122152218Y-75727139D01*
X122316079Y-75836628D01*
X122316092Y-75836635D01*
X122498160Y-75912049D01*
X122498165Y-75912051D01*
X122498169Y-75912051D01*
X122498170Y-75912052D01*
X122691456Y-75950500D01*
X122691459Y-75950500D01*
X122888543Y-75950500D01*
X123018582Y-75924632D01*
X123081835Y-75912051D01*
X123263914Y-75836632D01*
X123427782Y-75727139D01*
X123567139Y-75587782D01*
X123676632Y-75423914D01*
X123752051Y-75241835D01*
X123790500Y-75048541D01*
X123790500Y-74851459D01*
X123790500Y-74851456D01*
X123752052Y-74658170D01*
X123752051Y-74658169D01*
X123752051Y-74658165D01*
X123723128Y-74588337D01*
X123676635Y-74476092D01*
X123676628Y-74476079D01*
X123567139Y-74312218D01*
X123567136Y-74312214D01*
X123427785Y-74172863D01*
X123427781Y-74172860D01*
X123263920Y-74063371D01*
X123263907Y-74063364D01*
X123081839Y-73987950D01*
X123081829Y-73987947D01*
X122888543Y-73949500D01*
X122888541Y-73949500D01*
X122691459Y-73949500D01*
X122691457Y-73949500D01*
X122498170Y-73987947D01*
X122498160Y-73987950D01*
X122316092Y-74063364D01*
X122316079Y-74063371D01*
X122152218Y-74172860D01*
X122152214Y-74172863D01*
X122012863Y-74312214D01*
X122012860Y-74312218D01*
X121903371Y-74476079D01*
X121903364Y-74476092D01*
X121827950Y-74658160D01*
X121827947Y-74658170D01*
X121789500Y-74851456D01*
X121789500Y-74851459D01*
X121789500Y-75048541D01*
X121789500Y-75048543D01*
X121789499Y-75048543D01*
X102412937Y-75048543D01*
X102454049Y-74967857D01*
X102512150Y-74789041D01*
X102527303Y-74693366D01*
X102541562Y-74603342D01*
X102541562Y-74415313D01*
X102512150Y-74229614D01*
X102458133Y-74063368D01*
X102454049Y-74050799D01*
X102454047Y-74050796D01*
X102454047Y-74050794D01*
X102402434Y-73949500D01*
X102368690Y-73883273D01*
X102354570Y-73863839D01*
X102258181Y-73731169D01*
X102258177Y-73731164D01*
X102125225Y-73598212D01*
X102125220Y-73598208D01*
X101973120Y-73487702D01*
X101973119Y-73487701D01*
X101973117Y-73487700D01*
X101805591Y-73402341D01*
X101801250Y-73400129D01*
X101801732Y-73399182D01*
X101751309Y-73358558D01*
X101729237Y-73292267D01*
X101746508Y-73224565D01*
X101797640Y-73176949D01*
X101853156Y-73163827D01*
X102088934Y-73163827D01*
X102148545Y-73157419D01*
X102283393Y-73107124D01*
X102398608Y-73020874D01*
X102484858Y-72905659D01*
X102535153Y-72770811D01*
X102541562Y-72711201D01*
X102541561Y-72172871D01*
X115141561Y-72172871D01*
X115180009Y-72366157D01*
X115180012Y-72366167D01*
X115255426Y-72548235D01*
X115255433Y-72548248D01*
X115364922Y-72712109D01*
X115364925Y-72712113D01*
X115504276Y-72851464D01*
X115504280Y-72851467D01*
X115668141Y-72960956D01*
X115668154Y-72960963D01*
X115850222Y-73036377D01*
X115850227Y-73036379D01*
X115850231Y-73036379D01*
X115850232Y-73036380D01*
X116043518Y-73074828D01*
X116043521Y-73074828D01*
X116240605Y-73074828D01*
X116370644Y-73048960D01*
X116433897Y-73036379D01*
X116615976Y-72960960D01*
X116779844Y-72851467D01*
X116919201Y-72712110D01*
X117028694Y-72548242D01*
X117104113Y-72366163D01*
X117130426Y-72233881D01*
X117142562Y-72172871D01*
X117142562Y-71975784D01*
X117104114Y-71782498D01*
X117104113Y-71782497D01*
X117104113Y-71782493D01*
X117044712Y-71639085D01*
X117028697Y-71600420D01*
X117028690Y-71600407D01*
X116919201Y-71436546D01*
X116919198Y-71436542D01*
X116779847Y-71297191D01*
X116779843Y-71297188D01*
X116615982Y-71187699D01*
X116615969Y-71187692D01*
X116433901Y-71112278D01*
X116433891Y-71112275D01*
X116240605Y-71073828D01*
X116240603Y-71073828D01*
X116043521Y-71073828D01*
X116043519Y-71073828D01*
X115850232Y-71112275D01*
X115850222Y-71112278D01*
X115668154Y-71187692D01*
X115668141Y-71187699D01*
X115504280Y-71297188D01*
X115504276Y-71297191D01*
X115364925Y-71436542D01*
X115364922Y-71436546D01*
X115255433Y-71600407D01*
X115255426Y-71600420D01*
X115180012Y-71782488D01*
X115180009Y-71782498D01*
X115141562Y-71975784D01*
X115141562Y-71975787D01*
X115141562Y-72172869D01*
X115141562Y-72172871D01*
X115141561Y-72172871D01*
X102541561Y-72172871D01*
X102541561Y-71821166D01*
X102541561Y-71227457D01*
X102541560Y-71227451D01*
X102541559Y-71227444D01*
X102535153Y-71167845D01*
X102529558Y-71152845D01*
X102484859Y-71032999D01*
X102484855Y-71032992D01*
X102398609Y-70917783D01*
X102398606Y-70917780D01*
X102283397Y-70831534D01*
X102283390Y-70831530D01*
X102148544Y-70781236D01*
X102148545Y-70781236D01*
X102088945Y-70774829D01*
X102088943Y-70774828D01*
X102088935Y-70774828D01*
X102088926Y-70774828D01*
X100605191Y-70774828D01*
X100605185Y-70774829D01*
X100545578Y-70781236D01*
X100410733Y-70831530D01*
X100410726Y-70831534D01*
X100295517Y-70917780D01*
X100295514Y-70917783D01*
X100209268Y-71032992D01*
X100209264Y-71032999D01*
X100158970Y-71167845D01*
X100152563Y-71227444D01*
X100152563Y-71227451D01*
X100152562Y-71227463D01*
X95538337Y-71227463D01*
X95504114Y-71055416D01*
X95504113Y-71055415D01*
X95504113Y-71055411D01*
X95440893Y-70902783D01*
X95428697Y-70873338D01*
X95428690Y-70873325D01*
X95319201Y-70709464D01*
X95319198Y-70709460D01*
X95179847Y-70570109D01*
X95179843Y-70570106D01*
X95015982Y-70460617D01*
X95015969Y-70460610D01*
X94833901Y-70385196D01*
X94833891Y-70385193D01*
X94640605Y-70346746D01*
X94640603Y-70346746D01*
X94443521Y-70346746D01*
X94443519Y-70346746D01*
X94250232Y-70385193D01*
X94250222Y-70385196D01*
X94068154Y-70460610D01*
X94068141Y-70460617D01*
X93904280Y-70570106D01*
X93904276Y-70570109D01*
X93764925Y-70709460D01*
X93764922Y-70709464D01*
X93655433Y-70873325D01*
X93655426Y-70873338D01*
X93580012Y-71055406D01*
X93580009Y-71055416D01*
X93541562Y-71248702D01*
X93541562Y-71248704D01*
X93541562Y-71248705D01*
X93541562Y-71445787D01*
X93541562Y-71445789D01*
X93541561Y-71445789D01*
X87354061Y-71445789D01*
X87354061Y-71212456D01*
X87347653Y-71152845D01*
X87332521Y-71112275D01*
X87297359Y-71017999D01*
X87297355Y-71017992D01*
X87211109Y-70902783D01*
X87211106Y-70902780D01*
X87095897Y-70816534D01*
X87095890Y-70816530D01*
X86961044Y-70766236D01*
X86961045Y-70766236D01*
X86901445Y-70759829D01*
X86901443Y-70759828D01*
X86901435Y-70759828D01*
X86901426Y-70759828D01*
X85417691Y-70759828D01*
X85417685Y-70759829D01*
X85358078Y-70766236D01*
X85223233Y-70816530D01*
X85223226Y-70816534D01*
X85108017Y-70902780D01*
X85108014Y-70902783D01*
X85021768Y-71017992D01*
X85021764Y-71017999D01*
X84971470Y-71152845D01*
X84965063Y-71212444D01*
X84965063Y-71212451D01*
X84965062Y-71212463D01*
X82805157Y-71212463D01*
X82805157Y-68652871D01*
X93541561Y-68652871D01*
X93580009Y-68846157D01*
X93580012Y-68846167D01*
X93655426Y-69028235D01*
X93655433Y-69028248D01*
X93764922Y-69192109D01*
X93764925Y-69192113D01*
X93904276Y-69331464D01*
X93904280Y-69331467D01*
X94068141Y-69440956D01*
X94068154Y-69440963D01*
X94250222Y-69516377D01*
X94250227Y-69516379D01*
X94250231Y-69516379D01*
X94250232Y-69516380D01*
X94443518Y-69554828D01*
X94443521Y-69554828D01*
X94640605Y-69554828D01*
X94779713Y-69527157D01*
X94833897Y-69516379D01*
X95015976Y-69440960D01*
X95179844Y-69331467D01*
X95319201Y-69192110D01*
X95428694Y-69028242D01*
X95504113Y-68846163D01*
X95541492Y-68658248D01*
X95542562Y-68652871D01*
X95542562Y-68455784D01*
X95508167Y-68282871D01*
X119471561Y-68282871D01*
X119510009Y-68476157D01*
X119510012Y-68476167D01*
X119585426Y-68658235D01*
X119585433Y-68658248D01*
X119694922Y-68822109D01*
X119694925Y-68822113D01*
X119834276Y-68961464D01*
X119834280Y-68961467D01*
X119998141Y-69070956D01*
X119998154Y-69070963D01*
X120180222Y-69146377D01*
X120180227Y-69146379D01*
X120180231Y-69146379D01*
X120180232Y-69146380D01*
X120373518Y-69184828D01*
X120373521Y-69184828D01*
X120570605Y-69184828D01*
X120700644Y-69158960D01*
X120763897Y-69146379D01*
X120945976Y-69070960D01*
X121109844Y-68961467D01*
X121131332Y-68939979D01*
X121253509Y-68817803D01*
X121255179Y-68819473D01*
X121304237Y-68786015D01*
X121374080Y-68784104D01*
X121433870Y-68820256D01*
X121464622Y-68882994D01*
X121461076Y-68939979D01*
X121460011Y-68943489D01*
X121421562Y-69136784D01*
X121421562Y-69136787D01*
X121421562Y-69333869D01*
X121421562Y-69333871D01*
X121421561Y-69333871D01*
X121460009Y-69527157D01*
X121460012Y-69527167D01*
X121535426Y-69709235D01*
X121535433Y-69709248D01*
X121644922Y-69873109D01*
X121644925Y-69873113D01*
X121784276Y-70012464D01*
X121784280Y-70012467D01*
X121948141Y-70121956D01*
X121948154Y-70121963D01*
X122130222Y-70197377D01*
X122130227Y-70197379D01*
X122130231Y-70197379D01*
X122130232Y-70197380D01*
X122323518Y-70235828D01*
X122323521Y-70235828D01*
X122520605Y-70235828D01*
X122650644Y-70209960D01*
X122713897Y-70197379D01*
X122895976Y-70121960D01*
X123059844Y-70012467D01*
X123199201Y-69873110D01*
X123308694Y-69709242D01*
X123384113Y-69527163D01*
X123396694Y-69463910D01*
X123422562Y-69333871D01*
X123422562Y-69136784D01*
X123384114Y-68943498D01*
X123384113Y-68943497D01*
X123384113Y-68943493D01*
X123384111Y-68943488D01*
X123308697Y-68761420D01*
X123308690Y-68761407D01*
X123199201Y-68597546D01*
X123199198Y-68597542D01*
X123059847Y-68458191D01*
X123059843Y-68458188D01*
X122895982Y-68348699D01*
X122895969Y-68348692D01*
X122713901Y-68273278D01*
X122713891Y-68273275D01*
X122520605Y-68234828D01*
X122520603Y-68234828D01*
X122323521Y-68234828D01*
X122323519Y-68234828D01*
X122130232Y-68273275D01*
X122130222Y-68273278D01*
X121948154Y-68348692D01*
X121948141Y-68348699D01*
X121784280Y-68458188D01*
X121784276Y-68458191D01*
X121640615Y-68601853D01*
X121638956Y-68600194D01*
X121589800Y-68633668D01*
X121519955Y-68635528D01*
X121460192Y-68599332D01*
X121429485Y-68536572D01*
X121433051Y-68479661D01*
X121434111Y-68476167D01*
X121434113Y-68476163D01*
X121437688Y-68458189D01*
X121472562Y-68282871D01*
X121472562Y-68085784D01*
X121434114Y-67892498D01*
X121434113Y-67892497D01*
X121434113Y-67892493D01*
X121386353Y-67777189D01*
X121358697Y-67710420D01*
X121358690Y-67710407D01*
X121249201Y-67546546D01*
X121249198Y-67546542D01*
X121109847Y-67407191D01*
X121109843Y-67407188D01*
X120945982Y-67297699D01*
X120945969Y-67297692D01*
X120763901Y-67222278D01*
X120763891Y-67222275D01*
X120570605Y-67183828D01*
X120570603Y-67183828D01*
X120373521Y-67183828D01*
X120373519Y-67183828D01*
X120180232Y-67222275D01*
X120180222Y-67222278D01*
X119998154Y-67297692D01*
X119998141Y-67297699D01*
X119834280Y-67407188D01*
X119834276Y-67407191D01*
X119694925Y-67546542D01*
X119694922Y-67546546D01*
X119585433Y-67710407D01*
X119585426Y-67710420D01*
X119510012Y-67892488D01*
X119510009Y-67892498D01*
X119471562Y-68085784D01*
X119471562Y-68085787D01*
X119471562Y-68282869D01*
X119471562Y-68282871D01*
X119471561Y-68282871D01*
X95508167Y-68282871D01*
X95504114Y-68262498D01*
X95504113Y-68262497D01*
X95504113Y-68262493D01*
X95430920Y-68085787D01*
X95428697Y-68080420D01*
X95428690Y-68080407D01*
X95319201Y-67916546D01*
X95319198Y-67916542D01*
X95179847Y-67777191D01*
X95179843Y-67777188D01*
X95015982Y-67667699D01*
X95015969Y-67667692D01*
X94833901Y-67592278D01*
X94833891Y-67592275D01*
X94640605Y-67553828D01*
X94640603Y-67553828D01*
X94443521Y-67553828D01*
X94443519Y-67553828D01*
X94250232Y-67592275D01*
X94250222Y-67592278D01*
X94068154Y-67667692D01*
X94068141Y-67667699D01*
X93904280Y-67777188D01*
X93904276Y-67777191D01*
X93764925Y-67916542D01*
X93764922Y-67916546D01*
X93655433Y-68080407D01*
X93655426Y-68080420D01*
X93580012Y-68262488D01*
X93580009Y-68262498D01*
X93541562Y-68455784D01*
X93541562Y-68455787D01*
X93541562Y-68652869D01*
X93541562Y-68652871D01*
X93541561Y-68652871D01*
X82805157Y-68652871D01*
X82805157Y-67082871D01*
X97691561Y-67082871D01*
X97730009Y-67276157D01*
X97730012Y-67276167D01*
X97805426Y-67458235D01*
X97805433Y-67458248D01*
X97914922Y-67622109D01*
X97914925Y-67622113D01*
X98054276Y-67761464D01*
X98054280Y-67761467D01*
X98218141Y-67870956D01*
X98218154Y-67870963D01*
X98328203Y-67916546D01*
X98400227Y-67946379D01*
X98400231Y-67946379D01*
X98400232Y-67946380D01*
X98593518Y-67984828D01*
X98593521Y-67984828D01*
X98790605Y-67984828D01*
X98925085Y-67958078D01*
X98965762Y-67949986D01*
X98983897Y-67946379D01*
X99165976Y-67870960D01*
X99329844Y-67761467D01*
X99469201Y-67622110D01*
X99578694Y-67458242D01*
X99654113Y-67276163D01*
X99692562Y-67082869D01*
X99692562Y-66885787D01*
X99692562Y-66885784D01*
X99654114Y-66692498D01*
X99654113Y-66692497D01*
X99654113Y-66692493D01*
X99654111Y-66692488D01*
X99578697Y-66510420D01*
X99578690Y-66510407D01*
X99469201Y-66346546D01*
X99469198Y-66346542D01*
X99329847Y-66207191D01*
X99329843Y-66207188D01*
X99165982Y-66097699D01*
X99165969Y-66097692D01*
X98983901Y-66022278D01*
X98983891Y-66022275D01*
X98790605Y-65983828D01*
X98790603Y-65983828D01*
X98593521Y-65983828D01*
X98593519Y-65983828D01*
X98400232Y-66022275D01*
X98400222Y-66022278D01*
X98218154Y-66097692D01*
X98218141Y-66097699D01*
X98054280Y-66207188D01*
X98054276Y-66207191D01*
X97914925Y-66346542D01*
X97914922Y-66346546D01*
X97805433Y-66510407D01*
X97805426Y-66510420D01*
X97730012Y-66692488D01*
X97730009Y-66692498D01*
X97691562Y-66885784D01*
X97691562Y-66885787D01*
X97691562Y-67082869D01*
X97691562Y-67082871D01*
X97691561Y-67082871D01*
X82805157Y-67082871D01*
X82805157Y-65312871D01*
X121371561Y-65312871D01*
X121410009Y-65506157D01*
X121410012Y-65506167D01*
X121485426Y-65688235D01*
X121485433Y-65688248D01*
X121594922Y-65852109D01*
X121594925Y-65852113D01*
X121734276Y-65991464D01*
X121734280Y-65991467D01*
X121898141Y-66100956D01*
X121898154Y-66100963D01*
X122080222Y-66176377D01*
X122080227Y-66176379D01*
X122080231Y-66176379D01*
X122080232Y-66176380D01*
X122273518Y-66214828D01*
X122273521Y-66214828D01*
X122470605Y-66214828D01*
X122600644Y-66188960D01*
X122663897Y-66176379D01*
X122845976Y-66100960D01*
X123009844Y-65991467D01*
X123149201Y-65852110D01*
X123258694Y-65688242D01*
X123334113Y-65506163D01*
X123372562Y-65312869D01*
X123372562Y-65115787D01*
X123372562Y-65115784D01*
X123334114Y-64922498D01*
X123334113Y-64922497D01*
X123334113Y-64922493D01*
X123334111Y-64922488D01*
X123258697Y-64740420D01*
X123258690Y-64740407D01*
X123149201Y-64576546D01*
X123149198Y-64576542D01*
X123009847Y-64437191D01*
X123009843Y-64437188D01*
X122845982Y-64327699D01*
X122845969Y-64327692D01*
X122663901Y-64252278D01*
X122663891Y-64252275D01*
X122470605Y-64213828D01*
X122470603Y-64213828D01*
X122273521Y-64213828D01*
X122273519Y-64213828D01*
X122080232Y-64252275D01*
X122080222Y-64252278D01*
X121898154Y-64327692D01*
X121898141Y-64327699D01*
X121734280Y-64437188D01*
X121734276Y-64437191D01*
X121594925Y-64576542D01*
X121594922Y-64576546D01*
X121485433Y-64740407D01*
X121485426Y-64740420D01*
X121410012Y-64922488D01*
X121410009Y-64922498D01*
X121371562Y-65115784D01*
X121371562Y-65115787D01*
X121371562Y-65312869D01*
X121371562Y-65312871D01*
X121371561Y-65312871D01*
X82805157Y-65312871D01*
X82805157Y-62502871D01*
X117511561Y-62502871D01*
X117550009Y-62696157D01*
X117550012Y-62696167D01*
X117625426Y-62878235D01*
X117625433Y-62878248D01*
X117734922Y-63042109D01*
X117734925Y-63042113D01*
X117874276Y-63181464D01*
X117874280Y-63181467D01*
X118038141Y-63290956D01*
X118038154Y-63290963D01*
X118220222Y-63366377D01*
X118220227Y-63366379D01*
X118220231Y-63366379D01*
X118220232Y-63366380D01*
X118413518Y-63404828D01*
X118413521Y-63404828D01*
X118610605Y-63404828D01*
X118740644Y-63378960D01*
X118803897Y-63366379D01*
X118985976Y-63290960D01*
X119149844Y-63181467D01*
X119289201Y-63042110D01*
X119398694Y-62878242D01*
X119474113Y-62696163D01*
X119512562Y-62502869D01*
X119512562Y-62305787D01*
X119512562Y-62305784D01*
X119474114Y-62112498D01*
X119474113Y-62112497D01*
X119474113Y-62112493D01*
X119403854Y-61942871D01*
X121731561Y-61942871D01*
X121770009Y-62136157D01*
X121770012Y-62136167D01*
X121845426Y-62318235D01*
X121845433Y-62318248D01*
X121954922Y-62482109D01*
X121954925Y-62482113D01*
X122094276Y-62621464D01*
X122094280Y-62621467D01*
X122258141Y-62730956D01*
X122258154Y-62730963D01*
X122440222Y-62806377D01*
X122440227Y-62806379D01*
X122440231Y-62806379D01*
X122440232Y-62806380D01*
X122633518Y-62844828D01*
X122633521Y-62844828D01*
X122830605Y-62844828D01*
X122960644Y-62818960D01*
X123023897Y-62806379D01*
X123205976Y-62730960D01*
X123369844Y-62621467D01*
X123509201Y-62482110D01*
X123618694Y-62318242D01*
X123694113Y-62136163D01*
X123732562Y-61942869D01*
X123732562Y-61745787D01*
X123732562Y-61745784D01*
X123694114Y-61552498D01*
X123694113Y-61552497D01*
X123694113Y-61552493D01*
X123648461Y-61442278D01*
X123618697Y-61370420D01*
X123618690Y-61370407D01*
X123509201Y-61206546D01*
X123509198Y-61206542D01*
X123369847Y-61067191D01*
X123369843Y-61067188D01*
X123205982Y-60957699D01*
X123205969Y-60957692D01*
X123023901Y-60882278D01*
X123023891Y-60882275D01*
X122830605Y-60843828D01*
X122830603Y-60843828D01*
X122633521Y-60843828D01*
X122633519Y-60843828D01*
X122440232Y-60882275D01*
X122440222Y-60882278D01*
X122258154Y-60957692D01*
X122258141Y-60957699D01*
X122094280Y-61067188D01*
X122094276Y-61067191D01*
X121954925Y-61206542D01*
X121954922Y-61206546D01*
X121845433Y-61370407D01*
X121845426Y-61370420D01*
X121770012Y-61552488D01*
X121770009Y-61552498D01*
X121731562Y-61745784D01*
X121731562Y-61745787D01*
X121731562Y-61942869D01*
X121731562Y-61942871D01*
X121731561Y-61942871D01*
X119403854Y-61942871D01*
X119403853Y-61942869D01*
X119398697Y-61930420D01*
X119398690Y-61930407D01*
X119317292Y-61808586D01*
X119289201Y-61766546D01*
X119289198Y-61766542D01*
X119149847Y-61627191D01*
X119149843Y-61627188D01*
X118985982Y-61517699D01*
X118985969Y-61517692D01*
X118803901Y-61442278D01*
X118803891Y-61442275D01*
X118610605Y-61403828D01*
X118610603Y-61403828D01*
X118413521Y-61403828D01*
X118413519Y-61403828D01*
X118220232Y-61442275D01*
X118220222Y-61442278D01*
X118038154Y-61517692D01*
X118038141Y-61517699D01*
X117874280Y-61627188D01*
X117874276Y-61627191D01*
X117734925Y-61766542D01*
X117734922Y-61766546D01*
X117625433Y-61930407D01*
X117625426Y-61930420D01*
X117550012Y-62112488D01*
X117550009Y-62112498D01*
X117511562Y-62305784D01*
X117511562Y-62305787D01*
X117511562Y-62502869D01*
X117511562Y-62502871D01*
X117511561Y-62502871D01*
X82805157Y-62502871D01*
X82805157Y-56882871D01*
X100231561Y-56882871D01*
X100270009Y-57076157D01*
X100270012Y-57076167D01*
X100345426Y-57258235D01*
X100345433Y-57258248D01*
X100454922Y-57422109D01*
X100454925Y-57422113D01*
X100594276Y-57561464D01*
X100594280Y-57561467D01*
X100758141Y-57670956D01*
X100758154Y-57670963D01*
X100940222Y-57746377D01*
X100940227Y-57746379D01*
X100940231Y-57746379D01*
X100940232Y-57746380D01*
X101133518Y-57784828D01*
X101133521Y-57784828D01*
X101330605Y-57784828D01*
X101460644Y-57758960D01*
X101523897Y-57746379D01*
X101705976Y-57670960D01*
X101869844Y-57561467D01*
X102009201Y-57422110D01*
X102118694Y-57258242D01*
X102194113Y-57076163D01*
X102232562Y-56882869D01*
X102232562Y-56685787D01*
X102232562Y-56685784D01*
X102194114Y-56492498D01*
X102194113Y-56492497D01*
X102194113Y-56492493D01*
X102177649Y-56452745D01*
X102118695Y-56310415D01*
X102118693Y-56310411D01*
X102082273Y-56255905D01*
X110001562Y-56255905D01*
X110001562Y-56452750D01*
X110032352Y-56647154D01*
X110093179Y-56834357D01*
X110182538Y-57009733D01*
X110298234Y-57168974D01*
X110437416Y-57308156D01*
X110596657Y-57423852D01*
X110679517Y-57466071D01*
X110772032Y-57513210D01*
X110772034Y-57513210D01*
X110772037Y-57513212D01*
X110872379Y-57545815D01*
X110959235Y-57574037D01*
X111153640Y-57604828D01*
X111153645Y-57604828D01*
X111350484Y-57604828D01*
X111544888Y-57574037D01*
X111583583Y-57561464D01*
X111732087Y-57513212D01*
X111907467Y-57423852D01*
X112066708Y-57308156D01*
X112205890Y-57168974D01*
X112321586Y-57009733D01*
X112410946Y-56834353D01*
X112471771Y-56647154D01*
X112496267Y-56492493D01*
X112502562Y-56452750D01*
X112502562Y-56255905D01*
X112471771Y-56061501D01*
X112418547Y-55897696D01*
X112410946Y-55874303D01*
X112410944Y-55874300D01*
X112410944Y-55874298D01*
X112321585Y-55698922D01*
X112205890Y-55539682D01*
X112066708Y-55400500D01*
X111907467Y-55284804D01*
X111732091Y-55195445D01*
X111544888Y-55134618D01*
X111350484Y-55103828D01*
X111350479Y-55103828D01*
X111153645Y-55103828D01*
X111153640Y-55103828D01*
X110959235Y-55134618D01*
X110772032Y-55195445D01*
X110596656Y-55284804D01*
X110505803Y-55350813D01*
X110437416Y-55400500D01*
X110437414Y-55400502D01*
X110437413Y-55400502D01*
X110298236Y-55539679D01*
X110298236Y-55539680D01*
X110298234Y-55539682D01*
X110277471Y-55568260D01*
X110182538Y-55698922D01*
X110093179Y-55874298D01*
X110032352Y-56061501D01*
X110001562Y-56255905D01*
X102082273Y-56255905D01*
X102009201Y-56146546D01*
X102009198Y-56146542D01*
X101869847Y-56007191D01*
X101869843Y-56007188D01*
X101705982Y-55897699D01*
X101705969Y-55897692D01*
X101523901Y-55822278D01*
X101523891Y-55822275D01*
X101330605Y-55783828D01*
X101330603Y-55783828D01*
X101133521Y-55783828D01*
X101133519Y-55783828D01*
X100940232Y-55822275D01*
X100940222Y-55822278D01*
X100758154Y-55897692D01*
X100758141Y-55897699D01*
X100594280Y-56007188D01*
X100594276Y-56007191D01*
X100454925Y-56146542D01*
X100454922Y-56146546D01*
X100345433Y-56310407D01*
X100345426Y-56310420D01*
X100270012Y-56492488D01*
X100270009Y-56492498D01*
X100231562Y-56685784D01*
X100231562Y-56685787D01*
X100231562Y-56882869D01*
X100231562Y-56882871D01*
X100231561Y-56882871D01*
X82805157Y-56882871D01*
X82805157Y-53986188D01*
X82824842Y-53919149D01*
X82877646Y-53873394D01*
X82946804Y-53863450D01*
X83010360Y-53892475D01*
X83032255Y-53917293D01*
X83033496Y-53919149D01*
X83208702Y-54181363D01*
X83208712Y-54181377D01*
X83439369Y-54462434D01*
X83696455Y-54719520D01*
X83696460Y-54719524D01*
X83696461Y-54719525D01*
X83977518Y-54950182D01*
X84279830Y-55152181D01*
X84279839Y-55152186D01*
X84279841Y-55152187D01*
X84600478Y-55323571D01*
X84600480Y-55323571D01*
X84600486Y-55323575D01*
X84936398Y-55462714D01*
X85284329Y-55568258D01*
X85284335Y-55568259D01*
X85284338Y-55568260D01*
X85284349Y-55568263D01*
X85640931Y-55639190D01*
X86002768Y-55674828D01*
X86002771Y-55674828D01*
X86366353Y-55674828D01*
X86366356Y-55674828D01*
X86728193Y-55639190D01*
X86797607Y-55625382D01*
X87084774Y-55568263D01*
X87084785Y-55568260D01*
X87084785Y-55568259D01*
X87084795Y-55568258D01*
X87432726Y-55462714D01*
X87768638Y-55323575D01*
X88089294Y-55152181D01*
X88391606Y-54950182D01*
X88672663Y-54719525D01*
X88929759Y-54462429D01*
X89160416Y-54181372D01*
X89362415Y-53879060D01*
X89533809Y-53558404D01*
X89672948Y-53222492D01*
X89778492Y-52874561D01*
X89778494Y-52874551D01*
X89778497Y-52874540D01*
X89849424Y-52517958D01*
X89885062Y-52156118D01*
X89885062Y-51792537D01*
X89849424Y-51430697D01*
X89778497Y-51074115D01*
X89778494Y-51074104D01*
X89778493Y-51074101D01*
X89778492Y-51074095D01*
X89672948Y-50726164D01*
X89533809Y-50390252D01*
X89497386Y-50322110D01*
X89362421Y-50069607D01*
X89362420Y-50069605D01*
X89362415Y-50069596D01*
X89160416Y-49767284D01*
X88929759Y-49486227D01*
X88929758Y-49486226D01*
X88929754Y-49486221D01*
X88672668Y-49229135D01*
X88391611Y-48998478D01*
X88391610Y-48998477D01*
X88391606Y-48998474D01*
X88089294Y-48796475D01*
X88089289Y-48796472D01*
X88089282Y-48796468D01*
X87941890Y-48717686D01*
X87892046Y-48668724D01*
X87876585Y-48600586D01*
X87900417Y-48534907D01*
X87955974Y-48492538D01*
X88000343Y-48484328D01*
X97311297Y-48484328D01*
X97378336Y-48504013D01*
G37*
%TD.AperFunction*%
%TD*%
M02*
