ISO-10303-21;
HEADER;
FILE_DESCRIPTION (( 'STEP AP214' ),
    '1' );
FILE_NAME ('6.33.150.70.60.6.STEP',
    '2024-12-06T06:13:21',
    ( 'LENOVO' ),
    ( '' ),
    'SwSTEP 2.0',
    'SolidWorks 2021',
    '' );
FILE_SCHEMA (( 'AUTOMOTIVE_DESIGN' ));
ENDSEC;

DATA;
#1 = ORIENTED_EDGE ( 'NONE', *, *, #141, .F. ) ;
#2 = AXIS2_PLACEMENT_3D ( 'NONE', #288, #120, #374 ) ;
#3 = LINE ( 'NONE', #1194, #13 ) ;
#4 = ADVANCED_FACE ( 'NONE', ( #391 ), #1141, .T. ) ;
#5 = LINE ( 'NONE', #1184, #398 ) ;
#6 = ORIENTED_EDGE ( 'NONE', *, *, #539, .F. ) ;
#7 = VECTOR ( 'NONE', #785, 1000.000000000000000 ) ;
#8 = DIRECTION ( 'NONE',  ( 0.000000000000000000, -0.000000000000000000, -1.000000000000000000 ) ) ;
#9 = DIRECTION ( 'NONE',  ( -0.000000000000000000, -0.000000000000000000, -1.000000000000000000 ) ) ;
#10 = VERTEX_POINT ( 'NONE', #144 ) ;
#11 = VECTOR ( 'NONE', #584, 1000.000000000000000 ) ;
#12 = VERTEX_POINT ( 'NONE', #915 ) ;
#13 = VECTOR ( 'NONE', #1093, 1000.000000000000000 ) ;
#14 = ORIENTED_EDGE ( 'NONE', *, *, #281, .F. ) ;
#15 = LINE ( 'NONE', #986, #869 ) ;
#16 = VECTOR ( 'NONE', #473, 1000.000000000000000 ) ;
#17 = COLOUR_RGB ( '',0.7921568627450980005, 0.8196078431372548767, 0.9333333333333333481 ) ;
#18 = ORIENTED_EDGE ( 'NONE', *, *, #510, .F. ) ;
#19 = LINE ( 'NONE', #992, #1345 ) ;
#20 = MECHANICAL_DESIGN_GEOMETRIC_PRESENTATION_REPRESENTATION (  '', ( #298 ), #677 ) ;
#21 = CARTESIAN_POINT ( 'NONE',  ( 2.549999999999999378, 0.000000000000000000, 1.574999999999999956 ) ) ;
#22 = VECTOR ( 'NONE', #1357, 1000.000000000000000 ) ;
#23 = CARTESIAN_POINT ( 'NONE',  ( -2.550000000000000711, -5.329372360806425846, -1.574999999999999956 ) ) ;
#24 = ORIENTED_EDGE ( 'NONE', *, *, #975, .F. ) ;
#25 = CARTESIAN_POINT ( 'NONE',  ( 2.549999999999999378, 0.000000000000000000, -1.574999999999999956 ) ) ;
#26 = LINE ( 'NONE', #512, #953 ) ;
#27 = EDGE_CURVE ( 'NONE', #852, #229, #1390, .T. ) ;
#28 = ORIENTED_EDGE ( 'NONE', *, *, #1215, .F. ) ;
#29 = FACE_OUTER_BOUND ( 'NONE', #757, .T. ) ;
#30 = VERTEX_POINT ( 'NONE', #582 ) ;
#31 = PLANE ( 'NONE',  #908 ) ;
#32 = FACE_OUTER_BOUND ( 'NONE', #1156, .T. ) ;
#33 = EDGE_LOOP ( 'NONE', ( #205, #545, #542, #240 ) ) ;
#34 =( NAMED_UNIT ( * ) SI_UNIT ( $, .STERADIAN. ) SOLID_ANGLE_UNIT ( ) );
#35 = EDGE_LOOP ( 'NONE', ( #1019, #554, #1171, #273 ) ) ;
#36 = SURFACE_STYLE_USAGE ( .BOTH. , #299 ) ;
#37 = AXIS2_PLACEMENT_3D ( 'NONE', #909, #230, #1010 ) ;
#38 = ORIENTED_EDGE ( 'NONE', *, *, #53, .F. ) ;
#39 = MECHANICAL_DESIGN_GEOMETRIC_PRESENTATION_REPRESENTATION (  '', ( #1367 ), #828 ) ;
#40 = ORIENTED_EDGE ( 'NONE', *, *, #45, .F. ) ;
#41 = DIRECTION ( 'NONE',  ( -0.000000000000000000, -0.000000000000000000, -1.000000000000000000 ) ) ;
#42 = VERTEX_POINT ( 'NONE', #594 ) ;
#43 = EDGE_CURVE ( 'NONE', #234, #1375, #426, .T. ) ;
#44 = DIRECTION ( 'NONE',  ( 0.000000000000000000, 0.000000000000000000, 1.000000000000000000 ) ) ;
#45 = EDGE_CURVE ( 'NONE', #465, #333, #459, .T. ) ;
#46 = CARTESIAN_POINT ( 'NONE',  ( -2.549999999999999822, 0.6649999999999998135, 1.050000000000000044 ) ) ;
#47 = DIRECTION ( 'NONE',  ( 9.856383386231857595E-17, 1.000000000000000000, -0.000000000000000000 ) ) ;
#48 = DIRECTION ( 'NONE',  ( 1.000000000000000000, -0.000000000000000000, 0.000000000000000000 ) ) ;
#49 = CARTESIAN_POINT ( 'NONE',  ( 2.550000000000000711, 0.6649999999999993694, 1.049999999999999822 ) ) ;
#50 = AXIS2_PLACEMENT_3D ( 'NONE', #23, #1232, #519 ) ;
#51 = DIRECTION ( 'NONE',  ( 1.000000000000000000, 1.807003620809175864E-16, 0.000000000000000000 ) ) ;
#52 = DIRECTION ( 'NONE',  ( -1.000000000000000000, 0.000000000000000000, 3.614007241618345221E-15 ) ) ;
#53 = EDGE_CURVE ( 'NONE', #234, #414, #3, .T. ) ;
#54 = CARTESIAN_POINT ( 'NONE',  ( 2.549999999999999378, 0.000000000000000000, -1.574999999999999956 ) ) ;
#55 =( GEOMETRIC_REPRESENTATION_CONTEXT ( 3 ) GLOBAL_UNCERTAINTY_ASSIGNED_CONTEXT ( ( #1054 ) ) GLOBAL_UNIT_ASSIGNED_CONTEXT ( ( #104, #608, #534 ) ) REPRESENTATION_CONTEXT ( 'NONE', 'WORKASPACE' ) );
#56 = CARTESIAN_POINT ( 'NONE',  ( -2.549999999999999378, 0.03499999999999991313, 1.574999999999999956 ) ) ;
#57 = LINE ( 'NONE', #1015, #520 ) ;
#58 = DIRECTION ( 'NONE',  ( -0.000000000000000000, -1.000000000000000000, -0.000000000000000000 ) ) ;
#59 = CARTESIAN_POINT ( 'NONE',  ( 2.790000000000000924, 0.6649999999999992584, 1.049999999999998934 ) ) ;
#60 = DIRECTION ( 'NONE',  ( 0.000000000000000000, -0.000000000000000000, 1.000000000000000000 ) ) ;
#61 = PRODUCT_DEFINITION ( 'UNKNOWN', '', #262, #1018 ) ;
#62 =( LENGTH_UNIT ( ) NAMED_UNIT ( * ) SI_UNIT ( .MILLI., .METRE. ) );
#63 = EDGE_CURVE ( 'NONE', #74, #1158, #958, .T. ) ;
#64 = ADVANCED_FACE ( 'NONE', ( #29 ), #1208, .F. ) ;
#65 = AXIS2_PLACEMENT_3D ( 'NONE', #633, #748, #338 ) ;
#66 = DIRECTION ( 'NONE',  ( 0.000000000000000000, 0.000000000000000000, -1.000000000000000000 ) ) ;
#67 = CARTESIAN_POINT ( 'NONE',  ( -3.114999999999999769, 0.03499999999999985068, -7.836772911883660875 ) ) ;
#68 = CARTESIAN_POINT ( 'NONE',  ( 2.549999999999999378, 0.03499999999999991313, 1.574999999999999956 ) ) ;
#69 =( NAMED_UNIT ( * ) PLANE_ANGLE_UNIT ( ) SI_UNIT ( $, .RADIAN. ) );
#70 = ORIENTED_EDGE ( 'NONE', *, *, #1271, .T. ) ;
#71 = FILL_AREA_STYLE ('',( #660 ) ) ;
#72 = EDGE_CURVE ( 'NONE', #10, #784, #26, .T. ) ;
#73 = UNCERTAINTY_MEASURE_WITH_UNIT (LENGTH_MEASURE( 1.000000000000000082E-05 ), #218, 'distance_accuracy_value', 'NONE');
#74 = VERTEX_POINT ( 'NONE', #1032 ) ;
#75 = CARTESIAN_POINT ( 'NONE',  ( 2.550000000000000711, 0.6999999999999988454, 1.049999999999999822 ) ) ;
#76 = CARTESIAN_POINT ( 'NONE',  ( 2.550000000000000711, 0.6999999999999988454, 1.049999999999999822 ) ) ;
#77 = ORIENTED_EDGE ( 'NONE', *, *, #581, .F. ) ;
#78 = DIRECTION ( 'NONE',  ( 0.000000000000000000, 0.000000000000000000, 1.000000000000000000 ) ) ;
#79 = ORIENTED_EDGE ( 'NONE', *, *, #207, .F. ) ;
#80 = CARTESIAN_POINT ( 'NONE',  ( 5.952482515606682189E-17, 0.6999999999999990674, -8.195167587432057820E-33 ) ) ;
#81 = ORIENTED_EDGE ( 'NONE', *, *, #647, .T. ) ;
#82 = STYLED_ITEM ( 'NONE', ( #494 ), #924 ) ;
#83 = ORIENTED_EDGE ( 'NONE', *, *, #966, .F. ) ;
#84 = DIRECTION ( 'NONE',  ( 1.000000000000000000, 1.807003620809175864E-16, 0.000000000000000000 ) ) ;
#85 = CARTESIAN_POINT ( 'NONE',  ( -3.114999999999999769, 0.03499999999999985068, 1.574999999999999956 ) ) ;
#86 =( GEOMETRIC_REPRESENTATION_CONTEXT ( 3 ) GLOBAL_UNCERTAINTY_ASSIGNED_CONTEXT ( ( #980 ) ) GLOBAL_UNIT_ASSIGNED_CONTEXT ( ( #409, #978, #714 ) ) REPRESENTATION_CONTEXT ( 'NONE', 'WORKASPACE' ) );
#87 = EDGE_LOOP ( 'NONE', ( #724, #551, #1248, #88 ) ) ;
#88 = ORIENTED_EDGE ( 'NONE', *, *, #729, .T. ) ;
#89 = EDGE_CURVE ( 'NONE', #12, #1341, #960, .T. ) ;
#90 = CARTESIAN_POINT ( 'NONE',  ( 3.114999999999999769, 0.03499999999999985068, 1.574999999999999956 ) ) ;
#91 = ORIENTED_EDGE ( 'NONE', *, *, #595, .T. ) ;
#92 =( GEOMETRIC_REPRESENTATION_CONTEXT ( 3 ) GLOBAL_UNCERTAINTY_ASSIGNED_CONTEXT ( ( #623 ) ) GLOBAL_UNIT_ASSIGNED_CONTEXT ( ( #62, #1112, #1304 ) ) REPRESENTATION_CONTEXT ( 'NONE', 'WORKASPACE' ) );
#93 = UNCERTAINTY_MEASURE_WITH_UNIT (LENGTH_MEASURE( 1.000000000000000082E-05 ), #114, 'distance_accuracy_value', 'NONE');
#94 = ORIENTED_EDGE ( 'NONE', *, *, #595, .F. ) ;
#95 = DIRECTION ( 'NONE',  ( 1.000000000000000000, -9.856383386231857595E-17, 0.000000000000000000 ) ) ;
#96 = PLANE ( 'NONE',  #1268 ) ;
#97 = CARTESIAN_POINT ( 'NONE',  ( -2.790000000000000480, 0.6649999999999999245, -1.049999999999999156 ) ) ;
#98 = MECHANICAL_DESIGN_GEOMETRIC_PRESENTATION_REPRESENTATION (  '', ( #578 ), #170 ) ;
#99 = COLOUR_RGB ( '',0.2509803921568627416, 0.2509803921568627416, 0.2509803921568627416 ) ;
#100 = EDGE_CURVE ( 'NONE', #501, #474, #950, .T. ) ;
#101 = MANIFOLD_SOLID_BREP ( 'Boss-Extrude3', #965 ) ;
#102 = ADVANCED_FACE ( 'NONE', ( #942 ), #568, .F. ) ;
#103 = STYLED_ITEM ( 'NONE', ( #306 ), #267 ) ;
#104 =( LENGTH_UNIT ( ) NAMED_UNIT ( * ) SI_UNIT ( .MILLI., .METRE. ) );
#105 = CARTESIAN_POINT ( 'NONE',  ( -2.550000000000000266, 0.6649999999999998135, -1.049999999999999600 ) ) ;
#106 = CARTESIAN_POINT ( 'NONE',  ( 2.550000000000000711, 0.6649999999999993694, 1.049999999999999822 ) ) ;
#107 =( GEOMETRIC_REPRESENTATION_CONTEXT ( 3 ) GLOBAL_UNCERTAINTY_ASSIGNED_CONTEXT ( ( #834 ) ) GLOBAL_UNIT_ASSIGNED_CONTEXT ( ( #356, #69, #145 ) ) REPRESENTATION_CONTEXT ( 'NONE', 'WORKASPACE' ) );
#108 = CARTESIAN_POINT ( 'NONE',  ( -2.550000000000000266, 0.6999999999999992895, -1.049999999999999600 ) ) ;
#109 = SURFACE_STYLE_USAGE ( .BOTH. , #178 ) ;
#110 =( NAMED_UNIT ( * ) PLANE_ANGLE_UNIT ( ) SI_UNIT ( $, .RADIAN. ) );
#111 = EDGE_CURVE ( 'NONE', #755, #1270, #946, .T. ) ;
#112 = PLANE ( 'NONE',  #1007 ) ;
#113 = PLANE ( 'NONE',  #703 ) ;
#114 =( LENGTH_UNIT ( ) NAMED_UNIT ( * ) SI_UNIT ( .MILLI., .METRE. ) );
#115 = CARTESIAN_POINT ( 'NONE',  ( -2.790000000000000480, 0.6999999999999992895, -1.574999999999999067 ) ) ;
#116 = EDGE_CURVE ( 'NONE', #948, #1181, #821, .T. ) ;
#117 = CARTESIAN_POINT ( 'NONE',  ( 3.149999999999999467, -3.857637417314162196E-16, -1.574999999999999956 ) ) ;
#118 = CARTESIAN_POINT ( 'NONE',  ( 2.549999999999999378, 0.03499999999999991313, 1.574999999999999956 ) ) ;
#119 = PRESENTATION_LAYER_ASSIGNMENT (  '', '', ( #103 ) ) ;
#120 = DIRECTION ( 'NONE',  ( 0.000000000000000000, 0.000000000000000000, -1.000000000000000000 ) ) ;
#121 = PRESENTATION_STYLE_ASSIGNMENT (( #1329 ) ) ;
#122 = DIRECTION ( 'NONE',  ( 0.000000000000000000, 0.000000000000000000, -1.000000000000000000 ) ) ;
#123 = CARTESIAN_POINT ( 'NONE',  ( -3.114999999999999769, 0.6649999999999995914, -1.574999999999999956 ) ) ;
#124 = DIRECTION ( 'NONE',  ( -1.000000000000000000, 0.000000000000000000, 0.000000000000000000 ) ) ;
#125 = FILL_AREA_STYLE ('',( #511 ) ) ;
#126 = CARTESIAN_POINT ( 'NONE',  ( -2.790000000000000480, 0.6649999999999999245, -1.574999999999999067 ) ) ;
#127 = AXIS2_PLACEMENT_3D ( 'NONE', #1075, #442, #1174 ) ;
#128 = CARTESIAN_POINT ( 'NONE',  ( -2.549999999999999822, 0.6999999999999992895, 1.574999999999999956 ) ) ;
#129 = CARTESIAN_POINT ( 'NONE',  ( 3.114999999999999769, 0.6649999999999995914, -1.574999999999999956 ) ) ;
#130 = EDGE_CURVE ( 'NONE', #936, #971, #816, .T. ) ;
#131 = CARTESIAN_POINT ( 'NONE',  ( -2.790000000000000036, 0.6649999999999999245, 1.574999999999999956 ) ) ;
#132 = EDGE_CURVE ( 'NONE', #784, #1381, #382, .T. ) ;
#133 = PLANE ( 'NONE',  #1037 ) ;
#134 = SURFACE_SIDE_STYLE ('',( #340 ) ) ;
#135 = CARTESIAN_POINT ( 'NONE',  ( -2.549999999999999378, 0.03499999999999991313, 1.574999999999999956 ) ) ;
#136 = MANIFOLD_SOLID_BREP ( 'Cut-Extrude1[1]', #870 ) ;
#137 = DIRECTION ( 'NONE',  ( -1.000000000000000000, 0.000000000000000000, -0.000000000000000000 ) ) ;
#138 = PLANE ( 'NONE',  #37 ) ;
#139 = DIRECTION ( 'NONE',  ( 0.000000000000000000, 0.000000000000000000, -1.000000000000000000 ) ) ;
#140 = EDGE_CURVE ( 'NONE', #333, #1168, #782, .T. ) ;
#141 = EDGE_CURVE ( 'NONE', #291, #1143, #360, .T. ) ;
#142 = UNCERTAINTY_MEASURE_WITH_UNIT (LENGTH_MEASURE( 1.000000000000000082E-05 ), #560, 'distance_accuracy_value', 'NONE');
#143 = DIRECTION ( 'NONE',  ( 1.000000000000000000, 0.000000000000000000, 0.000000000000000000 ) ) ;
#144 = CARTESIAN_POINT ( 'NONE',  ( -3.114999999999999769, 0.03499999999999985068, -1.574999999999999956 ) ) ;
#145 =( NAMED_UNIT ( * ) SI_UNIT ( $, .STERADIAN. ) SOLID_ANGLE_UNIT ( ) );
#146 = DIRECTION ( 'NONE',  ( -1.000000000000000000, -1.199338686377769700E-16, 0.000000000000000000 ) ) ;
#147 = CARTESIAN_POINT ( 'NONE',  ( -2.549999999999999378, 0.000000000000000000, -1.574999999999999956 ) ) ;
#148 = DIRECTION ( 'NONE',  ( 0.000000000000000000, -0.000000000000000000, -1.000000000000000000 ) ) ;
#149 = DIRECTION ( 'NONE',  ( 0.000000000000000000, 0.000000000000000000, 1.000000000000000000 ) ) ;
#150 = AXIS2_PLACEMENT_3D ( 'NONE', #372, #593, #795 ) ;
#151 = EDGE_CURVE ( 'NONE', #30, #773, #786, .T. ) ;
#152 = CARTESIAN_POINT ( 'NONE',  ( -3.114999999999999769, 0.03499999999999985068, 1.574999999999999956 ) ) ;
#153 = SURFACE_SIDE_STYLE ('',( #381 ) ) ;
#154 = UNCERTAINTY_MEASURE_WITH_UNIT (LENGTH_MEASURE( 1.000000000000000082E-05 ), #790, 'distance_accuracy_value', 'NONE');
#155 = ADVANCED_FACE ( 'NONE', ( #313 ), #1378, .F. ) ;
#156 = CARTESIAN_POINT ( 'NONE',  ( -3.149999999999999467, -3.857637417314162196E-16, 1.574999999999999956 ) ) ;
#157 = DIRECTION ( 'NONE',  ( 1.000000000000000000, 0.000000000000000000, 0.000000000000000000 ) ) ;
#158 = CARTESIAN_POINT ( 'NONE',  ( -3.114999999999999769, 0.03499999999999985068, 1.574999999999999956 ) ) ;
#159 = ADVANCED_FACE ( 'NONE', ( #1312 ), #1034, .T. ) ;
#160 = EDGE_CURVE ( 'NONE', #1331, #1244, #377, .T. ) ;
#161 =( GEOMETRIC_REPRESENTATION_CONTEXT ( 3 ) GLOBAL_UNCERTAINTY_ASSIGNED_CONTEXT ( ( #1132 ) ) GLOBAL_UNIT_ASSIGNED_CONTEXT ( ( #1016, #655, #646 ) ) REPRESENTATION_CONTEXT ( 'NONE', 'WORKASPACE' ) );
#162 = PLANE ( 'NONE',  #493 ) ;
#163 = DIRECTION ( 'NONE',  ( 0.000000000000000000, 0.000000000000000000, 1.000000000000000000 ) ) ;
#164 = VECTOR ( 'NONE', #868, 1000.000000000000000 ) ;
#165 = FILL_AREA_STYLE ('',( #619 ) ) ;
#166 = LINE ( 'NONE', #292, #1106 ) ;
#167 = LINE ( 'NONE', #856, #1109 ) ;
#168 = PLANE ( 'NONE',  #507 ) ;
#169 = VECTOR ( 'NONE', #1166, 1000.000000000000000 ) ;
#170 =( GEOMETRIC_REPRESENTATION_CONTEXT ( 3 ) GLOBAL_UNCERTAINTY_ASSIGNED_CONTEXT ( ( #93 ) ) GLOBAL_UNIT_ASSIGNED_CONTEXT ( ( #114, #184, #1274 ) ) REPRESENTATION_CONTEXT ( 'NONE', 'WORKASPACE' ) );
#171 = FILL_AREA_STYLE ('',( #1150 ) ) ;
#172 = EDGE_CURVE ( 'NONE', #880, #697, #1285, .T. ) ;
#173 = VECTOR ( 'NONE', #528, 1000.000000000000000 ) ;
#174 = DIRECTION ( 'NONE',  ( 1.000000000000000000, 0.000000000000000000, -1.807003620809172610E-15 ) ) ;
#175 = AXIS2_PLACEMENT_3D ( 'NONE', #452, #438, #760 ) ;
#176 = LINE ( 'NONE', #1005, #640 ) ;
#177 = DIRECTION ( 'NONE',  ( 1.000000000000000000, -4.517509052022931526E-16, -1.807003620809172610E-15 ) ) ;
#178 = SURFACE_SIDE_STYLE ('',( #933 ) ) ;
#179 = LINE ( 'NONE', #397, #1131 ) ;
#180 = DIRECTION ( 'NONE',  ( 0.000000000000000000, 0.000000000000000000, -1.000000000000000000 ) ) ;
#181 = APPLICATION_PROTOCOL_DEFINITION ( 'draft international standard', 'automotive_design', 1998, #1254 ) ;
#182 = FILL_AREA_STYLE_COLOUR ( '', #885 ) ;
#183 = CARTESIAN_POINT ( 'NONE',  ( -3.149999999999999467, -3.857637417314162196E-16, 1.574999999999999956 ) ) ;
#184 =( NAMED_UNIT ( * ) PLANE_ANGLE_UNIT ( ) SI_UNIT ( $, .RADIAN. ) );
#185 = LINE ( 'NONE', #108, #656 ) ;
#186 = DIRECTION ( 'NONE',  ( 0.000000000000000000, -0.000000000000000000, -1.000000000000000000 ) ) ;
#187 = EDGE_CURVE ( 'NONE', #971, #718, #375, .T. ) ;
#188 = VECTOR ( 'NONE', #636, 1000.000000000000000 ) ;
#189 = PRESENTATION_LAYER_ASSIGNMENT (  '', '', ( #733 ) ) ;
#190 = DIRECTION ( 'NONE',  ( -0.000000000000000000, -1.000000000000000000, -0.000000000000000000 ) ) ;
#191 = LINE ( 'NONE', #981, #164 ) ;
#192 = SURFACE_SIDE_STYLE ('',( #404 ) ) ;
#193 = DIRECTION ( 'NONE',  ( 0.000000000000000000, 0.000000000000000000, 1.000000000000000000 ) ) ;
#194 = SURFACE_STYLE_USAGE ( .BOTH. , #974 ) ;
#195 = PLANE ( 'NONE',  #150 ) ;
#196 = LINE ( 'NONE', #622, #664 ) ;
#197 = DIRECTION ( 'NONE',  ( 0.000000000000000000, 1.000000000000000000, 0.000000000000000000 ) ) ;
#198 = FACE_OUTER_BOUND ( 'NONE', #248, .T. ) ;
#199 = CARTESIAN_POINT ( 'NONE',  ( -3.149999999999999467, -3.857637417314162196E-16, -1.574999999999999956 ) ) ;
#200 = VECTOR ( 'NONE', #321, 1000.000000000000000 ) ;
#201 = ORIENTED_EDGE ( 'NONE', *, *, #729, .F. ) ;
#202 = AXIS2_PLACEMENT_3D ( 'NONE', #1307, #867, #883 ) ;
#203 = CARTESIAN_POINT ( 'NONE',  ( 2.790000000000000924, 0.6649999999999992584, 1.049999999999998934 ) ) ;
#204 = FACE_OUTER_BOUND ( 'NONE', #1398, .T. ) ;
#205 = ORIENTED_EDGE ( 'NONE', *, *, #581, .T. ) ;
#206 = VERTEX_POINT ( 'NONE', #1088 ) ;
#207 = EDGE_CURVE ( 'NONE', #441, #717, #833, .T. ) ;
#208 = LINE ( 'NONE', #1170, #678 ) ;
#209 = ORIENTED_EDGE ( 'NONE', *, *, #510, .T. ) ;
#210 = ORIENTED_EDGE ( 'NONE', *, *, #851, .F. ) ;
#211 = SURFACE_SIDE_STYLE ('',( #447 ) ) ;
#212 = CARTESIAN_POINT ( 'NONE',  ( -3.149999999999999467, 0.6999999999999995115, 1.574999999999999956 ) ) ;
#213 = LINE ( 'NONE', #49, #682 ) ;
#214 = ORIENTED_EDGE ( 'NONE', *, *, #659, .F. ) ;
#215 = DIRECTION ( 'NONE',  ( -9.856383386231857595E-17, -1.000000000000000000, 0.000000000000000000 ) ) ;
#216 = ORIENTED_EDGE ( 'NONE', *, *, #53, .T. ) ;
#217 = CARTESIAN_POINT ( 'NONE',  ( -3.149999999999999467, -3.857637417314162196E-16, 1.574999999999999956 ) ) ;
#218 =( LENGTH_UNIT ( ) NAMED_UNIT ( * ) SI_UNIT ( .MILLI., .METRE. ) );
#219 = VERTEX_POINT ( 'NONE', #955 ) ;
#220 = AXIS2_PLACEMENT_3D ( 'NONE', #746, #787, #1192 ) ;
#221 = ORIENTED_EDGE ( 'NONE', *, *, #1157, .T. ) ;
#222 =( NAMED_UNIT ( * ) SI_UNIT ( $, .STERADIAN. ) SOLID_ANGLE_UNIT ( ) );
#223 = DIRECTION ( 'NONE',  ( 0.000000000000000000, 0.000000000000000000, -1.000000000000000000 ) ) ;
#224 = EDGE_CURVE ( 'NONE', #1220, #232, #822, .T. ) ;
#225 = VERTEX_POINT ( 'NONE', #75 ) ;
#226 = ORIENTED_EDGE ( 'NONE', *, *, #172, .F. ) ;
#227 = CARTESIAN_POINT ( 'NONE',  ( 3.149999999999999467, -3.857637417314162196E-16, 1.574999999999999956 ) ) ;
#228 = AXIS2_PLACEMENT_3D ( 'NONE', #68, #233, #935 ) ;
#229 = VERTEX_POINT ( 'NONE', #600 ) ;
#230 = DIRECTION ( 'NONE',  ( -1.000000000000000000, 0.000000000000000000, 0.000000000000000000 ) ) ;
#231 =( NAMED_UNIT ( * ) SI_UNIT ( $, .STERADIAN. ) SOLID_ANGLE_UNIT ( ) );
#232 = VERTEX_POINT ( 'NONE', #1040 ) ;
#233 = DIRECTION ( 'NONE',  ( -1.199338686377769700E-16, -1.000000000000000000, 0.000000000000000000 ) ) ;
#234 = VERTEX_POINT ( 'NONE', #1333 ) ;
#235 = UNCERTAINTY_MEASURE_WITH_UNIT (LENGTH_MEASURE( 1.000000000000000082E-05 ), #1338, 'distance_accuracy_value', 'NONE');
#236 = FILL_AREA_STYLE_COLOUR ( '', #17 ) ;
#237 = FILL_AREA_STYLE_COLOUR ( '', #771 ) ;
#238 = EDGE_LOOP ( 'NONE', ( #1163, #864, #952, #1202 ) ) ;
#239 = PLANE ( 'NONE',  #380 ) ;
#240 = ORIENTED_EDGE ( 'NONE', *, *, #224, .T. ) ;
#241 = FILL_AREA_STYLE ('',( #1100 ) ) ;
#242 = EDGE_LOOP ( 'NONE', ( #280, #28, #339, #405 ) ) ;
#243 = AXIS2_PLACEMENT_3D ( 'NONE', #806, #252, #1116 ) ;
#244 = ORIENTED_EDGE ( 'NONE', *, *, #1091, .F. ) ;
#245 = SURFACE_STYLE_USAGE ( .BOTH. , #1103 ) ;
#246 = DIRECTION ( 'NONE',  ( -1.000000000000000000, 0.000000000000000000, -0.000000000000000000 ) ) ;
#247 = EDGE_CURVE ( 'NONE', #42, #1167, #366, .T. ) ;
#248 = EDGE_LOOP ( 'NONE', ( #939, #913, #226, #462 ) ) ;
#249 = PRESENTATION_LAYER_ASSIGNMENT (  '', '', ( #832 ) ) ;
#250 = CARTESIAN_POINT ( 'NONE',  ( -2.549999999999999378, 0.03499999999999991313, 1.574999999999999956 ) ) ;
#251 = ORIENTED_EDGE ( 'NONE', *, *, #247, .T. ) ;
#252 = DIRECTION ( 'NONE',  ( 0.000000000000000000, 0.000000000000000000, -1.000000000000000000 ) ) ;
#253 = ORIENTED_EDGE ( 'NONE', *, *, #1271, .F. ) ;
#254 = ADVANCED_FACE ( 'NONE', ( #378 ), #357, .F. ) ;
#255 = ORIENTED_EDGE ( 'NONE', *, *, #1372, .F. ) ;
#256 = DIRECTION ( 'NONE',  ( 1.000000000000000000, 0.000000000000000000, 0.000000000000000000 ) ) ;
#257 = DIRECTION ( 'NONE',  ( -1.807003620809172610E-15, 1.781052046700434178E-31, 1.000000000000000000 ) ) ;
#258 = ORIENTED_EDGE ( 'NONE', *, *, #1237, .F. ) ;
#259 = LINE ( 'NONE', #979, #722 ) ;
#260 = ORIENTED_EDGE ( 'NONE', *, *, #988, .T. ) ;
#261 = DIRECTION ( 'NONE',  ( -0.000000000000000000, -0.000000000000000000, -1.000000000000000000 ) ) ;
#262 = PRODUCT_DEFINITION_FORMATION_WITH_SPECIFIED_SOURCE ( 'ANY', '', #1055, .NOT_KNOWN. ) ;
#263 = ORIENTED_EDGE ( 'NONE', *, *, #1062, .T. ) ;
#264 = EDGE_CURVE ( 'NONE', #225, #850, #358, .T. ) ;
#265 = ORIENTED_EDGE ( 'NONE', *, *, #1067, .F. ) ;
#267 = ADVANCED_FACE ( 'NONE', ( #1288 ), #296, .T. ) ;
#266 = SURFACE_STYLE_FILL_AREA ( #125 ) ;
#268 = DIRECTION ( 'NONE',  ( -1.000000000000000000, -1.807003620809175864E-16, 0.000000000000000000 ) ) ;
#269 = DIRECTION ( 'NONE',  ( 9.856383386231860060E-17, 1.000000000000000000, 0.000000000000000000 ) ) ;
#270 = ORIENTED_EDGE ( 'NONE', *, *, #681, .T. ) ;
#271 = MECHANICAL_DESIGN_GEOMETRIC_PRESENTATION_REPRESENTATION (  '', ( #103 ), #55 ) ;
#272 = ORIENTED_EDGE ( 'NONE', *, *, #602, .T. ) ;
#273 = ORIENTED_EDGE ( 'NONE', *, *, #1067, .T. ) ;
#274 = LINE ( 'NONE', #379, #774 ) ;
#275 = ORIENTED_EDGE ( 'NONE', *, *, #187, .T. ) ;
#276 = LINE ( 'NONE', #316, #743 ) ;
#277 = DIRECTION ( 'NONE',  ( 1.000000000000000000, -4.517509052022931526E-16, 1.807003620809172610E-15 ) ) ;
#278 = ORIENTED_EDGE ( 'NONE', *, *, #799, .F. ) ;
#279 = EDGE_LOOP ( 'NONE', ( #802, #437, #895, #1240, #1229, #1006, #1233, #70 ) ) ;
#280 = ORIENTED_EDGE ( 'NONE', *, *, #1237, .T. ) ;
#281 = EDGE_CURVE ( 'NONE', #1375, #899, #302, .T. ) ;
#282 = ORIENTED_EDGE ( 'NONE', *, *, #1160, .T. ) ;
#283 = DIRECTION ( 'NONE',  ( 1.000000000000000000, -8.503546450866700815E-17, 0.000000000000000000 ) ) ;
#284 = DIRECTION ( 'NONE',  ( -1.000000000000000000, 4.517509052022931526E-16, 0.000000000000000000 ) ) ;
#285 = FILL_AREA_STYLE_COLOUR ( '', #941 ) ;
#286 = ORIENTED_EDGE ( 'NONE', *, *, #1123, .F. ) ;
#287 = FACE_OUTER_BOUND ( 'NONE', #959, .T. ) ;
#288 = CARTESIAN_POINT ( 'NONE',  ( -2.550000000000000711, -5.329372360806425846, -1.574999999999999956 ) ) ;
#289 = EDGE_LOOP ( 'NONE', ( #788, #1384, #253, #968 ) ) ;
#290 = VECTOR ( 'NONE', #839, 1000.000000000000000 ) ;
#291 = VERTEX_POINT ( 'NONE', #1057 ) ;
#292 = CARTESIAN_POINT ( 'NONE',  ( 2.790000000000000480, 0.6999999999999987343, -1.574999999999999734 ) ) ;
#293 = VECTOR ( 'NONE', #516, 1000.000000000000000 ) ;
#294 =( GEOMETRIC_REPRESENTATION_CONTEXT ( 3 ) GLOBAL_UNCERTAINTY_ASSIGNED_CONTEXT ( ( #989 ) ) GLOBAL_UNIT_ASSIGNED_CONTEXT ( ( #627, #770, #742 ) ) REPRESENTATION_CONTEXT ( 'NONE', 'WORKASPACE' ) );
#295 = ORIENTED_EDGE ( 'NONE', *, *, #461, .F. ) ;
#296 = PLANE ( 'NONE',  #817 ) ;
#297 = PLANE ( 'NONE',  #1078 ) ;
#298 = STYLED_ITEM ( 'NONE', ( #445 ), #1348 ) ;
#299 = SURFACE_SIDE_STYLE ('',( #416 ) ) ;
#300 = EDGE_LOOP ( 'NONE', ( #1261, #1355, #793, #1401 ) ) ;
#301 = LINE ( 'NONE', #118, #751 ) ;
#302 = LINE ( 'NONE', #1251, #775 ) ;
#303 = EDGE_CURVE ( 'NONE', #1331, #428, #768, .T. ) ;
#304 = ORIENTED_EDGE ( 'NONE', *, *, #877, .T. ) ;
#305 = VECTOR ( 'NONE', #148, 1000.000000000000000 ) ;
#306 = PRESENTATION_STYLE_ASSIGNMENT (( #1105 ) ) ;
#307 = ORIENTED_EDGE ( 'NONE', *, *, #940, .F. ) ;
#308 = CARTESIAN_POINT ( 'NONE',  ( 2.549999999999999822, -5.329372360806426734, 1.574999999999999956 ) ) ;
#309 = STYLED_ITEM ( 'NONE', ( #481 ), #101 ) ;
#310 = VECTOR ( 'NONE', #78, 1000.000000000000000 ) ;
#311 = COLOUR_RGB ( '',1.000000000000000000, 1.000000000000000000, 1.000000000000000000 ) ;
#312 = ORIENTED_EDGE ( 'NONE', *, *, #303, .F. ) ;
#313 = FACE_OUTER_BOUND ( 'NONE', #35, .T. ) ;
#314 = CARTESIAN_POINT ( 'NONE',  ( 3.149999999999999467, 0.6999999999999995115, 1.574999999999999956 ) ) ;
#315 = DIRECTION ( 'NONE',  ( 0.000000000000000000, 0.000000000000000000, 1.000000000000000000 ) ) ;
#316 = CARTESIAN_POINT ( 'NONE',  ( 2.790000000000000924, 0.6999999999999987343, 1.574999999999998845 ) ) ;
#317 = EDGE_LOOP ( 'NONE', ( #922, #916, #872, #1393 ) ) ;
#318 = MANIFOLD_SOLID_BREP ( 'Boss-Extrude2', #1238 ) ;
#319 = EDGE_LOOP ( 'NONE', ( #943, #244, #40, #1225 ) ) ;
#320 = ORIENTED_EDGE ( 'NONE', *, *, #160, .T. ) ;
#321 = DIRECTION ( 'NONE',  ( -0.000000000000000000, -0.000000000000000000, -1.000000000000000000 ) ) ;
#322 = ORIENTED_EDGE ( 'NONE', *, *, #100, .F. ) ;
#323 = STYLED_ITEM ( 'NONE', ( #359 ), #1044 ) ;
#324 = CARTESIAN_POINT ( 'NONE',  ( 2.550000000000000266, 0.6999999999999994005, 1.574999999999999956 ) ) ;
#325 = VERTEX_POINT ( 'NONE', #706 ) ;
#326 = DIRECTION ( 'NONE',  ( 8.503546450866700815E-17, 1.000000000000000000, -1.170738226776009902E-32 ) ) ;
#327 = EDGE_CURVE ( 'NONE', #428, #1270, #185, .T. ) ;
#328 = DIRECTION ( 'NONE',  ( 0.000000000000000000, 0.000000000000000000, 1.000000000000000000 ) ) ;
#329 = ORIENTED_EDGE ( 'NONE', *, *, #43, .T. ) ;
#330 = AXIS2_PLACEMENT_3D ( 'NONE', #1243, #139, #157 ) ;
#331 = PLANE ( 'NONE',  #202 ) ;
#332 = ORIENTED_EDGE ( 'NONE', *, *, #89, .T. ) ;
#333 = VERTEX_POINT ( 'NONE', #97 ) ;
#334 = DIRECTION ( 'NONE',  ( -1.000000000000000000, 4.517509052022931526E-16, 0.000000000000000000 ) ) ;
#335 = PLANE ( 'NONE',  #1029 ) ;
#336 = ORIENTED_EDGE ( 'NONE', *, *, #557, .F. ) ;
#337 = VECTOR ( 'NONE', #284, 1000.000000000000000 ) ;
#338 = DIRECTION ( 'NONE',  ( 1.000000000000000000, 0.000000000000000000, 0.000000000000000000 ) ) ;
#339 = ORIENTED_EDGE ( 'NONE', *, *, #116, .F. ) ;
#340 = SURFACE_STYLE_FILL_AREA ( #500 ) ;
#341 = SURFACE_STYLE_USAGE ( .BOTH. , #211 ) ;
#342 = ORIENTED_EDGE ( 'NONE', *, *, #1094, .T. ) ;
#343 = DIRECTION ( 'NONE',  ( 9.856383386231857595E-17, 1.000000000000000000, 0.000000000000000000 ) ) ;
#344 = VECTOR ( 'NONE', #694, 1000.000000000000000 ) ;
#345 = AXIS2_PLACEMENT_3D ( 'NONE', #1361, #672, #1033 ) ;
#346 = EDGE_LOOP ( 'NONE', ( #307, #1227, #14, #804 ) ) ;
#347 = ADVANCED_FACE ( 'NONE', ( #204 ), #162, .F. ) ;
#348 = VECTOR ( 'NONE', #585, 1000.000000000000000 ) ;
#349 = CARTESIAN_POINT ( 'NONE',  ( 3.149999999999999467, -3.857637417314162196E-16, 1.574999999999999956 ) ) ;
#350 = FACE_OUTER_BOUND ( 'NONE', #279, .T. ) ;
#351 = ORIENTED_EDGE ( 'NONE', *, *, #1050, .F. ) ;
#352 = EDGE_CURVE ( 'NONE', #781, #1341, #179, .T. ) ;
#353 =( NAMED_UNIT ( * ) PLANE_ANGLE_UNIT ( ) SI_UNIT ( $, .RADIAN. ) );
#354 = SURFACE_STYLE_FILL_AREA ( #1096 ) ;
#355 = EDGE_CURVE ( 'NONE', #840, #42, #648, .T. ) ;
#356 =( LENGTH_UNIT ( ) NAMED_UNIT ( * ) SI_UNIT ( .MILLI., .METRE. ) );
#357 = PLANE ( 'NONE',  #686 ) ;
#358 = LINE ( 'NONE', #938, #1302 ) ;
#359 = PRESENTATION_STYLE_ASSIGNMENT (( #949 ) ) ;
#360 = LINE ( 'NONE', #1231, #830 ) ;
#361 = CARTESIAN_POINT ( 'NONE',  ( 2.550000000000000266, 0.6999999999999988454, -1.050000000000000044 ) ) ;
#362 = UNCERTAINTY_MEASURE_WITH_UNIT (LENGTH_MEASURE( 1.000000000000000082E-05 ), #408, 'distance_accuracy_value', 'NONE');
#363 = DIRECTION ( 'NONE',  ( 0.000000000000000000, 1.000000000000000000, 0.000000000000000000 ) ) ;
#364 = VECTOR ( 'NONE', #689, 1000.000000000000000 ) ;
#365 = DIRECTION ( 'NONE',  ( 0.000000000000000000, 0.000000000000000000, 1.000000000000000000 ) ) ;
#366 = LINE ( 'NONE', #496, #811 ) ;
#367 = VECTOR ( 'NONE', #1047, 1000.000000000000000 ) ;
#368 = DIRECTION ( 'NONE',  ( -1.000000000000000000, 1.807003620809175864E-16, -0.000000000000000000 ) ) ;
#369 = FACE_OUTER_BOUND ( 'NONE', #807, .T. ) ;
#370 = CARTESIAN_POINT ( 'NONE',  ( -2.550000000000000266, 0.6649999999999998135, 1.574999999999999956 ) ) ;
#371 = VECTOR ( 'NONE', #269, 1000.000000000000000 ) ;
#372 = CARTESIAN_POINT ( 'NONE',  ( -2.790000000000000480, 0.6649999999999999245, -1.574999999999999067 ) ) ;
#373 = PRESENTATION_STYLE_ASSIGNMENT (( #1363 ) ) ;
#374 = DIRECTION ( 'NONE',  ( -1.000000000000000000, 0.000000000000000000, -0.000000000000000000 ) ) ;
#375 = LINE ( 'NONE', #589, #1279 ) ;
#376 = SURFACE_SIDE_STYLE ('',( #1315 ) ) ;
#377 = LINE ( 'NONE', #385, #1305 ) ;
#378 = FACE_OUTER_BOUND ( 'NONE', #1278, .T. ) ;
#379 = CARTESIAN_POINT ( 'NONE',  ( 3.149999999999999467, 0.6999999999999995115, 1.574999999999999956 ) ) ;
#380 = AXIS2_PLACEMENT_3D ( 'NONE', #794, #680, #805 ) ;
#381 = SURFACE_STYLE_FILL_AREA ( #820 ) ;
#382 = LINE ( 'NONE', #152, #1309 ) ;
#383 = AXIS2_PLACEMENT_3D ( 'NONE', #1224, #1380, #1260 ) ;
#384 = LINE ( 'NONE', #1052, #823 ) ;
#385 = CARTESIAN_POINT ( 'NONE',  ( -3.149999999999999467, 0.6999999999999995115, -1.574999999999999956 ) ) ;
#386 = CARTESIAN_POINT ( 'NONE',  ( 2.790000000000000480, 0.6649999999999992584, -1.049999999999999822 ) ) ;
#387 = EDGE_CURVE ( 'NONE', #1381, #685, #1126, .T. ) ;
#388 = ORIENTED_EDGE ( 'NONE', *, *, #352, .F. ) ;
#389 = FACE_OUTER_BOUND ( 'NONE', #33, .T. ) ;
#390 = MECHANICAL_DESIGN_GEOMETRIC_PRESENTATION_REPRESENTATION (  '', ( #733 ), #603 ) ;
#391 = FACE_OUTER_BOUND ( 'NONE', #920, .T. ) ;
#392 = DIRECTION ( 'NONE',  ( 9.856383386231857595E-17, 1.000000000000000000, -0.000000000000000000 ) ) ;
#393 = VERTEX_POINT ( 'NONE', #1259 ) ;
#394 = LINE ( 'NONE', #972, #371 ) ;
#395 = ORIENTED_EDGE ( 'NONE', *, *, #975, .T. ) ;
#396 = SURFACE_STYLE_FILL_AREA ( #1165 ) ;
#397 = CARTESIAN_POINT ( 'NONE',  ( -3.114999999999999769, 0.6649999999999995914, 1.574999999999999956 ) ) ;
#398 = VECTOR ( 'NONE', #996, 1000.000000000000000 ) ;
#399 = EDGE_LOOP ( 'NONE', ( #1246, #1022, #275, #81, #1212, #1185, #679, #1008 ) ) ;
#400 = LINE ( 'NONE', #525, #1352 ) ;
#401 =( GEOMETRIC_REPRESENTATION_CONTEXT ( 3 ) GLOBAL_UNCERTAINTY_ASSIGNED_CONTEXT ( ( #73 ) ) GLOBAL_UNIT_ASSIGNED_CONTEXT ( ( #218, #353, #879 ) ) REPRESENTATION_CONTEXT ( 'NONE', 'WORKASPACE' ) );
#402 = COLOUR_RGB ( '',0.2509803921568627416, 0.2509803921568627416, 0.2509803921568627416 ) ;
#403 = PRESENTATION_STYLE_ASSIGNMENT (( #109 ) ) ;
#404 = SURFACE_STYLE_FILL_AREA ( #565 ) ;
#405 = ORIENTED_EDGE ( 'NONE', *, *, #994, .T. ) ;
#406 = EDGE_CURVE ( 'NONE', #42, #852, #1127, .T. ) ;
#407 = VECTOR ( 'NONE', #448, 1000.000000000000000 ) ;
#408 =( LENGTH_UNIT ( ) NAMED_UNIT ( * ) SI_UNIT ( .MILLI., .METRE. ) );
#409 =( LENGTH_UNIT ( ) NAMED_UNIT ( * ) SI_UNIT ( .MILLI., .METRE. ) );
#410 = LINE ( 'NONE', #758, #1350 ) ;
#411 = EDGE_LOOP ( 'NONE', ( #1209, #214, #431, #1200 ) ) ;
#412 = FACE_OUTER_BOUND ( 'NONE', #87, .T. ) ;
#413 = EDGE_CURVE ( 'NONE', #1158, #880, #1101, .T. ) ;
#414 = VERTEX_POINT ( 'NONE', #1269 ) ;
#415 = VECTOR ( 'NONE', #277, 1000.000000000000000 ) ;
#416 = SURFACE_STYLE_FILL_AREA ( #486 ) ;
#417 = EDGE_LOOP ( 'NONE', ( #216, #676, #886, #956 ) ) ;
#418 = DIRECTION ( 'NONE',  ( 6.429395695523600208E-16, 1.000000000000000000, 0.000000000000000000 ) ) ;
#419 = VECTOR ( 'NONE', #635, 1000.000000000000000 ) ;
#420 = LINE ( 'NONE', #227, #7 ) ;
#421 = PRESENTATION_STYLE_ASSIGNMENT (( #1266 ) ) ;
#422 = CARTESIAN_POINT ( 'NONE',  ( 3.114999999999999769, 0.03499999999999985068, 1.574999999999999956 ) ) ;
#423 = VECTOR ( 'NONE', #1084, 1000.000000000000000 ) ;
#424 = FACE_OUTER_BOUND ( 'NONE', #238, .T. ) ;
#425 = VECTOR ( 'NONE', #1189, 1000.000000000000000 ) ;
#426 = LINE ( 'NONE', #1319, #1379 ) ;
#427 = PRESENTATION_LAYER_ASSIGNMENT (  '', '', ( #1318 ) ) ;
#428 = VERTEX_POINT ( 'NONE', #842 ) ;
#429 = ORIENTED_EDGE ( 'NONE', *, *, #1136, .T. ) ;
#430 = CARTESIAN_POINT ( 'NONE',  ( -3.114999999999999769, 0.6649999999999995914, 1.574999999999999956 ) ) ;
#431 = ORIENTED_EDGE ( 'NONE', *, *, #140, .F. ) ;
#432 = EDGE_CURVE ( 'NONE', #741, #501, #634, .T. ) ;
#433 = ORIENTED_EDGE ( 'NONE', *, *, #1157, .F. ) ;
#434 = CARTESIAN_POINT ( 'NONE',  ( -3.114999999999999769, 0.6649999999999995914, 1.574999999999999956 ) ) ;
#435 = ORIENTED_EDGE ( 'NONE', *, *, #995, .T. ) ;
#436 = FACE_OUTER_BOUND ( 'NONE', #300, .T. ) ;
#437 = ORIENTED_EDGE ( 'NONE', *, *, #1080, .T. ) ;
#438 = DIRECTION ( 'NONE',  ( 1.199338686377769700E-16, -1.000000000000000000, 0.000000000000000000 ) ) ;
#439 = EDGE_LOOP ( 'NONE', ( #451, #711, #962, #440, #970, #312, #320, #488 ) ) ;
#440 = ORIENTED_EDGE ( 'NONE', *, *, #111, .T. ) ;
#441 = VERTEX_POINT ( 'NONE', #570 ) ;
#442 = DIRECTION ( 'NONE',  ( 1.000000000000000000, 0.000000000000000000, -0.000000000000000000 ) ) ;
#443 = ORIENTED_EDGE ( 'NONE', *, *, #987, .T. ) ;
#444 = DIRECTION ( 'NONE',  ( 9.856383386231860060E-17, 1.000000000000000000, 0.000000000000000000 ) ) ;
#445 = PRESENTATION_STYLE_ASSIGNMENT (( #1332 ) ) ;
#446 = EDGE_LOOP ( 'NONE', ( #255, #265, #278, #723, #702, #537, #683, #705 ) ) ;
#447 = SURFACE_STYLE_FILL_AREA ( #918 ) ;
#448 = DIRECTION ( 'NONE',  ( -1.000000000000000000, 8.503546450866700815E-17, -0.000000000000000000 ) ) ;
#449 = VERTEX_POINT ( 'NONE', #1076 ) ;
#450 = FACE_OUTER_BOUND ( 'NONE', #439, .T. ) ;
#451 = ORIENTED_EDGE ( 'NONE', *, *, #413, .F. ) ;
#452 = CARTESIAN_POINT ( 'NONE',  ( -2.549999999999999378, 0.03499999999999991313, 1.574999999999999956 ) ) ;
#453 = ORIENTED_EDGE ( 'NONE', *, *, #100, .T. ) ;
#454 = VECTOR ( 'NONE', #334, 1000.000000000000000 ) ;
#455 = EDGE_CURVE ( 'NONE', #741, #1381, #191, .T. ) ;
#456 = ORIENTED_EDGE ( 'NONE', *, *, #522, .F. ) ;
#457 = CARTESIAN_POINT ( 'NONE',  ( -3.114999999999999769, 0.03499999999999985068, 1.574999999999999956 ) ) ;
#458 = LINE ( 'NONE', #203, #863 ) ;
#459 = LINE ( 'NONE', #126, #932 ) ;
#460 = FILL_AREA_STYLE_COLOUR ( '', #649 ) ;
#461 = EDGE_CURVE ( 'NONE', #1244, #730, #653, .T. ) ;
#462 = ORIENTED_EDGE ( 'NONE', *, *, #530, .T. ) ;
#463 = SURFACE_STYLE_FILL_AREA ( #171 ) ;
#464 = LINE ( 'NONE', #505, #11 ) ;
#465 = VERTEX_POINT ( 'NONE', #1065 ) ;
#466 = CARTESIAN_POINT ( 'NONE',  ( 2.550000000000000266, 0.6649999999999998135, -1.574999999999999956 ) ) ;
#467 = FACE_OUTER_BOUND ( 'NONE', #1389, .T. ) ;
#468 = PLANE ( 'NONE',  #175 ) ;
#469 = DIRECTION ( 'NONE',  ( 1.000000000000000000, -1.199338686377769700E-16, 0.000000000000000000 ) ) ;
#470 = CLOSED_SHELL ( 'NONE', ( #1369, #64, #1182, #928, #779, #347, #699, #475, #102, #159, #1129, #1201, #503, #155 ) ) ;
#471 = LINE ( 'NONE', #558, #423 ) ;
#472 = COLOUR_RGB ( '',0.7921568627450980005, 0.8196078431372548767, 0.9333333333333333481 ) ;
#473 = DIRECTION ( 'NONE',  ( -0.000000000000000000, -0.000000000000000000, 1.000000000000000000 ) ) ;
#474 = VERTEX_POINT ( 'NONE', #477 ) ;
#475 = ADVANCED_FACE ( 'NONE', ( #1135 ), #31, .F. ) ;
#476 = CARTESIAN_POINT ( 'NONE',  ( 2.550000000000000266, 0.6649999999999998135, 1.574999999999999956 ) ) ;
#477 = CARTESIAN_POINT ( 'NONE',  ( -3.114999999999999769, 0.6649999999999995914, -1.574999999999999956 ) ) ;
#478 = AXIS2_PLACEMENT_3D ( 'NONE', #131, #731, #215 ) ;
#479 = UNCERTAINTY_MEASURE_WITH_UNIT (LENGTH_MEASURE( 1.000000000000000082E-05 ), #562, 'distance_accuracy_value', 'NONE');
#480 = ORIENTED_EDGE ( 'NONE', *, *, #1252, .T. ) ;
#481 = PRESENTATION_STYLE_ASSIGNMENT (( #1039 ) ) ;
#482 = AXIS2_PLACEMENT_3D ( 'NONE', #46, #752, #1025 ) ;
#483 = ORIENTED_EDGE ( 'NONE', *, *, #1042, .T. ) ;
#484 = DIRECTION ( 'NONE',  ( 0.000000000000000000, -1.000000000000000000, 0.000000000000000000 ) ) ;
#485 = SURFACE_STYLE_FILL_AREA ( #71 ) ;
#486 = FILL_AREA_STYLE ('',( #285 ) ) ;
#487 = FILL_AREA_STYLE_COLOUR ( '', #803 ) ;
#488 = ORIENTED_EDGE ( 'NONE', *, *, #530, .F. ) ;
#489 = EDGE_CURVE ( 'NONE', #700, #936, #176, .T. ) ;
#490 = LINE ( 'NONE', #370, #1241 ) ;
#491 = CARTESIAN_POINT ( 'NONE',  ( -2.550000000000000266, 0.6999999999999994005, 1.574999999999999956 ) ) ;
#492 = ORIENTED_EDGE ( 'NONE', *, *, #1027, .T. ) ;
#493 = AXIS2_PLACEMENT_3D ( 'NONE', #1051, #549, #268 ) ;
#494 = PRESENTATION_STYLE_ASSIGNMENT (( #873 ) ) ;
#495 = VECTOR ( 'NONE', #1102, 1000.000000000000000 ) ;
#496 = CARTESIAN_POINT ( 'NONE',  ( 2.549999999999999378, 0.03499999999999991313, 1.574999999999999956 ) ) ;
#497 = ORIENTED_EDGE ( 'NONE', *, *, #716, .F. ) ;
#498 = ORIENTED_EDGE ( 'NONE', *, *, #659, .T. ) ;
#499 = CARTESIAN_POINT ( 'NONE',  ( 3.114999999999999769, 0.6649999999999995914, 1.574999999999999956 ) ) ;
#500 = FILL_AREA_STYLE ('',( #487 ) ) ;
#501 = VERTEX_POINT ( 'NONE', #129 ) ;
#502 = CARTESIAN_POINT ( 'NONE',  ( 2.549999999999999378, 0.03499999999999991313, -1.574999999999999956 ) ) ;
#503 = ADVANCED_FACE ( 'NONE', ( #624 ), #738, .F. ) ;
#504 = ORIENTED_EDGE ( 'NONE', *, *, #544, .F. ) ;
#505 = CARTESIAN_POINT ( 'NONE',  ( 2.790000000000000480, 0.6649999999999992584, -1.574999999999999734 ) ) ;
#506 = FILL_AREA_STYLE_COLOUR ( '', #311 ) ;
#507 = AXIS2_PLACEMENT_3D ( 'NONE', #422, #541, #163 ) ;
#508 = SURFACE_STYLE_FILL_AREA ( #514 ) ;
#509 = CARTESIAN_POINT ( 'NONE',  ( -3.114999999999999769, 0.6649999999999995914, 1.574999999999999956 ) ) ;
#510 = EDGE_CURVE ( 'NONE', #730, #1143, #196, .T. ) ;
#511 = FILL_AREA_STYLE_COLOUR ( '', #1217 ) ;
#512 = CARTESIAN_POINT ( 'NONE',  ( -3.114999999999999769, 0.03499999999999985068, -7.836772911883660875 ) ) ;
#513 = MECHANICAL_DESIGN_GEOMETRIC_PRESENTATION_REPRESENTATION (  '', ( #309 ), #92 ) ;
#514 = FILL_AREA_STYLE ('',( #236 ) ) ;
#515 = CARTESIAN_POINT ( 'NONE',  ( 3.149999999999999467, 0.6999999999999995115, -1.574999999999999956 ) ) ;
#516 = DIRECTION ( 'NONE',  ( -0.000000000000000000, 0.000000000000000000, 1.000000000000000000 ) ) ;
#517 = APPLICATION_CONTEXT ( 'automotive_design' ) ;
#518 = DIRECTION ( 'NONE',  ( -0.000000000000000000, -0.000000000000000000, -1.000000000000000000 ) ) ;
#519 = DIRECTION ( 'NONE',  ( 1.376764663473656463E-16, 0.000000000000000000, 1.000000000000000000 ) ) ;
#520 = VECTOR ( 'NONE', #1087, 1000.000000000000000 ) ;
#521 = DIRECTION ( 'NONE',  ( 0.000000000000000000, -0.000000000000000000, -1.000000000000000000 ) ) ;
#522 = EDGE_CURVE ( 'NONE', #685, #726, #1137, .T. ) ;
#523 = CARTESIAN_POINT ( 'NONE',  ( -2.790000000000000036, 0.6649999999999999245, 1.574999999999999956 ) ) ;
#524 = DIRECTION ( 'NONE',  ( 0.000000000000000000, 1.000000000000000000, 0.000000000000000000 ) ) ;
#525 = CARTESIAN_POINT ( 'NONE',  ( -2.549999999999999378, 0.03499999999999991313, -1.574999999999999956 ) ) ;
#526 = CARTESIAN_POINT ( 'NONE',  ( -2.549999999999999822, 0.6649999999999998135, 1.050000000000000044 ) ) ;
#527 = ADVANCED_FACE ( 'NONE', ( #198 ), #616, .F. ) ;
#528 = DIRECTION ( 'NONE',  ( -1.000000000000000000, 6.429395695523600208E-16, 0.000000000000000000 ) ) ;
#529 = SURFACE_STYLE_USAGE ( .BOTH. , #153 ) ;
#530 = EDGE_CURVE ( 'NONE', #880, #1244, #666, .T. ) ;
#531 = MECHANICAL_DESIGN_GEOMETRIC_PRESENTATION_REPRESENTATION (  '', ( #583 ), #1343 ) ;
#532 =( NAMED_UNIT ( * ) SI_UNIT ( $, .STERADIAN. ) SOLID_ANGLE_UNIT ( ) );
#533 = ADVANCED_FACE ( 'NONE', ( #1115 ), #113, .F. ) ;
#534 =( NAMED_UNIT ( * ) SI_UNIT ( $, .STERADIAN. ) SOLID_ANGLE_UNIT ( ) );
#535 = ORIENTED_EDGE ( 'NONE', *, *, #1372, .T. ) ;
#536 = MECHANICAL_DESIGN_GEOMETRIC_PRESENTATION_REPRESENTATION (  '', ( #1213 ), #749 ) ;
#537 = ORIENTED_EDGE ( 'NONE', *, *, #247, .F. ) ;
#538 = ORIENTED_EDGE ( 'NONE', *, *, #1011, .F. ) ;
#539 = EDGE_CURVE ( 'NONE', #1337, #899, #1124, .T. ) ;
#540 = CARTESIAN_POINT ( 'NONE',  ( -2.790000000000000480, 0.6999999999999992895, -1.574999999999999067 ) ) ;
#541 = DIRECTION ( 'NONE',  ( 1.000000000000000000, 0.000000000000000000, -0.000000000000000000 ) ) ;
#542 = ORIENTED_EDGE ( 'NONE', *, *, #1339, .F. ) ;
#543 =( NAMED_UNIT ( * ) SI_UNIT ( $, .STERADIAN. ) SOLID_ANGLE_UNIT ( ) );
#544 = EDGE_CURVE ( 'NONE', #219, #1168, #1139, .T. ) ;
#545 = ORIENTED_EDGE ( 'NONE', *, *, #489, .F. ) ;
#546 = ORIENTED_EDGE ( 'NONE', *, *, #799, .T. ) ;
#547 = DIRECTION ( 'NONE',  ( 0.000000000000000000, 0.000000000000000000, 1.000000000000000000 ) ) ;
#548 = ORIENTED_EDGE ( 'NONE', *, *, #571, .T. ) ;
#549 = DIRECTION ( 'NONE',  ( 1.807003620809175864E-16, -1.000000000000000000, 0.000000000000000000 ) ) ;
#550 = DIRECTION ( 'NONE',  ( -1.000000000000000000, 0.000000000000000000, 0.000000000000000000 ) ) ;
#551 = ORIENTED_EDGE ( 'NONE', *, *, #224, .F. ) ;
#552 = DIRECTION ( 'NONE',  ( 0.000000000000000000, 1.000000000000000000, 0.000000000000000000 ) ) ;
#553 = ORIENTED_EDGE ( 'NONE', *, *, #1403, .F. ) ;
#554 = ORIENTED_EDGE ( 'NONE', *, *, #877, .F. ) ;
#555 = DIRECTION ( 'NONE',  ( -0.000000000000000000, 0.000000000000000000, 1.000000000000000000 ) ) ;
#556 = CARTESIAN_POINT ( 'NONE',  ( -2.550000000000000266, 0.6649999999999995914, 1.574999999999999956 ) ) ;
#557 = EDGE_CURVE ( 'NONE', #501, #685, #626, .T. ) ;
#558 = CARTESIAN_POINT ( 'NONE',  ( 2.550000000000000266, 0.6649999999999993694, -1.050000000000000044 ) ) ;
#559 =( GEOMETRIC_REPRESENTATION_CONTEXT ( 3 ) GLOBAL_UNCERTAINTY_ASSIGNED_CONTEXT ( ( #645 ) ) GLOBAL_UNIT_ASSIGNED_CONTEXT ( ( #1074, #1172, #532 ) ) REPRESENTATION_CONTEXT ( 'NONE', 'WORKASPACE' ) );
#560 =( LENGTH_UNIT ( ) NAMED_UNIT ( * ) SI_UNIT ( .MILLI., .METRE. ) );
#561 = DIRECTION ( 'NONE',  ( -0.000000000000000000, -0.000000000000000000, -1.000000000000000000 ) ) ;
#562 =( LENGTH_UNIT ( ) NAMED_UNIT ( * ) SI_UNIT ( .MILLI., .METRE. ) );
#563 = CARTESIAN_POINT ( 'NONE',  ( 3.114999999999999769, 0.03499999999999985068, -1.574999999999999956 ) ) ;
#564 = SURFACE_STYLE_FILL_AREA ( #241 ) ;
#565 = FILL_AREA_STYLE ('',( #650 ) ) ;
#566 = UNCERTAINTY_MEASURE_WITH_UNIT (LENGTH_MEASURE( 1.000000000000000082E-05 ), #1263, 'distance_accuracy_value', 'NONE');
#567 = SURFACE_SIDE_STYLE ('',( #266 ) ) ;
#568 = PLANE ( 'NONE',  #65 ) ;
#569 = CARTESIAN_POINT ( 'NONE',  ( -3.114999999999999769, 0.03499999999999985068, 1.574999999999999956 ) ) ;
#570 = CARTESIAN_POINT ( 'NONE',  ( -3.114999999999999769, 0.03499999999999985068, -1.574999999999999956 ) ) ;
#571 = EDGE_CURVE ( 'NONE', #1014, #225, #669, .T. ) ;
#572 = CARTESIAN_POINT ( 'NONE',  ( 3.114999999999999769, 0.6649999999999995914, -1.574999999999999956 ) ) ;
#573 = DIRECTION ( 'NONE',  ( 9.856383386231857595E-17, 1.000000000000000000, -0.000000000000000000 ) ) ;
#574 = SURFACE_SIDE_STYLE ('',( #564 ) ) ;
#575 =( NAMED_UNIT ( * ) PLANE_ANGLE_UNIT ( ) SI_UNIT ( $, .RADIAN. ) );
#576 = LINE ( 'NONE', #1110, #577 ) ;
#577 = VECTOR ( 'NONE', #469, 1000.000000000000000 ) ;
#578 = STYLED_ITEM ( 'NONE', ( #403 ), #1262 ) ;
#579 = CARTESIAN_POINT ( 'NONE',  ( 2.550000000000000266, 0.6999999999999988454, 1.574999999999999956 ) ) ;
#580 = PLANE ( 'NONE',  #745 ) ;
#581 = EDGE_CURVE ( 'NONE', #232, #936, #166, .T. ) ;
#582 = CARTESIAN_POINT ( 'NONE',  ( 2.790000000000000924, 0.6649999999999995914, 1.574999999999999956 ) ) ;
#583 = STYLED_ITEM ( 'NONE', ( #917 ), #674 ) ;
#584 = DIRECTION ( 'NONE',  ( -0.000000000000000000, -0.000000000000000000, -1.000000000000000000 ) ) ;
#585 = DIRECTION ( 'NONE',  ( 9.856383386231857595E-17, 1.000000000000000000, -0.000000000000000000 ) ) ;
#586 = DIRECTION ( 'NONE',  ( 9.856383386231857595E-17, 1.000000000000000000, -0.000000000000000000 ) ) ;
#587 =( NAMED_UNIT ( * ) SI_UNIT ( $, .STERADIAN. ) SOLID_ANGLE_UNIT ( ) );
#588 =( NAMED_UNIT ( * ) PLANE_ANGLE_UNIT ( ) SI_UNIT ( $, .RADIAN. ) );
#589 = CARTESIAN_POINT ( 'NONE',  ( 3.149999999999999467, -3.857637417314162196E-16, -1.574999999999999956 ) ) ;
#590 = MECHANICAL_DESIGN_GEOMETRIC_PRESENTATION_REPRESENTATION (  '', ( #323 ), #401 ) ;
#591 = CARTESIAN_POINT ( 'NONE',  ( 3.149999999999999467, 0.6999999999999995115, -1.574999999999999956 ) ) ;
#592 = EDGE_CURVE ( 'NONE', #12, #74, #167, .T. ) ;
#593 = DIRECTION ( 'NONE',  ( -1.000000000000000000, 9.856383386231857595E-17, 0.000000000000000000 ) ) ;
#594 = CARTESIAN_POINT ( 'NONE',  ( 2.549999999999999378, 0.000000000000000000, 1.574999999999999956 ) ) ;
#595 = EDGE_CURVE ( 'NONE', #1014, #715, #1117, .T. ) ;
#596 = APPLICATION_PROTOCOL_DEFINITION ( 'draft international standard', 'automotive_design', 1998, #517 ) ;
#597 = PLANE ( 'NONE',  #50 ) ;
#598 = PLANE ( 'NONE',  #243 ) ;
#599 = ADVANCED_FACE ( 'NONE', ( #637 ), #1180, .T. ) ;
#600 = CARTESIAN_POINT ( 'NONE',  ( 2.549999999999999378, 0.03499999999999991313, -1.574999999999999956 ) ) ;
#601 = DIRECTION ( 'NONE',  ( -1.000000000000000000, -1.199338686377769700E-16, 0.000000000000000000 ) ) ;
#602 = EDGE_CURVE ( 'NONE', #715, #1220, #208, .T. ) ;
#603 =( GEOMETRIC_REPRESENTATION_CONTEXT ( 3 ) GLOBAL_UNCERTAINTY_ASSIGNED_CONTEXT ( ( #362 ) ) GLOBAL_UNIT_ASSIGNED_CONTEXT ( ( #408, #836, #34 ) ) REPRESENTATION_CONTEXT ( 'NONE', 'WORKASPACE' ) );
#604 = CARTESIAN_POINT ( 'NONE',  ( -3.114999999999999769, 0.03499999999999985068, -7.836772911883660875 ) ) ;
#605 = DIRECTION ( 'NONE',  ( -0.000000000000000000, 1.000000000000000000, -0.000000000000000000 ) ) ;
#606 = EDGE_CURVE ( 'NONE', #773, #1014, #213, .T. ) ;
#607 = DIRECTION ( 'NONE',  ( 0.000000000000000000, 1.000000000000000000, 0.000000000000000000 ) ) ;
#608 =( NAMED_UNIT ( * ) PLANE_ANGLE_UNIT ( ) SI_UNIT ( $, .RADIAN. ) );
#609 = CARTESIAN_POINT ( 'NONE',  ( -3.114999999999999769, 0.6649999999999995914, -7.836772911883660875 ) ) ;
#610 = AXIS2_PLACEMENT_3D ( 'NONE', #324, #617, #315 ) ;
#611 = STYLED_ITEM ( 'NONE', ( #1324 ), #1097 ) ;
#612 = EDGE_CURVE ( 'NONE', #843, #700, #1152, .T. ) ;
#613 = DIRECTION ( 'NONE',  ( 0.000000000000000000, -0.000000000000000000, 1.000000000000000000 ) ) ;
#614 = CARTESIAN_POINT ( 'NONE',  ( 3.114999999999999769, 0.6649999999999995914, 1.574999999999999956 ) ) ;
#615 = EDGE_CURVE ( 'NONE', #206, #709, #276, .T. ) ;
#616 = PLANE ( 'NONE',  #1053 ) ;
#617 = DIRECTION ( 'NONE',  ( 1.000000000000000000, 0.000000000000000000, -0.000000000000000000 ) ) ;
#618 = DIRECTION ( 'NONE',  ( 0.000000000000000000, 0.000000000000000000, -1.000000000000000000 ) ) ;
#619 = FILL_AREA_STYLE_COLOUR ( '', #402 ) ;
#620 = PRESENTATION_LAYER_ASSIGNMENT (  '', '', ( #323 ) ) ;
#621 = PLANE ( 'NONE',  #127 ) ;
#622 = CARTESIAN_POINT ( 'NONE',  ( -2.549999999999999378, 0.000000000000000000, -1.574999999999999956 ) ) ;
#623 = UNCERTAINTY_MEASURE_WITH_UNIT (LENGTH_MEASURE( 1.000000000000000082E-05 ), #62, 'distance_accuracy_value', 'NONE');
#624 = FACE_OUTER_BOUND ( 'NONE', #687, .T. ) ;
#625 = EDGE_CURVE ( 'NONE', #1167, #229, #301, .T. ) ;
#626 = LINE ( 'NONE', #1144, #1104 ) ;
#627 =( LENGTH_UNIT ( ) NAMED_UNIT ( * ) SI_UNIT ( .MILLI., .METRE. ) );
#628 = STYLED_ITEM ( 'NONE', ( #373 ), #136 ) ;
#629 =( NAMED_UNIT ( * ) PLANE_ANGLE_UNIT ( ) SI_UNIT ( $, .RADIAN. ) );
#630 = VECTOR ( 'NONE', #444, 1000.000000000000000 ) ;
#631 = PLANE ( 'NONE',  #220 ) ;
#632 = ADVANCED_FACE ( 'NONE', ( #287 ), #744, .F. ) ;
#633 = CARTESIAN_POINT ( 'NONE',  ( 0.000000000000000000, 0.000000000000000000, 1.574999999999999956 ) ) ;
#634 = LINE ( 'NONE', #563, #658 ) ;
#635 = DIRECTION ( 'NONE',  ( 1.376764663473656463E-16, 0.000000000000000000, 1.000000000000000000 ) ) ;
#636 = DIRECTION ( 'NONE',  ( 0.000000000000000000, -0.000000000000000000, -1.000000000000000000 ) ) ;
#637 = FACE_OUTER_BOUND ( 'NONE', #1153, .T. ) ;
#638 = CARTESIAN_POINT ( 'NONE',  ( -3.114999999999999769, 0.03499999999999985068, 1.574999999999999956 ) ) ;
#639 = CARTESIAN_POINT ( 'NONE',  ( 3.114999999999999769, 0.03499999999999985068, 1.574999999999999956 ) ) ;
#640 = VECTOR ( 'NONE', #1083, 1000.000000000000000 ) ;
#641 = PLANE ( 'NONE',  #1134 ) ;
#642 = AXIS2_PLACEMENT_3D ( 'NONE', #675, #257, #801 ) ;
#643 = DIRECTION ( 'NONE',  ( -0.000000000000000000, -0.000000000000000000, -1.000000000000000000 ) ) ;
#644 = VECTOR ( 'NONE', #41, 1000.000000000000000 ) ;
#645 = UNCERTAINTY_MEASURE_WITH_UNIT (LENGTH_MEASURE( 1.000000000000000082E-05 ), #1074, 'distance_accuracy_value', 'NONE');
#646 =( NAMED_UNIT ( * ) SI_UNIT ( $, .STERADIAN. ) SOLID_ANGLE_UNIT ( ) );
#647 = EDGE_CURVE ( 'NONE', #718, #852, #756, .T. ) ;
#648 = LINE ( 'NONE', #1128, #173 ) ;
#649 = COLOUR_RGB ( '',1.000000000000000000, 1.000000000000000000, 1.000000000000000000 ) ;
#650 = FILL_AREA_STYLE_COLOUR ( '', #937 ) ;
#651 = CARTESIAN_POINT ( 'NONE',  ( -3.149999999999999467, 0.6999999999999995115, 1.574999999999999956 ) ) ;
#652 = ADVANCED_FACE ( 'NONE', ( #1362 ), #468, .F. ) ;
#653 = LINE ( 'NONE', #199, #661 ) ;
#654 =( NAMED_UNIT ( * ) SI_UNIT ( $, .STERADIAN. ) SOLID_ANGLE_UNIT ( ) );
#655 =( NAMED_UNIT ( * ) PLANE_ANGLE_UNIT ( ) SI_UNIT ( $, .RADIAN. ) );
#656 = VECTOR ( 'NONE', #177, 1000.000000000000000 ) ;
#657 = CARTESIAN_POINT ( 'NONE',  ( -3.149999999999999467, 0.6999999999999995115, 1.574999999999999956 ) ) ;
#658 = VECTOR ( 'NONE', #607, 1000.000000000000000 ) ;
#659 = EDGE_CURVE ( 'NONE', #1168, #1270, #15, .T. ) ;
#660 = FILL_AREA_STYLE_COLOUR ( '', #472 ) ;
#661 = VECTOR ( 'NONE', #190, 1000.000000000000000 ) ;
#662 = PRESENTATION_LAYER_ASSIGNMENT (  '', '', ( #1256 ) ) ;
#663 = SURFACE_SIDE_STYLE ('',( #354 ) ) ;
#664 = VECTOR ( 'NONE', #1155, 1000.000000000000000 ) ;
#665 = CARTESIAN_POINT ( 'NONE',  ( -3.114999999999999769, 0.6649999999999995914, -7.836772911883660875 ) ) ;
#666 = LINE ( 'NONE', #212, #644 ) ;
#667 =( NAMED_UNIT ( * ) PLANE_ANGLE_UNIT ( ) SI_UNIT ( $, .RADIAN. ) );
#668 = FILL_AREA_STYLE ('',( #460 ) ) ;
#669 = LINE ( 'NONE', #106, #1142 ) ;
#670 = ORIENTED_EDGE ( 'NONE', *, *, #264, .F. ) ;
#671 = ORIENTED_EDGE ( 'NONE', *, *, #89, .F. ) ;
#672 = DIRECTION ( 'NONE',  ( 0.000000000000000000, 0.000000000000000000, 1.000000000000000000 ) ) ;
#673 = CARTESIAN_POINT ( 'NONE',  ( 2.790000000000000924, 0.6649999999999992584, 1.574999999999998845 ) ) ;
#674 = ADVANCED_FACE ( 'NONE', ( #865 ), #335, .T. ) ;
#675 = CARTESIAN_POINT ( 'NONE',  ( 2.550000000000000266, 0.6649999999999993694, -1.050000000000000044 ) ) ;
#676 = ORIENTED_EDGE ( 'NONE', *, *, #901, .T. ) ;
#677 =( GEOMETRIC_REPRESENTATION_CONTEXT ( 3 ) GLOBAL_UNCERTAINTY_ASSIGNED_CONTEXT ( ( #479 ) ) GLOBAL_UNIT_ASSIGNED_CONTEXT ( ( #562, #1095, #654 ) ) REPRESENTATION_CONTEXT ( 'NONE', 'WORKASPACE' ) );
#678 = VECTOR ( 'NONE', #848, 1000.000000000000000 ) ;
#679 = ORIENTED_EDGE ( 'NONE', *, *, #754, .T. ) ;
#680 = DIRECTION ( 'NONE',  ( 0.000000000000000000, 1.000000000000000000, 0.000000000000000000 ) ) ;
#681 = EDGE_CURVE ( 'NONE', #736, #449, #1354, .T. ) ;
#682 = VECTOR ( 'NONE', #1072, 1000.000000000000000 ) ;
#683 = ORIENTED_EDGE ( 'NONE', *, *, #355, .F. ) ;
#684 = CARTESIAN_POINT ( 'NONE',  ( 2.790000000000000924, 0.6649999999999992584, 1.574999999999998845 ) ) ;
#685 = VERTEX_POINT ( 'NONE', #614 ) ;
#686 = AXIS2_PLACEMENT_3D ( 'NONE', #1392, #1346, #967 ) ;
#687 = EDGE_LOOP ( 'NONE', ( #1216, #1000, #1003, #304 ) ) ;
#688 = ADVANCED_FACE ( 'NONE', ( #436 ), #133, .T. ) ;
#689 = DIRECTION ( 'NONE',  ( -0.000000000000000000, -1.000000000000000000, -0.000000000000000000 ) ) ;
#690 = CARTESIAN_POINT ( 'NONE',  ( -3.149999999999999467, 0.6999999999999995115, -1.574999999999999956 ) ) ;
#691 = EDGE_LOOP ( 'NONE', ( #893, #1334, #671, #1404 ) ) ;
#692 = ORIENTED_EDGE ( 'NONE', *, *, #187, .F. ) ;
#693 = ORIENTED_EDGE ( 'NONE', *, *, #606, .T. ) ;
#694 = DIRECTION ( 'NONE',  ( 9.856383386231857595E-17, 1.000000000000000000, -0.000000000000000000 ) ) ;
#695 = ORIENTED_EDGE ( 'NONE', *, *, #130, .F. ) ;
#696 = FILL_AREA_STYLE ('',( #713 ) ) ;
#697 = VERTEX_POINT ( 'NONE', #217 ) ;
#698 = PRODUCT_DEFINITION_SHAPE ( 'NONE', 'NONE',  #61 ) ;
#699 = ADVANCED_FACE ( 'NONE', ( #911 ), #138, .F. ) ;
#700 = VERTEX_POINT ( 'NONE', #1021 ) ;
#701 = EDGE_CURVE ( 'NONE', #414, #325, #858, .T. ) ;
#702 = ORIENTED_EDGE ( 'NONE', *, *, #1042, .F. ) ;
#703 = AXIS2_PLACEMENT_3D ( 'NONE', #831, #1294, #174 ) ;
#704 = ADVANCED_FACE ( 'NONE', ( #450 ), #580, .F. ) ;
#705 = ORIENTED_EDGE ( 'NONE', *, *, #815, .F. ) ;
#706 = CARTESIAN_POINT ( 'NONE',  ( -2.550000000000000266, 0.6999999999999992895, -1.574999999999999956 ) ) ;
#707 = DIRECTION ( 'NONE',  ( 0.000000000000000000, 0.000000000000000000, -1.000000000000000000 ) ) ;
#708 = ORIENTED_EDGE ( 'NONE', *, *, #988, .F. ) ;
#709 = VERTEX_POINT ( 'NONE', #1276 ) ;
#710 = EDGE_LOOP ( 'NONE', ( #1177, #735, #251, #998 ) ) ;
#711 = ORIENTED_EDGE ( 'NONE', *, *, #63, .F. ) ;
#712 = PRESENTATION_LAYER_ASSIGNMENT (  '', '', ( #1118 ) ) ;
#713 = FILL_AREA_STYLE_COLOUR ( '', #1242 ) ;
#714 =( NAMED_UNIT ( * ) SI_UNIT ( $, .STERADIAN. ) SOLID_ANGLE_UNIT ( ) );
#715 = VERTEX_POINT ( 'NONE', #849 ) ;
#716 = EDGE_CURVE ( 'NONE', #474, #10, #1382, .T. ) ;
#717 = VERTEX_POINT ( 'NONE', #123 ) ;
#718 = VERTEX_POINT ( 'NONE', #117 ) ;
#719 = VECTOR ( 'NONE', #993, 1000.000000000000000 ) ;
#720 = CARTESIAN_POINT ( 'NONE',  ( -3.149999999999999467, 0.6999999999999995115, 1.574999999999999956 ) ) ;
#721 = ORIENTED_EDGE ( 'NONE', *, *, #754, .F. ) ;
#722 = VECTOR ( 'NONE', #143, 1000.000000000000000 ) ;
#723 = ORIENTED_EDGE ( 'NONE', *, *, #681, .F. ) ;
#724 = ORIENTED_EDGE ( 'NONE', *, *, #1193, .T. ) ;
#725 = FACE_OUTER_BOUND ( 'NONE', #1267, .T. ) ;
#726 = VERTEX_POINT ( 'NONE', #1009 ) ;
#727 = DIRECTION ( 'NONE',  ( -0.000000000000000000, -0.000000000000000000, -1.000000000000000000 ) ) ;
#728 = ORIENTED_EDGE ( 'NONE', *, *, #1403, .T. ) ;
#729 = EDGE_CURVE ( 'NONE', #715, #850, #471, .T. ) ;
#730 = VERTEX_POINT ( 'NONE', #1188 ) ;
#731 = DIRECTION ( 'NONE',  ( -1.000000000000000000, 9.856383386231857595E-17, 0.000000000000000000 ) ) ;
#732 =( NAMED_UNIT ( * ) PLANE_ANGLE_UNIT ( ) SI_UNIT ( $, .RADIAN. ) );
#733 = STYLED_ITEM ( 'NONE', ( #1114 ), #318 ) ;
#734 = UNCERTAINTY_MEASURE_WITH_UNIT (LENGTH_MEASURE( 1.000000000000000082E-05 ), #1030, 'distance_accuracy_value', 'NONE');
#735 = ORIENTED_EDGE ( 'NONE', *, *, #406, .F. ) ;
#736 = VERTEX_POINT ( 'NONE', #1299 ) ;
#737 = CARTESIAN_POINT ( 'NONE',  ( -2.790000000000000036, 0.6649999999999999245, 1.574999999999999956 ) ) ;
#738 = PLANE ( 'NONE',  #1197 ) ;
#739 = ORIENTED_EDGE ( 'NONE', *, *, #625, .F. ) ;
#740 = LINE ( 'NONE', #961, #293 ) ;
#741 = VERTEX_POINT ( 'NONE', #1326 ) ;
#742 =( NAMED_UNIT ( * ) SI_UNIT ( $, .STERADIAN. ) SOLID_ANGLE_UNIT ( ) );
#743 = VECTOR ( 'NONE', #618, 1000.000000000000000 ) ;
#744 = PLANE ( 'NONE',  #1125 ) ;
#745 = AXIS2_PLACEMENT_3D ( 'NONE', #651, #1090, #1204 ) ;
#746 = CARTESIAN_POINT ( 'NONE',  ( 2.549999999999999822, -5.329372360806426734, -1.574999999999999956 ) ) ;
#747 = ORIENTED_EDGE ( 'NONE', *, *, #994, .F. ) ;
#748 = DIRECTION ( 'NONE',  ( 0.000000000000000000, 0.000000000000000000, -1.000000000000000000 ) ) ;
#749 =( GEOMETRIC_REPRESENTATION_CONTEXT ( 3 ) GLOBAL_UNCERTAINTY_ASSIGNED_CONTEXT ( ( #734 ) ) GLOBAL_UNIT_ASSIGNED_CONTEXT ( ( #1030, #667, #587 ) ) REPRESENTATION_CONTEXT ( 'NONE', 'WORKASPACE' ) );
#750 = EDGE_LOOP ( 'NONE', ( #776, #201, #94, #548 ) ) ;
#751 = VECTOR ( 'NONE', #186, 1000.000000000000000 ) ;
#752 = DIRECTION ( 'NONE',  ( 0.000000000000000000, 0.000000000000000000, -1.000000000000000000 ) ) ;
#753 = CARTESIAN_POINT ( 'NONE',  ( 2.549999999999999378, 0.000000000000000000, 1.574999999999999956 ) ) ;
#754 = EDGE_CURVE ( 'NONE', #393, #843, #930, .T. ) ;
#755 = VERTEX_POINT ( 'NONE', #889 ) ;
#756 = LINE ( 'NONE', #25, #290 ) ;
#757 = EDGE_LOOP ( 'NONE', ( #538, #739, #483, #263 ) ) ;
#758 = CARTESIAN_POINT ( 'NONE',  ( -2.550000000000000711, 0.6649999999999998135, -1.574999999999999956 ) ) ;
#759 =( GEOMETRIC_REPRESENTATION_CONTEXT ( 3 ) GLOBAL_UNCERTAINTY_ASSIGNED_CONTEXT ( ( #1400 ) ) GLOBAL_UNIT_ASSIGNED_CONTEXT ( ( #999, #110, #1301 ) ) REPRESENTATION_CONTEXT ( 'NONE', 'WORKASPACE' ) );
#760 = DIRECTION ( 'NONE',  ( 1.000000000000000000, 1.199338686377769700E-16, 0.000000000000000000 ) ) ;
#761 = CARTESIAN_POINT ( 'NONE',  ( -3.114999999999999769, 0.6649999999999995914, -7.836772911883660875 ) ) ;
#762 = ORIENTED_EDGE ( 'NONE', *, *, #815, .T. ) ;
#763 = LINE ( 'NONE', #1228, #1236 ) ;
#764 = EDGE_LOOP ( 'NONE', ( #336, #453, #443, #456 ) ) ;
#765 = CARTESIAN_POINT ( 'NONE',  ( -2.550000000000000266, -5.329372360806425846, 1.574999999999999956 ) ) ;
#766 = CARTESIAN_POINT ( 'NONE',  ( -3.114999999999999769, 0.03499999999999985068, -1.574999999999999956 ) ) ;
#767 = EDGE_LOOP ( 'NONE', ( #929, #435, #892, #1386 ) ) ;
#768 = LINE ( 'NONE', #540, #777 ) ;
#769 = ORIENTED_EDGE ( 'NONE', *, *, #1193, .F. ) ;
#770 =( NAMED_UNIT ( * ) PLANE_ANGLE_UNIT ( ) SI_UNIT ( $, .RADIAN. ) );
#771 = COLOUR_RGB ( '',0.7921568627450980005, 0.8196078431372548767, 0.9333333333333333481 ) ;
#772 = DIRECTION ( 'NONE',  ( -1.000000000000000000, 0.000000000000000000, 0.000000000000000000 ) ) ;
#773 = VERTEX_POINT ( 'NONE', #59 ) ;
#774 = VECTOR ( 'NONE', #521, 1000.000000000000000 ) ;
#775 = VECTOR ( 'NONE', #283, 1000.000000000000000 ) ;
#776 = ORIENTED_EDGE ( 'NONE', *, *, #264, .T. ) ;
#777 = VECTOR ( 'NONE', #1273, 1000.000000000000000 ) ;
#778 = DIRECTION ( 'NONE',  ( 0.000000000000000000, 1.000000000000000000, 0.000000000000000000 ) ) ;
#779 = ADVANCED_FACE ( 'NONE', ( #1397 ), #906, .F. ) ;
#780 = EDGE_CURVE ( 'NONE', #755, #74, #1358, .T. ) ;
#781 = VERTEX_POINT ( 'NONE', #509 ) ;
#782 = LINE ( 'NONE', #1121, #1290 ) ;
#783 = MECHANICAL_DESIGN_GEOMETRIC_PRESENTATION_REPRESENTATION (  '', ( #628 ), #161 ) ;
#784 = VERTEX_POINT ( 'NONE', #638 ) ;
#785 = DIRECTION ( 'NONE',  ( 0.000000000000000000, -1.000000000000000000, -0.000000000000000000 ) ) ;
#786 = LINE ( 'NONE', #1026, #1297 ) ;
#787 = DIRECTION ( 'NONE',  ( 1.000000000000000000, -9.856383386231860060E-17, 0.000000000000000000 ) ) ;
#788 = ORIENTED_EDGE ( 'NONE', *, *, #207, .T. ) ;
#789 = EDGE_LOOP ( 'NONE', ( #210, #1183, #79, #258, #24, #18, #295, #1250 ) ) ;
#790 =( LENGTH_UNIT ( ) NAMED_UNIT ( * ) SI_UNIT ( .MILLI., .METRE. ) );
#791 = ORIENTED_EDGE ( 'NONE', *, *, #701, .T. ) ;
#792 = ADVANCED_FACE ( 'NONE', ( #921 ), #1179, .F. ) ;
#793 = ORIENTED_EDGE ( 'NONE', *, *, #72, .T. ) ;
#794 = CARTESIAN_POINT ( 'NONE',  ( 3.114999999999999769, 0.6649999999999995914, 1.574999999999999956 ) ) ;
#795 = DIRECTION ( 'NONE',  ( -9.856383386231857595E-17, -1.000000000000000000, 0.000000000000000000 ) ) ;
#796 = MECHANICAL_DESIGN_GEOMETRIC_PRESENTATION_REPRESENTATION (  '', ( #1118 ), #1060 ) ;
#797 = ORIENTED_EDGE ( 'NONE', *, *, #432, .T. ) ;
#798 = VERTEX_POINT ( 'NONE', #1071 ) ;
#799 = EDGE_CURVE ( 'NONE', #449, #30, #878, .T. ) ;
#800 = DIRECTION ( 'NONE',  ( 0.000000000000000000, -1.000000000000000000, -0.000000000000000000 ) ) ;
#801 = DIRECTION ( 'NONE',  ( 1.000000000000000000, 0.000000000000000000, 1.807003620809172610E-15 ) ) ;
#802 = ORIENTED_EDGE ( 'NONE', *, *, #352, .T. ) ;
#803 = COLOUR_RGB ( '',0.2509803921568627416, 0.2509803921568627416, 0.2509803921568627416 ) ;
#804 = ORIENTED_EDGE ( 'NONE', *, *, #43, .F. ) ;
#805 = DIRECTION ( 'NONE',  ( 0.000000000000000000, 0.000000000000000000, 1.000000000000000000 ) ) ;
#806 = CARTESIAN_POINT ( 'NONE',  ( 0.000000000000000000, 0.000000000000000000, 1.574999999999999956 ) ) ;
#807 = EDGE_LOOP ( 'NONE', ( #38, #329, #1368, #910 ) ) ;
#808 = VECTOR ( 'NONE', #643, 1000.000000000000000 ) ;
#809 = VECTOR ( 'NONE', #392, 1000.000000000000000 ) ;
#810 = ORIENTED_EDGE ( 'NONE', *, *, #455, .F. ) ;
#811 = VECTOR ( 'NONE', #778, 1000.000000000000000 ) ;
#812 = LINE ( 'NONE', #156, #1284 ) ;
#813 = AXIS2_PLACEMENT_3D ( 'NONE', #984, #707, #246 ) ;
#814 = LINE ( 'NONE', #1013, #1316 ) ;
#815 = EDGE_CURVE ( 'NONE', #1255, #840, #420, .T. ) ;
#816 = LINE ( 'NONE', #515, #827 ) ;
#817 = AXIS2_PLACEMENT_3D ( 'NONE', #604, #983, #8 ) ;
#818 = VECTOR ( 'NONE', #1239, 1000.000000000000000 ) ;
#819 = SURFACE_SIDE_STYLE ('',( #1099 ) ) ;
#820 = FILL_AREA_STYLE ('',( #1162 ) ) ;
#821 = LINE ( 'NONE', #135, #1249 ) ;
#822 = LINE ( 'NONE', #898, #348 ) ;
#823 = VECTOR ( 'NONE', #605, 1000.000000000000000 ) ;
#824 = COLOUR_RGB ( '',0.2509803921568627416, 0.2509803921568627416, 0.2509803921568627416 ) ;
#825 = DIRECTION ( 'NONE',  ( 1.000000000000000000, 0.000000000000000000, 0.000000000000000000 ) ) ;
#826 = CARTESIAN_POINT ( 'NONE',  ( -2.549999999999999822, 0.6649999999999998135, 1.050000000000000044 ) ) ;
#827 = VECTOR ( 'NONE', #84, 1000.000000000000000 ) ;
#828 =( GEOMETRIC_REPRESENTATION_CONTEXT ( 3 ) GLOBAL_UNCERTAINTY_ASSIGNED_CONTEXT ( ( #235 ) ) GLOBAL_UNIT_ASSIGNED_CONTEXT ( ( #1338, #1317, #231 ) ) REPRESENTATION_CONTEXT ( 'NONE', 'WORKASPACE' ) );
#829 = EDGE_CURVE ( 'NONE', #697, #291, #884, .T. ) ;
#830 = VECTOR ( 'NONE', #518, 1000.000000000000000 ) ;
#831 = CARTESIAN_POINT ( 'NONE',  ( -2.550000000000000266, 0.6649999999999998135, -1.049999999999999600 ) ) ;
#832 = STYLED_ITEM ( 'NONE', ( #1119 ), #599 ) ;
#833 = LINE ( 'NONE', #766, #1283 ) ;
#834 = UNCERTAINTY_MEASURE_WITH_UNIT (LENGTH_MEASURE( 1.000000000000000082E-05 ), #356, 'distance_accuracy_value', 'NONE');
#835 = FACE_OUTER_BOUND ( 'NONE', #1257, .T. ) ;
#836 =( NAMED_UNIT ( * ) PLANE_ANGLE_UNIT ( ) SI_UNIT ( $, .RADIAN. ) );
#837 = CARTESIAN_POINT ( 'NONE',  ( 2.550000000000000266, 0.6999999999999988454, -1.050000000000000044 ) ) ;
#838 = LINE ( 'NONE', #526, #1289 ) ;
#839 = DIRECTION ( 'NONE',  ( -1.000000000000000000, 6.429395695523600208E-16, 0.000000000000000000 ) ) ;
#840 = VERTEX_POINT ( 'NONE', #349 ) ;
#841 = FACE_OUTER_BOUND ( 'NONE', #789, .T. ) ;
#842 = CARTESIAN_POINT ( 'NONE',  ( -2.790000000000000480, 0.6999999999999992895, -1.049999999999999156 ) ) ;
#843 = VERTEX_POINT ( 'NONE', #572 ) ;
#844 = AXIS2_PLACEMENT_3D ( 'NONE', #1092, #1207, #149 ) ;
#845 = FILL_AREA_STYLE_COLOUR ( '', #1349 ) ;
#846 = EDGE_LOOP ( 'NONE', ( #721, #1146, #270, #1190 ) ) ;
#847 = VECTOR ( 'NONE', #9, 1000.000000000000000 ) ;
#848 = DIRECTION ( 'NONE',  ( 1.000000000000000000, -4.517509052022931526E-16, 1.807003620809172610E-15 ) ) ;
#849 = CARTESIAN_POINT ( 'NONE',  ( 2.550000000000000266, 0.6649999999999993694, -1.050000000000000044 ) ) ;
#850 = VERTEX_POINT ( 'NONE', #361 ) ;
#851 = EDGE_CURVE ( 'NONE', #465, #1331, #19, .T. ) ;
#852 = VERTEX_POINT ( 'NONE', #54 ) ;
#853 = VECTOR ( 'NONE', #58, 1000.000000000000000 ) ;
#854 = AXIS2_PLACEMENT_3D ( 'NONE', #673, #95, #343 ) ;
#855 = SURFACE_SIDE_STYLE ('',( #396 ) ) ;
#856 = CARTESIAN_POINT ( 'NONE',  ( -2.790000000000000036, 0.6649999999999999245, 1.050000000000000044 ) ) ;
#857 = VECTOR ( 'NONE', #1394, 1000.000000000000000 ) ;
#858 = LINE ( 'NONE', #1085, #425 ) ;
#859 = ORIENTED_EDGE ( 'NONE', *, *, #111, .F. ) ;
#860 = DIRECTION ( 'NONE',  ( -1.000000000000000000, 0.000000000000000000, 0.000000000000000000 ) ) ;
#861 = FACE_OUTER_BOUND ( 'NONE', #846, .T. ) ;
#862 = CARTESIAN_POINT ( 'NONE',  ( 3.114999999999999769, 0.6649999999999995914, -1.574999999999999956 ) ) ;
#863 = VECTOR ( 'NONE', #586, 1000.000000000000000 ) ;
#864 = ORIENTED_EDGE ( 'NONE', *, *, #592, .F. ) ;
#865 = FACE_OUTER_BOUND ( 'NONE', #764, .T. ) ;
#866 = ORIENTED_EDGE ( 'NONE', *, *, #1300, .T. ) ;
#867 = DIRECTION ( 'NONE',  ( 0.000000000000000000, 0.000000000000000000, -1.000000000000000000 ) ) ;
#868 = DIRECTION ( 'NONE',  ( 0.000000000000000000, 0.000000000000000000, 1.000000000000000000 ) ) ;
#869 = VECTOR ( 'NONE', #573, 1000.000000000000000 ) ;
#870 = CLOSED_SHELL ( 'NONE', ( #632, #652, #1245, #1247, #1048, #704, #527, #254, #1056, #1120, #533, #1035, #792, #1340 ) ) ;
#871 = COLOUR_RGB ( '',1.000000000000000000, 1.000000000000000000, 1.000000000000000000 ) ;
#872 = ORIENTED_EDGE ( 'NONE', *, *, #387, .T. ) ;
#873 = SURFACE_STYLE_USAGE ( .BOTH. , #192 ) ;
#874 = LINE ( 'NONE', #1149, #407 ) ;
#875 =( NAMED_UNIT ( * ) SI_UNIT ( $, .STERADIAN. ) SOLID_ANGLE_UNIT ( ) );
#876 = PRODUCT_CONTEXT ( 'NONE', #517, 'mechanical' ) ;
#877 = EDGE_CURVE ( 'NONE', #773, #709, #458, .T. ) ;
#878 = LINE ( 'NONE', #499, #926 ) ;
#879 =( NAMED_UNIT ( * ) SI_UNIT ( $, .STERADIAN. ) SOLID_ANGLE_UNIT ( ) );
#880 = VERTEX_POINT ( 'NONE', #657 ) ;
#881 = FACE_OUTER_BOUND ( 'NONE', #289, .T. ) ;
#882 = LINE ( 'NONE', #569, #923 ) ;
#883 = DIRECTION ( 'NONE',  ( -1.000000000000000000, 0.000000000000000000, -0.000000000000000000 ) ) ;
#884 = LINE ( 'NONE', #927, #945 ) ;
#885 = COLOUR_RGB ( '',1.000000000000000000, 1.000000000000000000, 1.000000000000000000 ) ;
#886 = ORIENTED_EDGE ( 'NONE', *, *, #944, .T. ) ;
#887 = VECTOR ( 'NONE', #1169, 1000.000000000000000 ) ;
#888 = ORIENTED_EDGE ( 'NONE', *, *, #432, .F. ) ;
#889 = CARTESIAN_POINT ( 'NONE',  ( -2.549999999999999822, 0.6999999999999992895, 1.050000000000000044 ) ) ;
#890 = ORIENTED_EDGE ( 'NONE', *, *, #1296, .F. ) ;
#891 = PRESENTATION_LAYER_ASSIGNMENT (  '', '', ( #82 ) ) ;
#892 = ORIENTED_EDGE ( 'NONE', *, *, #455, .T. ) ;
#893 = ORIENTED_EDGE ( 'NONE', *, *, #63, .T. ) ;
#894 = PRESENTATION_LAYER_ASSIGNMENT (  '', '', ( #578 ) ) ;
#895 = ORIENTED_EDGE ( 'NONE', *, *, #413, .T. ) ;
#896 = LINE ( 'NONE', #957, #857 ) ;
#897 = DIRECTION ( 'NONE',  ( 1.000000000000000000, 0.000000000000000000, 0.000000000000000000 ) ) ;
#898 = CARTESIAN_POINT ( 'NONE',  ( 2.790000000000000480, 0.6649999999999992584, -1.049999999999999822 ) ) ;
#899 = VERTEX_POINT ( 'NONE', #579 ) ;
#900 = PRESENTATION_STYLE_ASSIGNMENT (( #1059 ) ) ;
#901 = EDGE_CURVE ( 'NONE', #414, #905, #410, .T. ) ;
#902 = LINE ( 'NONE', #1082, #907 ) ;
#903 = ORIENTED_EDGE ( 'NONE', *, *, #1252, .F. ) ;
#904 = VECTOR ( 'NONE', #484, 1000.000000000000000 ) ;
#905 = VERTEX_POINT ( 'NONE', #466 ) ;
#906 = PLANE ( 'NONE',  #610 ) ;
#907 = VECTOR ( 'NONE', #51, 1000.000000000000000 ) ;
#908 = AXIS2_PLACEMENT_3D ( 'NONE', #753, #418, #1061 ) ;
#909 = CARTESIAN_POINT ( 'NONE',  ( 3.149999999999999467, -3.857637417314162196E-16, 1.574999999999999956 ) ) ;
#910 = ORIENTED_EDGE ( 'NONE', *, *, #701, .F. ) ;
#911 = FACE_OUTER_BOUND ( 'NONE', #1012, .T. ) ;
#912 = SURFACE_STYLE_USAGE ( .BOTH. , #567 ) ;
#913 = ORIENTED_EDGE ( 'NONE', *, *, #1094, .F. ) ;
#914 = COLOUR_RGB ( '',0.2509803921568627416, 0.2509803921568627416, 0.2509803921568627416 ) ;
#915 = CARTESIAN_POINT ( 'NONE',  ( -2.790000000000000036, 0.6649999999999999245, 1.050000000000000044 ) ) ;
#916 = ORIENTED_EDGE ( 'NONE', *, *, #132, .T. ) ;
#917 = PRESENTATION_STYLE_ASSIGNMENT (( #36 ) ) ;
#918 = FILL_AREA_STYLE ('',( #1210 ) ) ;
#919 = DIRECTION ( 'NONE',  ( 1.000000000000000000, -4.517509052022931526E-16, -1.807003620809172610E-15 ) ) ;
#920 = EDGE_LOOP ( 'NONE', ( #1258, #791, #903, #433 ) ) ;
#921 = FACE_OUTER_BOUND ( 'NONE', #691, .T. ) ;
#922 = ORIENTED_EDGE ( 'NONE', *, *, #1323, .T. ) ;
#923 = VECTOR ( 'NONE', #1198, 1000.000000000000000 ) ;
#924 = ADVANCED_FACE ( 'NONE', ( #467 ), #1203, .T. ) ;
#925 = ORIENTED_EDGE ( 'NONE', *, *, #387, .F. ) ;
#926 = VECTOR ( 'NONE', #860, 1000.000000000000000 ) ;
#927 = CARTESIAN_POINT ( 'NONE',  ( -2.549999999999999378, 0.000000000000000000, 1.574999999999999956 ) ) ;
#928 = ADVANCED_FACE ( 'NONE', ( #32 ), #239, .F. ) ;
#929 = ORIENTED_EDGE ( 'NONE', *, *, #72, .F. ) ;
#930 = LINE ( 'NONE', #1313, #887 ) ;
#931 = DIRECTION ( 'NONE',  ( 1.000000000000000000, 0.000000000000000000, 0.000000000000000000 ) ) ;
#932 = VECTOR ( 'NONE', #328, 1000.000000000000000 ) ;
#933 = SURFACE_STYLE_FILL_AREA ( #1159 ) ;
#934 = PRESENTATION_LAYER_ASSIGNMENT (  '', '', ( #1213 ) ) ;
#935 = DIRECTION ( 'NONE',  ( -1.000000000000000000, 1.199338686377769700E-16, 0.000000000000000000 ) ) ;
#936 = VERTEX_POINT ( 'NONE', #947 ) ;
#937 = COLOUR_RGB ( '',1.000000000000000000, 1.000000000000000000, 1.000000000000000000 ) ;
#938 = CARTESIAN_POINT ( 'NONE',  ( 2.550000000000000266, 0.6999999999999994005, 1.574999999999999956 ) ) ;
#939 = ORIENTED_EDGE ( 'NONE', *, *, #461, .T. ) ;
#940 = EDGE_CURVE ( 'NONE', #1337, #234, #490, .T. ) ;
#941 = COLOUR_RGB ( '',1.000000000000000000, 1.000000000000000000, 1.000000000000000000 ) ;
#942 = FACE_OUTER_BOUND ( 'NONE', #446, .T. ) ;
#943 = ORIENTED_EDGE ( 'NONE', *, *, #303, .T. ) ;
#944 = EDGE_CURVE ( 'NONE', #905, #1337, #740, .T. ) ;
#945 = VECTOR ( 'NONE', #1028, 1000.000000000000000 ) ;
#946 = LINE ( 'NONE', #491, #808 ) ;
#947 = CARTESIAN_POINT ( 'NONE',  ( 2.790000000000000480, 0.6999999999999994005, -1.574999999999999956 ) ) ;
#948 = VERTEX_POINT ( 'NONE', #250 ) ;
#949 = SURFACE_STYLE_USAGE ( .BOTH. , #134 ) ;
#950 = LINE ( 'NONE', #1219, #22 ) ;
#951 = CARTESIAN_POINT ( 'NONE',  ( -2.790000000000000036, 0.6649999999999999245, 1.574999999999999956 ) ) ;
#952 = ORIENTED_EDGE ( 'NONE', *, *, #1160, .F. ) ;
#953 = VECTOR ( 'NONE', #365, 1000.000000000000000 ) ;
#954 = SHAPE_DEFINITION_REPRESENTATION ( #698, #1077 ) ;
#955 = CARTESIAN_POINT ( 'NONE',  ( -2.549999999999999822, 0.6649999999999998135, 1.050000000000000044 ) ) ;
#956 = ORIENTED_EDGE ( 'NONE', *, *, #940, .T. ) ;
#957 = CARTESIAN_POINT ( 'NONE',  ( -3.114999999999999769, 0.03499999999999985068, 1.574999999999999956 ) ) ;
#958 = LINE ( 'NONE', #1311, #16 ) ;
#959 = EDGE_LOOP ( 'NONE', ( #395, #747, #1154, #1253 ) ) ;
#960 = LINE ( 'NONE', #951, #495 ) ;
#961 = CARTESIAN_POINT ( 'NONE',  ( 2.550000000000000266, 0.6649999999999998135, -1.574999999999999956 ) ) ;
#962 = ORIENTED_EDGE ( 'NONE', *, *, #780, .F. ) ;
#963 = DIRECTION ( 'NONE',  ( 0.000000000000000000, -0.000000000000000000, -1.000000000000000000 ) ) ;
#964 =( GEOMETRIC_REPRESENTATION_CONTEXT ( 3 ) GLOBAL_UNCERTAINTY_ASSIGNED_CONTEXT ( ( #154 ) ) GLOBAL_UNIT_ASSIGNED_CONTEXT ( ( #790, #588, #1223 ) ) REPRESENTATION_CONTEXT ( 'NONE', 'WORKASPACE' ) );
#965 = CLOSED_SHELL ( 'NONE', ( #1097, #4, #1024, #1387, #1044, #1020 ) ) ;
#966 = EDGE_CURVE ( 'NONE', #449, #843, #1226, .T. ) ;
#967 = DIRECTION ( 'NONE',  ( -1.000000000000000000, -6.429395695523600208E-16, 0.000000000000000000 ) ) ;
#968 = ORIENTED_EDGE ( 'NONE', *, *, #1215, .T. ) ;
#969 = AXIS2_PLACEMENT_3D ( 'NONE', #1079, #1314, #180 ) ;
#970 = ORIENTED_EDGE ( 'NONE', *, *, #327, .F. ) ;
#971 = VERTEX_POINT ( 'NONE', #591 ) ;
#972 = CARTESIAN_POINT ( 'NONE',  ( 2.549999999999999822, -5.329372360806426734, -1.574999999999999956 ) ) ;
#973 = PRESENTATION_STYLE_ASSIGNMENT (( #245 ) ) ;
#974 = SURFACE_SIDE_STYLE ('',( #1111 ) ) ;
#975 = EDGE_CURVE ( 'NONE', #1143, #1391, #763, .T. ) ;
#976 = MECHANICAL_DESIGN_GEOMETRIC_PRESENTATION_REPRESENTATION (  '', ( #1256 ), #1176 ) ;
#977 = CARTESIAN_POINT ( 'NONE',  ( 3.114999999999999769, 0.03499999999999985068, 1.574999999999999956 ) ) ;
#978 =( NAMED_UNIT ( * ) PLANE_ANGLE_UNIT ( ) SI_UNIT ( $, .RADIAN. ) );
#979 = CARTESIAN_POINT ( 'NONE',  ( -3.114999999999999769, 0.03499999999999985068, -1.574999999999999956 ) ) ;
#980 = UNCERTAINTY_MEASURE_WITH_UNIT (LENGTH_MEASURE( 1.000000000000000082E-05 ), #409, 'distance_accuracy_value', 'NONE');
#981 = CARTESIAN_POINT ( 'NONE',  ( 3.114999999999999769, 0.03499999999999985068, -7.836772911883660875 ) ) ;
#982 = AXIS2_PLACEMENT_3D ( 'NONE', #1336, #66, #137 ) ;
#983 = DIRECTION ( 'NONE',  ( 0.000000000000000000, -1.000000000000000000, 0.000000000000000000 ) ) ;
#984 = CARTESIAN_POINT ( 'NONE',  ( 0.000000000000000000, 0.000000000000000000, -1.574999999999999956 ) ) ;
#985 = AXIS2_PLACEMENT_3D ( 'NONE', #80, #326, #1001 ) ;
#986 = CARTESIAN_POINT ( 'NONE',  ( -2.550000000000000266, 0.6649999999999998135, -1.049999999999999600 ) ) ;
#987 = EDGE_CURVE ( 'NONE', #474, #726, #1196, .T. ) ;
#988 = EDGE_CURVE ( 'NONE', #1255, #971, #274, .T. ) ;
#989 = UNCERTAINTY_MEASURE_WITH_UNIT (LENGTH_MEASURE( 1.000000000000000082E-05 ), #627, 'distance_accuracy_value', 'NONE');
#990 = CARTESIAN_POINT ( 'NONE',  ( -2.549999999999999378, 0.03499999999999991313, -1.574999999999999956 ) ) ;
#991 = DIRECTION ( 'NONE',  ( 9.856383386231857595E-17, 1.000000000000000000, -0.000000000000000000 ) ) ;
#992 = CARTESIAN_POINT ( 'NONE',  ( -2.790000000000000480, 0.6649999999999999245, -1.574999999999999067 ) ) ;
#993 = DIRECTION ( 'NONE',  ( -1.000000000000000000, 0.000000000000000000, 0.000000000000000000 ) ) ;
#994 = EDGE_CURVE ( 'NONE', #948, #1391, #1206, .T. ) ;
#995 = EDGE_CURVE ( 'NONE', #10, #741, #259, .T. ) ;
#996 = DIRECTION ( 'NONE',  ( -0.000000000000000000, -0.000000000000000000, -1.000000000000000000 ) ) ;
#997 = DIRECTION ( 'NONE',  ( -1.000000000000000000, 1.807003620809175864E-16, -0.000000000000000000 ) ) ;
#998 = ORIENTED_EDGE ( 'NONE', *, *, #625, .T. ) ;
#999 =( LENGTH_UNIT ( ) NAMED_UNIT ( * ) SI_UNIT ( .MILLI., .METRE. ) );
#1000 = ORIENTED_EDGE ( 'NONE', *, *, #571, .F. ) ;
#1001 = DIRECTION ( 'NONE',  ( -1.000000000000000000, 8.503546450866700815E-17, 0.000000000000000000 ) ) ;
#1002 = DIRECTION ( 'NONE',  ( 9.856383386231860060E-17, 1.000000000000000000, 0.000000000000000000 ) ) ;
#1003 = ORIENTED_EDGE ( 'NONE', *, *, #606, .F. ) ;
#1004 = PLANE ( 'NONE',  #482 ) ;
#1005 = CARTESIAN_POINT ( 'NONE',  ( 2.790000000000000480, 0.6649999999999992584, -1.574999999999999734 ) ) ;
#1006 = ORIENTED_EDGE ( 'NONE', *, *, #1108, .T. ) ;
#1007 = AXIS2_PLACEMENT_3D ( 'NONE', #765, #555, #897 ) ;
#1008 = ORIENTED_EDGE ( 'NONE', *, *, #612, .T. ) ;
#1009 = CARTESIAN_POINT ( 'NONE',  ( -3.114999999999999769, 0.6649999999999995914, 1.574999999999999956 ) ) ;
#1010 = DIRECTION ( 'NONE',  ( 0.000000000000000000, 0.000000000000000000, -1.000000000000000000 ) ) ;
#1011 = EDGE_CURVE ( 'NONE', #229, #393, #576, .T. ) ;
#1012 = EDGE_LOOP ( 'NONE', ( #692, #708, #762, #728 ) ) ;
#1013 = CARTESIAN_POINT ( 'NONE',  ( -3.114999999999999769, 0.6649999999999995914, -1.574999999999999956 ) ) ;
#1014 = VERTEX_POINT ( 'NONE', #1356 ) ;
#1015 = CARTESIAN_POINT ( 'NONE',  ( 3.149999999999999467, -3.857637417314162196E-16, 1.574999999999999956 ) ) ;
#1016 =( LENGTH_UNIT ( ) NAMED_UNIT ( * ) SI_UNIT ( .MILLI., .METRE. ) );
#1017 = ORIENTED_EDGE ( 'NONE', *, *, #612, .F. ) ;
#1018 = PRODUCT_DEFINITION_CONTEXT ( 'detailed design', #1254, 'design' ) ;
#1019 = ORIENTED_EDGE ( 'NONE', *, *, #615, .T. ) ;
#1020 = ADVANCED_FACE ( 'NONE', ( #1031 ), #641, .F. ) ;
#1021 = CARTESIAN_POINT ( 'NONE',  ( 2.790000000000000480, 0.6649999999999992584, -1.574999999999999734 ) ) ;
#1022 = ORIENTED_EDGE ( 'NONE', *, *, #130, .T. ) ;
#1023 = PLANE ( 'NONE',  #844 ) ;
#1024 = ADVANCED_FACE ( 'NONE', ( #725 ), #631, .T. ) ;
#1025 = DIRECTION ( 'NONE',  ( -1.000000000000000000, 0.000000000000000000, 0.000000000000000000 ) ) ;
#1026 = CARTESIAN_POINT ( 'NONE',  ( 2.790000000000000924, 0.6649999999999992584, 1.574999999999998845 ) ) ;
#1027 = EDGE_CURVE ( 'NONE', #717, #465, #814, .T. ) ;
#1028 = DIRECTION ( 'NONE',  ( 1.000000000000000000, 6.429395695523600208E-16, -0.000000000000000000 ) ) ;
#1029 = AXIS2_PLACEMENT_3D ( 'NONE', #609, #552, #1161 ) ;
#1030 =( LENGTH_UNIT ( ) NAMED_UNIT ( * ) SI_UNIT ( .MILLI., .METRE. ) );
#1031 = FACE_OUTER_BOUND ( 'NONE', #417, .T. ) ;
#1032 = CARTESIAN_POINT ( 'NONE',  ( -2.790000000000000036, 0.6999999999999992895, 1.050000000000000044 ) ) ;
#1033 = DIRECTION ( 'NONE',  ( 1.000000000000000000, 0.000000000000000000, 0.000000000000000000 ) ) ;
#1034 = PLANE ( 'NONE',  #330 ) ;
#1035 = ADVANCED_FACE ( 'NONE', ( #1303 ), #195, .F. ) ;
#1036 = CARTESIAN_POINT ( 'NONE',  ( 3.114999999999999769, 0.6649999999999995914, 1.574999999999999956 ) ) ;
#1037 = AXIS2_PLACEMENT_3D ( 'NONE', #67, #772, #1327 ) ;
#1038 = PRESENTATION_LAYER_ASSIGNMENT (  '', '', ( #611 ) ) ;
#1039 = SURFACE_STYLE_USAGE ( .BOTH. , #1330 ) ;
#1040 = CARTESIAN_POINT ( 'NONE',  ( 2.790000000000000480, 0.6999999999999987343, -1.049999999999999822 ) ) ;
#1041 = CARTESIAN_POINT ( 'NONE',  ( 2.549999999999999378, 0.03499999999999991313, 1.574999999999999956 ) ) ;
#1042 = EDGE_CURVE ( 'NONE', #1167, #736, #1325, .T. ) ;
#1043 = STYLED_ITEM ( 'NONE', ( #421 ), #4 ) ;
#1044 = ADVANCED_FACE ( 'NONE', ( #1286 ), #1374, .T. ) ;
#1045 = DIRECTION ( 'NONE',  ( 9.856383386231857595E-17, 1.000000000000000000, -0.000000000000000000 ) ) ;
#1046 = DIRECTION ( 'NONE',  ( 0.000000000000000000, -0.000000000000000000, -1.000000000000000000 ) ) ;
#1047 = DIRECTION ( 'NONE',  ( -1.000000000000000000, 4.517509052022931526E-16, 3.614007241618345221E-15 ) ) ;
#1048 = ADVANCED_FACE ( 'NONE', ( #835 ), #1023, .F. ) ;
#1049 = MECHANICAL_DESIGN_GEOMETRIC_PRESENTATION_REPRESENTATION (  '', ( #611 ), #86 ) ;
#1050 = EDGE_CURVE ( 'NONE', #219, #755, #838, .T. ) ;
#1051 = CARTESIAN_POINT ( 'NONE',  ( 3.149999999999999467, 0.6999999999999995115, 1.574999999999999956 ) ) ;
#1052 = CARTESIAN_POINT ( 'NONE',  ( -2.549999999999999378, 0.03499999999999991313, 1.574999999999999956 ) ) ;
#1053 = AXIS2_PLACEMENT_3D ( 'NONE', #183, #1322, #122 ) ;
#1054 = UNCERTAINTY_MEASURE_WITH_UNIT (LENGTH_MEASURE( 1.000000000000000082E-05 ), #104, 'distance_accuracy_value', 'NONE');
#1055 = PRODUCT ( '6.33.150.70.60.6', '6.33.150.70.60.6', '', ( #876 ) ) ;
#1056 = ADVANCED_FACE ( 'NONE', ( #350 ), #598, .F. ) ;
#1057 = CARTESIAN_POINT ( 'NONE',  ( -2.549999999999999378, 0.000000000000000000, 1.574999999999999956 ) ) ;
#1058 = CARTESIAN_POINT ( 'NONE',  ( -3.114999999999999769, 0.6649999999999995914, 1.574999999999999956 ) ) ;
#1059 = SURFACE_STYLE_USAGE ( .BOTH. , #1287 ) ;
#1060 =( GEOMETRIC_REPRESENTATION_CONTEXT ( 3 ) GLOBAL_UNCERTAINTY_ASSIGNED_CONTEXT ( ( #1371 ) ) GLOBAL_UNIT_ASSIGNED_CONTEXT ( ( #1344, #575, #222 ) ) REPRESENTATION_CONTEXT ( 'NONE', 'WORKASPACE' ) );
#1061 = DIRECTION ( 'NONE',  ( 1.000000000000000000, -6.429395695523600208E-16, 0.000000000000000000 ) ) ;
#1062 = EDGE_CURVE ( 'NONE', #736, #393, #1295, .T. ) ;
#1063 = PLANE ( 'NONE',  #642 ) ;
#1064 = DIRECTION ( 'NONE',  ( 0.000000000000000000, 1.000000000000000000, 0.000000000000000000 ) ) ;
#1065 = CARTESIAN_POINT ( 'NONE',  ( -2.790000000000000480, 0.6649999999999995914, -1.574999999999999956 ) ) ;
#1066 = DIRECTION ( 'NONE',  ( 0.000000000000000000, 1.000000000000000000, 0.000000000000000000 ) ) ;
#1067 = EDGE_CURVE ( 'NONE', #30, #206, #1320, .T. ) ;
#1068 = CARTESIAN_POINT ( 'NONE',  ( -2.550000000000000266, 0.6999999999999992895, -1.049999999999999600 ) ) ;
#1069 = CARTESIAN_POINT ( 'NONE',  ( 2.550000000000000266, 0.6649999999999995914, 1.574999999999999956 ) ) ;
#1070 = PRESENTATION_LAYER_ASSIGNMENT (  '', '', ( #583 ) ) ;
#1071 = CARTESIAN_POINT ( 'NONE',  ( 2.550000000000000266, 0.6999999999999988454, -1.574999999999999956 ) ) ;
#1072 = DIRECTION ( 'NONE',  ( -1.000000000000000000, 4.517509052022931526E-16, 3.614007241618345221E-15 ) ) ;
#1073 = CARTESIAN_POINT ( 'NONE',  ( -3.114999999999999769, 0.03499999999999985068, -1.574999999999999956 ) ) ;
#1074 =( LENGTH_UNIT ( ) NAMED_UNIT ( * ) SI_UNIT ( .MILLI., .METRE. ) );
#1075 = CARTESIAN_POINT ( 'NONE',  ( 2.549999999999999378, 0.03499999999999991313, 1.574999999999999956 ) ) ;
#1076 = CARTESIAN_POINT ( 'NONE',  ( 3.114999999999999769, 0.6649999999999995914, 1.574999999999999956 ) ) ;
#1077 = ADVANCED_BREP_SHAPE_REPRESENTATION ( '6.33.150.70.60.6', ( #318, #101, #136, #1262, #345 ), #107 ) ;
#1078 = AXIS2_PLACEMENT_3D ( 'NONE', #434, #1066, #613 ) ;
#1079 = CARTESIAN_POINT ( 'NONE',  ( 3.114999999999999769, 0.03499999999999985068, -7.836772911883660875 ) ) ;
#1080 = EDGE_CURVE ( 'NONE', #1341, #1158, #1280, .T. ) ;
#1081 = MECHANICAL_DESIGN_GEOMETRIC_PRESENTATION_REPRESENTATION (  '', ( #832 ), #759 ) ;
#1082 = CARTESIAN_POINT ( 'NONE',  ( 3.149999999999999467, 0.6999999999999995115, 1.574999999999999956 ) ) ;
#1083 = DIRECTION ( 'NONE',  ( 9.856383386231857595E-17, 1.000000000000000000, -0.000000000000000000 ) ) ;
#1084 = DIRECTION ( 'NONE',  ( 9.856383386231857595E-17, 1.000000000000000000, -0.000000000000000000 ) ) ;
#1085 = CARTESIAN_POINT ( 'NONE',  ( -2.550000000000000711, -5.329372360806425846, -1.574999999999999956 ) ) ;
#1086 = DIRECTION ( 'NONE',  ( 1.000000000000000000, -1.199338686377769700E-16, 0.000000000000000000 ) ) ;
#1087 = DIRECTION ( 'NONE',  ( 0.000000000000000000, -0.000000000000000000, -1.000000000000000000 ) ) ;
#1088 = CARTESIAN_POINT ( 'NONE',  ( 2.790000000000000924, 0.6999999999999987343, 1.574999999999998845 ) ) ;
#1089 = PRODUCT_RELATED_PRODUCT_CATEGORY ( 'part', '', ( #1055 ) ) ;
#1090 = DIRECTION ( 'NONE',  ( -1.807003620809175864E-16, -1.000000000000000000, 0.000000000000000000 ) ) ;
#1091 = EDGE_CURVE ( 'NONE', #333, #428, #1291, .T. ) ;
#1092 = CARTESIAN_POINT ( 'NONE',  ( -2.550000000000000266, 0.6999999999999994005, 1.574999999999999956 ) ) ;
#1093 = DIRECTION ( 'NONE',  ( -1.376764663473656463E-16, 0.000000000000000000, -1.000000000000000000 ) ) ;
#1094 = EDGE_CURVE ( 'NONE', #697, #730, #812, .T. ) ;
#1095 =( NAMED_UNIT ( * ) PLANE_ANGLE_UNIT ( ) SI_UNIT ( $, .RADIAN. ) );
#1096 = FILL_AREA_STYLE ('',( #506 ) ) ;
#1097 = ADVANCED_FACE ( 'NONE', ( #369 ), #597, .T. ) ;
#1098 = DIRECTION ( 'NONE',  ( 9.856383386231857595E-17, 1.000000000000000000, -0.000000000000000000 ) ) ;
#1099 = SURFACE_STYLE_FILL_AREA ( #696 ) ;
#1100 = FILL_AREA_STYLE_COLOUR ( '', #99 ) ;
#1101 = LINE ( 'NONE', #720, #1133 ) ;
#1102 = DIRECTION ( 'NONE',  ( -0.000000000000000000, -0.000000000000000000, 1.000000000000000000 ) ) ;
#1103 = SURFACE_SIDE_STYLE ('',( #508 ) ) ;
#1104 = VECTOR ( 'NONE', #547, 1000.000000000000000 ) ;
#1105 = SURFACE_STYLE_USAGE ( .BOTH. , #663 ) ;
#1106 = VECTOR ( 'NONE', #727, 1000.000000000000000 ) ;
#1107 = DIRECTION ( 'NONE',  ( -1.000000000000000000, 0.000000000000000000, -0.000000000000000000 ) ) ;
#1108 = EDGE_CURVE ( 'NONE', #291, #948, #384, .T. ) ;
#1109 = VECTOR ( 'NONE', #991, 1000.000000000000000 ) ;
#1110 = CARTESIAN_POINT ( 'NONE',  ( 2.549999999999999378, 0.03499999999999991313, -1.574999999999999956 ) ) ;
#1111 = SURFACE_STYLE_FILL_AREA ( #668 ) ;
#1112 =( NAMED_UNIT ( * ) PLANE_ANGLE_UNIT ( ) SI_UNIT ( $, .RADIAN. ) );
#1113 = VECTOR ( 'NONE', #1138, 1000.000000000000000 ) ;
#1114 = PRESENTATION_STYLE_ASSIGNMENT (( #1148 ) ) ;
#1115 = FACE_OUTER_BOUND ( 'NONE', #411, .T. ) ;
#1116 = DIRECTION ( 'NONE',  ( -1.000000000000000000, 0.000000000000000000, -0.000000000000000000 ) ) ;
#1117 = LINE ( 'NONE', #1069, #169 ) ;
#1118 = STYLED_ITEM ( 'NONE', ( #1405 ), #1387 ) ;
#1119 = PRESENTATION_STYLE_ASSIGNMENT (( #194 ) ) ;
#1120 = ADVANCED_FACE ( 'NONE', ( #841 ), #1130, .T. ) ;
#1121 = CARTESIAN_POINT ( 'NONE',  ( -2.550000000000000266, 0.6649999999999998135, -1.049999999999999600 ) ) ;
#1122 = PLANE ( 'NONE',  #383 ) ;
#1123 = EDGE_CURVE ( 'NONE', #709, #225, #1298, .T. ) ;
#1124 = LINE ( 'NONE', #308, #630 ) ;
#1125 = AXIS2_PLACEMENT_3D ( 'NONE', #56, #124, #193 ) ;
#1126 = LINE ( 'NONE', #977, #1113 ) ;
#1127 = LINE ( 'NONE', #21, #188 ) ;
#1128 = CARTESIAN_POINT ( 'NONE',  ( 2.549999999999999378, 0.000000000000000000, 1.574999999999999956 ) ) ;
#1129 = ADVANCED_FACE ( 'NONE', ( #389 ), #1122, .F. ) ;
#1130 = PLANE ( 'NONE',  #813 ) ;
#1131 = VECTOR ( 'NONE', #825, 1000.000000000000000 ) ;
#1132 = UNCERTAINTY_MEASURE_WITH_UNIT (LENGTH_MEASURE( 1.000000000000000082E-05 ), #1016, 'distance_accuracy_value', 'NONE');
#1133 = VECTOR ( 'NONE', #997, 1000.000000000000000 ) ;
#1134 = AXIS2_PLACEMENT_3D ( 'NONE', #761, #363, #60 ) ;
#1135 = FACE_OUTER_BOUND ( 'NONE', #1195, .T. ) ;
#1136 = EDGE_CURVE ( 'NONE', #781, #717, #1306, .T. ) ;
#1137 = LINE ( 'NONE', #430, #1145 ) ;
#1138 = DIRECTION ( 'NONE',  ( 0.000000000000000000, 1.000000000000000000, 0.000000000000000000 ) ) ;
#1139 = LINE ( 'NONE', #556, #200 ) ;
#1140 = PRESENTATION_LAYER_ASSIGNMENT (  '', '', ( #1043 ) ) ;
#1141 = PLANE ( 'NONE',  #2 ) ;
#1142 = VECTOR ( 'NONE', #47, 1000.000000000000000 ) ;
#1143 = VERTEX_POINT ( 'NONE', #147 ) ;
#1144 = CARTESIAN_POINT ( 'NONE',  ( 3.114999999999999769, 0.6649999999999995914, -7.836772911883660875 ) ) ;
#1145 = VECTOR ( 'NONE', #1282, 1000.000000000000000 ) ;
#1146 = ORIENTED_EDGE ( 'NONE', *, *, #1062, .F. ) ;
#1147 = ORIENTED_EDGE ( 'NONE', *, *, #355, .T. ) ;
#1148 = SURFACE_STYLE_USAGE ( .BOTH. , #819 ) ;
#1149 = CARTESIAN_POINT ( 'NONE',  ( -2.550000000000000266, 0.6999999999999992895, -1.574999999999999956 ) ) ;
#1150 = FILL_AREA_STYLE_COLOUR ( '', #871 ) ;
#1151 = CARTESIAN_POINT ( 'NONE',  ( -2.549999999999999378, 0.03499999999999991313, 1.574999999999999956 ) ) ;
#1152 = LINE ( 'NONE', #862, #719 ) ;
#1153 = EDGE_LOOP ( 'NONE', ( #810, #797, #1377, #925 ) ) ;
#1154 = ORIENTED_EDGE ( 'NONE', *, *, #1108, .F. ) ;
#1155 = DIRECTION ( 'NONE',  ( 1.000000000000000000, 6.429395695523600208E-16, -0.000000000000000000 ) ) ;
#1156 = EDGE_LOOP ( 'NONE', ( #272, #1205, #1017, #83, #546, #1214, #693, #91 ) ) ;
#1157 = EDGE_CURVE ( 'NONE', #905, #798, #394, .T. ) ;
#1158 = VERTEX_POINT ( 'NONE', #1365 ) ;
#1159 = FILL_AREA_STYLE ('',( #845 ) ) ;
#1160 = EDGE_CURVE ( 'NONE', #219, #12, #1335, .T. ) ;
#1161 = DIRECTION ( 'NONE',  ( 0.000000000000000000, -0.000000000000000000, 1.000000000000000000 ) ) ;
#1162 = FILL_AREA_STYLE_COLOUR ( '', #824 ) ;
#1163 = ORIENTED_EDGE ( 'NONE', *, *, #780, .T. ) ;
#1164 = ORIENTED_EDGE ( 'NONE', *, *, #406, .T. ) ;
#1165 = FILL_AREA_STYLE ('',( #182 ) ) ;
#1166 = DIRECTION ( 'NONE',  ( 0.000000000000000000, -0.000000000000000000, -1.000000000000000000 ) ) ;
#1167 = VERTEX_POINT ( 'NONE', #1041 ) ;
#1168 = VERTEX_POINT ( 'NONE', #105 ) ;
#1169 = DIRECTION ( 'NONE',  ( 0.000000000000000000, 1.000000000000000000, 0.000000000000000000 ) ) ;
#1170 = CARTESIAN_POINT ( 'NONE',  ( 2.550000000000000266, 0.6649999999999993694, -1.050000000000000044 ) ) ;
#1171 = ORIENTED_EDGE ( 'NONE', *, *, #151, .F. ) ;
#1172 =( NAMED_UNIT ( * ) PLANE_ANGLE_UNIT ( ) SI_UNIT ( $, .RADIAN. ) );
#1173 = EDGE_LOOP ( 'NONE', ( #282, #332, #388, #429, #492, #1359, #1264, #504 ) ) ;
#1174 = DIRECTION ( 'NONE',  ( 0.000000000000000000, 0.000000000000000000, 1.000000000000000000 ) ) ;
#1175 = CARTESIAN_POINT ( 'NONE',  ( 2.550000000000000711, 0.6649999999999993694, 1.049999999999999822 ) ) ;
#1176 =( GEOMETRIC_REPRESENTATION_CONTEXT ( 3 ) GLOBAL_UNCERTAINTY_ASSIGNED_CONTEXT ( ( #566 ) ) GLOBAL_UNIT_ASSIGNED_CONTEXT ( ( #1263, #732, #543 ) ) REPRESENTATION_CONTEXT ( 'NONE', 'WORKASPACE' ) );
#1177 = ORIENTED_EDGE ( 'NONE', *, *, #27, .F. ) ;
#1178 = ORIENTED_EDGE ( 'NONE', *, *, #1296, .T. ) ;
#1179 = PLANE ( 'NONE',  #478 ) ;
#1180 = PLANE ( 'NONE',  #969 ) ;
#1181 = VERTEX_POINT ( 'NONE', #85 ) ;
#1182 = ADVANCED_FACE ( 'NONE', ( #861 ), #168, .F. ) ;
#1183 = ORIENTED_EDGE ( 'NONE', *, *, #1027, .F. ) ;
#1184 = CARTESIAN_POINT ( 'NONE',  ( 2.550000000000000266, 0.6999999999999988454, -1.574999999999999956 ) ) ;
#1185 = ORIENTED_EDGE ( 'NONE', *, *, #1011, .T. ) ;
#1186 = ORIENTED_EDGE ( 'NONE', *, *, #615, .F. ) ;
#1187 = PRESENTATION_LAYER_ASSIGNMENT (  '', '', ( #1367 ) ) ;
#1188 = CARTESIAN_POINT ( 'NONE',  ( -3.149999999999999467, -3.857637417314162196E-16, -1.574999999999999956 ) ) ;
#1189 = DIRECTION ( 'NONE',  ( 9.856383386231860060E-17, 1.000000000000000000, 0.000000000000000000 ) ) ;
#1190 = ORIENTED_EDGE ( 'NONE', *, *, #966, .T. ) ;
#1191 = VECTOR ( 'NONE', #561, 1000.000000000000000 ) ;
#1192 = DIRECTION ( 'NONE',  ( 9.856383386231860060E-17, 1.000000000000000000, 0.000000000000000000 ) ) ;
#1193 = EDGE_CURVE ( 'NONE', #850, #232, #1360, .T. ) ;
#1194 = CARTESIAN_POINT ( 'NONE',  ( -2.550000000000000266, 0.6649999999999998135, -1.574999999999999956 ) ) ;
#1195 = EDGE_LOOP ( 'NONE', ( #1235, #553, #1147, #1164 ) ) ;
#1196 = LINE ( 'NONE', #665, #310 ) ;
#1197 = AXIS2_PLACEMENT_3D ( 'NONE', #1175, #1308, #52 ) ;
#1198 = DIRECTION ( 'NONE',  ( 0.000000000000000000, 1.000000000000000000, 0.000000000000000000 ) ) ;
#1199 = FILL_AREA_STYLE ('',( #237 ) ) ;
#1200 = ORIENTED_EDGE ( 'NONE', *, *, #1091, .T. ) ;
#1201 = ADVANCED_FACE ( 'NONE', ( #412 ), #1063, .F. ) ;
#1202 = ORIENTED_EDGE ( 'NONE', *, *, #1050, .T. ) ;
#1203 = PLANE ( 'NONE',  #982 ) ;
#1204 = DIRECTION ( 'NONE',  ( 1.000000000000000000, -1.807003620809175864E-16, 0.000000000000000000 ) ) ;
#1205 = ORIENTED_EDGE ( 'NONE', *, *, #1339, .T. ) ;
#1206 = LINE ( 'NONE', #1151, #1191 ) ;
#1207 = DIRECTION ( 'NONE',  ( -1.000000000000000000, 0.000000000000000000, 0.000000000000000000 ) ) ;
#1208 = PLANE ( 'NONE',  #228 ) ;
#1209 = ORIENTED_EDGE ( 'NONE', *, *, #327, .T. ) ;
#1210 = FILL_AREA_STYLE_COLOUR ( '', #914 ) ;
#1211 = CARTESIAN_POINT ( 'NONE',  ( -3.149999999999999467, -3.857637417314162196E-16, 1.574999999999999956 ) ) ;
#1212 = ORIENTED_EDGE ( 'NONE', *, *, #27, .T. ) ;
#1213 = STYLED_ITEM ( 'NONE', ( #1222 ), #1024 ) ;
#1214 = ORIENTED_EDGE ( 'NONE', *, *, #151, .T. ) ;
#1215 = EDGE_CURVE ( 'NONE', #1181, #441, #896, .T. ) ;
#1216 = ORIENTED_EDGE ( 'NONE', *, *, #1123, .T. ) ;
#1217 = COLOUR_RGB ( '',0.2509803921568627416, 0.2509803921568627416, 0.2509803921568627416 ) ;
#1218 = CARTESIAN_POINT ( 'NONE',  ( 2.549999999999999378, 0.03499999999999991313, 1.574999999999999956 ) ) ;
#1219 = CARTESIAN_POINT ( 'NONE',  ( -3.114999999999999769, 0.6649999999999995914, -1.574999999999999956 ) ) ;
#1220 = VERTEX_POINT ( 'NONE', #386 ) ;
#1221 = PRESENTATION_LAYER_ASSIGNMENT (  '', '', ( #309 ) ) ;
#1222 = PRESENTATION_STYLE_ASSIGNMENT (( #912 ) ) ;
#1223 =( NAMED_UNIT ( * ) SI_UNIT ( $, .STERADIAN. ) SOLID_ANGLE_UNIT ( ) );
#1224 = CARTESIAN_POINT ( 'NONE',  ( 2.790000000000000480, 0.6649999999999992584, -1.574999999999999734 ) ) ;
#1225 = ORIENTED_EDGE ( 'NONE', *, *, #851, .T. ) ;
#1226 = LINE ( 'NONE', #1036, #305 ) ;
#1227 = ORIENTED_EDGE ( 'NONE', *, *, #539, .T. ) ;
#1228 = CARTESIAN_POINT ( 'NONE',  ( -2.549999999999999378, 0.03499999999999991313, -1.574999999999999956 ) ) ;
#1229 = ORIENTED_EDGE ( 'NONE', *, *, #829, .T. ) ;
#1230 = EDGE_LOOP ( 'NONE', ( #866, #1396, #1178, #480 ) ) ;
#1231 = CARTESIAN_POINT ( 'NONE',  ( -2.549999999999999378, 0.000000000000000000, 1.574999999999999956 ) ) ;
#1232 = DIRECTION ( 'NONE',  ( -1.000000000000000000, 9.856383386231860060E-17, 1.376764663473656463E-16 ) ) ;
#1233 = ORIENTED_EDGE ( 'NONE', *, *, #116, .T. ) ;
#1234 = MECHANICAL_DESIGN_GEOMETRIC_PRESENTATION_REPRESENTATION (  '', ( #1318 ), #964 ) ;
#1235 = ORIENTED_EDGE ( 'NONE', *, *, #647, .F. ) ;
#1236 = VECTOR ( 'NONE', #1370, 1000.000000000000000 ) ;
#1237 = EDGE_CURVE ( 'NONE', #1391, #441, #400, .T. ) ;
#1238 = CLOSED_SHELL ( 'NONE', ( #924, #1348, #267, #599, #674, #688 ) ) ;
#1239 = DIRECTION ( 'NONE',  ( 9.856383386231857595E-17, 1.000000000000000000, -0.000000000000000000 ) ) ;
#1240 = ORIENTED_EDGE ( 'NONE', *, *, #172, .T. ) ;
#1241 = VECTOR ( 'NONE', #1107, 1000.000000000000000 ) ;
#1242 = COLOUR_RGB ( '',0.7921568627450980005, 0.8196078431372548767, 0.9333333333333333481 ) ;
#1243 = CARTESIAN_POINT ( 'NONE',  ( 0.000000000000000000, 0.000000000000000000, -1.574999999999999956 ) ) ;
#1244 = VERTEX_POINT ( 'NONE', #690 ) ;
#1245 = ADVANCED_FACE ( 'NONE', ( #881 ), #96, .F. ) ;
#1246 = ORIENTED_EDGE ( 'NONE', *, *, #489, .T. ) ;
#1247 = ADVANCED_FACE ( 'NONE', ( #1342 ), #297, .F. ) ;
#1248 = ORIENTED_EDGE ( 'NONE', *, *, #602, .F. ) ;
#1249 = VECTOR ( 'NONE', #146, 1000.000000000000000 ) ;
#1250 = ORIENTED_EDGE ( 'NONE', *, *, #160, .F. ) ;
#1251 = CARTESIAN_POINT ( 'NONE',  ( -2.549999999999999822, 0.6999999999999992895, 1.574999999999999956 ) ) ;
#1252 = EDGE_CURVE ( 'NONE', #798, #325, #874, .T. ) ;
#1253 = ORIENTED_EDGE ( 'NONE', *, *, #141, .T. ) ;
#1254 = APPLICATION_CONTEXT ( 'automotive_design' ) ;
#1255 = VERTEX_POINT ( 'NONE', #314 ) ;
#1256 = STYLED_ITEM ( 'NONE', ( #900 ), #688 ) ;
#1257 = EDGE_LOOP ( 'NONE', ( #859, #351, #1281, #498 ) ) ;
#1258 = ORIENTED_EDGE ( 'NONE', *, *, #901, .F. ) ;
#1259 = CARTESIAN_POINT ( 'NONE',  ( 3.114999999999999769, 0.03499999999999985068, -1.574999999999999956 ) ) ;
#1260 = DIRECTION ( 'NONE',  ( 9.856383386231857595E-17, 1.000000000000000000, 0.000000000000000000 ) ) ;
#1261 = ORIENTED_EDGE ( 'NONE', *, *, #987, .F. ) ;
#1262 = MANIFOLD_SOLID_BREP ( 'Cut-Extrude1[2]', #470 ) ;
#1263 =( LENGTH_UNIT ( ) NAMED_UNIT ( * ) SI_UNIT ( .MILLI., .METRE. ) );
#1264 = ORIENTED_EDGE ( 'NONE', *, *, #140, .T. ) ;
#1265 = MECHANICAL_DESIGN_GEOMETRIC_PRESENTATION_REPRESENTATION (  '', ( #82 ), #294 ) ;
#1266 = SURFACE_STYLE_USAGE ( .BOTH. , #1402 ) ;
#1267 = EDGE_LOOP ( 'NONE', ( #1347, #221, #890, #6 ) ) ;
#1268 = AXIS2_PLACEMENT_3D ( 'NONE', #158, #550, #44 ) ;
#1269 = CARTESIAN_POINT ( 'NONE',  ( -2.550000000000000711, 0.6649999999999998135, -1.574999999999999956 ) ) ;
#1270 = VERTEX_POINT ( 'NONE', #1068 ) ;
#1271 = EDGE_CURVE ( 'NONE', #1181, #781, #882, .T. ) ;
#1272 = VECTOR ( 'NONE', #1086, 1000.000000000000000 ) ;
#1273 = DIRECTION ( 'NONE',  ( 0.000000000000000000, 0.000000000000000000, 1.000000000000000000 ) ) ;
#1274 =( NAMED_UNIT ( * ) SI_UNIT ( $, .STERADIAN. ) SOLID_ANGLE_UNIT ( ) );
#1275 = ORIENTED_EDGE ( 'NONE', *, *, #829, .F. ) ;
#1276 = CARTESIAN_POINT ( 'NONE',  ( 2.790000000000000924, 0.6999999999999987343, 1.049999999999998934 ) ) ;
#1277 = MECHANICAL_DESIGN_GEOMETRIC_PRESENTATION_REPRESENTATION (  '', ( #1043 ), #559 ) ;
#1278 = EDGE_LOOP ( 'NONE', ( #209, #1, #1275, #342 ) ) ;
#1279 = VECTOR ( 'NONE', #800, 1000.000000000000000 ) ;
#1280 = LINE ( 'NONE', #523, #818 ) ;
#1281 = ORIENTED_EDGE ( 'NONE', *, *, #544, .T. ) ;
#1282 = DIRECTION ( 'NONE',  ( -1.000000000000000000, -0.000000000000000000, -0.000000000000000000 ) ) ;
#1283 = VECTOR ( 'NONE', #524, 1000.000000000000000 ) ;
#1284 = VECTOR ( 'NONE', #261, 1000.000000000000000 ) ;
#1285 = LINE ( 'NONE', #1211, #364 ) ;
#1286 = FACE_OUTER_BOUND ( 'NONE', #1230, .T. ) ;
#1287 = SURFACE_SIDE_STYLE ('',( #463 ) ) ;
#1288 = FACE_OUTER_BOUND ( 'NONE', #767, .T. ) ;
#1289 = VECTOR ( 'NONE', #1045, 1000.000000000000000 ) ;
#1290 = VECTOR ( 'NONE', #919, 1000.000000000000000 ) ;
#1291 = LINE ( 'NONE', #1388, #809 ) ;
#1292 = PRESENTATION_LAYER_ASSIGNMENT (  '', '', ( #298 ) ) ;
#1293 = CARTESIAN_POINT ( 'NONE',  ( -2.550000000000000266, 0.6999999999999992895, -1.574999999999999956 ) ) ;
#1294 = DIRECTION ( 'NONE',  ( 1.807003620809172610E-15, -1.781052046700434178E-31, 1.000000000000000000 ) ) ;
#1295 = LINE ( 'NONE', #90, #1310 ) ;
#1296 = EDGE_CURVE ( 'NONE', #899, #798, #5, .T. ) ;
#1297 = VECTOR ( 'NONE', #223, 1000.000000000000000 ) ;
#1298 = LINE ( 'NONE', #76, #367 ) ;
#1299 = CARTESIAN_POINT ( 'NONE',  ( 3.114999999999999769, 0.03499999999999985068, 1.574999999999999956 ) ) ;
#1300 = EDGE_CURVE ( 'NONE', #325, #1375, #1366, .T. ) ;
#1301 =( NAMED_UNIT ( * ) SI_UNIT ( $, .STERADIAN. ) SOLID_ANGLE_UNIT ( ) );
#1302 = VECTOR ( 'NONE', #1046, 1000.000000000000000 ) ;
#1303 = FACE_OUTER_BOUND ( 'NONE', #319, .T. ) ;
#1304 =( NAMED_UNIT ( * ) SI_UNIT ( $, .STERADIAN. ) SOLID_ANGLE_UNIT ( ) );
#1305 = VECTOR ( 'NONE', #368, 1000.000000000000000 ) ;
#1306 = LINE ( 'NONE', #1058, #847 ) ;
#1307 = CARTESIAN_POINT ( 'NONE',  ( 0.000000000000000000, 0.000000000000000000, 1.574999999999999956 ) ) ;
#1308 = DIRECTION ( 'NONE',  ( -3.614007241618345221E-15, 3.562104093400868357E-31, -1.000000000000000000 ) ) ;
#1309 = VECTOR ( 'NONE', #256, 1000.000000000000000 ) ;
#1310 = VECTOR ( 'NONE', #963, 1000.000000000000000 ) ;
#1311 = CARTESIAN_POINT ( 'NONE',  ( -2.790000000000000036, 0.6999999999999992895, 1.574999999999999956 ) ) ;
#1312 = FACE_OUTER_BOUND ( 'NONE', #399, .T. ) ;
#1313 = CARTESIAN_POINT ( 'NONE',  ( 3.114999999999999769, 0.03499999999999985068, -1.574999999999999956 ) ) ;
#1314 = DIRECTION ( 'NONE',  ( 1.000000000000000000, 0.000000000000000000, 0.000000000000000000 ) ) ;
#1315 = SURFACE_STYLE_FILL_AREA ( #1199 ) ;
#1316 = VECTOR ( 'NONE', #931, 1000.000000000000000 ) ;
#1317 =( NAMED_UNIT ( * ) PLANE_ANGLE_UNIT ( ) SI_UNIT ( $, .RADIAN. ) );
#1318 = STYLED_ITEM ( 'NONE', ( #973 ), #1077 ) ;
#1319 = CARTESIAN_POINT ( 'NONE',  ( -2.550000000000000266, -5.329372360806425846, 1.574999999999999956 ) ) ;
#1320 = LINE ( 'NONE', #684, #344 ) ;
#1321 = CARTESIAN_POINT ( 'NONE',  ( 3.114999999999999769, 0.03499999999999985068, 1.574999999999999956 ) ) ;
#1322 = DIRECTION ( 'NONE',  ( 1.000000000000000000, 0.000000000000000000, 0.000000000000000000 ) ) ;
#1323 = EDGE_CURVE ( 'NONE', #726, #784, #1373, .T. ) ;
#1324 = PRESENTATION_STYLE_ASSIGNMENT (( #529 ) ) ;
#1325 = LINE ( 'NONE', #1218, #1272 ) ;
#1326 = CARTESIAN_POINT ( 'NONE',  ( 3.114999999999999769, 0.03499999999999985068, -1.574999999999999956 ) ) ;
#1327 = DIRECTION ( 'NONE',  ( 0.000000000000000000, 0.000000000000000000, 1.000000000000000000 ) ) ;
#1328 = VECTOR ( 'NONE', #197, 1000.000000000000000 ) ;
#1329 = SURFACE_STYLE_USAGE ( .BOTH. , #574 ) ;
#1330 = SURFACE_SIDE_STYLE ('',( #485 ) ) ;
#1331 = VERTEX_POINT ( 'NONE', #115 ) ;
#1332 = SURFACE_STYLE_USAGE ( .BOTH. , #855 ) ;
#1333 = CARTESIAN_POINT ( 'NONE',  ( -2.550000000000000266, 0.6649999999999998135, 1.574999999999999956 ) ) ;
#1334 = ORIENTED_EDGE ( 'NONE', *, *, #1080, .F. ) ;
#1335 = LINE ( 'NONE', #826, #337 ) ;
#1336 = CARTESIAN_POINT ( 'NONE',  ( 0.000000000000000000, 0.000000000000000000, -1.574999999999999956 ) ) ;
#1337 = VERTEX_POINT ( 'NONE', #476 ) ;
#1338 =( LENGTH_UNIT ( ) NAMED_UNIT ( * ) SI_UNIT ( .MILLI., .METRE. ) );
#1339 = EDGE_CURVE ( 'NONE', #1220, #700, #464, .T. ) ;
#1340 = ADVANCED_FACE ( 'NONE', ( #424 ), #1004, .F. ) ;
#1341 = VERTEX_POINT ( 'NONE', #737 ) ;
#1342 = FACE_OUTER_BOUND ( 'NONE', #1173, .T. ) ;
#1343 =( GEOMETRIC_REPRESENTATION_CONTEXT ( 3 ) GLOBAL_UNCERTAINTY_ASSIGNED_CONTEXT ( ( #142 ) ) GLOBAL_UNIT_ASSIGNED_CONTEXT ( ( #560, #629, #875 ) ) REPRESENTATION_CONTEXT ( 'NONE', 'WORKASPACE' ) );
#1344 =( LENGTH_UNIT ( ) NAMED_UNIT ( * ) SI_UNIT ( .MILLI., .METRE. ) );
#1345 = VECTOR ( 'NONE', #1098, 1000.000000000000000 ) ;
#1346 = DIRECTION ( 'NONE',  ( -6.429395695523600208E-16, 1.000000000000000000, 0.000000000000000000 ) ) ;
#1347 = ORIENTED_EDGE ( 'NONE', *, *, #944, .F. ) ;
#1348 = ADVANCED_FACE ( 'NONE', ( #1399 ), #331, .F. ) ;
#1349 = COLOUR_RGB ( '',0.7921568627450980005, 0.8196078431372548767, 0.9333333333333333481 ) ;
#1350 = VECTOR ( 'NONE', #48, 1000.000000000000000 ) ;
#1351 = SURFACE_STYLE_FILL_AREA ( #165 ) ;
#1352 = VECTOR ( 'NONE', #601, 1000.000000000000000 ) ;
#1353 = CARTESIAN_POINT ( 'NONE',  ( -2.549999999999999822, 0.6999999999999992895, 1.050000000000000044 ) ) ;
#1354 = LINE ( 'NONE', #639, #1385 ) ;
#1355 = ORIENTED_EDGE ( 'NONE', *, *, #716, .T. ) ;
#1356 = CARTESIAN_POINT ( 'NONE',  ( 2.550000000000000711, 0.6649999999999993694, 1.049999999999999822 ) ) ;
#1357 = DIRECTION ( 'NONE',  ( -1.000000000000000000, 0.000000000000000000, 0.000000000000000000 ) ) ;
#1358 = LINE ( 'NONE', #1353, #454 ) ;
#1359 = ORIENTED_EDGE ( 'NONE', *, *, #45, .T. ) ;
#1360 = LINE ( 'NONE', #837, #415 ) ;
#1361 = CARTESIAN_POINT ( 'NONE',  ( 0.000000000000000000, 0.000000000000000000, 0.000000000000000000 ) ) ;
#1362 = FACE_OUTER_BOUND ( 'NONE', #242, .T. ) ;
#1363 = SURFACE_STYLE_USAGE ( .BOTH. , #376 ) ;
#1364 = ORIENTED_EDGE ( 'NONE', *, *, #995, .F. ) ;
#1365 = CARTESIAN_POINT ( 'NONE',  ( -2.790000000000000036, 0.6999999999999994005, 1.574999999999999956 ) ) ;
#1366 = LINE ( 'NONE', #1293, #419 ) ;
#1367 = STYLED_ITEM ( 'NONE', ( #121 ), #1020 ) ;
#1368 = ORIENTED_EDGE ( 'NONE', *, *, #1300, .F. ) ;
#1369 = ADVANCED_FACE ( 'NONE', ( #1383 ), #621, .F. ) ;
#1370 = DIRECTION ( 'NONE',  ( -0.000000000000000000, 1.000000000000000000, -0.000000000000000000 ) ) ;
#1371 = UNCERTAINTY_MEASURE_WITH_UNIT (LENGTH_MEASURE( 1.000000000000000082E-05 ), #1344, 'distance_accuracy_value', 'NONE');
#1372 = EDGE_CURVE ( 'NONE', #206, #1255, #902, .T. ) ;
#1373 = LINE ( 'NONE', #457, #853 ) ;
#1374 = PLANE ( 'NONE',  #985 ) ;
#1375 = VERTEX_POINT ( 'NONE', #128 ) ;
#1376 = PRESENTATION_LAYER_ASSIGNMENT (  '', '', ( #628 ) ) ;
#1377 = ORIENTED_EDGE ( 'NONE', *, *, #557, .T. ) ;
#1378 = PLANE ( 'NONE',  #854 ) ;
#1379 = VECTOR ( 'NONE', #1002, 1000.000000000000000 ) ;
#1380 = DIRECTION ( 'NONE',  ( 1.000000000000000000, -9.856383386231857595E-17, 0.000000000000000000 ) ) ;
#1381 = VERTEX_POINT ( 'NONE', #1321 ) ;
#1382 = LINE ( 'NONE', #1073, #904 ) ;
#1383 = FACE_OUTER_BOUND ( 'NONE', #710, .T. ) ;
#1384 = ORIENTED_EDGE ( 'NONE', *, *, #1136, .F. ) ;
#1385 = VECTOR ( 'NONE', #1064, 1000.000000000000000 ) ;
#1386 = ORIENTED_EDGE ( 'NONE', *, *, #132, .F. ) ;
#1387 = ADVANCED_FACE ( 'NONE', ( #1395 ), #112, .T. ) ;
#1388 = CARTESIAN_POINT ( 'NONE',  ( -2.790000000000000480, 0.6649999999999999245, -1.049999999999999156 ) ) ;
#1389 = EDGE_LOOP ( 'NONE', ( #497, #322, #888, #1364 ) ) ;
#1390 = LINE ( 'NONE', #502, #1328 ) ;
#1391 = VERTEX_POINT ( 'NONE', #990 ) ;
#1392 = CARTESIAN_POINT ( 'NONE',  ( -2.549999999999999378, 0.000000000000000000, 1.574999999999999956 ) ) ;
#1393 = ORIENTED_EDGE ( 'NONE', *, *, #522, .T. ) ;
#1394 = DIRECTION ( 'NONE',  ( -0.000000000000000000, -0.000000000000000000, -1.000000000000000000 ) ) ;
#1395 = FACE_OUTER_BOUND ( 'NONE', #346, .T. ) ;
#1396 = ORIENTED_EDGE ( 'NONE', *, *, #281, .T. ) ;
#1397 = FACE_OUTER_BOUND ( 'NONE', #750, .T. ) ;
#1398 = EDGE_LOOP ( 'NONE', ( #695, #77, #769, #670, #286, #1186, #535, #260 ) ) ;
#1399 = FACE_OUTER_BOUND ( 'NONE', #317, .T. ) ;
#1400 = UNCERTAINTY_MEASURE_WITH_UNIT (LENGTH_MEASURE( 1.000000000000000082E-05 ), #999, 'distance_accuracy_value', 'NONE');
#1401 = ORIENTED_EDGE ( 'NONE', *, *, #1323, .F. ) ;
#1402 = SURFACE_SIDE_STYLE ('',( #1351 ) ) ;
#1403 = EDGE_CURVE ( 'NONE', #840, #718, #57, .T. ) ;
#1404 = ORIENTED_EDGE ( 'NONE', *, *, #592, .T. ) ;
#1405 = PRESENTATION_STYLE_ASSIGNMENT (( #341 ) ) ;
ENDSEC;
END-ISO-10303-21;
