M48
; DRILL file {KiCad 9.0.5} date 2026-05-07T21:25:41+0200
; FORMAT={-:-/ absolute / metric / decimal}
; #@! TF.CreationDate,2026-05-07T21:25:41+02:00
; #@! TF.GenerationSoftware,Kicad,Pcbnew,9.0.5
; #@! TF.FileFunction,Plated,1,4,PTH
FMAT,2
METRIC
; #@! TA.AperFunction,Plated,PTH,ViaDrill
T1C0.400
; #@! TA.AperFunction,Plated,PTH,ViaDrill
T2C0.600
; #@! TA.AperFunction,Plated,PTH,ViaDrill
T3C0.800
; #@! TA.AperFunction,Plated,PTH,ComponentDrill
T4C0.800
; #@! TA.AperFunction,Plated,PTH,ComponentDrill
T5C0.880
; #@! TA.AperFunction,Plated,PTH,ComponentDrill
T6C1.250
; #@! TA.AperFunction,Plated,PTH,ComponentDrill
T7C1.300
; #@! TA.AperFunction,Plated,PTH,ComponentDrill
T8C1.330
; #@! TA.AperFunction,Plated,PTH,ComponentDrill
T9C1.600
; #@! TA.AperFunction,Plated,PTH,ComponentDrill
T10C2.000
; #@! TA.AperFunction,Plated,PTH,ComponentDrill
T11C3.200
%
G90
G05
T1
X88.812Y-81.944
X91.13Y-144.73
X91.16Y-146.88
X91.23Y-139.27
X91.23Y-141.85
X92.81Y-139.29
X92.85Y-141.86
X92.86Y-146.87
X92.91Y-144.76
X93.15Y-114.609
X94.46Y-146.88
X94.542Y-68.554
X94.542Y-71.347
X94.64Y-144.58
X94.66Y-139.41
X94.66Y-141.85
X96.94Y-139.39
X97.01Y-141.76
X97.01Y-144.56
X97.03Y-146.84
X97.652Y-49.684
X98.692Y-66.984
X99.34Y-139.48
X99.45Y-144.63
X99.5Y-146.84
X99.52Y-141.78
X99.892Y-117.004
X101.232Y-56.784
X101.33Y-141.86
X101.37Y-144.75
X101.37Y-146.87
X101.4Y-139.42
X103.16Y-144.82
X103.16Y-146.9
X103.18Y-141.99
X103.21Y-139.44
X103.71Y-133.463
X105.92Y-128.2
X112.862Y-91.214
X116.142Y-72.074
X116.42Y-126.96
X118.512Y-62.404
X120.232Y-122.194
X120.472Y-68.184
X120.532Y-118.444
X121.12Y-127.38
X122.372Y-65.214
X122.422Y-69.235
X122.702Y-92.354
X122.732Y-61.844
X122.78Y-129.22
X122.79Y-74.95
X122.96Y-121.309
X123.272Y-99.044
X126.272Y-131.204
X126.5Y-77.52
X126.97Y-78.89
T2
X90.45Y-112.334
X93.3Y-106.984
X94.3Y-82.509
X94.45Y-87.159
X110.822Y-113.384
X110.882Y-106.794
X110.882Y-141.284
X110.982Y-134.724
X110.992Y-50.084
X111.242Y-81.507
X111.252Y-56.354
X111.262Y-88.224
T3
X100.48Y-131.65
X132.312Y-133.794
X132.695Y-112.687
X132.882Y-88.094
X133.042Y-141.374
X133.232Y-82.124
X133.332Y-56.424
X133.542Y-107.034
X133.732Y-49.614
X135.522Y-133.384
X136.192Y-80.894
X210.825Y-66.769
X210.83Y-84.63
T4
X126.155Y-95.215
X126.155Y-97.12
X126.155Y-99.025
X126.155Y-100.93
T5
X86.16Y-71.954
X86.16Y-74.494
X86.16Y-77.034
X86.16Y-79.574
X86.16Y-82.114
X86.16Y-84.654
X86.16Y-87.194
X86.16Y-89.734
X86.16Y-92.274
X86.16Y-94.814
X86.16Y-97.354
X86.16Y-99.894
X86.16Y-102.434
X86.16Y-104.974
X86.16Y-107.514
X101.347Y-71.969
X101.347Y-74.509
X101.347Y-77.049
X101.347Y-79.589
X101.347Y-82.129
X101.347Y-84.669
X101.347Y-87.209
X101.347Y-89.749
X101.347Y-92.289
X101.347Y-94.829
X101.347Y-97.369
X101.347Y-99.909
X101.347Y-102.449
X101.347Y-104.989
X101.347Y-107.529
T6
X145.02Y-128.334
X145.02Y-130.874
X145.02Y-133.414
X145.035Y-117.094
X145.035Y-119.634
X145.035Y-122.174
X145.172Y-73.874
X145.172Y-76.414
X145.172Y-78.954
X145.31Y-62.612
X145.31Y-65.152
X145.31Y-67.692
T7
X88.025Y-121.104
X88.025Y-126.184
X136.325Y-91.723
X136.325Y-104.423
X138.865Y-91.723
X138.865Y-104.423
X141.405Y-91.723
X141.405Y-104.423
X143.945Y-91.723
X143.945Y-104.423
T8
X149.423Y-151.334
X149.423Y-153.874
X149.423Y-156.414
T9
X127.97Y-154.699
X127.97Y-157.239
X130.51Y-154.699
X130.51Y-157.239
X136.02Y-154.699
X136.02Y-157.239
X138.56Y-154.699
X138.56Y-157.239
X153.745Y-83.749
X153.745Y-86.289
X156.285Y-83.749
X156.285Y-86.289
X161.595Y-94.309
X161.595Y-96.849
X164.135Y-94.309
X164.135Y-96.849
T10
X179.96Y-83.699
X179.96Y-93.699
X179.985Y-56.424
X179.985Y-66.424
X180.01Y-111.049
X180.01Y-121.049
X180.035Y-138.449
X180.035Y-148.449
X194.785Y-83.624
X194.785Y-93.624
X194.81Y-111.024
X194.81Y-121.024
X194.81Y-138.324
X194.81Y-148.324
X194.91Y-56.574
X194.91Y-66.574
T11
X86.185Y-51.974
X86.235Y-155.074
X210.085Y-51.699
X210.285Y-155.874
M30
